<?xml version="1.0" encoding="UTF-8"?>
<svg id="Layer_1" xmlns="http://www.w3.org/2000/svg" version="1.1" viewBox="0 0 200 200">
  <!-- Generator: Adobe Illustrator 29.3.1, SVG Export Plug-In . SVG Version: 2.1.0 Build 151)  -->
  <defs>
    <style>
      .st0 {
        fill: #202020;
      }

      .st1 {
        fill: #7bffac;
      }
    </style>
  </defs>
  <g>
    <path d="M21.2,85l-10.8-1.6.4-2.5,10.9,1.6c.9,0,1.6.4,2.3.8.7.4,1.3.9,1.8,1.5s.8,1.3,1,2.1.2,1.7,0,2.7c-.1.8-.4,1.6-.7,2.3-.3.7-.8,1.3-1.3,1.8s-1.2.9-1.9,1.1c-.7.2-1.5.3-2.4.2l.3-2.3c1.1,0,1.9-.3,2.5-1,.6-.6,1-1.4,1.2-2.5.1-.9,0-1.6-.2-2.2-.3-.6-.7-1-1.2-1.4-.5-.3-1.2-.6-1.9-.7h0Z"/>
    <path d="M34.8,65c-.8,1.5-1.9,2.7-3.2,3.6s-2.7,1.3-4.2,1.4-3.1-.3-4.6-1.2c-1.6-.9-2.8-1.9-3.5-3.2-.8-1.3-1.2-2.7-1.1-4.2,0-1.5.4-3.1,1.3-4.6.8-1.6,1.9-2.8,3.2-3.6s2.7-1.3,4.2-1.4,3.1.3,4.7,1.2c1.6.8,2.7,1.9,3.5,3.2s1.2,2.7,1.1,4.2-.4,3.1-1.3,4.6h0ZM32.9,63.9c.6-1.1.9-2.2.9-3.3s-.2-2.1-.8-3.1-1.5-1.8-2.7-2.4c-1.3-.7-2.4-1-3.5-.9-1.1,0-2.1.4-3,1s-1.6,1.5-2.2,2.6-.9,2.2-.9,3.3.2,2.1.8,3.1c.6,1,1.5,1.8,2.7,2.4,1.3.7,2.4,1,3.5.9,1.1,0,2.1-.4,3-1s1.6-1.5,2.2-2.6Z"/>
    <path d="M34.9,36.2l1.8-1.8,11.9,12-1.8,1.8-11.9-12Z"/>
    <path d="M69.2,29.1l-.5.6-6.8-12.7,2.2-1.2,8,14.9-2.2,1.2-17-6.8.5-.6,6.8,12.6-2.2,1.2-8-14.9,2.2-1.2s17,6.9,17,6.9Z"/>
    <path d="M110.4,19.5l.6-10.1,2.5.2-.6,10.2c0,1-.2,1.9-.5,2.6s-.7,1.4-1.2,1.9-1.1.9-1.7,1.2c-.7.3-1.4.5-2.1.6s-1.6.1-2.5,0c-.9,0-1.7-.2-2.5-.4-.8-.2-1.5-.5-2.1-.9s-1.2-.9-1.6-1.4c-.4-.6-.7-1.3-.9-2-.2-.8-.3-1.7-.2-2.7l.6-10.2,2.5.2-.6,10.1c0,1.3,0,2.3.5,3,.4.7,1,1.2,1.8,1.5s1.7.5,2.6.6c.9,0,1.8,0,2.6-.2.8-.2,1.5-.6,2-1.3.5-.7.8-1.6.9-2.9h-.1Z"/>
    <path d="M124.9,23.9l2.2.9c-.2.6-.2,1.3,0,2s.5,1.3,1,1.8c.5.5,1.2,1,2.1,1.4.8.3,1.4.5,2,.5s1.1-.1,1.5-.4.7-.6.9-1.1.2-.9,0-1.4c-.1-.4-.4-.8-.9-1.3s-1-.9-1.8-1.4c-.6-.5-1.2-1-1.8-1.5s-1.1-1.1-1.5-1.7-.7-1.2-.8-1.9c0-.7,0-1.4.3-2.1.3-.8.9-1.4,1.6-1.9.7-.5,1.6-.7,2.6-.7s2.1.2,3.3.7c1.9.8,3.1,1.8,3.6,3.2.6,1.3.5,2.8-.2,4.3l-2.2-.9c.4-1.1.4-2,0-2.8-.4-.7-1.2-1.3-2.2-1.8-.9-.4-1.7-.5-2.5-.4-.8,0-1.3.5-1.6,1.3-.1.3-.2.7-.2,1s.2.6.4,1,.6.7,1.1,1.2c.5.4,1.1.9,1.9,1.5.6.4,1.1.9,1.6,1.3.5.5.9,1,1.3,1.5.3.5.5,1.1.6,1.8s0,1.4-.4,2.1c-.3.8-.9,1.5-1.5,2-.7.5-1.5.8-2.5.8s-2.2-.2-3.5-.8c-1.1-.4-1.9-1-2.6-1.6s-1.2-1.2-1.5-1.9c-.3-.7-.5-1.3-.6-1.9v-1.7c0-.5.2-.9.4-1.1h-.1Z"/>
    <path d="M173.7,54c1.3-.7,2.6-.8,4-.4,1.4.4,2.4,1.2,3.1,2.5.7,1.3.8,2.6.4,4s-1.2,2.4-2.5,3.1c-1.3.7-2.6.8-4,.4-1.4-.4-2.4-1.2-3.1-2.5s-.8-2.6-.4-4c.4-1.4,1.2-2.4,2.5-3.1Z"/>
    <path d="M179,114l10.8,1.5-.3,2.5-10.9-1.5c-.9,0-1.6-.4-2.3-.7-.7-.4-1.3-.8-1.8-1.4s-.8-1.3-1-2.1-.2-1.7-.1-2.7c.1-.8.3-1.6.7-2.3s.8-1.3,1.3-1.8,1.2-.9,1.9-1.1,1.5-.3,2.4-.2l-.3,2.3c-1.1,0-1.9.4-2.5,1s-1,1.5-1.1,2.5c-.1.9,0,1.6.2,2.2.3.6.7,1,1.2,1.4.5.3,1.2.6,2,.7l-.2-.3Z"/>
    <path d="M165.6,134.2c.8-1.6,1.8-2.8,3.1-3.6s2.6-1.4,4.2-1.4,3.1.3,4.6,1.1c1.6.8,2.8,1.9,3.6,3.2s1.2,2.7,1.2,4.2-.4,3.1-1.2,4.6c-.8,1.6-1.9,2.8-3.1,3.7-1.3.9-2.6,1.3-4.2,1.4-1.5,0-3.1-.3-4.7-1.1-1.6-.8-2.8-1.9-3.6-3.2s-1.2-2.7-1.2-4.2.4-3.1,1.2-4.6h0ZM167.6,135.2c-.6,1.1-.9,2.2-.9,3.3s.3,2.1.8,3c.6.9,1.5,1.8,2.8,2.4,1.3.7,2.4,1,3.6.9,1.1,0,2.1-.4,3-1s1.6-1.5,2.2-2.6c.6-1.1.9-2.2.9-3.3s-.3-2.1-.8-3.1c-.6-.9-1.5-1.8-2.8-2.4s-2.4-1-3.6-.9c-1.1,0-2.1.4-3,1.1s-1.6,1.5-2.2,2.6Z"/>
    <path d="M165.9,162.9l-1.7,1.8-12-11.8,1.7-1.8,12,11.8Z"/>
    <path d="M131.7,170.5l.5-.6,6.9,12.6-2.2,1.2-8.2-14.8,2.2-1.2,17.1,6.6-.5.6-6.9-12.5,2.2-1.2,8.2,14.8-2.2,1.2-17.1-6.7h0Z"/>
    <path d="M90.6,180.7l-.5,10.1h-2.5c0-.1.5-10.3.5-10.3,0-1,.2-1.9.5-2.6.3-.7.7-1.4,1.2-1.9s1.1-.9,1.7-1.3c.6-.3,1.4-.5,2.1-.6s1.6-.2,2.5-.1c.9,0,1.7.2,2.5.4s1.5.5,2.1.9,1.2.8,1.6,1.4.8,1.3,1,2c.2.8.3,1.7.2,2.7l-.5,10.2h-2.5c0-.1.5-10.2.5-10.2,0-1.3,0-2.3-.6-3-.4-.7-1.1-1.2-1.8-1.5-.8-.3-1.7-.5-2.6-.5s-1.8,0-2.6.3c-.8.2-1.4.7-2,1.3-.5.7-.8,1.7-.9,3v-.3Z"/>
    <path d="M76,176.4l-2.2-.9c.2-.6.2-1.3,0-2s-.5-1.3-1.1-1.8c-.5-.6-1.2-1-2.1-1.4-.8-.3-1.4-.5-2-.5s-1.1.1-1.5.4c-.4.3-.7.6-.9,1.1-.2.5-.2,1,0,1.4s.5.8.9,1.2,1.1.9,1.8,1.4c.6.5,1.2,1,1.8,1.5s1.1,1.1,1.5,1.7.7,1.2.8,1.9c0,.7,0,1.4-.3,2.1-.3.8-.8,1.4-1.5,1.9s-1.5.7-2.6.8-2.1-.2-3.3-.7c-1.9-.8-3.1-1.8-3.7-3.1-.6-1.3-.5-2.8,0-4.3l2.2.9c-.4,1.1-.4,2,0,2.8.4.7,1.2,1.3,2.2,1.7.9.4,1.7.5,2.5.4s1.3-.5,1.6-1.3c0-.3.2-.7,0-1,0-.3-.2-.6-.4-1-.3-.3-.6-.7-1.1-1.2-.5-.4-1.1-.9-1.9-1.5-.6-.4-1.1-.8-1.6-1.3s-.9-1-1.3-1.5c-.3-.5-.5-1.1-.6-1.8,0-.6,0-1.4.4-2.1.3-.8.8-1.5,1.5-2s1.5-.8,2.5-.8,2.2.2,3.5.7c1.1.4,1.9.9,2.6,1.5s1.2,1.2,1.5,1.9c.3.6.6,1.3.7,1.9,0,.6,0,1.2,0,1.7,0,.5-.2.9-.4,1.1l.3.2Z"/>
    <path d="M26.9,147c-1.3.7-2.6.9-4,.5s-2.4-1.2-3.1-2.5c-.7-1.2-.9-2.6-.5-4s1.2-2.4,2.5-3.1,2.6-.9,4-.5,2.4,1.2,3.1,2.5.9,2.6.5,4-1.2,2.4-2.5,3.1Z"/>
  </g>
  <circle class="st1" cx="100" cy="100" r="52.2"/>
  <path id="bx-right-arrow-alt" class="st0" d="M95.8,115.6l4.2,4.2,19.8-19.8-19.8-19.8-4.2,4.2,12.7,12.7h-28.3v5.9h28.3l-12.7,12.7h0Z"/>
</svg>