<svg width="48" height="49" viewBox="0 0 48 49" fill="none" xmlns="http://www.w3.org/2000/svg">
<path d="M23.9642 11.3824C21.29 11.3824 18.7252 12.4447 16.8343 14.3357C14.9433 16.2267 13.8809 18.7914 13.8809 21.4657C13.8809 25.5883 16.4479 29.5654 19.2654 32.6466C20.7061 34.2161 22.278 35.6599 23.9642 36.9622C24.2158 36.7692 24.5111 36.5339 24.8501 36.2564C26.2039 35.1447 27.478 33.9394 28.663 32.6494C31.4806 29.5654 34.0475 25.5897 34.0475 21.4657C34.0475 18.7914 32.9851 16.2267 31.0942 14.3357C29.2032 12.4447 26.6385 11.3824 23.9642 11.3824ZM23.9642 40.5L23.1475 39.9382L23.1431 39.9353L23.1345 39.9281L23.1057 39.908L22.9977 39.8316L22.6087 39.5478C20.638 38.0667 18.8072 36.4081 17.1393 34.5926C14.195 31.3689 11 26.7032 11 21.4642C11 18.0259 12.3659 14.7284 14.7971 12.2971C17.2284 9.86587 20.5259 8.5 23.9642 8.5C27.4025 8.5 30.7 9.86587 33.1313 12.2971C35.5626 14.7284 36.9284 18.0259 36.9284 21.4642C36.9284 26.7032 33.7335 31.3703 30.7892 34.5898C29.1217 36.4051 27.2914 38.0638 25.3211 39.545C25.157 39.6676 24.9913 39.7881 24.8242 39.9065L24.7939 39.9267L24.7853 39.9339L24.7824 39.9353L23.9642 40.5ZM23.9642 18.5847C23.2001 18.5847 22.4674 18.8882 21.9271 19.4285C21.3868 19.9688 21.0833 20.7016 21.0833 21.4657C21.0833 22.2297 21.3868 22.9625 21.9271 23.5028C22.4674 24.0431 23.2001 24.3466 23.9642 24.3466C24.7283 24.3466 25.4611 24.0431 26.0013 23.5028C26.5416 22.9625 26.8452 22.2297 26.8452 21.4657C26.8452 20.7016 26.5416 19.9688 26.0013 19.4285C25.4611 18.8882 24.7283 18.5847 23.9642 18.5847ZM18.2023 21.4657C18.2023 19.9375 18.8094 18.472 19.89 17.3914C20.9705 16.3108 22.4361 15.7038 23.9642 15.7038C25.4924 15.7038 26.9579 16.3108 28.0385 17.3914C29.119 18.472 29.7261 19.9375 29.7261 21.4657C29.7261 22.9938 29.119 24.4594 28.0385 25.5399C26.9579 26.6205 25.4924 27.2275 23.9642 27.2275C22.4361 27.2275 20.9705 26.6205 19.89 25.5399C18.8094 24.4594 18.2023 22.9938 18.2023 21.4657Z" fill="#9EDD05"/>
</svg>
