<svg width="266" height="266" viewBox="0 0 266 266" fill="none" xmlns="http://www.w3.org/2000/svg">
<path d="M128.526 2.93475C130.78 1.63356 131.907 0.982965 133.144 0.982965C134.381 0.982965 135.508 1.63356 137.762 2.93475L243.584 64.0356C245.837 65.3366 246.964 65.9872 247.582 67.0586C248.201 68.13 248.201 69.431 248.201 72.033V194.236C248.201 196.838 248.201 198.139 247.582 199.21C246.964 200.282 245.837 200.932 243.584 202.233L137.762 263.334C135.508 264.635 134.381 265.286 133.144 265.286C131.907 265.286 130.78 264.635 128.526 263.334L22.7043 202.233C20.451 200.932 19.3243 200.282 18.7058 199.21C18.0872 198.139 18.0872 196.838 18.0872 194.236V72.033C18.0872 69.431 18.0872 68.13 18.7058 67.0586C19.3243 65.9872 20.451 65.3366 22.7043 64.0356L128.526 2.93475Z" fill="white"/>
<path d="M125.391 21.1711C127.832 19.762 129.052 19.0575 130.392 19.0575C131.732 19.0575 132.952 19.762 135.392 21.1711L225.065 72.9473C227.505 74.3562 228.725 75.0606 229.394 76.2208C230.064 77.3811 230.064 78.7898 230.064 81.6074V185.161C230.064 187.979 230.064 189.388 229.394 190.548C228.725 191.708 227.505 192.412 225.065 193.821L135.392 245.598C132.952 247.007 131.732 247.711 130.392 247.711C129.052 247.711 127.832 247.007 125.391 245.598L35.7189 193.821C33.2789 192.412 32.0589 191.708 31.389 190.548C30.7192 189.388 30.7192 187.979 30.7192 185.161V81.6074C30.7192 78.7898 30.7192 77.3811 31.389 76.2208C32.0589 75.0606 33.2789 74.3562 35.7189 72.9473L125.391 21.1711Z" fill="url(#paint0_linear_290_95138)"/>
<defs>
<linearGradient id="paint0_linear_290_95138" x1="15.2998" y1="133.384" x2="245.484" y2="133.384" gradientUnits="userSpaceOnUse">
<stop stop-color="#2E0797"/>
<stop offset="1" stop-color="#726EFC"/>
</linearGradient>
</defs>
</svg>
