<svg width="132" height="56" viewBox="0 0 132 56" fill="none" xmlns="http://www.w3.org/2000/svg">
<path d="M26.2926 41.261C36.0769 30.1752 52.8826 19.2135 70.5973 14.2859C81.7042 11.196 93.19 10.4564 103.554 13.5165C113.932 16.5809 123.147 23.4455 129.703 35.4871C130.139 36.2827 129.844 37.2796 129.05 37.7138L129.048 37.7147C128.254 38.1452 127.258 37.8515 126.823 37.0575L126.823 37.0567C120.687 25.7867 112.086 19.4453 102.422 16.6332C92.7428 13.8167 81.9608 14.5306 71.4754 17.4477L71.3414 16.966L71.4754 17.4477C60.899 20.39 50.6388 25.5553 42.1295 31.5931C33.6141 37.6352 26.8872 44.526 23.3421 50.8981C23.0142 51.4882 22.5516 51.7439 22.1152 51.8101C21.7099 51.8715 21.3748 51.7632 21.2569 51.7183C21.2567 51.7182 21.2565 51.7182 21.2563 51.7181L21.4346 51.251C21.2303 51.1733 20.6289 50.8913 20.698 50.0482L26.2926 41.261ZM26.2926 41.261C26.3262 41.1501 26.3562 41.0506 26.3822 40.9638L26.3825 40.9627C26.6121 40.1907 26.9874 39.1427 27.4364 37.8921L27.4606 37.8248C27.9018 36.596 28.4079 35.1864 28.9007 33.6893C29.9022 30.647 30.861 27.2083 31.1121 24.1371C31.3042 21.7955 31.0908 19.6168 30.2443 17.8708C29.3862 16.1009 27.8954 14.8148 25.6372 14.2591L25.5177 14.7446L25.6372 14.2591C21.4943 13.2396 17.4292 15.7837 13.9572 20.0366L14.3445 20.3528L26.2926 41.261ZM16.4986 22.1106C17.8713 20.4296 19.2668 19.0798 20.6749 18.2437C22.0743 17.4126 23.4604 17.1024 24.8543 17.4457L24.8545 17.4458C26.224 17.7824 27.0105 18.5702 27.446 19.6552C27.8951 20.7742 27.9767 22.2301 27.8422 23.8684L27.8422 23.8686C27.6085 26.7355 26.6974 29.9862 25.7181 32.9272C25.2445 34.3498 24.7578 35.6914 24.3281 36.8762L24.2878 36.9872C23.8506 38.1926 23.4711 39.2423 23.2373 40.027L23.2372 40.0273C23.0491 40.6595 22.6636 41.8732 22.228 43.2445C22.0039 43.9499 21.7666 44.697 21.5361 45.4281C21.1979 46.5008 20.875 47.5372 20.633 48.3484C20.5121 48.7537 20.4105 49.1059 20.337 49.3798C20.2691 49.6327 20.211 49.8683 20.1997 50.0074L2.07792 54.0565L2.05044 54.5557C2.05048 54.5557 2.05052 54.5557 2.05056 54.5557C2.95336 54.6054 3.72718 53.9139 3.77703 53.0081C3.92657 50.3177 5.33449 44.7575 7.6112 38.7538C9.88481 32.7582 12.9934 26.4046 16.4986 22.1106ZM16.4986 22.1106L16.1113 21.7944L16.4986 22.1106Z" fill="white" stroke="white"/>
<path d="M98.338 29.9746L98.3369 29.9748C97.4442 30.136 96.8523 30.9877 97.0096 31.8775L97.0099 31.8794C97.1711 32.7721 98.0229 33.3638 98.9127 33.2065L98.9136 33.2064C105.56 32.0178 112.67 32.8186 119.102 34.8878C121.05 35.5148 122.91 36.2934 124.796 37.0825C125.74 37.4776 126.691 37.8753 127.661 38.258L127.661 38.2581L127.667 38.2603C127.696 38.2711 127.759 38.2973 127.848 38.3344C127.99 38.3934 128.199 38.4798 128.438 38.575C128.621 38.6481 128.814 38.7225 128.981 38.7818C129.13 38.8345 129.308 38.8935 129.439 38.9122C130.385 39.049 130.89 38.4825 131.078 38.2037C131.241 37.967 131.375 37.6481 131.386 37.2373L131.386 37.2346C131.394 36.8781 131.262 36.322 130.978 35.6825C130.534 34.6734 129.639 33.0909 128.824 31.6902C128.551 31.2199 128.288 30.7724 128.052 30.371C127.57 29.5503 127.201 28.9224 127.086 28.6864L127.086 28.6863C123.44 21.1663 121.13 13.5699 118.723 5.65139C118.399 4.5861 118.073 3.51499 117.742 2.43746L117.742 2.43576C117.474 1.57314 116.557 1.08408 115.691 1.34935C114.824 1.61491 114.341 2.5346 114.605 3.39824L114.605 3.39859C114.924 4.436 115.238 5.46904 115.551 6.49806C118.004 14.5628 120.383 22.3801 124.134 30.1145C124.34 30.5425 125.369 32.4222 126.332 34.1691C126.217 34.1211 126.102 34.0731 125.987 34.0251C124.064 33.2218 122.121 32.4104 120.108 31.7634C113.2 29.542 105.537 28.6917 98.338 29.9746Z" fill="white" stroke="white"/>
</svg>
