<svg width="48" height="48" viewBox="0 0 48 48" fill="none" xmlns="http://www.w3.org/2000/svg">
<path d="M23.9642 10.8824C21.29 10.8824 18.7252 11.9447 16.8343 13.8357C14.9433 15.7267 13.8809 18.2914 13.8809 20.9657C13.8809 25.0883 16.4479 29.0654 19.2654 32.1466C20.7061 33.7161 22.278 35.1599 23.9642 36.4622C24.2158 36.2692 24.5111 36.0339 24.8501 35.7564C26.2039 34.6447 27.478 33.4394 28.663 32.1494C31.4806 29.0654 34.0475 25.0897 34.0475 20.9657C34.0475 18.2914 32.9851 15.7267 31.0942 13.8357C29.2032 11.9447 26.6385 10.8824 23.9642 10.8824ZM23.9642 40L23.1475 39.4382L23.1431 39.4353L23.1345 39.4281L23.1057 39.408L22.9977 39.3316L22.6087 39.0478C20.638 37.5667 18.8072 35.9081 17.1393 34.0926C14.195 30.8689 11 26.2032 11 20.9642C11 17.5259 12.3659 14.2284 14.7971 11.7971C17.2284 9.36587 20.5259 8 23.9642 8C27.4025 8 30.7 9.36587 33.1313 11.7971C35.5626 14.2284 36.9284 17.5259 36.9284 20.9642C36.9284 26.2032 33.7335 30.8703 30.7892 34.0898C29.1217 35.9051 27.2914 37.5638 25.3211 39.045C25.157 39.1676 24.9913 39.2881 24.8242 39.4065L24.7939 39.4267L24.7853 39.4339L24.7824 39.4353L23.9642 40ZM23.9642 18.0847C23.2001 18.0847 22.4674 18.3882 21.9271 18.9285C21.3868 19.4688 21.0833 20.2016 21.0833 20.9657C21.0833 21.7297 21.3868 22.4625 21.9271 23.0028C22.4674 23.5431 23.2001 23.8466 23.9642 23.8466C24.7283 23.8466 25.4611 23.5431 26.0013 23.0028C26.5416 22.4625 26.8451 21.7297 26.8451 20.9657C26.8451 20.2016 26.5416 19.4688 26.0013 18.9285C25.4611 18.3882 24.7283 18.0847 23.9642 18.0847ZM18.2023 20.9657C18.2023 19.4375 18.8094 17.972 19.89 16.8914C20.9705 15.8108 22.4361 15.2038 23.9642 15.2038C25.4924 15.2038 26.9579 15.8108 28.0385 16.8914C29.119 17.972 29.7261 19.4375 29.7261 20.9657C29.7261 22.4938 29.119 23.9594 28.0385 25.0399C26.9579 26.1205 25.4924 26.7275 23.9642 26.7275C22.4361 26.7275 20.9705 26.1205 19.89 25.0399C18.8094 23.9594 18.2023 22.4938 18.2023 20.9657Z" fill="#2334DE"/>
</svg>
