<svg width="36" height="37" viewBox="0 0 36 37" fill="none" xmlns="http://www.w3.org/2000/svg">
<path d="M6 27.502L13.5 18.502M30 27.502L22.5 18.502M4.5 12.502L15.3375 19.7269C16.2998 20.3684 16.7808 20.6893 17.3009 20.8138C17.7605 20.924 18.2395 20.924 18.6991 20.8138C19.2192 20.6893 19.7002 20.3684 20.6625 19.7269L31.5 12.502M9.3 29.002H26.7C28.3801 29.002 29.2203 29.002 29.862 28.675C30.4265 28.3874 30.8854 27.9284 31.173 27.364C31.5 26.7223 31.5 25.8821 31.5 24.202V12.802C31.5 11.1218 31.5 10.2817 31.173 9.63998C30.8854 9.07549 30.4265 8.61655 29.862 8.32894C29.2203 8.00195 28.3801 8.00195 26.7 8.00195H9.3C7.61985 8.00195 6.77976 8.00195 6.13803 8.32894C5.57354 8.61655 5.11459 9.07549 4.82698 9.63998C4.5 10.2817 4.5 11.1218 4.5 12.802V24.202C4.5 25.8821 4.5 26.7223 4.82698 27.364C5.11459 27.9284 5.57354 28.3874 6.13803 28.675C6.77976 29.002 7.61983 29.002 9.3 29.002Z" stroke="#5038C9" stroke-width="2" stroke-linecap="round" stroke-linejoin="round"/>
</svg>
