<svg width="44" height="45" viewBox="0 0 44 45" fill="none" xmlns="http://www.w3.org/2000/svg">
<path d="M8.26052 15.631C8.51225 26.9346 17.5661 35.981 28.8069 36.2291C28.9877 36.2503 29.1684 36.2503 29.3704 36.2503C29.5725 36.2503 29.7532 36.2503 29.9271 36.2291C32.7241 35.9456 34.8333 33.6069 34.8333 30.7899C34.8333 30.5204 34.8121 30.2619 34.7767 30.0422C34.7767 30.035 34.7732 30.0316 34.7732 30.0244V30.0103C34.7732 30.0069 34.7698 30.0068 34.7698 30.0031C34.6528 29.1067 34.3054 28.2668 33.7419 27.5122C33.7384 27.5087 33.7384 27.505 33.7347 27.5016C33.7312 27.4944 33.7275 27.4875 33.7206 27.4803C33.6993 27.4519 33.6674 27.4343 33.6427 27.4131C33.6036 27.374 33.5683 27.3352 33.5223 27.3068C33.4763 27.2784 33.4231 27.2643 33.37 27.2465C33.3381 27.2358 33.3096 27.2146 33.2743 27.2074L26.9961 26.0665C26.9536 26.0593 26.911 26.0559 26.8685 26.0559H26.8507C26.8223 26.0559 26.7975 26.07 26.7728 26.0737C26.7374 26.0771 26.7055 26.0843 26.6699 26.0949C26.6027 26.1127 26.5423 26.1374 26.482 26.1728C26.4679 26.18 26.4573 26.1869 26.4466 26.1975C26.3757 26.2472 26.3156 26.3072 26.2659 26.3816L26.2624 26.3851L26.227 26.4382C26.2164 26.4595 26.1986 26.4773 26.188 26.4986L24.3907 29.2624C20.1155 27.7495 16.7481 24.3831 15.2339 20.1096L18.013 18.3095C18.2613 18.1961 18.4349 17.9445 18.4349 17.6506C18.4349 17.569 18.4208 17.4912 18.3958 17.4202L17.2719 11.2121C17.24 11.0314 17.1409 10.872 16.9955 10.762C16.2403 10.195 15.3612 9.83708 14.4856 9.7273C14.2411 9.68479 13.9787 9.66699 13.7092 9.66699C10.8909 9.66699 8.55119 11.7753 8.27127 14.5639C8.25 14.7446 8.25 14.9253 8.25 15.1272C8.25 15.3045 8.25346 15.4604 8.2678 15.6198C8.26385 15.6278 8.26014 15.6312 8.26014 15.6312L8.26052 15.631ZM9.68928 15.1315V15.0571C9.68928 14.9402 9.68928 14.8302 9.70337 14.7205C9.91257 12.6653 11.6319 11.1167 13.7056 11.1167H13.7128C13.8757 11.1167 14.0355 11.1274 14.1984 11.1521C14.2125 11.1556 14.2269 11.1556 14.241 11.1593C14.2516 11.1593 14.2622 11.1627 14.2729 11.1627C14.8508 11.2371 15.3967 11.4391 15.8965 11.7651L16.8997 17.3106L13.9645 19.2099C13.9467 19.2205 13.9326 19.2383 13.9148 19.2524C13.9007 19.263 13.8864 19.2771 13.8688 19.2914C13.8085 19.348 13.7518 19.4118 13.7165 19.4827C13.7165 19.4862 13.7165 19.4862 13.713 19.4899C13.6777 19.5608 13.6564 19.6387 13.6458 19.7203C13.6423 19.7381 13.6386 19.7556 13.6386 19.7734C13.6386 19.7875 13.6314 19.8053 13.6314 19.8194C13.6314 19.8903 13.6421 19.961 13.6633 20.0285V20.0357C15.2763 25.1807 19.307 29.2131 24.454 30.8254C24.525 30.8466 24.5994 30.8607 24.6701 30.8607H24.6736H24.6808C24.7446 30.8607 24.8084 30.8501 24.8722 30.8288C24.8969 30.8217 24.9219 30.811 24.9466 30.8004C24.982 30.7863 25.0176 30.7685 25.0529 30.7473C25.0814 30.7295 25.1061 30.7119 25.1308 30.6941C25.1556 30.6729 25.1805 30.6481 25.2018 30.6232C25.2265 30.5948 25.2515 30.57 25.2728 30.5416C25.2728 30.5382 25.2762 30.5382 25.2762 30.5344L27.1941 27.5828L32.6996 28.5821C33.0398 29.0922 33.2562 29.6486 33.3341 30.2581C33.3625 30.4247 33.3766 30.6089 33.3766 30.7967C33.3766 32.8697 31.8274 34.5883 29.7644 34.7972C29.6333 34.8112 29.502 34.8112 29.3603 34.8112C29.2255 34.8112 29.1051 34.8112 28.9844 34.8006C28.9526 34.7972 28.9278 34.7972 28.8922 34.7935C18.3598 34.5596 9.92653 26.1298 9.6923 15.602V15.5949C9.6923 15.5771 9.6923 15.5558 9.68884 15.5383C9.67821 15.432 9.67475 15.3222 9.67475 15.2051C9.68884 15.1809 9.68884 15.1561 9.68884 15.1314L9.68928 15.1315Z" fill="#9EDD05"/>
<path d="M23.6603 10.1382C30.014 10.1382 35.1792 14.9624 35.1792 20.8892C35.1792 21.2736 35.511 21.5833 35.9229 21.5833C36.3348 21.5833 36.6667 21.2736 36.6667 20.8892C36.6667 14.1972 30.8342 8.75 23.6604 8.75C23.2485 8.75 22.9167 9.0597 22.9167 9.44417C22.9167 9.82839 23.2482 10.1381 23.6602 10.1381L23.6603 10.1382Z" fill="#9EDD05"/>
<path d="M23.6637 13.9115C27.9894 13.9115 31.5052 17.4314 31.5052 21.753C31.5052 22.1669 31.8386 22.5003 32.2525 22.5003C32.6664 22.5003 32.9998 22.1669 32.9998 21.753C32.9998 16.6069 28.8133 12.417 23.6638 12.417C23.2499 12.417 22.9165 12.7504 22.9165 13.1643C22.9165 13.578 23.2497 13.9114 23.6636 13.9114L23.6637 13.9115Z" fill="#9EDD05"/>
<path d="M23.6713 17.5928C25.9618 17.5928 27.8231 19.4541 27.8231 21.7447C27.8231 22.1628 28.16 22.4997 28.5782 22.4997C28.9963 22.4997 29.3332 22.1628 29.3332 21.7447C29.3332 18.6214 26.7948 16.083 23.6715 16.083C23.2534 16.083 22.9165 16.4199 22.9165 16.838C22.9165 17.2523 23.2531 17.5928 23.6713 17.5928V17.5928Z" fill="#9EDD05"/>
</svg>
