<svg width="44" height="44" viewBox="0 0 44 44" fill="none" xmlns="http://www.w3.org/2000/svg">
<path d="M8.26052 15.132C8.51225 26.4355 17.5661 35.482 28.8069 35.73C28.9877 35.7513 29.1684 35.7513 29.3704 35.7513C29.5725 35.7513 29.7532 35.7513 29.9271 35.73C32.7241 35.4465 34.8333 33.1079 34.8333 30.2908C34.8333 30.0214 34.8121 29.7629 34.7767 29.5432C34.7767 29.536 34.7732 29.5325 34.7732 29.5254V29.5113C34.7732 29.5078 34.7698 29.5078 34.7698 29.5041C34.6528 28.6076 34.3054 27.7678 33.7419 27.0132C33.7384 27.0097 33.7384 27.006 33.7347 27.0025C33.7312 26.9954 33.7275 26.9884 33.7206 26.9813C33.6993 26.9528 33.6674 26.9353 33.6427 26.914C33.6036 26.875 33.5683 26.8362 33.5223 26.8078C33.4763 26.7793 33.4231 26.7652 33.37 26.7474C33.3381 26.7368 33.3096 26.7156 33.2743 26.7084L26.9961 25.5675C26.9536 25.5603 26.911 25.5568 26.8685 25.5568H26.8507C26.8223 25.5568 26.7975 25.5709 26.7728 25.5746C26.7374 25.5781 26.7055 25.5853 26.6699 25.5959C26.6027 25.6137 26.5423 25.6384 26.482 25.6738C26.4679 25.6809 26.4573 25.6879 26.4466 25.6985C26.3757 25.7482 26.3156 25.8082 26.2659 25.8826L26.2624 25.8861L26.227 25.9392C26.2164 25.9605 26.1986 25.9783 26.188 25.9995L24.3907 28.7634C20.1155 27.2505 16.7481 23.884 15.2339 19.6106L18.013 17.8105C18.2613 17.697 18.4349 17.4454 18.4349 17.1515C18.4349 17.07 18.4208 16.9921 18.3958 16.9212L17.2719 10.7131C17.24 10.5324 17.1409 10.3729 16.9955 10.263C16.2403 9.69595 15.3612 9.33806 14.4856 9.22828C14.2411 9.18576 13.9787 9.16797 13.7092 9.16797C10.8909 9.16797 8.55119 11.2763 8.27127 14.0649C8.25 14.2456 8.25 14.4263 8.25 14.6282C8.25 14.8054 8.25346 14.9614 8.2678 15.1208C8.26385 15.1287 8.26014 15.1322 8.26014 15.1322L8.26052 15.132ZM9.68928 14.6325V14.5581C9.68928 14.4412 9.68928 14.3312 9.70337 14.2214C9.91257 12.1663 11.6319 10.6177 13.7056 10.6177H13.7128C13.8757 10.6177 14.0355 10.6284 14.1984 10.6531C14.2125 10.6565 14.2269 10.6565 14.241 10.6602C14.2516 10.6602 14.2622 10.6637 14.2729 10.6637C14.8508 10.7381 15.3967 10.94 15.8965 11.266L16.8997 16.8116L13.9645 18.7108C13.9467 18.7215 13.9326 18.7393 13.9148 18.7534C13.9007 18.764 13.8864 18.7781 13.8688 18.7924C13.8085 18.849 13.7518 18.9128 13.7165 18.9837C13.7165 18.9872 13.7165 18.9872 13.713 18.9909C13.6777 19.0618 13.6564 19.1397 13.6458 19.2212C13.6423 19.239 13.6386 19.2566 13.6386 19.2744C13.6386 19.2885 13.6314 19.3063 13.6314 19.3204C13.6314 19.3913 13.6421 19.462 13.6633 19.5295V19.5366C15.2763 24.6817 19.307 28.7141 24.454 30.3263C24.525 30.3476 24.5994 30.3617 24.6701 30.3617H24.6736H24.6808C24.7446 30.3617 24.8084 30.3511 24.8722 30.3298C24.8969 30.3226 24.9219 30.312 24.9466 30.3014C24.982 30.2873 25.0176 30.2695 25.0529 30.2482C25.0814 30.2304 25.1061 30.2129 25.1308 30.1951C25.1556 30.1738 25.1805 30.1491 25.2018 30.1242C25.2265 30.0957 25.2515 30.071 25.2728 30.0426C25.2728 30.0391 25.2762 30.0391 25.2762 30.0354L27.1941 27.0838L32.6996 28.0831C33.0398 28.5932 33.2562 29.1496 33.3341 29.7591C33.3625 29.9257 33.3766 30.1098 33.3766 30.2977C33.3766 32.3707 31.8274 34.0893 29.7644 34.2981C29.6333 34.3122 29.502 34.3122 29.3603 34.3122C29.2255 34.3122 29.1051 34.3122 28.9844 34.3016C28.9526 34.2981 28.9278 34.2981 28.8922 34.2944C18.3598 34.0606 9.92653 25.6308 9.6923 15.103V15.0958C9.6923 15.078 9.6923 15.0568 9.68884 15.0392C9.67821 14.933 9.67475 14.8232 9.67475 14.7061C9.68884 14.6818 9.68884 14.6571 9.68884 14.6324L9.68928 14.6325Z" fill="#2334DE"/>
<path d="M23.6602 9.63822C30.0139 9.63822 35.1791 14.4624 35.1791 20.3892C35.1791 20.7736 35.5109 21.0833 35.9229 21.0833C36.3348 21.0833 36.6666 20.7736 36.6666 20.3892C36.6666 13.6972 30.8342 8.25 23.6604 8.25C23.2485 8.25 22.9166 8.5597 22.9166 8.94417C22.9166 9.32839 23.2482 9.6381 23.6601 9.6381L23.6602 9.63822Z" fill="#2334DE"/>
<path d="M23.6637 13.4125C27.9894 13.4125 31.5052 16.9324 31.5052 21.254C31.5052 21.6679 31.8386 22.0013 32.2525 22.0013C32.6664 22.0013 32.9998 21.6679 32.9998 21.254C32.9998 16.1079 28.8133 11.918 23.6638 11.918C23.2499 11.918 22.9165 12.2514 22.9165 12.6653C22.9165 13.0789 23.2497 13.4124 23.6636 13.4124L23.6637 13.4125Z" fill="#2334DE"/>
<path d="M23.6713 17.0918C25.9618 17.0918 27.8231 18.9531 27.8231 21.2437C27.8231 21.6618 28.16 21.9987 28.5782 21.9987C28.9963 21.9987 29.3332 21.6618 29.3332 21.2437C29.3332 18.1204 26.7948 15.582 23.6715 15.582C23.2534 15.582 22.9165 15.9189 22.9165 16.337C22.9165 16.7513 23.2531 17.0918 23.6713 17.0918Z" fill="#2334DE"/>
</svg>
