<svg width="36" height="36" viewBox="0 0 36 36" fill="none" xmlns="http://www.w3.org/2000/svg">
<path d="M6 27.002L13.5 18.002M30 27.002L22.5 18.002M4.5 12.002L15.3375 19.2269C16.2998 19.8684 16.7808 20.1893 17.3009 20.3138C17.7605 20.424 18.2395 20.424 18.6991 20.3138C19.2192 20.1893 19.7002 19.8684 20.6625 19.2269L31.5 12.002M9.3 28.502H26.7C28.3801 28.502 29.2203 28.502 29.862 28.175C30.4265 27.8874 30.8854 27.4284 31.173 26.864C31.5 26.2223 31.5 25.3821 31.5 23.702V12.302C31.5 10.6218 31.5 9.78171 31.173 9.13998C30.8854 8.57549 30.4265 8.11655 29.862 7.82894C29.2203 7.50195 28.3801 7.50195 26.7 7.50195H9.3C7.61985 7.50195 6.77976 7.50195 6.13803 7.82894C5.57354 8.11655 5.11459 8.57549 4.82698 9.13998C4.5 9.78171 4.5 10.6218 4.5 12.302V23.702C4.5 25.3821 4.5 26.2223 4.82698 26.864C5.11459 27.4284 5.57354 27.8874 6.13803 28.175C6.77976 28.502 7.61983 28.502 9.3 28.502Z" stroke="#2334DE" stroke-width="2" stroke-linecap="round" stroke-linejoin="round"/>
</svg>
