<svg width="44" height="44" viewBox="0 0 44 44" fill="none" xmlns="http://www.w3.org/2000/svg">
<path d="M10.216 14.457C9.69071 10.9975 12.13 7.88998 15.8562 6.75148C16.5175 6.5493 17.2309 6.60685 17.8512 6.9124C18.4715 7.21795 18.952 7.74851 19.1947 8.39597L20.391 11.586C20.5835 12.0992 20.6184 12.6582 20.491 13.1913C20.3636 13.7244 20.0797 14.2073 19.676 14.578L16.1175 17.8367C15.9421 17.9977 15.8114 18.2014 15.7381 18.4279C15.6648 18.6544 15.6515 18.896 15.6995 19.1292L15.7325 19.2722L15.8177 19.6297C16.2603 21.3667 16.9346 23.0363 17.8225 24.5935C18.7897 26.2481 19.99 27.755 21.3865 29.0677L21.4965 29.1667C21.6741 29.3244 21.8896 29.4334 22.1219 29.483C22.3542 29.5327 22.5954 29.5213 22.822 29.45L27.4227 28.0007C27.9456 27.8366 28.5056 27.8324 29.0308 27.9887C29.5561 28.145 30.0227 28.4547 30.3707 28.878L32.5487 31.5207C33.4562 32.6207 33.3462 34.2377 32.304 35.2085C29.4522 37.8677 25.5307 38.4122 22.8027 36.2205C19.4588 33.5232 16.6398 30.2334 14.4867 26.5157C12.3161 22.8009 10.869 18.7097 10.216 14.457ZM18.5842 19.3107L21.5322 16.6047C22.3403 15.8637 22.9084 14.8981 23.1637 13.8318C23.419 12.7656 23.3498 11.6474 22.965 10.6207L21.7715 7.43072C21.2829 6.12791 20.316 5.06039 19.0677 4.44571C17.8194 3.83102 16.3837 3.71543 15.0532 4.12247C10.425 5.53872 6.70971 9.68847 7.49621 14.8722C8.04621 18.4912 9.31396 23.0947 12.1107 27.9017C14.4337 31.9104 17.4745 35.4574 21.0812 38.3655C25.1732 41.6517 30.6347 40.5297 34.1822 37.2242C35.1973 36.2791 35.8134 34.9822 35.9049 33.5983C35.9964 32.2144 35.5563 30.8477 34.6745 29.7772L32.4965 27.1317C31.7997 26.286 30.8662 25.6678 29.8158 25.3561C28.7653 25.0445 27.6456 25.0538 26.6005 25.3827L22.7807 26.5845C21.7945 25.5676 20.9306 24.4389 20.2067 23.2212C19.5074 21.9902 18.9625 20.6777 18.5842 19.3135V19.3107Z" fill="#5038C9"/>
</svg>
