<svg width="778" height="645" viewBox="0 0 778 645" fill="none" xmlns="http://www.w3.org/2000/svg">
<g opacity="0.04">
<path d="M409.813 35.7896C412.784 36.9083 412.587 41.1163 409.602 42.2002C346.396 65.1577 301.615 122.385 301.615 189.349C301.615 249.438 337.154 302.317 390.177 329.061C393.011 330.491 392.711 334.682 389.623 335.421C375.76 338.736 361.433 340.122 346.252 340.122C252.572 340.122 176.63 269.429 176.63 182.226C176.63 95.0224 252.572 24.3301 346.252 24.3301C368.728 24.3301 390.183 28.3994 409.813 35.7896Z" fill="white"/>
<path d="M386.698 630.209C383.727 629.09 383.924 624.882 386.908 623.798C450.115 600.841 494.896 543.613 494.896 476.649C494.896 416.56 459.357 363.682 406.334 336.937C403.499 335.507 403.8 331.316 406.887 330.577C420.751 327.262 435.078 325.877 450.259 325.877C543.938 325.877 619.881 396.569 619.881 483.772C619.881 570.976 543.938 641.668 450.259 641.668C427.783 641.668 406.328 637.599 386.698 630.209Z" fill="white"/>
<path d="M128.025 174.716C130.556 172.89 133.966 174.961 133.471 177.908C122.955 240.51 153.804 305.505 216.285 339.084C272.398 369.242 339.657 366.901 391.125 337.213C393.839 335.647 397.187 337.787 396.335 340.67C392.491 353.686 386.563 366.088 378.873 378.486C332.034 454.006 228.294 479.882 147.166 436.28C66.0366 392.678 38.2397 296.111 85.0796 220.59C96.4303 202.289 111.122 186.904 128.025 174.716Z" fill="white"/>
<path d="M668.473 491.284C665.941 493.11 662.531 491.039 663.026 488.092C673.542 425.49 642.693 360.495 580.212 326.916C524.099 296.758 456.84 299.099 405.372 328.787C402.658 330.352 399.31 328.213 400.162 325.33C404.006 312.314 409.934 299.912 417.623 287.514C464.463 211.994 568.203 186.118 649.332 229.72C730.46 273.322 758.257 369.889 711.418 445.41C700.067 463.711 685.375 479.096 668.473 491.284Z" fill="white"/>
<path d="M115.877 471.697C115.444 468.743 119.076 467.03 121.57 468.902C174.553 508.68 250.445 516.309 312.926 482.73C369.04 452.572 400.491 397.181 398.605 340.846C398.506 337.875 402.17 336.246 404.426 338.374C414.614 347.981 423.188 358.961 430.878 371.359C477.717 446.879 449.921 543.446 368.792 587.048C287.663 630.65 183.923 604.775 137.084 529.254C125.733 510.953 118.765 491.416 115.877 471.697Z" fill="white"/>
<path d="M680.622 194.305C681.055 197.259 677.423 198.972 674.929 197.1C621.946 157.322 546.054 149.693 483.573 183.272C427.459 213.43 396.008 268.821 397.894 325.156C397.993 328.127 394.329 329.756 392.073 327.628C381.885 318.021 373.311 307.041 365.621 294.643C318.782 219.123 346.579 122.556 427.707 78.9538C508.836 35.3521 612.576 61.2273 659.415 136.748C670.766 155.049 677.734 174.586 680.622 194.305Z" fill="white"/>
</g>
</svg>
