<svg width="36" height="36" viewBox="0 0 36 36" fill="none" xmlns="http://www.w3.org/2000/svg">
<path d="M21.587 0.383301V9.71691H17.9688C13.3972 9.71691 9.71484 13.3992 9.71484 17.9705C9.71484 22.5404 13.3972 26.2227 17.9673 26.2227H21.587V35.5563C29.8395 33.9689 36.0001 26.7316 36.0001 17.9691C36.0001 9.2716 29.8424 2.03432 21.587 0.383301Z" fill="#2334DE"/>
<path d="M17.9686 29.1414C11.8095 29.1414 6.7918 24.1262 6.7918 17.9689C6.7918 11.8116 11.808 6.79494 17.9657 6.79494H18.6654V0H17.9672C8.06444 0 0 8.06427 0 17.9675C0 27.9357 8.06445 36 17.9686 36H18.6669V29.1444H17.9686V29.1414Z" fill="#2334DE"/>
</svg>
