<svg width="344" height="287" viewBox="0 0 344 287" fill="none" xmlns="http://www.w3.org/2000/svg">
<g opacity="0.04">
<path d="M177.232 15.4231C178.512 15.9051 178.427 17.7185 177.141 18.1856C149.903 28.0787 130.606 52.7398 130.606 81.5965C130.606 107.491 145.921 130.278 168.77 141.803C169.992 142.419 169.862 144.225 168.532 144.543C162.557 145.972 156.383 146.569 149.841 146.569C109.472 146.569 76.7461 116.106 76.7461 78.527C76.7461 40.9483 109.472 10.4848 149.841 10.4848C159.527 10.4848 168.773 12.2384 177.232 15.4231Z" fill="white"/>
<path d="M167.271 271.577C165.991 271.094 166.076 269.281 167.362 268.814C194.599 258.921 213.897 234.26 213.897 205.403C213.897 179.509 198.582 156.722 175.733 145.197C174.511 144.581 174.641 142.774 175.971 142.456C181.946 141.028 188.12 140.43 194.661 140.43C235.031 140.43 267.757 170.894 267.757 208.473C267.757 246.051 235.031 276.515 194.661 276.515C184.976 276.515 175.73 274.761 167.271 271.577Z" fill="white"/>
<path d="M55.8011 75.2906C56.8921 74.5039 58.3614 75.3962 58.1481 76.6662C53.6165 103.643 66.9101 131.652 93.8351 146.122C118.016 159.118 147 158.109 169.179 145.316C170.349 144.641 171.791 145.563 171.424 146.805C169.768 152.415 167.213 157.759 163.9 163.102C143.715 195.646 99.0105 206.796 64.0495 188.007C29.0885 169.217 17.11 127.603 37.2948 95.0594C42.1861 87.1729 48.5174 80.5428 55.8011 75.2906Z" fill="white"/>
<path d="M288.697 211.71C287.606 212.496 286.137 211.604 286.35 210.334C290.882 183.357 277.588 155.349 250.663 140.878C226.482 127.882 197.498 128.891 175.319 141.685C174.149 142.359 172.707 141.437 173.074 140.195C174.73 134.586 177.285 129.241 180.598 123.899C200.783 91.3548 245.488 80.2043 280.449 98.9937C315.41 117.783 327.388 159.397 307.203 191.941C302.312 199.827 295.981 206.458 288.697 211.71Z" fill="white"/>
<path d="M50.5658 203.269C50.3793 201.996 51.9442 201.258 53.019 202.065C75.851 219.206 108.555 222.494 135.48 208.023C159.661 195.027 173.215 171.158 172.402 146.881C172.359 145.601 173.938 144.899 174.911 145.816C179.301 149.956 182.996 154.688 186.309 160.03C206.494 192.574 194.515 234.188 159.554 252.977C124.593 271.767 79.889 260.616 59.7043 228.072C54.8129 220.186 51.8103 211.767 50.5658 203.269Z" fill="white"/>
<path d="M293.932 83.7323C294.119 85.0053 292.554 85.7436 291.479 84.9366C268.647 67.7949 235.943 64.5074 209.018 78.978C184.837 91.9738 171.283 115.844 172.096 140.12C172.139 141.4 170.56 142.102 169.588 141.185C165.197 137.045 161.502 132.314 158.189 126.971C138.004 94.4271 149.983 52.8132 184.944 34.0238C219.905 15.2345 264.609 26.3849 284.794 58.929C289.685 66.8154 292.688 75.2345 293.932 83.7323Z" fill="white"/>
</g>
</svg>
