<svg width="532" height="613" viewBox="0 0 532 613" fill="none" xmlns="http://www.w3.org/2000/svg">
<g opacity="0.03">
<path d="M408.629 347.295H367.771V204.291H224.767V163.433H388.2C393.618 163.433 398.814 165.585 402.646 169.417C406.477 173.248 408.629 178.444 408.629 183.862V347.295Z" fill="white"/>
<path d="M306.483 449.441H143.05C137.632 449.441 132.436 447.289 128.605 443.457C124.773 439.626 122.621 434.43 122.621 429.012V265.579C122.621 260.161 124.773 254.964 128.605 251.133C132.436 247.302 137.632 245.15 143.05 245.15H306.483C311.901 245.15 317.098 247.302 320.929 251.133C324.76 254.964 326.912 260.161 326.912 265.579V429.012C326.912 434.43 324.76 439.626 320.929 443.457C317.098 447.289 311.901 449.441 306.483 449.441ZM163.479 408.583H286.054V286.008H163.479V408.583Z" fill="white"/>
<path d="M265.625 2.6365e-06C262.008 -0.00183498 258.454 0.956957 255.329 2.77837L10.1792 145.782C7.09489 147.582 4.53621 150.159 2.75829 153.256C0.980373 156.353 0.0453294 159.862 0.0463876 163.433V449.441C0.0453294 453.012 0.980373 456.521 2.75829 459.618C4.53621 462.715 7.09489 465.292 10.1792 467.092L255.329 610.096C258.454 611.919 262.007 612.88 265.625 612.88C269.243 612.88 272.796 611.919 275.921 610.096L500.642 479.002L480.049 443.721L265.625 568.788L40.9047 437.715V175.18L265.625 44.0861L490.346 175.159V326.866H531.204V163.433C531.205 159.862 530.27 156.353 528.492 153.256C526.714 150.159 524.155 147.582 521.071 145.782L275.921 2.77837C272.796 0.956957 269.243 -0.00183498 265.625 2.6365e-06Z" fill="white"/>
</g>
</svg>
