<svg width="32" height="33" viewBox="0 0 32 33" fill="none" xmlns="http://www.w3.org/2000/svg">
<path fill-rule="evenodd" clip-rule="evenodd" d="M29.6422 0.074067C29.9937 0.06148 30.3358 0.189039 30.5932 0.428687C30.8506 0.668335 31.0023 1.00044 31.0149 1.35194L31.5845 17.2559C31.5971 17.6074 31.4695 17.9495 31.2299 18.207C30.9902 18.4644 30.6581 18.6161 30.3067 18.6287C29.9552 18.6413 29.6131 18.5137 29.3556 18.2741C29.0982 18.0344 28.9465 17.7023 28.9339 17.3508L28.4789 4.64621L2.54966 32.5056C2.43086 32.6332 2.28808 32.7362 2.12947 32.8086C1.97087 32.8811 1.79955 32.9216 1.62529 32.9278C1.45103 32.9341 1.27725 32.9059 1.11387 32.845C0.950489 32.7841 0.800706 32.6916 0.673075 32.5728C0.545444 32.4539 0.442463 32.3112 0.370012 32.1525C0.297561 31.9939 0.257059 31.8226 0.250818 31.6483C0.244578 31.4741 0.272721 31.3003 0.333641 31.1369C0.39456 30.9735 0.487064 30.8237 0.605869 30.6961L26.5379 2.8393L13.8338 3.29425C13.4823 3.30683 13.1402 3.17927 12.8828 2.93962C12.6254 2.69998 12.4737 2.36787 12.4611 2.01637C12.4485 1.66487 12.5761 1.32277 12.8157 1.06532C13.0553 0.807871 13.3874 0.656169 13.7389 0.643582L29.6422 0.074067Z" fill="white"/>
</svg>
