<svg width="26" height="33" viewBox="0 0 26 33" fill="none" xmlns="http://www.w3.org/2000/svg">
<path d="M12.9642 3.38238C10.29 3.38238 7.72524 4.44472 5.83426 6.3357C3.94328 8.22668 2.88094 10.7914 2.88094 13.4657C2.88094 17.5883 5.44785 21.5654 8.26541 24.6466C9.70607 26.2161 11.278 27.6599 12.9642 28.9622C13.2158 28.7692 13.5111 28.5339 13.8501 28.2564C15.2039 27.1447 16.478 25.9394 17.663 24.6494C20.4806 21.5654 23.0475 17.5897 23.0475 13.4657C23.0475 10.7914 21.9851 8.22668 20.0942 6.3357C18.2032 4.44472 15.6385 3.38238 12.9642 3.38238ZM12.9642 32.5L12.1475 31.9382L12.1431 31.9353L12.1345 31.9281L12.1057 31.908L11.9977 31.8316L11.6087 31.5478C9.63797 30.0667 7.80716 28.4081 6.13928 26.5926C3.19496 23.3689 0 18.7032 0 13.4642C5.1235e-08 10.0259 1.36587 6.72839 3.79713 4.29713C6.22839 1.86587 9.52589 0.5 12.9642 0.5C16.4025 0.5 19.7 1.86587 22.1313 4.29713C24.5626 6.72839 25.9284 10.0259 25.9284 13.4642C25.9284 18.7032 22.7335 23.3703 19.7892 26.5898C18.1217 28.4051 16.2914 30.0638 14.3211 31.545C14.157 31.6676 13.9913 31.7881 13.8242 31.9065L13.7939 31.9267L13.7853 31.9339L13.7824 31.9353L12.9642 32.5ZM12.9642 10.5847C12.2001 10.5847 11.4674 10.8882 10.9271 11.4285C10.3868 11.9688 10.0833 12.7016 10.0833 13.4657C10.0833 14.2297 10.3868 14.9625 10.9271 15.5028C11.4674 16.0431 12.2001 16.3466 12.9642 16.3466C13.7283 16.3466 14.4611 16.0431 15.0013 15.5028C15.5416 14.9625 15.8452 14.2297 15.8452 13.4657C15.8452 12.7016 15.5416 11.9688 15.0013 11.4285C14.4611 10.8882 13.7283 10.5847 12.9642 10.5847ZM7.20234 13.4657C7.20234 11.9375 7.80939 10.472 8.88995 9.39139C9.97051 8.31083 11.4361 7.70378 12.9642 7.70378C14.4924 7.70378 15.9579 8.31083 17.0385 9.39139C18.119 10.472 18.7261 11.9375 18.7261 13.4657C18.7261 14.9938 18.119 16.4594 17.0385 17.5399C15.9579 18.6205 14.4924 19.2275 12.9642 19.2275C11.4361 19.2275 9.97051 18.6205 8.88995 17.5399C7.80939 16.4594 7.20234 14.9938 7.20234 13.4657Z" fill="#9EDD05"/>
</svg>
