<svg width="32" height="32" viewBox="0 0 32 32" fill="none" xmlns="http://www.w3.org/2000/svg">
<path d="M20.1115 7.96327C20.3894 8.23457 20.8331 8.23457 21.111 7.96327C22.1666 6.93231 22.1666 5.19596 21.111 4.11074C20.8331 3.83944 20.3894 3.83944 20.1115 4.11074C19.8336 4.38205 19.8336 4.81614 20.1115 5.08744C20.6667 5.63005 20.6667 6.49822 20.1115 6.98657C19.8336 7.25788 19.8336 7.69196 20.1115 7.96327Z" fill="url(#paint0_linear_290_95338)"/>
<path d="M22.1111 8.88586C21.8337 9.15717 21.8337 9.59126 22.1111 9.86256C22.389 10.1339 22.8333 10.1339 23.1112 9.86256C25.2778 7.74639 25.2778 4.32795 23.1112 2.21177C22.8333 1.94047 22.389 1.94047 22.1111 2.21177C21.8337 2.48308 21.8337 2.91716 22.1111 3.18847C23.7225 4.70777 23.7225 7.3123 22.1111 8.88586Z" fill="url(#paint1_linear_290_95338)"/>
<path d="M24.0557 10.839C23.7783 11.1103 23.7783 11.5444 24.0557 11.8157C24.3336 12.087 24.7784 12.087 25.0563 11.8157C28.2785 8.66855 28.2785 3.4595 25.0563 0.312369C24.7784 0.0410652 24.3336 0.0410652 24.0557 0.312369C23.7783 0.583674 23.7783 1.01776 24.0557 1.28907C26.7781 3.89359 26.7781 8.1802 24.0557 10.839Z" fill="url(#paint2_linear_290_95338)"/>
<path d="M11.2232 7.96327C11.5011 8.23457 11.9454 8.23457 12.2233 7.96327C12.5006 7.69196 12.5006 7.25788 12.2233 6.98657C11.6675 6.44396 11.6675 5.57579 12.2233 5.08744C12.5006 4.81614 12.5006 4.38205 12.2233 4.11074C11.9454 3.83944 11.5011 3.83944 11.2232 4.11074C10.1121 5.1417 10.1121 6.87805 11.2232 7.96327Z" fill="url(#paint3_linear_290_95338)"/>
<path d="M9.22278 9.86256C9.50068 10.1339 9.94442 10.1339 10.2223 9.86256C10.5002 9.59126 10.5002 9.15717 10.2223 8.88586C8.61095 7.3123 8.61095 4.70777 10.2223 3.13421C10.5002 2.8629 10.5002 2.42881 10.2223 2.15751C9.94442 1.8862 9.50068 1.8862 9.22278 2.15751C7.05562 4.32795 7.05562 7.74639 9.22278 9.86256Z" fill="url(#paint4_linear_290_95338)"/>
<path d="M8.27749 11.7613C8.55539 11.49 8.55539 11.0559 8.27749 10.7846C5.55509 8.12585 5.55509 3.83924 8.27749 1.18046C8.55539 0.909152 8.55539 0.475064 8.27749 0.20376C7.9996 -0.0675449 7.55529 -0.0675449 7.2774 0.20376C4.05467 3.35089 4.05467 8.55994 7.2774 11.7071C7.55529 12.0326 7.9996 12.0326 8.27749 11.7613Z" fill="url(#paint5_linear_290_95338)"/>
<path d="M30.5561 27.6586C30.5561 28.147 30.1672 28.5268 29.6674 28.5268C28.6113 28.5268 3.61103 28.5268 2.27756 28.5268C1.77778 28.5268 1.38894 28.147 1.38894 27.6586V22.6124C1.38894 22.124 1.77778 21.7442 2.27756 21.7442C3.6665 21.7442 26.2783 21.7442 29.6674 21.7442C30.1672 21.7442 30.5561 22.124 30.5561 22.6124V27.6586ZM27.056 30.2632C27.056 30.4259 26.8896 30.5887 26.7226 30.5887H23.9447C23.7783 30.5887 23.6119 30.4259 23.6119 30.2632C23.6119 30.1004 23.7783 29.9376 23.9447 29.9376H26.7226C26.8896 29.9376 27.056 30.0461 27.056 30.2632ZM8.33363 30.2632C8.33363 30.4259 8.16665 30.5887 8.00025 30.5887H5.22183C5.05597 30.5887 4.88901 30.4259 4.88901 30.2632C4.88901 30.1004 5.05597 29.9376 5.22183 29.9376H8.00025C8.16665 29.9376 8.33363 30.0461 8.33363 30.2632ZM5.61121 19.7365C6.44435 19.7365 25.0563 19.7365 26.3338 19.7365C26.7226 19.7365 27.056 20.0621 27.112 20.4419H4.83299C4.88901 20.0621 5.22182 19.7365 5.61121 19.7365ZM15.1668 6.55113H17.2785V18.38H15.1668V6.55113ZM16.2224 2.48157C16.7782 2.48157 17.2785 2.91565 17.2785 3.51252V5.19461H15.1668V3.51252C15.1668 2.91565 15.6111 2.48157 16.2224 2.48157ZM29.612 20.4419H28.4455C28.3894 19.3025 27.4448 18.38 26.2783 18.38H18.6114V3.51252C18.6114 2.21026 17.5004 1.12504 16.1669 1.12504C14.8334 1.12504 13.7224 2.21026 13.7224 3.51252V18.38H5.61121C4.44415 18.38 3.50009 19.3025 3.44462 20.4419H2.27756C1.00011 20.4419 0 21.4729 0 22.6666V27.7129C0 28.9609 1.05558 29.9376 2.27756 29.9376H3.50007C3.27765 30.9686 4.11134 31.9995 5.22183 31.9995H8.00025C9.11183 31.9995 9.94445 31.0228 9.72257 29.9376H22.2784C22.056 30.9686 22.8892 31.9995 24.0008 31.9995H26.7781C27.8897 31.9995 28.7233 31.0228 28.5004 29.9376H29.7229C31.0009 29.9376 32.0004 28.9066 32.0004 27.7129V22.6666C31.9455 21.4186 30.8894 20.4419 29.612 20.4419Z" fill="url(#paint6_linear_290_95338)"/>
<path d="M27.0554 25.8691C26.6666 25.8691 26.3332 25.5436 26.3332 25.1637C26.3332 24.7839 26.6666 24.4583 27.0554 24.4583C27.4443 24.4583 27.7782 24.7839 27.7782 25.1637C27.7782 25.5436 27.4443 25.8691 27.0554 25.8691ZM27.0554 23.1561C25.8889 23.1561 24.9448 24.0785 24.9448 25.218C24.9448 26.3575 25.8889 27.2799 27.0554 27.2799C28.2219 27.2799 29.1666 26.3575 29.1666 25.218C29.1666 24.0785 28.2219 23.1561 27.0554 23.1561Z" fill="url(#paint7_linear_290_95338)"/>
<path d="M22.2225 25.8691C21.8336 25.8691 21.4997 25.5436 21.4997 25.1637C21.4997 24.7839 21.8336 24.4583 22.2225 24.4583C22.6113 24.4583 22.9447 24.7839 22.9447 25.1637C22.8886 25.5436 22.5553 25.8691 22.2225 25.8691ZM22.2225 23.1561C21.056 23.1561 20.1113 24.0785 20.1113 25.218C20.1113 26.3575 21.056 27.2799 22.2225 27.2799C23.389 27.2799 24.3331 26.3575 24.3331 25.218C24.3331 24.0785 23.3335 23.1561 22.2225 23.1561Z" fill="url(#paint8_linear_290_95338)"/>
<path d="M17.3336 25.8691C16.9447 25.8691 16.6119 25.5436 16.6119 25.1637C16.6119 24.7839 16.9447 24.4583 17.3336 24.4583C17.7224 24.4583 18.0563 24.7839 18.0563 25.1637C18.0563 25.5436 17.7224 25.8691 17.3336 25.8691ZM17.3336 23.1561C16.1671 23.1561 15.2224 24.0785 15.2224 25.218C15.2224 26.3575 16.1671 27.2799 17.3336 27.2799C18.5006 27.2799 19.4452 26.3575 19.4452 25.218C19.4452 24.0785 18.5006 23.1561 17.3336 23.1561Z" fill="url(#paint9_linear_290_95338)"/>
<path d="M3.44534 24.5125H7.61216C8.00099 24.5125 8.33435 24.1869 8.33435 23.8071C8.33435 23.4272 8.00099 23.1017 7.61216 23.1017H3.44534C3.05651 23.1017 2.72314 23.4272 2.72314 23.8071C2.77861 24.1869 3.05651 24.5125 3.44534 24.5125Z" fill="url(#paint10_linear_290_95338)"/>
<path d="M11.7789 25.1642H3.44534C3.05651 25.1642 2.72314 25.4897 2.72314 25.8696C2.72314 26.2494 3.05651 26.575 3.44534 26.575H11.7789C12.1678 26.575 12.5006 26.2494 12.5006 25.8696C12.5006 25.4897 12.1678 25.1642 11.7789 25.1642Z" fill="url(#paint11_linear_290_95338)"/>
<path d="M2.77788 15.0172C3.16672 15.0172 3.50008 15.3427 3.50008 15.7226C3.50008 16.1024 3.16672 16.428 2.77788 16.428C2.3885 16.428 2.05569 16.0481 2.05569 15.6683C2.05569 15.2885 2.3885 15.0172 2.77788 15.0172ZM2.77788 17.7302C3.94439 17.7302 4.88902 16.8078 4.88902 15.6683C4.88902 14.5288 3.94439 13.6064 2.77788 13.6064C1.61083 13.6064 0.666748 14.5288 0.666748 15.6683C0.666748 16.8078 1.61083 17.7302 2.77788 17.7302Z" fill="url(#paint12_linear_290_95338)"/>
<path d="M29.501 12.3044C30.0562 12.3044 30.556 12.7385 30.556 13.3354C30.556 13.9322 30.1117 14.3663 29.501 14.3663C28.8892 14.3663 28.4454 13.9322 28.4454 13.3354C28.4454 12.7385 28.8892 12.3044 29.501 12.3044ZM29.501 15.6686C30.8339 15.6686 31.9455 14.5834 31.9455 13.2811C31.9455 11.9788 30.8339 10.8936 29.501 10.8936C28.1675 10.8936 27.0559 11.9788 27.0559 13.2811C27.0559 14.5834 28.1675 15.6686 29.501 15.6686Z" fill="url(#paint13_linear_290_95338)"/>
<path d="M29.1665 7.5294C29.5658 7.5294 29.8892 7.8452 29.8892 8.23479C29.8892 8.62439 29.5658 8.94019 29.1665 8.94019C28.7683 8.94019 28.4448 8.62439 28.4448 8.23479C28.4448 7.8452 28.7683 7.5294 29.1665 7.5294Z" fill="url(#paint14_linear_290_95338)"/>
<path d="M25.0007 14.3116C25.4 14.3116 25.7234 14.6274 25.7234 15.017C25.7234 15.4066 25.4 15.7224 25.0007 15.7224C24.6025 15.7224 24.2791 15.4066 24.2791 15.017C24.2791 14.6274 24.6025 14.3116 25.0007 14.3116Z" fill="url(#paint15_linear_290_95338)"/>
<path d="M20.833 12.9548C21.2323 12.9548 21.5557 13.2706 21.5557 13.6602C21.5557 14.0498 21.2323 14.3656 20.833 14.3656C20.4343 14.3656 20.1113 14.0498 20.1113 13.6602C20.1113 13.2706 20.4343 12.9548 20.833 12.9548Z" fill="url(#paint16_linear_290_95338)"/>
<path d="M10.3895 13.6058C10.7882 13.6058 11.1117 13.9216 11.1117 14.3112C11.1117 14.7008 10.7882 15.0166 10.3895 15.0166C9.99021 15.0166 9.66675 14.7008 9.66675 14.3112C9.66675 13.9216 9.99021 13.6058 10.3895 13.6058Z" fill="url(#paint17_linear_290_95338)"/>
<path d="M1.38895 3.45994C1.78822 3.45994 2.11114 3.77574 2.11114 4.16534C2.11114 4.55493 1.78822 4.87073 1.38895 4.87073C0.989674 4.87073 0.666748 4.55493 0.666748 4.16534C0.666748 3.77574 0.989674 3.45994 1.38895 3.45994Z" fill="url(#paint18_linear_290_95338)"/>
<path d="M9.72203 23.1017C10.1208 23.1017 10.4442 23.4175 10.4442 23.8071C10.4442 24.1967 10.1208 24.5125 9.72203 24.5125C9.32276 24.5125 8.99927 24.1967 8.99927 23.8071C8.99927 23.4175 9.32276 23.1017 9.72203 23.1017Z" fill="url(#paint19_linear_290_95338)"/>
<defs>
<linearGradient id="paint0_linear_290_95338" x1="19.9031" y1="6.03701" x2="21.9027" y2="6.03701" gradientUnits="userSpaceOnUse">
<stop stop-color="#2E0797"/>
<stop offset="1" stop-color="#726EFC"/>
</linearGradient>
<linearGradient id="paint1_linear_290_95338" x1="21.9031" y1="6.03717" x2="24.7361" y2="6.03717" gradientUnits="userSpaceOnUse">
<stop stop-color="#2E0797"/>
<stop offset="1" stop-color="#726EFC"/>
</linearGradient>
<linearGradient id="paint2_linear_290_95338" x1="23.8477" y1="6.06403" x2="27.4729" y2="6.06403" gradientUnits="userSpaceOnUse">
<stop stop-color="#2E0797"/>
<stop offset="1" stop-color="#726EFC"/>
</linearGradient>
<linearGradient id="paint3_linear_290_95338" x1="10.3899" y1="6.03701" x2="12.4313" y2="6.03701" gradientUnits="userSpaceOnUse">
<stop stop-color="#2E0797"/>
<stop offset="1" stop-color="#726EFC"/>
</linearGradient>
<linearGradient id="paint4_linear_290_95338" x1="7.59741" y1="6.01004" x2="10.4307" y2="6.01004" gradientUnits="userSpaceOnUse">
<stop stop-color="#2E0797"/>
<stop offset="1" stop-color="#726EFC"/>
</linearGradient>
<linearGradient id="paint5_linear_290_95338" x1="4.86035" y1="5.97939" x2="8.48592" y2="5.97939" gradientUnits="userSpaceOnUse">
<stop stop-color="#2E0797"/>
<stop offset="1" stop-color="#726EFC"/>
</linearGradient>
<linearGradient id="paint6_linear_290_95338" x1="0" y1="16.5623" x2="32.0004" y2="16.5623" gradientUnits="userSpaceOnUse">
<stop stop-color="#2E0797"/>
<stop offset="1" stop-color="#726EFC"/>
</linearGradient>
<linearGradient id="paint7_linear_290_95338" x1="24.9448" y1="25.218" x2="29.1666" y2="25.218" gradientUnits="userSpaceOnUse">
<stop stop-color="#2E0797"/>
<stop offset="1" stop-color="#726EFC"/>
</linearGradient>
<linearGradient id="paint8_linear_290_95338" x1="20.1113" y1="25.218" x2="24.3331" y2="25.218" gradientUnits="userSpaceOnUse">
<stop stop-color="#2E0797"/>
<stop offset="1" stop-color="#726EFC"/>
</linearGradient>
<linearGradient id="paint9_linear_290_95338" x1="15.2224" y1="25.218" x2="19.4452" y2="25.218" gradientUnits="userSpaceOnUse">
<stop stop-color="#2E0797"/>
<stop offset="1" stop-color="#726EFC"/>
</linearGradient>
<linearGradient id="paint10_linear_290_95338" x1="2.72314" y1="23.8071" x2="8.33435" y2="23.8071" gradientUnits="userSpaceOnUse">
<stop stop-color="#2E0797"/>
<stop offset="1" stop-color="#726EFC"/>
</linearGradient>
<linearGradient id="paint11_linear_290_95338" x1="2.72314" y1="25.8696" x2="12.5006" y2="25.8696" gradientUnits="userSpaceOnUse">
<stop stop-color="#2E0797"/>
<stop offset="1" stop-color="#726EFC"/>
</linearGradient>
<linearGradient id="paint12_linear_290_95338" x1="0.666748" y1="15.6683" x2="4.88902" y2="15.6683" gradientUnits="userSpaceOnUse">
<stop stop-color="#2E0797"/>
<stop offset="1" stop-color="#726EFC"/>
</linearGradient>
<linearGradient id="paint13_linear_290_95338" x1="27.0559" y1="13.2811" x2="31.9455" y2="13.2811" gradientUnits="userSpaceOnUse">
<stop stop-color="#2E0797"/>
<stop offset="1" stop-color="#726EFC"/>
</linearGradient>
<linearGradient id="paint14_linear_290_95338" x1="28.4448" y1="8.23479" x2="29.8892" y2="8.23479" gradientUnits="userSpaceOnUse">
<stop stop-color="#2E0797"/>
<stop offset="1" stop-color="#726EFC"/>
</linearGradient>
<linearGradient id="paint15_linear_290_95338" x1="24.2791" y1="15.017" x2="25.7234" y2="15.017" gradientUnits="userSpaceOnUse">
<stop stop-color="#2E0797"/>
<stop offset="1" stop-color="#726EFC"/>
</linearGradient>
<linearGradient id="paint16_linear_290_95338" x1="20.1113" y1="13.6602" x2="21.5557" y2="13.6602" gradientUnits="userSpaceOnUse">
<stop stop-color="#2E0797"/>
<stop offset="1" stop-color="#726EFC"/>
</linearGradient>
<linearGradient id="paint17_linear_290_95338" x1="9.66675" y1="14.3112" x2="11.1117" y2="14.3112" gradientUnits="userSpaceOnUse">
<stop stop-color="#2E0797"/>
<stop offset="1" stop-color="#726EFC"/>
</linearGradient>
<linearGradient id="paint18_linear_290_95338" x1="0.666748" y1="4.16534" x2="2.11114" y2="4.16534" gradientUnits="userSpaceOnUse">
<stop stop-color="#2E0797"/>
<stop offset="1" stop-color="#726EFC"/>
</linearGradient>
<linearGradient id="paint19_linear_290_95338" x1="8.99927" y1="23.8071" x2="10.4442" y2="23.8071" gradientUnits="userSpaceOnUse">
<stop stop-color="#2E0797"/>
<stop offset="1" stop-color="#726EFC"/>
</linearGradient>
</defs>
</svg>
