<svg width="25" height="24" viewBox="0 0 25 24" fill="none" xmlns="http://www.w3.org/2000/svg">
<path d="M16.3543 20.8335V20.2918H17.408V20.8335H16.3543ZM15.3001 21.8752H8.47216V18.7501H15.3426V21.8752H15.3001ZM6.36466 20.8335V20.2918H7.41842V20.8335H6.36466ZM17.408 14.5835H16.3543V14.0418H17.408V14.5835ZM16.3543 18.7501H17.408V19.2918H16.3543V18.7501ZM8.47216 14.0835H15.3426V17.7085H8.47216V14.0835ZM6.36466 18.7501H7.41842V19.2918H6.36466V18.7501ZM7.41842 14.0835V14.6251H6.36466V14.0835H7.41842ZM7.41842 11.4584H6.36466V10.9168H7.41842V11.4584ZM7.41842 16.1668H6.36466V15.6251H7.41842V16.1668ZM6.36466 12.5001H7.41842V13.0418H6.36466V12.5001ZM6.36466 17.7085V17.1668H7.41842V17.7085H6.36466ZM15.3001 13.0418H8.47216V9.91678H15.3426V13.0418H15.3001ZM17.408 11.4584H16.3543V10.9168H17.408V11.4584ZM16.3543 16.1668V15.6251H17.408V16.1668H16.3543ZM16.3543 17.2085H17.408V17.7085H16.3543V17.2085ZM16.3543 13.0418V12.5001H17.408V13.0418H16.3543ZM2.14964 10.4584C2.14964 8.95844 3.4984 7.7501 5.05799 7.91677C5.43757 7.95843 5.77466 7.58343 5.60591 7.20843C5.39508 6.66676 5.26882 6.12509 5.26882 5.54176C5.26882 3.12508 7.24966 1.12507 9.73676 1.12507C11.4647 1.12507 13.0664 2.12508 13.783 3.66675C13.783 3.75008 13.8251 3.79175 13.8676 3.83342C14.4997 4.66675 14.8368 5.66676 14.8368 6.7501C14.8368 7.04176 15.0897 7.29176 15.3847 7.29176C15.6797 7.29176 15.9326 7.04176 15.9326 6.7501C15.9326 5.66676 15.6376 4.66675 15.1318 3.75008C16.818 3.12508 18.6301 4.37509 18.6301 6.12509C18.6301 6.5001 18.546 6.83343 18.4193 7.16676C18.251 7.54177 18.546 7.91677 18.9251 7.91677C20.4426 7.79177 21.7493 9.0001 21.7493 10.4584C21.7493 11.8751 20.5689 13.0001 19.1781 13.0001H18.4614V9.37511C18.4614 9.08344 18.2085 8.83344 17.9135 8.83344C17.6185 8.83344 17.3655 9.08344 17.3655 9.37511V9.91678H16.3543V9.37511C16.3543 9.08344 16.1014 8.83344 15.8064 8.83344H7.92425C7.62925 8.83344 7.37633 9.08344 7.37633 9.37511V9.91678H6.32258V9.37511C6.32258 9.08344 6.06965 8.83344 5.77465 8.83344C5.47965 8.83344 5.22674 9.08344 5.22674 9.37511V13.0418H4.63632C3.28757 13.0418 2.14964 11.8751 2.14964 10.4584ZM22.6768 10.4584C22.6768 8.6251 21.2856 7.1251 19.4735 6.8751C19.9368 4.62509 18.2085 2.54174 15.8905 2.54174C15.3847 2.54174 14.9209 2.62508 14.4576 2.83341C13.488 1.12507 11.6755 0.0834007 9.65217 0.0834007C6.06966 0.0834007 3.41423 3.41675 4.29923 6.8751C2.44464 7.04176 1.01172 8.58344 1.01172 10.4584C1.01172 12.4585 2.65548 14.0418 4.63632 14.0418H5.22674V22.3752C5.22674 22.6668 5.47965 22.9168 5.77465 22.9168C6.06965 22.9168 6.32258 22.6668 6.32258 22.3752V21.8752H7.37633V22.4168C7.37633 22.7085 7.62925 22.9585 7.92425 22.9585H15.8484C16.1434 22.9585 16.3964 22.7085 16.3964 22.4168V21.8752H17.4501V22.4168C17.4501 22.7085 17.703 22.9585 17.998 22.9585C18.293 22.9585 18.546 22.7085 18.546 22.4168V14.0835H19.136C21.0326 14.0835 22.6768 12.4585 22.6768 10.4584Z" fill="white"/>
<path d="M4.25703 0.499914C4.55953 0.499914 4.80494 0.742415 4.80494 1.04158C4.80494 1.34075 4.55953 1.58325 4.25703 1.58325C3.95411 1.58325 3.70911 1.34075 3.70911 1.04158C3.70911 0.742415 3.95411 0.499914 4.25703 0.499914Z" fill="white"/>
<path d="M16.3541 3.61204e-05C16.6566 3.61204e-05 16.902 0.242537 16.902 0.541705C16.902 0.840873 16.6566 1.08337 16.3541 1.08337C16.0512 1.08337 15.8062 0.840873 15.8062 0.541705C15.8062 0.242537 16.0512 3.61204e-05 16.3541 3.61204e-05Z" fill="white"/>
<path d="M22.1709 5.20853C22.4734 5.20853 22.7188 5.45103 22.7188 5.7502C22.7188 6.04937 22.4734 6.29187 22.1709 6.29187C21.868 6.29187 21.6226 6.04937 21.6226 5.7502C21.6226 5.45103 21.868 5.20853 22.1709 5.20853Z" fill="white"/>
<path d="M1.09577 5.70841C1.39827 5.70841 1.64369 5.95091 1.64369 6.25008C1.64369 6.54925 1.39827 6.79175 1.09577 6.79175C0.79327 6.79175 0.547852 6.54925 0.547852 6.25008C0.547852 5.95091 0.79327 5.70841 1.09577 5.70841Z" fill="white"/>
<path d="M0.547915 13.5417C0.850416 13.5417 1.09583 13.7842 1.09583 14.0833C1.09583 14.3825 0.850416 14.625 0.547915 14.625C0.245414 14.625 0 14.3825 0 14.0833C0 13.7842 0.245414 13.5417 0.547915 13.5417Z" fill="white"/>
<path d="M23.2246 12.9999C23.5271 12.9999 23.7721 13.2424 23.7721 13.5416C23.7721 13.8408 23.5271 14.0833 23.2246 14.0833C22.9216 14.0833 22.6766 13.8408 22.6766 13.5416C22.6766 13.2424 22.9216 12.9999 23.2246 12.9999Z" fill="white"/>
<path d="M1.60167 18.7502C1.30667 18.7502 1.05375 18.5002 1.05375 18.2085C1.05375 17.9168 1.30667 17.6668 1.60167 17.6668C1.89667 17.6668 2.14959 17.9168 2.14959 18.2085C2.14959 18.5002 1.89667 18.7502 1.60167 18.7502ZM3.0771 14.7918C2.95043 14.6251 2.69751 14.5418 2.48709 14.6251C2.27626 14.7085 2.10751 14.8751 2.10751 15.1251V16.7918C1.09584 16.4168 0 17.2085 0 18.2502C0 19.1252 0.716251 19.8335 1.60167 19.8335C2.48709 19.8335 3.20334 19.1252 3.20334 18.2502V16.6668L3.83543 17.5002C4.00418 17.7502 4.34127 17.7918 4.59419 17.6252C4.8471 17.4585 4.88961 17.1252 4.72085 16.8752L3.0771 14.7918Z" fill="white"/>
<path d="M21.1167 22.9167C20.8217 22.9167 20.5688 22.6667 20.5688 22.375C20.5688 22.0833 20.8217 21.8333 21.1167 21.8333C21.4122 21.8333 21.6651 22.0833 21.6651 22.375C21.6226 22.6667 21.3697 22.9167 21.1167 22.9167ZM24.1517 21.0417L22.5501 18.9583C22.4238 18.7916 22.1709 18.7083 21.9601 18.7916C21.7492 18.875 21.5805 19.0416 21.5805 19.2916V20.9583C20.5688 20.5833 19.4734 21.375 19.4734 22.4167C19.4734 23.2917 20.1896 24 21.0747 24C21.9601 24 22.6767 23.2917 22.6767 22.4167V20.8333L23.3088 21.6667C23.4772 21.9167 23.8147 21.9583 24.0672 21.7917C24.278 21.5833 24.3205 21.2917 24.1517 21.0417Z" fill="white"/>
<path d="M2.40237 22.4169C2.27612 22.4169 2.14946 22.2919 2.14946 22.1669C2.14946 22.0419 2.27612 21.9169 2.40237 21.9169C2.52904 21.9169 2.6553 22.0419 2.6553 22.1669C2.6553 22.2919 2.52904 22.4169 2.40237 22.4169ZM2.40237 20.8335C1.68571 20.8335 1.0957 21.4169 1.0957 22.1252C1.0957 22.8335 1.68571 23.4169 2.40237 23.4169C3.11904 23.4169 3.70905 22.8335 3.70905 22.1252C3.70905 21.4169 3.11904 20.8335 2.40237 20.8335Z" fill="white"/>
<path d="M1.85452 2.62495C1.98077 2.62495 2.10744 2.74995 2.10744 2.87495C2.10744 2.99995 2.02327 3.12495 1.85452 3.12495C1.68577 3.12495 1.60161 2.99995 1.60161 2.87495C1.60161 2.74995 1.72827 2.62495 1.85452 2.62495ZM1.85452 4.16663C2.57119 4.16663 3.1612 3.58329 3.1612 2.87495C3.1612 2.16662 2.57119 1.58328 1.85452 1.58328C1.13785 1.58328 0.547852 2.16662 0.547852 2.87495C0.547852 3.58329 1.13785 4.16663 1.85452 4.16663Z" fill="white"/>
<path d="M21.6225 1.58341C21.9179 1.58341 22.1708 1.83341 22.1708 2.12507C22.1708 2.41674 21.9179 2.66674 21.6225 2.66674C21.3275 2.66674 21.0746 2.41674 21.0746 2.12507C21.1167 1.79174 21.3275 1.58341 21.6225 1.58341ZM21.6225 3.66675C22.5079 3.66675 23.2246 2.95841 23.2246 2.08341C23.2246 1.2084 22.5079 0.500068 21.6225 0.500068C20.7375 0.500068 20.0212 1.2084 20.0212 2.08341C20.0212 2.95841 20.7375 3.66675 21.6225 3.66675Z" fill="white"/>
<path d="M21.6225 16.6667C21.3275 16.6667 21.0746 16.4167 21.0746 16.125C21.0746 15.8333 21.3275 15.5833 21.6225 15.5833C21.9179 15.5833 22.1708 15.8333 22.1708 16.125C22.1708 16.4167 21.9179 16.6667 21.6225 16.6667ZM21.6225 14.5833C20.7375 14.5833 20.0212 15.2917 20.0212 16.1667C20.0212 17.0417 20.7375 17.75 21.6225 17.75C22.5079 17.75 23.2246 17.0417 23.2246 16.1667C23.2246 15.2917 22.5079 14.5833 21.6225 14.5833Z" fill="white"/>
</svg>
