<svg width="36" height="37" viewBox="0 0 36 37" fill="none" xmlns="http://www.w3.org/2000/svg">
<path d="M14.4142 17.027C15.0676 16.3807 16.114 16.3807 16.7021 17.027C17.3556 17.6733 17.3556 18.7075 16.7021 19.2891C16.0481 19.9355 15.0023 19.9355 14.4142 19.2891C13.7601 18.7075 13.7601 17.6733 14.4142 17.027ZM15.5252 21.422C17.3556 21.422 18.7943 20.0001 18.7943 18.1904C18.7943 16.3807 17.3556 14.9588 15.5252 14.9588C13.6942 14.9588 12.2561 16.3807 12.2561 18.1904C12.2561 20.0001 13.7601 21.422 15.5252 21.422Z" fill="#2334DE"/>
<path d="M32.3286 34.8007C31.6745 35.4471 30.6281 35.4471 30.0393 34.8007C29.3859 34.1544 29.3859 33.1203 30.0393 32.5386C30.6934 31.8923 31.7392 31.8923 32.3286 32.5386C32.9814 33.1203 32.9814 34.1544 32.3286 34.8007ZM6.37176 29.5009C5.71834 30.1472 4.67129 30.1472 4.08314 29.5009C3.42971 28.8546 3.42971 27.8205 4.08314 27.2388C4.73721 26.5925 5.78297 26.5925 6.37176 27.2388C7.02584 27.8851 7.02584 28.9192 6.37176 29.5009ZM3.29853 8.30164C2.6451 7.65532 2.6451 6.62121 3.29853 6.03952C3.9526 5.3932 4.99833 5.3932 5.58712 6.03952C5.91416 6.36268 6.04472 6.75047 6.04472 7.20289C6.04472 8.10774 5.32537 8.81869 4.41018 8.81869C4.01851 8.81869 3.56029 8.6248 3.29853 8.30164ZM20.4286 18.1903C20.4286 20.8402 18.2059 23.0377 15.5249 23.0377C15.4597 23.0377 13.6293 23.167 12.06 21.6158C10.1644 19.7415 10.1644 16.6392 12.06 14.7648C12.9752 13.86 14.2174 13.3429 15.5249 13.3429C18.2712 13.3429 20.4286 15.5404 20.4286 18.1903ZM29.5817 2.74329C30.0393 2.74329 30.4323 2.93719 30.7593 3.19571C31.4128 3.84203 31.4128 4.87614 30.7593 5.45783C30.1053 6.10415 29.0589 6.10415 28.4707 5.45783C28.1437 5.13467 28.0131 4.74688 28.0131 4.29446C27.9472 3.45424 28.6665 2.74329 29.5817 2.74329ZM29.5165 30.8582L20.6903 22.1329C21.4097 21.228 21.8673 20.1293 21.9978 18.9659H26.1168C26.5744 18.9659 26.9674 18.5781 26.9674 18.1257C26.9674 17.6733 26.5744 17.2855 26.1168 17.2855H21.9978C21.8673 16.1221 21.4097 15.0234 20.6903 14.1185L27.8826 7.009C29.1241 7.71995 30.7593 7.59069 31.8704 6.49194C33.1779 5.1993 33.1779 3.19572 31.8704 1.90308C31.2816 1.32139 30.4323 0.933594 29.5817 0.933594C27.7514 0.933594 26.3133 2.3555 26.3133 4.16519C26.3133 4.74688 26.4439 5.32857 26.7709 5.78099L19.5786 12.8905C17.2248 11.0808 13.8904 11.0808 11.5371 12.8905L7.22167 8.6248C7.94102 7.39679 7.81048 5.78099 6.69881 4.68225C5.3913 3.38961 3.36442 3.38961 2.05692 4.68225C0.748768 5.97489 0.748768 7.97848 2.05692 9.27112C3.16794 10.3699 4.80314 10.4991 6.04472 9.78817L10.3596 14.0539C8.52919 16.3806 8.52919 19.6769 10.3596 22.0036L6.89463 25.4291C5.6524 24.7182 4.01852 24.8474 2.90685 25.9462C1.66398 27.1742 1.66398 29.2424 2.90685 30.535C4.21371 31.8277 6.24056 31.8277 7.54871 30.535C8.5951 29.5009 8.79093 27.8205 8.07157 26.5925L11.5371 23.167C12.4523 23.8779 13.5633 24.3304 14.7409 24.4596V32.6033C14.7409 33.0557 15.1326 33.4435 15.5902 33.4435C16.0478 33.4435 16.4401 33.0557 16.4401 32.6033V24.5889C17.6171 24.4596 18.7287 24.0072 19.6446 23.2963L28.4707 32.0216C27.7514 33.2496 27.8826 34.8654 28.9936 35.9641C30.3011 37.2568 32.3286 37.2568 33.6355 35.9641C34.8777 34.7361 34.8777 32.6679 33.6355 31.3752C32.3932 30.2765 30.7593 30.1472 29.5165 30.8582Z" fill="#2334DE"/>
<path d="M1.79519 16.8978C1.79519 16.7039 1.99101 16.51 2.18749 16.51C2.38333 16.51 2.57983 16.7039 2.57983 16.8978C2.57983 17.0917 2.38333 17.2856 2.18749 17.2856C1.99101 17.2856 1.79519 17.0917 1.79519 16.8978ZM4.21371 16.8978C4.21371 15.799 3.29852 14.8942 2.18749 14.8942C1.07582 14.8942 0.160645 15.799 0.160645 16.8978C0.160645 17.9965 1.07582 18.9014 2.18749 18.9014C3.29852 18.9014 4.21371 17.9965 4.21371 16.8978Z" fill="#2334DE"/>
<path d="M18.1396 4.35825C18.5972 4.35825 18.9901 4.74604 18.9901 5.19846C18.9901 5.65088 18.5972 6.03868 18.1396 6.03868C17.682 6.03868 17.2903 5.58625 17.2903 5.19846C17.2903 4.74604 17.682 4.35825 18.1396 4.35825ZM18.1396 7.58984C19.513 7.58984 20.6247 6.4911 20.6247 5.13383C20.6247 3.77656 19.4477 2.74245 18.1396 2.74245C16.8321 2.74245 15.6558 3.84119 15.6558 5.19846C15.6558 6.55573 16.7668 7.58984 18.1396 7.58984Z" fill="#2334DE"/>
<path d="M32.0017 22.1329C32.0017 22.5853 31.6087 22.9731 31.1511 22.9731C30.6935 22.9731 30.3665 22.5853 30.3665 22.1329C30.3665 21.6804 30.7595 21.2926 31.217 21.2926C31.6746 21.2926 32.0017 21.6804 32.0017 22.1329ZM28.7319 22.1329C28.7319 23.4901 29.8436 24.5889 31.217 24.5889C32.5898 24.5889 33.6356 23.4901 33.6356 22.1329C33.6356 20.7756 32.5239 19.6768 31.1511 19.6768C29.7783 19.6768 28.7319 20.7756 28.7319 22.1329Z" fill="#2334DE"/>
<path d="M34.4852 1.90258C34.955 1.90258 35.3357 2.27874 35.3357 2.74279C35.3357 3.20685 34.955 3.58301 34.4852 3.58301C34.0159 3.58301 33.6353 3.20685 33.6353 2.74279C33.6353 2.27874 34.0159 1.90258 34.4852 1.90258Z" fill="#2334DE"/>
<path d="M29.5818 12.4379C30.0517 12.4379 30.4324 12.814 30.4324 13.2781C30.4324 13.7421 30.0517 14.1183 29.5818 14.1183C29.1126 14.1183 28.7319 13.7421 28.7319 13.2781C28.7319 12.814 29.1126 12.4379 29.5818 12.4379Z" fill="#2334DE"/>
<path d="M12.3869 6.75023C12.8561 6.75023 13.2362 7.12639 13.2362 7.59045C13.2362 8.05451 12.8561 8.43066 12.3869 8.43066C11.917 8.43066 11.537 8.05451 11.537 7.59045C11.537 7.12639 11.917 6.75023 12.3869 6.75023Z" fill="#2334DE"/>
<path d="M13.2362 1.12719C13.7061 1.12719 14.0868 1.50334 14.0868 1.9674C14.0868 2.43146 13.7061 2.80762 13.2362 2.80762C12.7677 2.80762 12.387 2.43146 12.387 1.9674C12.387 1.50334 12.7677 1.12719 13.2362 1.12719Z" fill="#2334DE"/>
<path d="M5.84886 18.9026C6.31809 18.9026 6.69876 19.2787 6.69876 19.7428C6.69876 20.2068 6.31809 20.583 5.84886 20.583C5.37898 20.583 4.99829 20.2068 4.99829 19.7428C4.99829 19.2787 5.37898 18.9026 5.84886 18.9026Z" fill="#2334DE"/>
<path d="M10.7524 30.2131C11.2216 30.2131 11.6023 30.5893 11.6023 31.0533C11.6023 31.5174 11.2216 31.8936 10.7524 31.8936C10.2825 31.8936 9.90186 31.5174 9.90186 31.0533C9.90186 30.5893 10.2825 30.2131 10.7524 30.2131Z" fill="#2334DE"/>
<path d="M22.1946 31.8274C22.6631 31.8274 23.0438 32.2035 23.0438 32.6676C23.0438 33.1317 22.6631 33.5078 22.1946 33.5078C21.7247 33.5078 21.344 33.1317 21.344 32.6676C21.344 32.2035 21.7247 31.8274 22.1946 31.8274Z" fill="#2334DE"/>
<path d="M15.6562 34.219C16.1255 34.219 16.5061 34.5951 16.5061 35.0592C16.5061 35.5233 16.1255 35.8994 15.6562 35.8994C15.1864 35.8994 14.8057 35.5233 14.8057 35.0592C14.8057 34.5951 15.1864 34.219 15.6562 34.219Z" fill="#2334DE"/>
<path d="M30.3663 26.9807C30.8361 26.9807 31.2168 27.3569 31.2168 27.8209C31.2168 28.285 30.8361 28.6611 30.3663 28.6611C29.897 28.6611 29.5164 28.285 29.5164 27.8209C29.5164 27.3569 29.897 26.9807 30.3663 26.9807Z" fill="#2334DE"/>
</svg>
