<svg width="33" height="32" viewBox="0 0 33 32" fill="none" xmlns="http://www.w3.org/2000/svg">
<path d="M16.2416 12.2403V11.957L16.471 12.1269L16.2416 12.2403ZM18.3078 11.447L15.8972 10.0871C15.438 9.80381 14.8066 10.1438 14.8066 10.7104V13.4302C14.8066 13.9968 15.3806 14.3368 15.8972 14.0534L18.3078 12.6936C18.7667 12.4103 18.7667 11.7303 18.3078 11.447Z" fill="url(#paint0_linear_290_95217)"/>
<path d="M29.786 27.6518C29.6141 27.6518 29.4417 27.4818 29.4417 27.3118C29.4417 27.1419 29.6141 26.9719 29.786 26.9719C29.9585 26.9719 30.1304 27.1419 30.1304 27.3118C30.1304 27.4818 29.9585 27.6518 29.786 27.6518ZM29.786 25.5553C28.8108 25.5553 28.0068 26.3486 28.0068 27.3118C28.0068 28.2751 28.8108 29.0684 29.786 29.0684C30.7619 29.0684 31.5652 28.2751 31.5652 27.3118C31.5652 26.3486 30.7619 25.5553 29.786 25.5553Z" fill="url(#paint1_linear_290_95217)"/>
<path d="M27.2609 29.0688C27.6734 29.0688 28.007 29.3986 28.007 29.8054C28.007 30.2122 27.6734 30.542 27.2609 30.542C26.8491 30.542 26.5149 30.2122 26.5149 29.8054C26.5149 29.3986 26.8491 29.0688 27.2609 29.0688Z" fill="url(#paint2_linear_290_95217)"/>
<path d="M28.6961 12.0707C29.108 12.0707 29.4416 12.4005 29.4416 12.8073C29.4416 13.2142 29.108 13.5439 28.6961 13.5439C28.2836 13.5439 27.9495 13.2142 27.9495 12.8073C27.9495 12.4005 28.2836 12.0707 28.6961 12.0707Z" fill="url(#paint3_linear_290_95217)"/>
<path d="M29.4415 0.737732C29.854 0.737732 30.1876 1.0675 30.1876 1.47433C30.1876 1.88117 29.854 2.21094 29.4415 2.21094C29.0296 2.21094 28.696 1.88117 28.696 1.47433C28.696 1.0675 29.0296 0.737732 29.4415 0.737732Z" fill="url(#paint4_linear_290_95217)"/>
<path d="M2.1808 0.000427485C2.59297 0.000427485 2.92697 0.330199 2.92697 0.73703C2.92697 1.14386 2.59297 1.47363 2.1808 1.47363C1.76879 1.47363 1.43457 1.14386 1.43457 0.73703C1.43457 0.330199 1.76879 0.000427485 2.1808 0.000427485Z" fill="url(#paint5_linear_290_95217)"/>
<path d="M4.30409 7.08441C4.71604 7.08441 5.05026 7.41418 5.05026 7.82101C5.05026 8.22785 4.71604 8.55762 4.30409 8.55762C3.89186 8.55762 3.55786 8.22785 3.55786 7.82101C3.55786 7.41418 3.89186 7.08441 4.30409 7.08441Z" fill="url(#paint6_linear_290_95217)"/>
<path d="M2.86929 16.9995C3.28147 16.9995 3.61569 17.3292 3.61569 17.7361C3.61569 18.1429 3.28147 18.4727 2.86929 18.4727C2.45752 18.4727 2.12329 18.1429 2.12329 17.7361C2.12329 17.3292 2.45752 16.9995 2.86929 16.9995Z" fill="url(#paint7_linear_290_95217)"/>
<path d="M2.86929 29.0688C3.28147 29.0688 3.61569 29.3986 3.61569 29.8054C3.61569 30.2122 3.28147 30.542 2.86929 30.542C2.45752 30.542 2.12329 30.2122 2.12329 29.8054C2.12329 29.3986 2.45752 29.0688 2.86929 29.0688Z" fill="url(#paint8_linear_290_95217)"/>
<path d="M31.1634 19.9462L21.8658 29.1821L9.35454 28.7288C9.18235 28.7288 8.95298 28.7854 8.83798 28.9554L7.518 30.202L2.81194 25.5557L7.518 20.9094C20.8905 22.326 20.431 22.2693 20.431 22.2693C21.0051 22.326 21.4641 22.7226 21.522 23.2892C21.5793 24.0258 21.0051 24.5925 20.3164 24.5925L13.0276 24.2525C12.6258 24.2525 12.2817 24.5358 12.2817 24.9324C12.2817 25.3291 12.5684 25.669 12.9703 25.669L20.2591 26.009C21.522 26.0657 22.6118 25.2157 22.8989 24.0258C29.5567 17.8497 29.2696 18.133 29.2696 18.0764C29.7859 17.5664 30.6466 17.5664 31.1634 18.0764C31.6797 18.5863 31.6797 19.4362 31.1634 19.9462ZM28.2938 17.0564L22.6691 22.2693C22.2675 21.4761 21.4641 20.9661 20.5461 20.8528L7.28862 19.4362C7.05879 19.4362 6.82919 19.4929 6.71464 19.6629L1.20477 25.1024C0.917747 25.3857 0.917747 25.839 1.20477 26.1223L6.94424 31.7885C7.2312 32.0718 7.69018 32.0718 7.9772 31.7885L9.58415 30.202L22.0956 30.6553C22.2675 30.6553 22.4972 30.5986 22.6118 30.4286L32.1392 21.0228C33.2297 19.9462 33.2297 18.1897 32.1392 17.1698C31.1061 16.0365 29.3842 16.0365 28.2938 17.0564Z" fill="url(#paint9_linear_290_95217)"/>
<path d="M20.0293 15.6401C20.9479 14.7335 21.522 13.487 21.522 12.0704C21.522 9.35064 19.2833 7.08417 16.471 7.08417C13.6589 7.08417 11.4779 9.35064 11.4779 12.0704C11.4779 13.4303 12.0519 14.7335 12.9703 15.6401H7.86243V8.55738H11.4779C11.88 8.55738 12.2243 8.21741 12.2243 7.82078C12.2243 7.42414 11.88 7.08417 11.4779 7.08417H7.86243V5.66763C11.4205 5.66763 21.1776 5.66763 25.0798 5.66763V7.08417H21.4642C21.0625 7.08417 20.7181 7.42414 20.7181 7.82078C20.7181 8.21741 21.0625 8.55738 21.4642 8.55738H25.0798V15.6401H20.0293ZM12.9129 12.0704C12.9129 10.1439 14.5201 8.50072 16.5286 8.50072C18.5374 8.50072 20.0866 10.1439 20.0866 12.0704C20.0866 13.9969 18.48 15.6401 16.471 15.6401C14.4622 15.6401 12.9129 13.9969 12.9129 12.0704ZM10.3876 4.30775H7.86243V2.77788L10.3876 4.30775ZM12.8557 4.13776L9.69898 2.1546H15.266L12.8557 4.13776ZM25.1377 2.1546V4.30775H22.0956L24.6782 2.1546H25.1377ZM22.3827 2.1546L19.8001 4.30775H18.48L21.0625 2.1546H22.3827ZM18.8244 2.1546L16.2416 4.30775H14.9217L17.5044 2.1546H18.8244ZM7.17367 17.0566H25.8259C26.2276 17.0566 26.572 16.7167 26.572 16.32V1.47466C26.572 1.07803 26.2276 0.738058 25.8259 0.738058C6.19807 0.738058 7.17368 0.738058 7.11626 0.738058C6.77188 0.79472 6.48486 1.07803 6.48486 1.418V16.32C6.48486 16.7167 6.77188 17.0566 7.17367 17.0566Z" fill="url(#paint10_linear_290_95217)"/>
<path d="M1.43453 12.8071C1.43453 12.4104 1.77896 12.0705 2.18075 12.0705C2.58232 12.0705 2.92692 12.4104 2.92692 12.8071C2.92692 13.2037 2.58232 13.5437 2.18075 13.5437C1.77896 13.5437 1.43453 13.147 1.43453 12.8071ZM4.30432 12.8071C4.30432 11.6172 3.32872 10.6539 2.12334 10.6539C0.91796 10.6539 0 11.6172 0 12.8071C0 13.997 0.975603 14.9602 2.18075 14.9602C3.38613 14.9602 4.30432 13.9403 4.30432 12.8071Z" fill="url(#paint11_linear_290_95217)"/>
<path d="M30.4747 6.40394C31.0489 6.40394 31.5651 6.85724 31.5651 7.48052C31.5651 8.1038 31.1062 8.55709 30.4747 8.55709C29.8433 8.55709 29.3843 8.1038 29.3843 7.48052C29.3843 6.85724 29.9011 6.40394 30.4747 6.40394ZM30.4747 9.97363C31.8522 9.97363 33 8.8404 33 7.48052C33 6.12063 31.8522 4.9874 30.4747 4.9874C29.0978 4.9874 27.9495 6.12063 27.9495 7.48052C28.0068 8.8404 29.0978 9.97363 30.4747 9.97363Z" fill="url(#paint12_linear_290_95217)"/>
<defs>
<linearGradient id="paint0_linear_290_95217" x1="14.8066" y1="12.0703" x2="18.652" y2="12.0703" gradientUnits="userSpaceOnUse">
<stop stop-color="#2E0797"/>
<stop offset="1" stop-color="#726EFC"/>
</linearGradient>
<linearGradient id="paint1_linear_290_95217" x1="28.0068" y1="27.3118" x2="31.5652" y2="27.3118" gradientUnits="userSpaceOnUse">
<stop stop-color="#2E0797"/>
<stop offset="1" stop-color="#726EFC"/>
</linearGradient>
<linearGradient id="paint2_linear_290_95217" x1="26.5149" y1="29.8054" x2="28.007" y2="29.8054" gradientUnits="userSpaceOnUse">
<stop stop-color="#2E0797"/>
<stop offset="1" stop-color="#726EFC"/>
</linearGradient>
<linearGradient id="paint3_linear_290_95217" x1="27.9495" y1="12.8073" x2="29.4416" y2="12.8073" gradientUnits="userSpaceOnUse">
<stop stop-color="#2E0797"/>
<stop offset="1" stop-color="#726EFC"/>
</linearGradient>
<linearGradient id="paint4_linear_290_95217" x1="28.696" y1="1.47433" x2="30.1876" y2="1.47433" gradientUnits="userSpaceOnUse">
<stop stop-color="#2E0797"/>
<stop offset="1" stop-color="#726EFC"/>
</linearGradient>
<linearGradient id="paint5_linear_290_95217" x1="1.43457" y1="0.73703" x2="2.92697" y2="0.73703" gradientUnits="userSpaceOnUse">
<stop stop-color="#2E0797"/>
<stop offset="1" stop-color="#726EFC"/>
</linearGradient>
<linearGradient id="paint6_linear_290_95217" x1="3.55786" y1="7.82101" x2="5.05026" y2="7.82101" gradientUnits="userSpaceOnUse">
<stop stop-color="#2E0797"/>
<stop offset="1" stop-color="#726EFC"/>
</linearGradient>
<linearGradient id="paint7_linear_290_95217" x1="2.12329" y1="17.7361" x2="3.61569" y2="17.7361" gradientUnits="userSpaceOnUse">
<stop stop-color="#2E0797"/>
<stop offset="1" stop-color="#726EFC"/>
</linearGradient>
<linearGradient id="paint8_linear_290_95217" x1="2.12329" y1="29.8054" x2="3.61569" y2="29.8054" gradientUnits="userSpaceOnUse">
<stop stop-color="#2E0797"/>
<stop offset="1" stop-color="#726EFC"/>
</linearGradient>
<linearGradient id="paint9_linear_290_95217" x1="0.989502" y1="24.153" x2="32.9571" y2="24.153" gradientUnits="userSpaceOnUse">
<stop stop-color="#2E0797"/>
<stop offset="1" stop-color="#726EFC"/>
</linearGradient>
<linearGradient id="paint10_linear_290_95217" x1="6.48486" y1="8.89735" x2="26.572" y2="8.89735" gradientUnits="userSpaceOnUse">
<stop stop-color="#2E0797"/>
<stop offset="1" stop-color="#726EFC"/>
</linearGradient>
<linearGradient id="paint11_linear_290_95217" x1="0" y1="12.8071" x2="4.30432" y2="12.8071" gradientUnits="userSpaceOnUse">
<stop stop-color="#2E0797"/>
<stop offset="1" stop-color="#726EFC"/>
</linearGradient>
<linearGradient id="paint12_linear_290_95217" x1="27.9495" y1="7.48052" x2="33" y2="7.48052" gradientUnits="userSpaceOnUse">
<stop stop-color="#2E0797"/>
<stop offset="1" stop-color="#726EFC"/>
</linearGradient>
</defs>
</svg>
