<svg width="22" height="24" viewBox="0 0 22 24" fill="none" xmlns="http://www.w3.org/2000/svg">
<path d="M10.1184 5.05216C9.91268 5.25546 9.91268 5.58074 10.1184 5.78405C10.3242 5.98735 10.6531 5.98735 10.8588 5.78405C11.0642 5.58074 11.3935 5.58074 11.5993 5.78405C11.8046 5.98735 12.134 5.98735 12.3397 5.78405C12.5455 5.58074 12.5455 5.25546 12.3397 5.05216C11.7225 4.44225 10.7352 4.44225 10.1184 5.05216Z" fill="white"/>
<path d="M13.368 4.7268C13.5733 4.52349 13.5733 4.19821 13.368 3.99491C12.175 2.81575 10.242 2.81575 9.0901 3.99491C8.88436 4.19821 8.88436 4.52349 9.0901 4.7268C9.29584 4.9301 9.62479 4.9301 9.83053 4.7268C10.612 3.95425 11.8871 3.95425 12.6686 4.7268C12.8333 4.9301 13.1623 4.9301 13.368 4.7268Z" fill="white"/>
<path d="M14.5196 3.62902C14.7253 3.42571 14.7253 3.10043 14.5196 2.89713C12.7098 1.10806 9.78955 1.10806 7.97975 2.89713C7.774 3.10043 7.774 3.42571 7.97975 3.62902C8.18508 3.83232 8.51443 3.83232 8.71977 3.62902C10.1185 2.24656 12.4219 2.24656 13.8202 3.62902C13.9849 3.83232 14.3138 3.83232 14.5196 3.62902Z" fill="white"/>
<path d="M7.60924 2.53112C9.62478 0.538751 12.8744 0.538751 14.8899 2.53112C15.0953 2.73442 15.4246 2.73442 15.6299 2.53112C15.8357 2.32781 15.8357 2.00253 15.6299 1.79923C13.2033 -0.599744 9.29584 -0.599744 6.91029 1.79923C6.70455 2.00253 6.70455 2.32781 6.91029 2.53112C7.07456 2.73442 7.4039 2.73442 7.60924 2.53112Z" fill="white"/>
<path d="M12.3808 7.65433C13.2034 7.65433 13.8613 8.30489 13.8613 9.1181C13.4912 9.1181 7.93823 9.1181 7.56822 9.1181C6.74566 9.1181 6.0463 8.46754 6.0463 7.61367L12.3808 7.65433ZM13.9023 12.7776C13.9023 14.2413 12.7098 15.4205 11.2289 15.4205C9.74844 15.4205 8.55546 14.2413 8.55546 12.7776V10.1346H13.8613L13.9023 12.7776ZM7.52716 10.1753V12.8182C7.52716 14.8106 9.17228 16.4777 11.2289 16.4777C13.2855 16.4777 14.931 14.8512 14.931 12.8182C14.931 12.0457 14.931 9.93132 14.931 9.15877C14.931 7.77631 13.7791 6.67847 12.4219 6.67847H5.51161C5.22373 6.67847 4.97693 6.92244 4.97693 7.20706V7.69499C5.018 8.99612 6.12884 10.1346 7.52716 10.1753Z" fill="white"/>
<path d="M5.18276 13.7534C5.47796 13.7534 5.71745 13.99 5.71745 14.282C5.71745 14.5739 5.47796 14.8105 5.18276 14.8105C4.88757 14.8105 4.64807 14.5739 4.64807 14.282C4.64807 13.99 4.88757 13.7534 5.18276 13.7534Z" fill="white"/>
<path d="M16.9872 14.2414C17.2828 14.2414 17.5223 14.4781 17.5223 14.77C17.5223 15.0619 17.2828 15.2986 16.9872 15.2986C16.692 15.2986 16.4525 15.0619 16.4525 14.77C16.4525 14.4781 16.692 14.2414 16.9872 14.2414Z" fill="white"/>
<path d="M20.6072 3.58833C20.9024 3.58833 21.1419 3.82498 21.1419 4.11692C21.1419 4.40886 20.9024 4.64551 20.6072 4.64551C20.3116 4.64551 20.0721 4.40886 20.0721 4.11692C20.0721 3.82498 20.3116 3.58833 20.6072 3.58833Z" fill="white"/>
<path d="M16.494 5.62142C16.7892 5.62142 17.0283 5.85806 17.0283 6.15C17.0283 6.44194 16.7892 6.67859 16.494 6.67859C16.1984 6.67859 15.9594 6.44194 15.9594 6.15C15.9594 5.85806 16.1984 5.62142 16.494 5.62142Z" fill="white"/>
<path d="M6.21108 4.07613C6.50628 4.07613 6.74577 4.31277 6.74577 4.60471C6.74577 4.89666 6.50628 5.1333 6.21108 5.1333C5.91548 5.1333 5.67639 4.89666 5.67639 4.60471C5.67639 4.31277 5.91548 4.07613 6.21108 4.07613Z" fill="white"/>
<path d="M2.09767 7.65425C2.39287 7.65425 2.63236 7.8909 2.63236 8.18284C2.63236 8.47478 2.39287 8.71143 2.09767 8.71143C1.80247 8.71143 1.56299 8.47478 1.56299 8.18284C1.56299 7.8909 1.80247 7.65425 2.09767 7.65425Z" fill="white"/>
<path d="M1.06937 14.2822C1.06937 13.9975 1.31618 13.7536 1.60406 13.7536C1.89194 13.7536 2.13874 13.9975 2.13874 14.2822C2.13874 14.5668 1.89194 14.8108 1.60406 14.8108C1.31618 14.8108 1.06937 14.5261 1.06937 14.2822ZM3.12598 14.2822C3.12598 13.4283 2.42662 12.7371 1.56299 12.7371C0.699364 12.7371 0 13.4283 0 14.2822C0 15.136 0.699364 15.8273 1.56299 15.8273C2.42662 15.8273 3.12598 15.0954 3.12598 14.2822Z" fill="white"/>
<path d="M2.8381 2.57172C2.9613 2.57172 3.08491 2.6937 3.08491 2.81568C3.08491 2.93767 2.9613 3.05965 2.8381 3.05965C2.71449 3.05965 2.59129 2.97833 2.59129 2.81568C2.59129 2.65304 2.71449 2.57172 2.8381 2.57172ZM2.8381 4.11682C3.53746 4.11682 4.11322 3.54757 4.11322 2.85634C4.11322 2.16512 3.53746 1.55521 2.8381 1.55521C2.13874 1.55521 1.56299 2.12446 1.56299 2.81568C1.56299 3.50691 2.13874 4.11682 2.8381 4.11682Z" fill="white"/>
<path d="M19.8254 11.2326C19.4143 11.2326 19.0439 10.9073 19.0439 10.4601C19.0439 10.0128 19.3732 9.68753 19.8254 9.68753C20.2779 9.68753 20.6073 10.0128 20.6073 10.4601C20.6073 10.9073 20.2369 11.2326 19.8254 11.2326ZM19.8254 8.67102C18.8386 8.67102 18.016 9.48423 18.016 10.4601C18.016 11.4359 18.8386 12.2491 19.8254 12.2491C20.813 12.2491 21.6356 11.4359 21.6356 10.4601C21.6356 9.48423 20.813 8.67102 19.8254 8.67102Z" fill="white"/>
<path d="M16.494 22.9022V21.3571C16.494 21.0724 16.2472 20.8285 15.9593 20.8285C15.6714 20.8285 15.4246 21.0724 15.4246 21.3571V22.9022H5.67624V21.3571C5.67624 21.0724 5.42944 20.8285 5.14156 20.8285C4.85368 20.8285 4.64794 21.1131 4.64794 21.3977V22.9428H3.61964V19.568C3.61964 18.8768 4.19539 18.3482 4.85368 18.3482H6.95136L8.8433 20.7472C9.00797 20.9505 9.33691 20.9911 9.54265 20.8285L11.0642 19.7306L12.5454 20.8285C12.7508 20.9911 13.0801 20.9505 13.2444 20.7472L15.1367 18.3482H16.6993C17.3987 18.3482 17.9334 18.9174 17.9334 19.568V22.9428H16.494V22.9022ZM8.0618 17.4943L10.242 19.0394L9.37798 19.6493L7.85606 17.7383L8.0618 17.4943ZM14.108 17.4943L14.3138 17.7383L12.7922 19.6493L11.9693 19.0394L14.108 17.4943ZM20.0721 22.9022H19.0438V19.5273C19.0438 18.2669 18.0159 17.291 16.7819 17.291H15.2189L14.6427 16.5185C14.4784 16.3152 14.1491 16.2338 13.9438 16.4371L11.1467 18.4702L8.3086 16.4371C8.10286 16.2745 7.77392 16.3152 7.60924 16.5591L7.0335 17.3317H4.93581C3.6607 17.3317 2.67346 18.3482 2.67346 19.568V22.9428H1.64516C1.35728 22.9428 1.11047 23.1868 1.11047 23.4714C1.11047 23.756 1.35728 24 1.64516 24C2.38559 24 18.8795 24 20.1546 24C20.4425 24 20.6893 23.756 20.6893 23.4714C20.6072 23.1461 20.3604 22.9022 20.0721 22.9022Z" fill="white"/>
</svg>
