<svg width="23" height="24" viewBox="0 0 23 24" fill="none" xmlns="http://www.w3.org/2000/svg">
<path d="M18.1248 13.4751C17.5618 13.4751 4.58079 13.4751 4.05835 13.4751C3.77707 13.4751 3.53591 13.2359 3.53591 12.9568C3.53591 12.6777 3.77707 12.4385 4.05835 12.4385C5.62566 12.4385 16.8384 12.4385 18.1248 12.4385C18.4061 12.4385 18.6472 12.6777 18.6472 12.9568C18.6472 13.2359 18.4061 13.4751 18.1248 13.4751ZM16.5571 15.9468H5.62566L5.224 14.4319H16.9993L16.5571 15.9468ZM14.9095 22.206C14.7888 22.6445 14.3871 22.9236 13.9449 22.9236H8.23785C7.79606 22.9236 7.394 22.6047 7.27362 22.206L5.86681 16.9435H16.3159L14.9095 22.206ZM7.15284 9.96678H8.59977C9.52427 9.96678 10.328 10.6047 10.529 11.4817H9.08209C8.15759 11.4817 7.35387 10.8439 7.15284 9.96678ZM7.83618 4.22591C7.83618 2.43189 9.28311 0.996677 11.0916 0.996677C12.9 0.996677 14.3466 2.43189 14.3466 4.22591C14.3466 6.01993 12.9 7.45515 11.0916 7.45515C9.28311 7.45515 7.83618 6.01993 7.83618 4.22591ZM13.6235 9.96678H15.0704C14.8289 10.8439 14.0653 11.4817 13.1412 11.4817H11.6943C11.8953 10.6047 12.6589 9.96678 13.6235 9.96678ZM18.1248 11.4817H15.3517C15.834 10.9635 16.1153 10.2458 16.1153 9.48837C16.1153 9.2093 15.8742 8.9701 15.5929 8.9701H13.5834C12.8198 8.9701 12.0963 9.24917 11.5735 9.72757V8.45183C13.5429 8.21262 15.0704 6.69767 15.3116 4.74419H16.1153V7.49502C16.1153 7.77409 16.3565 8.01329 16.6378 8.01329C16.919 8.01329 17.1598 7.77409 17.1598 7.49502V4.26578C17.1598 3.98671 16.919 3.74751 16.6378 3.74751H15.3517C15.0704 1.63455 13.2616 0 11.0916 0C8.92118 0 7.11271 1.63455 6.87156 3.74751H5.58554C5.30425 3.74751 5.06309 3.98671 5.06309 4.26578V7.49502C5.06309 7.77409 5.30425 8.01329 5.58554 8.01329C5.86682 8.01329 6.10797 7.77409 6.10797 7.49502V4.74419H6.91169C7.15284 6.69767 8.68003 8.21262 10.6494 8.45183V9.72757C10.127 9.24917 9.40349 8.9701 8.6399 8.9701H6.63041C6.34913 8.9701 6.10797 9.2093 6.10797 9.48837C6.10797 10.2458 6.38925 10.9635 6.87156 11.4817H4.09847C3.25423 11.4817 2.57129 12.1595 2.57129 12.9967C2.57129 13.8339 3.25423 14.5116 4.09847 14.5116H4.21925L6.34913 22.5249C6.59028 23.402 7.35388 24 8.27797 24H14.0252C14.9095 24 15.7133 23.402 15.9544 22.5249L18.0847 14.5116H18.2051C19.0489 14.5116 19.7322 13.8339 19.7322 12.9967C19.7322 12.1595 18.9687 11.4817 18.1248 11.4817Z" fill="#5038C9"/>
<path d="M14.107 18.4185C14.3958 18.4185 14.6298 18.6506 14.6298 18.9368C14.6298 19.2231 14.3958 19.4551 14.107 19.4551C13.8186 19.4551 13.585 19.2231 13.585 18.9368C13.585 18.6506 13.8186 18.4185 14.107 18.4185Z" fill="#5038C9"/>
<path d="M21.1391 15.9469C21.4275 15.9469 21.6615 16.1789 21.6615 16.4651C21.6615 16.7514 21.4275 16.9834 21.1391 16.9834C20.8502 16.9834 20.6162 16.7514 20.6162 16.4651C20.6162 16.1789 20.8502 15.9469 21.1391 15.9469Z" fill="#5038C9"/>
<path d="M19.6523 7.97334C19.9412 7.97334 20.1752 8.20537 20.1752 8.49162C20.1752 8.77786 19.9412 9.00989 19.6523 9.00989C19.3639 9.00989 19.1299 8.77786 19.1299 8.49162C19.1299 8.20537 19.3639 7.97334 19.6523 7.97334Z" fill="#5038C9"/>
<path d="M16.6386 0.996658C16.9271 0.996658 17.1607 1.22868 17.1607 1.51493C17.1607 1.80118 16.9271 2.0332 16.6386 2.0332C16.3498 2.0332 16.1162 1.80118 16.1162 1.51493C16.1162 1.22868 16.3498 0.996658 16.6386 0.996658Z" fill="#5038C9"/>
<path d="M4.58005 1.47505C4.86848 1.47505 5.10248 1.70708 5.10248 1.99332C5.10248 2.27957 4.86848 2.5116 4.58005 2.5116C4.29162 2.5116 4.05762 2.27957 4.05762 1.99332C4.05762 1.70708 4.29162 1.47505 4.58005 1.47505Z" fill="#5038C9"/>
<path d="M2.57126 9.44844C2.85969 9.44844 3.0937 9.68047 3.0937 9.96671C3.0937 10.253 2.85969 10.485 2.57126 10.485C2.28283 10.485 2.04883 10.253 2.04883 9.96671C2.04883 9.68047 2.28283 9.44844 2.57126 9.44844Z" fill="#5038C9"/>
<path d="M1.0449 14.4318C1.33333 14.4318 1.56734 14.6639 1.56734 14.9501C1.56734 15.2364 1.33333 15.4684 1.0449 15.4684C0.756466 15.4684 0.522461 15.2364 0.522461 14.9501C0.522461 14.6639 0.756466 14.4318 1.0449 14.4318Z" fill="#5038C9"/>
<path d="M18.1259 21.4086C18.4144 21.4086 18.6484 21.6407 18.6484 21.9269C18.6484 22.2132 18.4144 22.4452 18.1259 22.4452C17.8371 22.4452 17.6035 22.2132 17.6035 21.9269C17.6035 21.6407 17.8371 21.4086 18.1259 21.4086Z" fill="#5038C9"/>
<path d="M3.5781 22.9235C3.86653 22.9235 4.10053 23.1556 4.10053 23.4418C4.10053 23.7281 3.86653 23.9601 3.5781 23.9601C3.28927 23.9601 3.05566 23.7281 3.05566 23.4418C3.05566 23.1556 3.28927 22.9235 3.5781 22.9235Z" fill="#5038C9"/>
<path d="M8.07811 18.4185C8.36654 18.4185 8.60054 18.6506 8.60054 18.9368C8.60054 19.2231 8.36654 19.4551 8.07811 19.4551C7.78967 19.4551 7.55566 19.2231 7.55566 18.9368C7.55566 18.6506 7.78967 18.4185 8.07811 18.4185Z" fill="#5038C9"/>
<path d="M12.6207 18.4585H9.60642C9.32514 18.4585 9.08398 18.6977 9.08398 18.9767C9.08398 19.2558 9.32514 19.495 9.60642 19.495H12.6207C12.9019 19.495 13.1431 19.2558 13.1431 18.9767C13.103 18.6578 12.8618 18.4585 12.6207 18.4585Z" fill="#5038C9"/>
<path d="M11.6141 19.9335H10.6093C10.3281 19.9335 10.0869 20.1728 10.0869 20.4518C10.0869 20.7309 10.3281 20.9701 10.6093 20.9701H11.6141C11.8954 20.9701 12.1365 20.7309 12.1365 20.4518C12.0964 20.1728 11.8553 19.9335 11.6141 19.9335Z" fill="#5038C9"/>
<path d="M2.04965 19.9335C1.76837 19.9335 1.52721 19.6943 1.52721 19.4153C1.52721 19.1362 1.76837 18.897 2.04965 18.897C2.33093 18.897 2.57208 19.1362 2.57208 19.4153C2.57208 19.6943 2.33093 19.9335 2.04965 19.9335ZM3.57683 19.4551C3.57683 18.6179 2.89349 17.9402 2.04965 17.9402C1.2058 17.9402 0.522461 18.6179 0.522461 19.4551C0.522461 20.2924 1.2058 20.9701 2.04965 20.9701C2.89349 20.9701 3.57683 20.2525 3.57683 19.4551Z" fill="#5038C9"/>
<path d="M10.7315 3.54811C10.6512 3.50824 10.6512 3.42851 10.6512 3.34877C10.6512 3.14944 10.7716 3.0697 11.0128 3.02983V3.70758C10.8924 3.66771 10.7716 3.62784 10.7315 3.54811ZM11.2539 4.70425C11.3747 4.74412 11.4951 4.78399 11.5753 4.86372C11.656 4.90359 11.6961 4.98332 11.6961 5.06306C11.6961 5.26239 11.5753 5.34213 11.294 5.34213L11.2539 4.70425ZM11.3342 6.77734V6.13947C11.656 6.13947 11.9774 6.05974 12.2587 5.8604C12.3794 5.78067 12.4597 5.66106 12.5404 5.5016C12.6206 5.34213 12.6607 5.18266 12.6607 4.98332C12.6607 4.50492 12.4597 4.18598 11.9774 3.98665C11.656 3.86704 11.3342 3.78731 11.294 3.78731V3.0697C11.656 3.10957 12.0982 3.34877 12.1784 3.42851L12.5805 2.7109C12.4196 2.63116 12.2587 2.55143 12.0576 2.4717C11.857 2.39196 11.6159 2.35209 11.3747 2.31223V1.75409H11.0128V2.31223C10.4903 2.35209 10.0887 2.5913 9.88764 3.02983C9.76726 3.3089 9.76726 3.66771 9.84752 3.90691C9.92777 4.14611 10.1288 4.30558 10.3699 4.42518C10.6512 4.58465 10.9726 4.62452 11.0934 4.66439V5.38199C10.9726 5.38199 10.8523 5.34213 10.7315 5.30226C10.5309 5.22253 10.3298 5.14279 10.1689 5.02319C10.0887 4.98332 10.0485 4.94346 10.0485 4.94346L9.64648 5.70093C10.0485 5.98 10.571 6.13947 11.0529 6.17934V6.77734H11.3342Z" fill="#5038C9"/>
<path d="M1.04488 5.98017C1.04488 5.7011 1.28603 5.46189 1.56731 5.46189C1.84859 5.46189 2.08975 5.7011 2.08975 5.98017C2.08975 6.25924 1.84859 6.49844 1.56731 6.49844C1.28603 6.49844 1.04488 6.25924 1.04488 5.98017ZM3.05437 5.98017C3.05437 5.14296 2.37103 4.46522 1.52719 4.46522C0.682944 4.46522 0 5.14296 0 5.98017C0 6.81738 0.682944 7.49512 1.52719 7.49512C2.37103 7.49512 3.05437 6.81738 3.05437 5.98017Z" fill="#5038C9"/>
<path d="M20.6569 5.50161C20.094 5.50161 19.6518 5.06307 19.6518 4.50494C19.6518 3.9468 20.094 3.50826 20.6569 3.50826C21.2195 3.50826 21.6617 3.9468 21.6617 4.50494C21.6617 5.02321 21.1794 5.50161 20.6569 5.50161ZM20.6569 2.51158C19.5314 2.51158 18.6475 3.38866 18.6475 4.50494C18.6475 5.62121 19.5314 6.49829 20.6569 6.49829C21.7821 6.49829 22.666 5.62121 22.666 4.50494C22.666 3.38866 21.7419 2.51158 20.6569 2.51158Z" fill="#5038C9"/>
</svg>
