<svg width="29" height="29" viewBox="0 0 29 29" fill="none" xmlns="http://www.w3.org/2000/svg">
<path d="M27.7917 26.7351C27.7917 27.069 27.5499 27.3075 27.2116 27.3075H1.78836C1.45008 27.3075 1.2088 27.069 1.2088 26.7351V26.115C1.2088 25.7811 1.45008 25.5426 1.78836 25.5426C5.02682 25.5426 9.47316 25.5426 11.455 25.5426V26.1627C11.455 26.4966 11.7451 26.7828 12.0833 26.7828H16.9171C17.2554 26.7828 17.545 26.4966 17.545 26.1627V25.5426C19.6234 25.5426 25.085 25.5426 27.2116 25.5426C27.5499 25.5426 27.7917 25.7811 27.7917 26.115V26.7351ZM3.04496 10.5172C3.04496 9.94476 3.52848 9.42006 4.15725 9.42006H8.50706V10.6126H4.83381C4.49553 10.6126 4.20503 10.8988 4.20503 11.2327V24.3501H2.99718V10.5172H3.04496ZM10.875 9.46776V10.6603H9.66715V9.46776H10.875ZM15.7083 9.46776V10.6603H12.0833V9.46776H15.7083ZM19.3333 9.46776V10.6603H16.9171V9.46776H19.3333ZM16.9171 24.3501C16.5789 24.3501 16.2884 24.6363 16.2884 24.9702V25.5903H12.6634V24.9702C12.6634 24.6363 12.3738 24.3501 12.0351 24.3501H5.4621V11.8528H8.50706V20.8203C8.50706 21.1542 8.79661 21.4404 9.13488 21.4404C9.47316 21.4404 9.76366 21.1542 9.76366 20.8203V11.8528H10.972V18.4353C10.972 18.7692 11.262 19.0554 11.6003 19.0554C11.9386 19.0554 12.2286 18.7692 12.2286 18.4353V11.8528H15.8536V15.4302C15.8536 15.7641 16.1431 16.0503 16.4814 16.0503C16.8197 16.0503 17.1102 15.7641 17.1102 15.4302V11.8528H19.5263V20.8203C19.5263 21.1542 19.8169 21.4404 20.1551 21.4404C20.4934 21.4404 20.7834 21.1542 20.7834 20.8203V11.8528H23.8284V24.3501H16.9171ZM24.8915 9.46776C25.4715 9.46776 26.0033 9.94476 26.0033 10.5649V24.3978H24.7949V11.2327C24.7949 10.8988 24.5049 10.6126 24.1667 10.6126H20.5417V9.42006H24.8915V9.46776ZM5.36512 3.64838C5.12335 3.40988 5.12335 3.02828 5.36512 2.78978C5.60688 2.55128 5.99341 2.55128 6.23517 2.78978C6.47693 3.02828 6.47693 3.40988 6.23517 3.64838C6.08992 3.79148 5.94515 3.83918 5.80038 3.83918C5.65513 3.83918 5.46211 3.79148 5.36512 3.64838ZM10.2949 2.88518C10.2949 2.21738 10.8267 1.69268 11.5033 1.69268C12.1798 1.69268 12.7121 2.21738 12.7121 2.88518C12.7121 3.55298 12.1798 4.07768 11.5033 4.07768C10.8267 4.07768 10.2949 3.55298 10.2949 2.88518ZM15.9018 5.46097C16.1431 5.22247 16.5301 5.22247 16.7719 5.46097C17.0136 5.69947 17.0136 6.08107 16.7719 6.31957C16.5301 6.55807 16.1431 6.55807 15.9018 6.31957C15.6601 6.03337 15.6601 5.69947 15.9018 5.46097ZM22.7653 2.78978C23.0071 2.55128 23.3931 2.55128 23.6349 2.78978C23.8766 3.02828 23.8766 3.40988 23.6349 3.64838C23.3931 3.88688 23.0071 3.88688 22.7653 3.64838C22.5235 3.40988 22.5235 3.02828 22.7653 2.78978ZM27.2116 24.3501V10.5172C27.2116 9.27696 26.1963 8.22756 24.8915 8.22756H20.5417V7.22587L22.4748 4.84087C23.1513 5.12707 23.9254 5.03167 24.5049 4.45928C25.2302 3.74378 25.2302 2.64668 24.5049 1.93118C24.1667 1.64499 23.6836 1.45419 23.2001 1.45419C21.8465 1.45419 20.9769 2.88518 21.6052 4.07768L19.4786 6.70117C19.3821 6.79657 19.3333 6.93967 19.3333 7.08277V8.27526H16.9171V7.55977C17.1584 7.46437 17.3997 7.32127 17.5937 7.13047C18.3185 6.41497 18.3185 5.31787 17.5937 4.60238C16.8684 3.88688 15.7571 3.88688 15.0318 4.60238C14.307 5.31787 14.307 6.41497 15.0318 7.13047C15.2253 7.32127 15.4666 7.46437 15.7083 7.55977V8.27526H12.0833V5.22247C13.1469 4.93627 13.92 4.02998 13.92 2.93288C13.92 1.59728 12.8569 0.547888 11.5033 0.547888C10.1502 0.547888 9.0871 1.59728 9.0871 2.93288C9.0871 4.02998 9.86017 4.98397 10.9237 5.22247V8.27526H9.66715V7.08277C9.66715 6.93967 9.61841 6.79657 9.5219 6.70117L7.39524 4.07768C7.73351 3.40988 7.637 2.55128 7.05696 1.97888C6.33167 1.26339 5.22034 1.26339 4.49553 1.97888C3.77024 2.69438 3.77024 3.79148 4.49553 4.50698C5.02683 5.03167 5.84863 5.17477 6.52518 4.88857L8.45832 7.27357V8.27526H4.10851C2.85192 8.27526 1.78836 9.27696 1.78836 10.5649V24.3978C0.821786 24.3978 0 25.2087 0 26.1627V26.7351C0 27.6891 0.821786 28.5 1.78836 28.5H27.2116C28.1782 28.5 29 27.6891 29 26.7351V26.115C29 25.161 28.1782 24.3501 27.2116 24.3501Z" fill="url(#paint0_linear_290_95160)"/>
<path d="M16.337 16.5752C16.6834 16.5752 16.9648 16.8528 16.9648 17.1953C16.9648 17.5378 16.6834 17.8154 16.337 17.8154C15.9897 17.8154 15.7083 17.5378 15.7083 17.1953C15.7083 16.8528 15.9897 16.5752 16.337 16.5752Z" fill="url(#paint1_linear_290_95160)"/>
<path d="M25.3749 5.84281C25.7217 5.84281 26.0032 6.12042 26.0032 6.46291C26.0032 6.80539 25.7217 7.08301 25.3749 7.08301C25.028 7.08301 24.7466 6.80539 24.7466 6.46291C24.7466 6.12042 25.028 5.84281 25.3749 5.84281Z" fill="url(#paint2_linear_290_95160)"/>
<path d="M27.2115 2.88578C27.5584 2.88578 27.8398 3.16339 27.8398 3.50588C27.8398 3.84836 27.5584 4.12598 27.2115 4.12598C26.8647 4.12598 26.5833 3.84836 26.5833 3.50588C26.5833 3.16339 26.8647 2.88578 27.2115 2.88578Z" fill="url(#paint3_linear_290_95160)"/>
<path d="M15.7081 1.69242C16.0555 1.69242 16.3369 1.97003 16.3369 2.31252C16.3369 2.655 16.0555 2.93262 15.7081 2.93262C15.3612 2.93262 15.0798 2.655 15.0798 2.31252C15.0798 1.97003 15.3612 1.69242 15.7081 1.69242Z" fill="url(#paint4_linear_290_95160)"/>
<path d="M6.04211 6.46195C6.38851 6.46195 6.66993 6.73957 6.66993 7.08205C6.66993 7.42454 6.38851 7.70215 6.04211 7.70215C5.69476 7.70215 5.41333 7.42454 5.41333 7.08205C5.41333 6.73957 5.69476 6.46195 6.04211 6.46195Z" fill="url(#paint5_linear_290_95160)"/>
<path d="M16.337 18.3877C16.6834 18.3877 16.9648 18.6653 16.9648 19.0078C16.9648 19.3503 16.6834 19.6279 16.337 19.6279C15.9897 19.6279 15.7083 19.3503 15.7083 19.0078C15.7083 18.6653 15.9897 18.3877 16.337 18.3877Z" fill="url(#paint6_linear_290_95160)"/>
<path d="M9.08703 21.9649C9.43343 21.9649 9.71486 22.2425 9.71486 22.585C9.71486 22.9275 9.43343 23.2051 9.08703 23.2051C8.73968 23.2051 8.45825 22.9275 8.45825 22.585C8.45825 22.2425 8.73968 21.9649 9.08703 21.9649Z" fill="url(#paint7_linear_290_95160)"/>
<path d="M2.70662 5.89038C2.85187 5.89038 2.99712 6.03348 2.99712 6.17658C2.99712 6.31968 2.85187 6.46278 2.70662 6.46278C2.56185 6.46278 2.41708 6.31968 2.41708 6.17658C2.41708 5.98578 2.56185 5.89038 2.70662 5.89038ZM2.70662 7.65527C3.52842 7.65527 4.20497 6.98748 4.20497 6.17658C4.20497 5.36568 3.52842 4.69788 2.70662 4.69788C1.8853 4.69788 1.20874 5.36568 1.20874 6.17658C1.20874 6.98748 1.8853 7.65527 2.70662 7.65527Z" fill="url(#paint8_linear_290_95160)"/>
<path d="M19.043 1.69229C19.1878 1.69229 19.333 1.83539 19.333 1.97849C19.333 2.12159 19.1878 2.26469 19.043 2.26469C18.8983 2.26469 18.753 2.12159 18.753 1.97849C18.753 1.83539 18.8495 1.69229 19.043 1.69229ZM19.043 3.50488C19.8643 3.50488 20.5414 2.83708 20.5414 2.02619C20.5414 1.21529 19.8643 0.499792 19.043 0.499792C18.2212 0.499792 17.5447 1.16759 17.5447 1.97849C17.5447 2.78939 18.2212 3.50488 19.043 3.50488Z" fill="url(#paint9_linear_290_95160)"/>
<defs>
<linearGradient id="paint0_linear_290_95160" x1="0" y1="14.5239" x2="29" y2="14.5239" gradientUnits="userSpaceOnUse">
<stop stop-color="#2E0797"/>
<stop offset="1" stop-color="#726EFC"/>
</linearGradient>
<linearGradient id="paint1_linear_290_95160" x1="15.7083" y1="17.1953" x2="16.9648" y2="17.1953" gradientUnits="userSpaceOnUse">
<stop stop-color="#2E0797"/>
<stop offset="1" stop-color="#726EFC"/>
</linearGradient>
<linearGradient id="paint2_linear_290_95160" x1="24.7466" y1="6.46291" x2="26.0032" y2="6.46291" gradientUnits="userSpaceOnUse">
<stop stop-color="#2E0797"/>
<stop offset="1" stop-color="#726EFC"/>
</linearGradient>
<linearGradient id="paint3_linear_290_95160" x1="26.5833" y1="3.50588" x2="27.8398" y2="3.50588" gradientUnits="userSpaceOnUse">
<stop stop-color="#2E0797"/>
<stop offset="1" stop-color="#726EFC"/>
</linearGradient>
<linearGradient id="paint4_linear_290_95160" x1="15.0798" y1="2.31252" x2="16.3369" y2="2.31252" gradientUnits="userSpaceOnUse">
<stop stop-color="#2E0797"/>
<stop offset="1" stop-color="#726EFC"/>
</linearGradient>
<linearGradient id="paint5_linear_290_95160" x1="5.41333" y1="7.08205" x2="6.66993" y2="7.08205" gradientUnits="userSpaceOnUse">
<stop stop-color="#2E0797"/>
<stop offset="1" stop-color="#726EFC"/>
</linearGradient>
<linearGradient id="paint6_linear_290_95160" x1="15.7083" y1="19.0078" x2="16.9648" y2="19.0078" gradientUnits="userSpaceOnUse">
<stop stop-color="#2E0797"/>
<stop offset="1" stop-color="#726EFC"/>
</linearGradient>
<linearGradient id="paint7_linear_290_95160" x1="8.45825" y1="22.585" x2="9.71486" y2="22.585" gradientUnits="userSpaceOnUse">
<stop stop-color="#2E0797"/>
<stop offset="1" stop-color="#726EFC"/>
</linearGradient>
<linearGradient id="paint8_linear_290_95160" x1="1.20874" y1="6.17658" x2="4.20497" y2="6.17658" gradientUnits="userSpaceOnUse">
<stop stop-color="#2E0797"/>
<stop offset="1" stop-color="#726EFC"/>
</linearGradient>
<linearGradient id="paint9_linear_290_95160" x1="17.5447" y1="2.00234" x2="20.5414" y2="2.00234" gradientUnits="userSpaceOnUse">
<stop stop-color="#2E0797"/>
<stop offset="1" stop-color="#726EFC"/>
</linearGradient>
</defs>
</svg>
