<svg width="30" height="29" viewBox="0 0 30 29" fill="none" xmlns="http://www.w3.org/2000/svg">
<path d="M4.90732 1.15272C5.30752 1.15272 5.63219 1.46977 5.63219 1.86091C5.63219 2.25204 5.30752 2.56909 4.90732 2.56909C4.50657 2.56909 4.18188 2.25204 4.18188 1.86091C4.18188 1.46977 4.50657 1.15272 4.90732 1.15272Z" fill="url(#paint0_linear_290_95179)"/>
<path d="M20.9106 0.499403C21.3113 0.499403 21.636 0.816452 21.636 1.20759C21.636 1.59872 21.3113 1.91577 20.9106 1.91577C20.5109 1.91577 20.1863 1.59872 20.1863 1.20759C20.1863 0.816452 20.5109 0.499403 20.9106 0.499403Z" fill="url(#paint1_linear_290_95179)"/>
<path d="M28.6059 7.30897C29.0067 7.30897 29.3314 7.62602 29.3314 8.01716C29.3314 8.40829 29.0067 8.72534 28.6059 8.72534C28.2063 8.72534 27.8816 8.40829 27.8816 8.01716C27.8816 7.62602 28.2063 7.30897 28.6059 7.30897Z" fill="url(#paint2_linear_290_95179)"/>
<path d="M22.3045 26.3749C22.7052 26.3749 23.0299 26.6919 23.0299 27.0831C23.0299 27.4742 22.7052 27.7913 22.3045 27.7913C21.9043 27.7913 21.5796 27.4742 21.5796 27.0831C21.5796 26.6919 21.9043 26.3749 22.3045 26.3749Z" fill="url(#paint3_linear_290_95179)"/>
<path d="M9.08969 25.0136C9.48989 25.0136 9.81456 25.3306 9.81456 25.7217C9.81456 26.1129 9.48989 26.4299 9.08969 26.4299C8.68894 26.4299 8.36426 26.1129 8.36426 25.7217C8.36426 25.3306 8.68894 25.0136 9.08969 25.0136Z" fill="url(#paint4_linear_290_95179)"/>
<path d="M0.724869 19.5665C1.12562 19.5665 1.44974 19.8836 1.44974 20.2747C1.44974 20.6659 1.12562 20.9829 0.724869 20.9829C0.324121 20.9829 0 20.6659 0 20.2747C0 19.8836 0.324121 19.5665 0.724869 19.5665Z" fill="url(#paint5_linear_290_95179)"/>
<path d="M0.724869 7.96229C1.12562 7.96229 1.44974 8.27934 1.44974 8.67048C1.44974 9.06161 1.12562 9.37866 0.724869 9.37866C0.324121 9.37866 0 9.06161 0 8.67048C0 8.27934 0.324121 7.96229 0.724869 7.96229Z" fill="url(#paint6_linear_290_95179)"/>
<path d="M1.72813 3.93142C1.8957 3.93142 2.06328 4.09485 2.06328 4.25827C2.06328 4.4217 1.95193 4.58513 1.72813 4.58513C1.50543 4.58513 1.39408 4.4217 1.39408 4.25827C1.39408 4.09485 1.56166 3.93142 1.72813 3.93142ZM1.72813 5.94702C2.67625 5.94702 3.45736 5.18436 3.45736 4.25827C3.45736 3.33219 2.67625 2.56953 1.72813 2.56953C0.780555 2.56953 0 3.33219 0 4.25827C0 5.18436 0.780555 5.94702 1.72813 5.94702Z" fill="url(#paint7_linear_290_95179)"/>
<path d="M27.8817 2.56894C28.272 2.56894 28.606 2.89579 28.606 3.27712C28.606 3.65845 28.272 3.98531 27.8817 3.98531C27.4914 3.98531 27.1563 3.65845 27.1563 3.27712C27.2125 2.84132 27.4914 2.56894 27.8817 2.56894ZM27.8817 5.29272C29.0525 5.29272 30.0001 4.36664 30.0001 3.22265C30.0001 2.07866 29.0525 1.15257 27.8817 1.15257C26.7103 1.15257 25.7622 2.07866 25.7622 3.22265C25.7622 4.36664 26.7103 5.29272 27.8817 5.29272Z" fill="url(#paint8_linear_290_95179)"/>
<path d="M16.1157 22.9437C12.3794 23.3795 9.08965 20.5468 9.08965 16.8424C9.08965 13.465 11.8772 10.6867 15.3903 10.6867C18.9038 10.6867 21.692 13.4105 21.692 16.8424C21.6363 20.002 19.1822 22.5624 16.1157 22.9437ZM16.7287 24.1967V25.0138H13.9411V24.1967C14.8886 24.3601 15.8925 24.3601 16.7287 24.1967ZM5.5204 17.5506C3.62471 17.5506 2.11927 16.0253 2.11927 14.2276C2.11927 12.2665 3.90361 10.6867 5.96688 10.9046C6.46851 10.9591 6.91503 10.4688 6.69178 9.97851C6.41285 9.27032 6.24581 8.56214 6.24581 7.79948C6.24581 4.63989 8.86695 2.02506 12.1562 2.02506C14.4984 2.02506 16.6173 3.38695 17.5654 5.45703C17.733 5.83836 18.2346 6.00178 18.5692 5.78388C19.1265 5.45703 19.7401 5.23912 20.4093 5.23912C22.3049 5.23912 23.8109 6.76444 23.8109 8.56214C23.8109 9.05242 23.6996 9.48823 23.532 9.92403C23.3093 10.4143 23.6996 10.9046 24.2012 10.9046C26.2082 10.7412 27.9369 12.321 27.9369 14.2276C27.9369 16.0798 26.3758 17.5506 24.5353 17.5506H23.0304C23.4207 13.1381 19.8514 9.37928 15.3903 9.37928C10.9297 9.37928 7.36096 13.1381 7.75124 17.5506H5.5204ZM22.6952 18.9125H24.4239C27.1007 18.9125 29.2197 16.788 29.2197 14.2276C29.2197 11.8307 27.3796 9.86956 24.9818 9.5427C25.5953 6.60102 23.3093 3.87723 20.2417 3.87723C19.5725 3.87723 18.9595 3.98618 18.346 4.25856C17.0638 2.02506 14.6659 0.663166 11.9891 0.663166C7.24961 0.663166 3.7366 5.02122 4.90742 9.5427C2.45388 9.76061 0.557617 11.7762 0.557617 14.2276C0.557617 16.8424 2.73279 18.9125 5.35336 18.9125H7.80693C8.47668 21.146 10.2048 22.9982 12.3794 23.8698C12.3794 24.3056 12.3794 27.3018 12.3794 27.7921C12.3794 28.1734 12.714 28.5002 13.1043 28.5002C13.4946 28.5002 13.8292 28.1734 13.8292 27.7921V26.3757H16.6173V27.7376C16.6173 28.1189 16.9519 28.4458 17.3427 28.4458C17.733 28.4458 18.0671 28.1189 18.0671 27.7376C18.0671 27.2473 18.0671 24.2511 18.0671 23.8153C20.353 22.9982 22.0823 21.146 22.6952 18.9125Z" fill="url(#paint9_linear_290_95179)"/>
<path d="M11.9332 18.913C12.1559 17.8235 12.8813 16.9519 13.9408 16.4616C14.8327 16.9519 15.8921 16.9519 16.7846 16.4616C17.844 16.8974 18.5689 17.8235 18.7916 18.913H11.9332ZM15.3348 12.7573C16.1154 12.7573 16.7284 13.3565 16.7284 14.1191C16.7284 14.8818 16.1154 15.481 15.3348 15.481C14.5537 15.481 13.9408 14.8818 13.9408 14.1191C13.9408 13.3565 14.5537 12.7573 15.3348 12.7573ZM17.7878 15.4266C18.0111 15.0452 18.123 14.6094 18.123 14.1191C18.123 12.5938 16.8959 11.3954 15.3348 11.3954C13.7732 11.3954 12.5461 12.5938 12.5461 14.1191C12.5461 14.6094 12.6575 15.0452 12.8813 15.4266C11.3753 16.2437 10.4277 17.8235 10.4277 19.5667C10.4277 19.948 10.7618 20.2749 11.1526 20.2749H19.5171C19.9073 20.2749 20.2414 19.948 20.2414 19.5667C20.2414 17.8235 19.2381 16.2982 17.7878 15.4266Z" fill="url(#paint10_linear_290_95179)"/>
<path d="M4.90728 26.3749C4.517 26.3749 4.18184 26.048 4.18184 25.6667C4.18184 25.2854 4.517 24.9585 4.90728 24.9585C5.29755 24.9585 5.63214 25.2854 5.63214 25.6667C5.57647 26.048 5.24132 26.3749 4.90728 26.3749ZM4.90728 23.6511C3.73645 23.6511 2.78833 24.5772 2.78833 25.7212C2.78833 26.8652 3.73645 27.7913 4.90728 27.7913C6.0781 27.7913 7.02622 26.8652 7.02622 25.7212C7.02622 24.5772 6.02242 23.6511 4.90728 23.6511Z" fill="url(#paint11_linear_290_95179)"/>
<path d="M27.2123 25.0134C26.4312 25.0134 25.8177 24.4141 25.8177 23.6515C25.8177 22.8888 26.4312 22.2896 27.2123 22.2896C27.9929 22.2896 28.6058 22.8888 28.6058 23.6515C28.6058 24.4141 27.9366 25.0134 27.2123 25.0134ZM27.2123 20.9277C25.6507 20.9277 24.4236 22.1261 24.4236 23.6515C24.4236 25.1768 25.6507 26.3752 27.2123 26.3752C28.7734 26.3752 29.9999 25.1768 29.9999 23.6515C29.9999 22.1261 28.7172 20.9277 27.2123 20.9277Z" fill="url(#paint12_linear_290_95179)"/>
<defs>
<linearGradient id="paint0_linear_290_95179" x1="4.18188" y1="1.86091" x2="5.63219" y2="1.86091" gradientUnits="userSpaceOnUse">
<stop stop-color="#2E0797"/>
<stop offset="1" stop-color="#726EFC"/>
</linearGradient>
<linearGradient id="paint1_linear_290_95179" x1="20.1863" y1="1.20759" x2="21.636" y2="1.20759" gradientUnits="userSpaceOnUse">
<stop stop-color="#2E0797"/>
<stop offset="1" stop-color="#726EFC"/>
</linearGradient>
<linearGradient id="paint2_linear_290_95179" x1="27.8816" y1="8.01716" x2="29.3314" y2="8.01716" gradientUnits="userSpaceOnUse">
<stop stop-color="#2E0797"/>
<stop offset="1" stop-color="#726EFC"/>
</linearGradient>
<linearGradient id="paint3_linear_290_95179" x1="21.5796" y1="27.0831" x2="23.0299" y2="27.0831" gradientUnits="userSpaceOnUse">
<stop stop-color="#2E0797"/>
<stop offset="1" stop-color="#726EFC"/>
</linearGradient>
<linearGradient id="paint4_linear_290_95179" x1="8.36426" y1="25.7217" x2="9.81456" y2="25.7217" gradientUnits="userSpaceOnUse">
<stop stop-color="#2E0797"/>
<stop offset="1" stop-color="#726EFC"/>
</linearGradient>
<linearGradient id="paint5_linear_290_95179" x1="0" y1="20.2747" x2="1.44974" y2="20.2747" gradientUnits="userSpaceOnUse">
<stop stop-color="#2E0797"/>
<stop offset="1" stop-color="#726EFC"/>
</linearGradient>
<linearGradient id="paint6_linear_290_95179" x1="0" y1="8.67048" x2="1.44974" y2="8.67048" gradientUnits="userSpaceOnUse">
<stop stop-color="#2E0797"/>
<stop offset="1" stop-color="#726EFC"/>
</linearGradient>
<linearGradient id="paint7_linear_290_95179" x1="0" y1="4.25827" x2="3.45736" y2="4.25827" gradientUnits="userSpaceOnUse">
<stop stop-color="#2E0797"/>
<stop offset="1" stop-color="#726EFC"/>
</linearGradient>
<linearGradient id="paint8_linear_290_95179" x1="25.7622" y1="3.22265" x2="30.0001" y2="3.22265" gradientUnits="userSpaceOnUse">
<stop stop-color="#2E0797"/>
<stop offset="1" stop-color="#726EFC"/>
</linearGradient>
<linearGradient id="paint9_linear_290_95179" x1="0.557617" y1="14.5817" x2="29.2197" y2="14.5817" gradientUnits="userSpaceOnUse">
<stop stop-color="#2E0797"/>
<stop offset="1" stop-color="#726EFC"/>
</linearGradient>
<linearGradient id="paint10_linear_290_95179" x1="10.4277" y1="15.8351" x2="20.2414" y2="15.8351" gradientUnits="userSpaceOnUse">
<stop stop-color="#2E0797"/>
<stop offset="1" stop-color="#726EFC"/>
</linearGradient>
<linearGradient id="paint11_linear_290_95179" x1="2.78833" y1="25.7212" x2="7.02622" y2="25.7212" gradientUnits="userSpaceOnUse">
<stop stop-color="#2E0797"/>
<stop offset="1" stop-color="#726EFC"/>
</linearGradient>
<linearGradient id="paint12_linear_290_95179" x1="24.4236" y1="23.6515" x2="29.9999" y2="23.6515" gradientUnits="userSpaceOnUse">
<stop stop-color="#2E0797"/>
<stop offset="1" stop-color="#726EFC"/>
</linearGradient>
</defs>
</svg>
