<svg width="36" height="36" viewBox="0 0 36 36" fill="none" xmlns="http://www.w3.org/2000/svg">
<path d="M22.6251 8.95822C22.9377 9.26344 23.4369 9.26344 23.7496 8.95822C24.9371 7.79841 24.9371 5.84505 23.7496 4.62419C23.4369 4.31898 22.9377 4.31898 22.6251 4.62419C22.3125 4.92941 22.3125 5.41775 22.6251 5.72296C23.2497 6.33339 23.2497 7.31007 22.6251 7.85946C22.3125 8.16467 22.3125 8.65301 22.6251 8.95822Z" fill="#9EDD05"/>
<path d="M24.8746 9.99617C24.5626 10.3014 24.5626 10.7897 24.8746 11.0949C25.1873 11.4002 25.6871 11.4002 25.9997 11.0949C28.4371 8.71428 28.4371 4.86859 25.9997 2.48792C25.6871 2.18271 25.1873 2.18271 24.8746 2.48792C24.5626 2.79314 24.5626 3.28148 24.8746 3.58669C26.6874 5.29589 26.6874 8.22594 24.8746 9.99617Z" fill="#9EDD05"/>
<path d="M27.0621 12.1934C26.7501 12.4987 26.7501 12.987 27.0621 13.2922C27.3748 13.5974 27.8752 13.5974 28.1878 13.2922C31.8127 9.75173 31.8127 3.89163 28.1878 0.351158C27.8752 0.0459446 27.3748 0.0459446 27.0621 0.351158C26.7501 0.656372 26.7501 1.14471 27.0621 1.44993C30.1248 4.37998 30.1248 9.20235 27.0621 12.1934Z" fill="#9EDD05"/>
<path d="M12.6259 8.95822C12.9385 9.26344 13.4384 9.26344 13.751 8.95822C14.063 8.65301 14.063 8.16467 13.751 7.85946C13.1257 7.24903 13.1257 6.27235 13.751 5.72296C14.063 5.41775 14.063 4.92941 13.751 4.62419C13.4384 4.31898 12.9385 4.31898 12.6259 4.62419C11.376 5.784 11.376 7.73737 12.6259 8.95822Z" fill="#9EDD05"/>
<path d="M10.3754 11.0949C10.688 11.4002 11.1872 11.4002 11.4999 11.0949C11.8125 10.7897 11.8125 10.3014 11.4999 9.99617C9.68709 8.22594 9.68709 5.29589 11.4999 3.52565C11.8125 3.22044 11.8125 2.73209 11.4999 2.42688C11.1872 2.12167 10.688 2.12167 10.3754 2.42688C7.93737 4.86859 7.93737 8.71428 10.3754 11.0949Z" fill="#9EDD05"/>
<path d="M9.31201 13.231C9.62464 12.9257 9.62464 12.4374 9.31201 12.1322C6.24935 9.1411 6.24935 4.31873 9.31201 1.32763C9.62464 1.02242 9.62464 0.534079 9.31201 0.228866C8.99938 -0.0763478 8.49954 -0.0763478 8.18691 0.228866C4.56139 3.76934 4.56139 9.62944 8.18691 13.1699C8.49954 13.5362 8.99938 13.5362 9.31201 13.231Z" fill="#9EDD05"/>
<path d="M34.3751 31.1161C34.3751 31.6655 33.9376 32.0928 33.3754 32.0928C32.1873 32.0928 4.06235 32.0928 2.56222 32.0928C1.99998 32.0928 1.56253 31.6655 1.56253 31.1161V25.4391C1.56253 24.8897 1.99998 24.4624 2.56222 24.4624C4.12475 24.4624 29.5627 24.4624 33.3754 24.4624C33.9376 24.4624 34.3751 24.8897 34.3751 25.4391V31.1161ZM30.4375 34.0461C30.4375 34.2293 30.2504 34.4124 30.0625 34.4124H26.9375C26.7503 34.4124 26.563 34.2293 26.563 34.0461C26.563 33.863 26.7503 33.6799 26.9375 33.6799H30.0625C30.2504 33.6799 30.4375 33.802 30.4375 34.0461ZM9.3752 34.0461C9.3752 34.2293 9.18736 34.4124 9.00015 34.4124H5.87448C5.68789 34.4124 5.50006 34.2293 5.50006 34.0461C5.50006 33.863 5.68789 33.6799 5.87448 33.6799H9.00015C9.18736 33.6799 9.3752 33.802 9.3752 34.0461ZM6.31252 22.2039C7.24979 22.2039 28.188 22.2039 29.6251 22.2039C30.0625 22.2039 30.4376 22.5701 30.5006 22.9974H5.43704C5.50006 22.5701 5.87447 22.2039 6.31252 22.2039ZM17.0624 7.37049H19.4381V20.6778H17.0624V7.37049ZM18.2499 2.79229C18.8752 2.79229 19.4381 3.28063 19.4381 3.9521V5.84442H17.0624V3.9521C17.0624 3.28063 17.5623 2.79229 18.2499 2.79229ZM33.313 22.9974H32.0007C31.9377 21.7155 30.875 20.6778 29.5627 20.6778H20.9375V3.9521C20.9375 2.48707 19.6877 1.26622 18.1875 1.26622C16.6874 1.26622 15.4375 2.48707 15.4375 3.9521V20.6778H6.31252C4.9996 20.6778 3.93754 21.7155 3.87514 22.9974H2.56222C1.12511 22.9974 0 24.1572 0 25.5002V31.1771C0 32.5811 1.18751 33.6799 2.56222 33.6799H3.93753C3.6873 34.8397 4.6252 35.9995 5.87448 35.9995H9.00015C10.2507 35.9995 11.1873 34.9007 10.9377 33.6799H25.0629C24.8127 34.8397 25.75 35.9995 27.0005 35.9995H30.1249C31.3754 35.9995 32.3133 34.9007 32.0625 33.6799H33.4378C34.8755 33.6799 36 32.5201 36 31.1771V25.5002C35.9382 24.0962 34.7501 22.9974 33.313 22.9974Z" fill="#9EDD05"/>
<path d="M30.4369 29.102C29.9995 29.102 29.6244 28.7357 29.6244 28.3084C29.6244 27.8811 29.9995 27.5149 30.4369 27.5149C30.8743 27.5149 31.25 27.8811 31.25 28.3084C31.25 28.7357 30.8743 29.102 30.4369 29.102ZM30.4369 26.0498C29.1246 26.0498 28.0625 27.0876 28.0625 28.3695C28.0625 29.6514 29.1246 30.6891 30.4369 30.6891C31.7492 30.6891 32.8119 29.6514 32.8119 28.3695C32.8119 27.0876 31.7492 26.0498 30.4369 26.0498Z" fill="#9EDD05"/>
<path d="M25 29.102C24.5626 29.102 24.1869 28.7357 24.1869 28.3084C24.1869 27.8811 24.5626 27.5149 25 27.5149C25.4374 27.5149 25.8125 27.8811 25.8125 28.3084C25.7494 28.7357 25.3744 29.102 25 29.102ZM25 26.0498C23.6877 26.0498 22.625 27.0876 22.625 28.3695C22.625 29.6514 23.6877 30.6891 25 30.6891C26.3123 30.6891 27.3744 29.6514 27.3744 28.3695C27.3744 27.0876 26.2499 26.0498 25 26.0498Z" fill="#9EDD05"/>
<path d="M19.5 29.102C19.0626 29.102 18.6882 28.7357 18.6882 28.3084C18.6882 27.8811 19.0626 27.5149 19.5 27.5149C19.9375 27.5149 20.3131 27.8811 20.3131 28.3084C20.3131 28.7357 19.9375 29.102 19.5 29.102ZM19.5 26.0498C18.1877 26.0498 17.125 27.0876 17.125 28.3695C17.125 29.6514 18.1877 30.6891 19.5 30.6891C20.8129 30.6891 21.8756 29.6514 21.8756 28.3695C21.8756 27.0876 20.8129 26.0498 19.5 26.0498Z" fill="#9EDD05"/>
<path d="M3.87594 27.5758H8.56354C9.00097 27.5758 9.376 27.2095 9.376 26.7823C9.376 26.355 9.00097 25.9887 8.56354 25.9887H3.87594C3.4385 25.9887 3.06348 26.355 3.06348 26.7823C3.12588 27.2095 3.4385 27.5758 3.87594 27.5758Z" fill="#9EDD05"/>
<path d="M13.2511 28.309H3.87594C3.4385 28.309 3.06348 28.6753 3.06348 29.1026C3.06348 29.5299 3.4385 29.8961 3.87594 29.8961H13.2511C13.6885 29.8961 14.063 29.5299 14.063 29.1026C14.063 28.6753 13.6885 28.309 13.2511 28.309Z" fill="#9EDD05"/>
<path d="M3.12499 16.8938C3.56243 16.8938 3.93746 17.26 3.93746 17.6873C3.93746 18.1146 3.56243 18.4809 3.12499 18.4809C2.68694 18.4809 2.31253 18.0536 2.31253 17.6263C2.31253 17.199 2.68694 16.8938 3.12499 16.8938ZM3.12499 19.9459C4.4373 19.9459 5.49999 18.9082 5.49999 17.6263C5.49999 16.3444 4.4373 15.3067 3.12499 15.3067C1.81207 15.3067 0.75 16.3444 0.75 17.6263C0.75 18.9082 1.81207 19.9459 3.12499 19.9459Z" fill="#9EDD05"/>
<path d="M33.1881 13.8419C33.8128 13.8419 34.375 14.3303 34.375 15.0018C34.375 15.6732 33.8752 16.1616 33.1881 16.1616C32.4999 16.1616 32.0006 15.6732 32.0006 15.0018C32.0006 14.3303 32.4999 13.8419 33.1881 13.8419ZM33.1881 17.6266C34.6877 17.6266 35.9382 16.4057 35.9382 14.9407C35.9382 13.4757 34.6877 12.2548 33.1881 12.2548C31.688 12.2548 30.4375 13.4757 30.4375 14.9407C30.4375 16.4057 31.688 17.6266 33.1881 17.6266Z" fill="#9EDD05"/>
<path d="M32.8119 8.47014C33.261 8.47014 33.625 8.82541 33.625 9.2637C33.625 9.70198 33.261 10.0573 32.8119 10.0573C32.3639 10.0573 32 9.70198 32 9.2637C32 8.82541 32.3639 8.47014 32.8119 8.47014Z" fill="#9EDD05"/>
<path d="M28.1253 16.1C28.5745 16.1 28.9384 16.4553 28.9384 16.8936C28.9384 17.3319 28.5745 17.6871 28.1253 17.6871C27.6774 17.6871 27.3135 17.3319 27.3135 16.8936C27.3135 16.4553 27.6774 16.1 28.1253 16.1Z" fill="#9EDD05"/>
<path d="M23.4369 14.5737C23.886 14.5737 24.2499 14.9289 24.2499 15.3672C24.2499 15.8055 23.886 16.1608 23.4369 16.1608C22.9883 16.1608 22.625 15.8055 22.625 15.3672C22.625 14.9289 22.9883 14.5737 23.4369 14.5737Z" fill="#9EDD05"/>
<path d="M11.6881 15.3061C12.1366 15.3061 12.5006 15.6613 12.5006 16.0996C12.5006 16.5379 12.1366 16.8932 11.6881 16.8932C11.2389 16.8932 10.875 16.5379 10.875 16.0996C10.875 15.6613 11.2389 15.3061 11.6881 15.3061Z" fill="#9EDD05"/>
<path d="M1.56246 3.89202C2.01163 3.89202 2.37492 4.24728 2.37492 4.68557C2.37492 5.12386 2.01163 5.47913 1.56246 5.47913C1.11329 5.47913 0.75 5.12386 0.75 4.68557C0.75 4.24728 1.11329 3.89202 1.56246 3.89202Z" fill="#9EDD05"/>
<path d="M10.9371 25.9887C11.3857 25.9887 11.7496 26.344 11.7496 26.7823C11.7496 27.2205 11.3857 27.5758 10.9371 27.5758C10.4879 27.5758 10.124 27.2205 10.124 26.7823C10.124 26.344 10.4879 25.9887 10.9371 25.9887Z" fill="#9EDD05"/>
</svg>
