<svg width="35" height="32" viewBox="0 0 35 32" fill="none" xmlns="http://www.w3.org/2000/svg">
<path d="M16.2267 7.5587C19.6074 7.5587 22.3732 10.3015 22.3732 13.6539C22.3732 17.0063 19.6074 19.7491 16.2267 19.7491C12.8459 19.7491 10.0801 17.0063 10.0801 13.6539C10.0801 10.3015 12.7846 7.5587 16.2267 7.5587ZM16.2267 21.2729C20.4678 21.2729 23.9099 17.8596 23.9099 13.6539C23.9099 9.44821 20.4678 6.03489 16.2267 6.03489C11.9856 6.03489 8.54346 9.44821 8.54346 13.6539C8.54346 17.8596 11.9856 21.2729 16.2267 21.2729Z" fill="url(#paint0_linear_290_95273)"/>
<path d="M16.2268 11.3982C16.4109 12.3734 17.3333 13.0439 18.3784 12.922C18.9313 14.4458 17.8248 15.9696 16.2268 15.9696C14.9363 15.9696 13.8912 14.9334 13.8912 13.6534C13.8912 12.3734 14.9363 11.3372 16.2268 11.3982ZM18.1323 10.6058C18.317 10.6058 18.5011 10.7887 18.5011 10.9715C18.5011 11.1544 18.317 11.3372 18.1323 11.3372C17.8868 11.3372 17.7021 11.0934 17.7635 10.8496C17.7635 10.7277 17.9482 10.6058 18.1323 10.6058ZM16.2268 17.4934C18.317 17.4934 20.0991 15.7867 20.0991 13.6534C20.0991 13.1048 19.9764 12.5563 19.7303 12.0687C19.9764 11.7639 20.0991 11.3982 20.0991 10.9715C20.0991 9.93533 19.2387 9.082 18.1936 9.082C17.5794 9.082 16.9645 9.38676 16.657 9.87438C14.3827 9.63057 12.4159 11.4591 12.4159 13.6534C12.3545 15.7258 14.0759 17.4934 16.2268 17.4934Z" fill="url(#paint1_linear_290_95273)"/>
<path d="M5.47044 30.4156C5.65515 27.7337 6.88434 25.2347 8.85116 23.4061C13.215 26.6366 19.2388 26.6366 23.6027 23.4061C25.5695 25.2347 26.7993 27.7337 26.9834 30.4156H5.47044ZM5.47044 13.6537C5.47044 7.80233 10.3264 2.9871 16.2269 2.9871C22.1274 2.9871 26.9834 7.80233 26.9834 13.6537C26.9834 19.5052 22.1274 24.3204 16.2269 24.3204C10.3264 24.3204 5.47044 19.5052 5.47044 13.6537ZM29.2571 30.4156H28.4587C28.274 27.368 26.922 24.5032 24.7091 22.4309C27.0448 20.2366 28.4587 17.128 28.4587 13.6537C28.4587 6.949 22.927 1.46329 16.1656 1.46329C9.4047 1.46329 3.87243 6.949 3.87243 13.6537C3.87243 17.0671 5.28633 20.1756 7.62197 22.4309C5.40906 24.5642 4.05714 27.368 3.87243 30.4156H3.07341C2.64323 30.4156 2.27441 30.7813 2.27441 31.208C2.27441 31.6347 2.64323 32.0004 3.07341 32.0004C4.24124 32.0004 28.52 32.0004 29.1963 32.0004C29.6265 32.0004 29.9947 31.6347 29.9947 31.208C30.0567 30.7813 29.6873 30.4156 29.2571 30.4156Z" fill="url(#paint2_linear_290_95273)"/>
<path d="M1.59801 22.797C1.59801 22.3703 1.96682 22.0046 2.39701 22.0046C2.8272 22.0046 3.19601 22.3703 3.19601 22.797C3.19601 23.2236 2.8272 23.5894 2.39701 23.5894C1.96682 23.5894 1.59801 23.2236 1.59801 22.797ZM4.67128 22.797C4.67128 21.517 3.6262 20.4808 2.33564 20.4808C1.04508 20.4808 0 21.517 0 22.797C0 24.077 1.04508 25.1132 2.33564 25.1132C3.6262 25.1132 4.67128 24.077 4.67128 22.797Z" fill="url(#paint3_linear_290_95273)"/>
<path d="M5.03999 1.46287C5.2247 1.46287 5.40881 1.64572 5.40881 1.82858C5.40881 2.01144 5.2247 2.19429 5.03999 2.19429C4.85588 2.19429 4.67116 2.07239 4.67116 1.82858C4.67116 1.58477 4.85588 1.46287 5.03999 1.46287ZM5.03999 3.77905C6.08507 3.77905 6.94545 2.92572 6.94545 1.88953C6.94545 0.853345 6.08507 1.35899e-05 5.03999 1.35899e-05C3.9949 1.35899e-05 3.13452 0.853345 3.13452 1.88953C3.13452 2.92572 3.9949 3.77905 5.03999 3.77905Z" fill="url(#paint4_linear_290_95273)"/>
<path d="M31.9624 19.0173C31.3475 19.0173 30.7946 18.5297 30.7946 17.8592C30.7946 17.1888 31.2861 16.7011 31.9624 16.7011C32.6387 16.7011 33.1296 17.1888 33.1296 17.8592C33.1296 18.5297 32.5767 19.0173 31.9624 19.0173ZM31.9624 15.1773C30.4871 15.1773 29.2573 16.3964 29.2573 17.8592C29.2573 19.3221 30.4871 20.5411 31.9624 20.5411C33.4371 20.5411 34.6669 19.3221 34.6669 17.8592C34.6669 16.3964 33.4371 15.1773 31.9624 15.1773Z" fill="url(#paint5_linear_290_95273)"/>
<path d="M31.5927 7.5588C32.0338 7.5588 32.3917 7.91354 32.3917 8.35118C32.3917 8.78881 32.0338 9.14355 31.5927 9.14355C31.1516 9.14355 30.7937 8.78881 30.7937 8.35118C30.7937 7.91354 31.1516 7.5588 31.5927 7.5588Z" fill="url(#paint6_linear_290_95273)"/>
<path d="M30.0569 24.3201C30.4981 24.3201 30.8559 24.6749 30.8559 25.1125C30.8559 25.5502 30.4981 25.9049 30.0569 25.9049C29.6152 25.9049 29.2573 25.5502 29.2573 25.1125C29.2573 24.6749 29.6152 24.3201 30.0569 24.3201Z" fill="url(#paint7_linear_290_95273)"/>
<path d="M28.5202 1.46334C28.9613 1.46334 29.3192 1.81808 29.3192 2.25572C29.3192 2.69335 28.9613 3.0481 28.5202 3.0481C28.0791 3.0481 27.7212 2.69335 27.7212 2.25572C27.7212 1.81808 28.0791 1.46334 28.5202 1.46334Z" fill="url(#paint8_linear_290_95273)"/>
<path d="M2.39714 4.51107C2.83827 4.51107 3.19614 4.86581 3.19614 5.30345C3.19614 5.74108 2.83827 6.09583 2.39714 6.09583C1.95602 6.09583 1.59814 5.74108 1.59814 5.30345C1.59814 4.86581 1.95602 4.51107 2.39714 4.51107Z" fill="url(#paint9_linear_290_95273)"/>
<path d="M1.59809 16.7013C2.03982 16.7013 2.39708 17.056 2.39708 17.4936C2.39708 17.9313 2.03982 18.286 1.59809 18.286C1.15696 18.286 0.799072 17.9313 0.799072 17.4936C0.799072 17.056 1.15696 16.7013 1.59809 16.7013Z" fill="url(#paint10_linear_290_95273)"/>
<defs>
<linearGradient id="paint0_linear_290_95273" x1="8.54346" y1="13.6539" x2="23.9099" y2="13.6539" gradientUnits="userSpaceOnUse">
<stop stop-color="#2E0797"/>
<stop offset="1" stop-color="#726EFC"/>
</linearGradient>
<linearGradient id="paint1_linear_290_95273" x1="12.4143" y1="13.2877" x2="20.0991" y2="13.2877" gradientUnits="userSpaceOnUse">
<stop stop-color="#2E0797"/>
<stop offset="1" stop-color="#726EFC"/>
</linearGradient>
<linearGradient id="paint2_linear_290_95273" x1="2.27441" y1="16.7318" x2="30.0015" y2="16.7318" gradientUnits="userSpaceOnUse">
<stop stop-color="#2E0797"/>
<stop offset="1" stop-color="#726EFC"/>
</linearGradient>
<linearGradient id="paint3_linear_290_95273" x1="0" y1="22.797" x2="4.67128" y2="22.797" gradientUnits="userSpaceOnUse">
<stop stop-color="#2E0797"/>
<stop offset="1" stop-color="#726EFC"/>
</linearGradient>
<linearGradient id="paint4_linear_290_95273" x1="3.13452" y1="1.88953" x2="6.94545" y2="1.88953" gradientUnits="userSpaceOnUse">
<stop stop-color="#2E0797"/>
<stop offset="1" stop-color="#726EFC"/>
</linearGradient>
<linearGradient id="paint5_linear_290_95273" x1="29.2573" y1="17.8592" x2="34.6669" y2="17.8592" gradientUnits="userSpaceOnUse">
<stop stop-color="#2E0797"/>
<stop offset="1" stop-color="#726EFC"/>
</linearGradient>
<linearGradient id="paint6_linear_290_95273" x1="30.7937" y1="8.35118" x2="32.3917" y2="8.35118" gradientUnits="userSpaceOnUse">
<stop stop-color="#2E0797"/>
<stop offset="1" stop-color="#726EFC"/>
</linearGradient>
<linearGradient id="paint7_linear_290_95273" x1="29.2573" y1="25.1125" x2="30.8559" y2="25.1125" gradientUnits="userSpaceOnUse">
<stop stop-color="#2E0797"/>
<stop offset="1" stop-color="#726EFC"/>
</linearGradient>
<linearGradient id="paint8_linear_290_95273" x1="27.7212" y1="2.25572" x2="29.3192" y2="2.25572" gradientUnits="userSpaceOnUse">
<stop stop-color="#2E0797"/>
<stop offset="1" stop-color="#726EFC"/>
</linearGradient>
<linearGradient id="paint9_linear_290_95273" x1="1.59814" y1="5.30345" x2="3.19614" y2="5.30345" gradientUnits="userSpaceOnUse">
<stop stop-color="#2E0797"/>
<stop offset="1" stop-color="#726EFC"/>
</linearGradient>
<linearGradient id="paint10_linear_290_95273" x1="0.799072" y1="17.4936" x2="2.39708" y2="17.4936" gradientUnits="userSpaceOnUse">
<stop stop-color="#2E0797"/>
<stop offset="1" stop-color="#726EFC"/>
</linearGradient>
</defs>
</svg>
