<svg width="37" height="36" viewBox="0 0 37 36" fill="none" xmlns="http://www.w3.org/2000/svg">
<path d="M18.2104 13.7694V13.4507L18.4676 13.642L18.2104 13.7694ZM20.527 12.877L17.8242 11.3472C17.3094 11.0284 16.6015 11.4109 16.6015 12.0483V15.1081C16.6015 15.7455 17.245 16.128 17.8242 15.8093L20.527 14.2794C21.0415 13.9607 21.0415 13.1957 20.527 12.877Z" fill="#9EDD05"/>
<path d="M33.3964 31.1076C33.2036 31.1076 33.0103 30.9163 33.0103 30.7251C33.0103 30.5339 33.2036 30.3426 33.3964 30.3426C33.5898 30.3426 33.7825 30.5339 33.7825 30.7251C33.7825 30.9163 33.5898 31.1076 33.3964 31.1076ZM33.3964 28.749C32.3029 28.749 31.4015 29.6414 31.4015 30.7251C31.4015 31.8087 32.3029 32.7012 33.3964 32.7012C34.4905 32.7012 35.3912 31.8087 35.3912 30.7251C35.3912 29.6414 34.4905 28.749 33.3964 28.749Z" fill="#9EDD05"/>
<path d="M30.5652 32.701C31.0277 32.701 31.4017 33.072 31.4017 33.5297C31.4017 33.9874 31.0277 34.3584 30.5652 34.3584C30.1034 34.3584 29.7288 33.9874 29.7288 33.5297C29.7288 33.072 30.1034 32.701 30.5652 32.701Z" fill="#9EDD05"/>
<path d="M32.1743 13.578C32.6361 13.578 33.0102 13.949 33.0102 14.4067C33.0102 14.8644 32.6361 15.2354 32.1743 15.2354C31.7119 15.2354 31.3372 14.8644 31.3372 14.4067C31.3372 13.949 31.7119 13.578 32.1743 13.578Z" fill="#9EDD05"/>
<path d="M33.0102 0.828972C33.4726 0.828972 33.8467 1.19996 33.8467 1.65765C33.8467 2.11534 33.4726 2.48633 33.0102 2.48633C32.5484 2.48633 32.1743 2.11534 32.1743 1.65765C32.1743 1.19996 32.5484 0.828972 33.0102 0.828972Z" fill="#9EDD05"/>
<path d="M2.44512 -0.000129476C2.90726 -0.000129476 3.28174 0.370863 3.28174 0.828549C3.28174 1.28623 2.90726 1.65723 2.44512 1.65723C1.98318 1.65723 1.60844 1.28623 1.60844 0.828549C1.60844 0.370863 1.98318 -0.000129476 2.44512 -0.000129476Z" fill="#9EDD05"/>
<path d="M4.82589 7.96862C5.28777 7.96862 5.66251 8.33961 5.66251 8.7973C5.66251 9.25498 5.28777 9.62598 4.82589 9.62598C4.36369 9.62598 3.98921 9.25498 3.98921 8.7973C3.98921 8.33961 4.36369 7.96862 4.82589 7.96862Z" fill="#9EDD05"/>
<path d="M3.21718 19.1229C3.67932 19.1229 4.05405 19.4939 4.05405 19.9516C4.05405 20.4093 3.67932 20.7803 3.21718 20.7803C2.75549 20.7803 2.38075 20.4093 2.38075 19.9516C2.38075 19.4939 2.75549 19.1229 3.21718 19.1229Z" fill="#9EDD05"/>
<path d="M3.21718 32.701C3.67932 32.701 4.05405 33.072 4.05405 33.5297C4.05405 33.9874 3.67932 34.3584 3.21718 34.3584C2.75549 34.3584 2.38075 33.9874 2.38075 33.5297C2.38075 33.072 2.75549 32.701 3.21718 32.701Z" fill="#9EDD05"/>
<path d="M34.9408 22.4384L24.5162 32.8287L10.4885 32.3188C10.2954 32.3188 10.0382 32.3825 9.9093 32.5737L8.42932 33.9761L3.15283 28.7491L8.42932 23.522C23.4228 25.1156 22.9075 25.0519 22.9075 25.0519C23.5512 25.1156 24.0659 25.5618 24.1307 26.1993C24.195 27.028 23.5512 27.6654 22.779 27.6654L14.6068 27.2829C14.1563 27.2829 13.7704 27.6017 13.7704 28.0479C13.7704 28.4941 14.0919 28.8766 14.5425 28.8766L22.7148 29.259C24.1307 29.3228 25.3527 28.3666 25.6746 27.028C33.1394 20.0798 32.8175 20.3985 32.8175 20.3348C33.3964 19.7611 34.3613 19.7611 34.9408 20.3348C35.5197 20.9085 35.5197 21.8647 34.9408 22.4384ZM31.7234 19.1874L25.417 25.0519C24.9666 24.1595 24.0659 23.5858 23.0366 23.4583L8.17214 21.8647C7.91446 21.8647 7.65702 21.9284 7.52859 22.1196L1.35085 28.2391C1.02904 28.5578 1.02904 29.0678 1.35085 29.3865L7.78602 35.761C8.10777 36.0797 8.62238 36.0797 8.94419 35.761L10.7459 33.9761L24.7739 34.4861C24.9666 34.4861 25.2242 34.4223 25.3527 34.2311L36.035 23.6495C37.2576 22.4384 37.2576 20.4623 36.035 19.3149C34.8766 18.04 32.946 18.04 31.7234 19.1874Z" fill="#9EDD05"/>
<path d="M22.4571 17.5939C23.487 16.574 24.1308 15.1716 24.1308 13.578C24.1308 10.5183 21.6207 7.96847 18.4675 7.96847C15.3145 7.96847 12.8692 10.5183 12.8692 13.578C12.8692 15.1079 13.5128 16.574 14.5425 17.5939H8.81545V9.62583H12.8692C13.32 9.62583 13.7061 9.24336 13.7061 8.79715C13.7061 8.35094 13.32 7.96847 12.8692 7.96847H8.81545V6.37486C12.8048 6.37486 23.7446 6.37486 28.1198 6.37486V7.96847H24.0659C23.6155 7.96847 23.2294 8.35094 23.2294 8.79715C23.2294 9.24336 23.6155 9.62583 24.0659 9.62583H28.1198V17.5939H22.4571ZM14.4781 13.578C14.4781 11.4107 16.2801 9.56209 18.5321 9.56209C20.7844 9.56209 22.5214 11.4107 22.5214 13.578C22.5214 15.7453 20.72 17.5939 18.4675 17.5939C16.2152 17.5939 14.4781 15.7453 14.4781 13.578ZM11.6467 4.845H8.81545V3.1239L11.6467 4.845ZM14.414 4.65376L10.8746 2.42271H17.1165L14.414 4.65376ZM28.1847 2.42271V4.845H24.7739L27.6694 2.42271H28.1847ZM25.0957 2.42271L22.2002 4.845H20.72L23.6155 2.42271H25.0957ZM21.1061 2.42271L18.2103 4.845H16.7303L19.6261 2.42271H21.1061ZM8.04321 19.1875H28.9563C29.4067 19.1875 29.7928 18.805 29.7928 18.3588V1.65777C29.7928 1.21156 29.4067 0.829094 28.9563 0.829094C6.94935 0.829094 8.04321 0.829094 7.97884 0.829094C7.59272 0.892838 7.2709 1.21156 7.2709 1.59403V18.3588C7.2709 18.805 7.59271 19.1875 8.04321 19.1875Z" fill="#9EDD05"/>
<path d="M1.60841 14.4068C1.60841 13.9606 1.99459 13.5781 2.44509 13.5781C2.89533 13.5781 3.2817 13.9606 3.2817 14.4068C3.2817 14.853 2.89533 15.2355 2.44509 15.2355C1.99459 15.2355 1.60841 14.7893 1.60841 14.4068ZM4.82606 14.4068C4.82606 13.0682 3.7322 11.9845 2.38071 11.9845C1.02923 11.9845 0 13.0682 0 14.4068C0 15.7454 1.09386 16.8291 2.44509 16.8291C3.79657 16.8291 4.82606 15.6817 4.82606 14.4068Z" fill="#9EDD05"/>
<path d="M34.1685 7.20285C34.8123 7.20285 35.3911 7.7128 35.3911 8.41399C35.3911 9.11518 34.8765 9.62514 34.1685 9.62514C33.4605 9.62514 32.9459 9.11518 32.9459 8.41399C32.9459 7.7128 33.5254 7.20285 34.1685 7.20285ZM34.1685 11.2188C35.713 11.2188 36.9999 9.94386 36.9999 8.41399C36.9999 6.88413 35.713 5.60924 34.1685 5.60924C32.6247 5.60924 31.3372 6.88413 31.3372 8.41399C31.4015 9.94386 32.6247 11.2188 34.1685 11.2188Z" fill="#9EDD05"/>
</svg>
