<svg width="39" height="37" viewBox="0 0 39 37" fill="none" xmlns="http://www.w3.org/2000/svg">
<path d="M37.2586 32.7387C37.2586 33.9824 36.2657 34.9642 35.0076 34.9642H7.46277V33.3278H13.2235C13.6869 33.3278 14.0836 32.9351 14.0836 32.4769C14.0836 32.0187 13.6869 31.626 13.2235 31.626H7.39601V12.9058H13.2235C13.6869 12.9058 14.0836 12.5131 14.0836 12.0549C14.0836 11.5967 13.6869 11.204 13.2235 11.204H7.39601V9.63303H34.9409C36.199 9.63303 37.1926 10.6149 37.1926 11.8585V32.7387H37.2586ZM2.49667 32.7387V11.8585C2.49667 10.6149 3.48964 9.63303 4.74769 9.63303H5.80741V35.0297H4.74769C3.48964 35.0297 2.49667 33.9824 2.49667 32.7387ZM34.9409 7.99664H4.74769C2.56279 7.99664 0.841309 9.76394 0.841309 11.8585V32.7387C0.841309 34.8987 2.6289 36.6006 4.74769 36.6006H34.9409C37.1265 36.6006 38.8479 34.8333 38.8479 32.7387V11.8585C38.914 9.76394 37.1258 7.99664 34.9409 7.99664Z" fill="#2334DE"/>
<path d="M24.4129 31.7573C19.1818 31.7573 14.8781 27.5682 14.8781 22.3317C14.8781 17.0953 19.1163 12.9062 24.4129 12.9062C29.7102 12.9062 33.9478 17.0953 33.9478 22.3317C33.9478 27.5682 29.6441 31.7573 24.4129 31.7573ZM24.4129 11.2698C18.2549 11.2698 13.2234 16.2444 13.2234 22.3317C13.2234 28.4191 18.2549 33.3937 24.4129 33.3937C30.571 33.3937 35.6032 28.4191 35.6032 22.3317C35.6032 16.2444 30.571 11.2698 24.4129 11.2698Z" fill="#2334DE"/>
<path d="M23.156 22.3319C23.156 21.6773 23.6849 21.0882 24.4134 21.0882C25.1419 21.0882 25.6715 21.6119 25.6715 22.3319C25.6715 23.0519 25.1419 23.5755 24.4134 23.5755C23.6849 23.5755 23.156 22.9864 23.156 22.3319ZM27.3275 22.3319C27.3275 20.761 26.0027 19.4519 24.4134 19.4519C22.8248 19.4519 21.5 20.761 21.5 22.3319C21.5 23.9028 22.8248 25.2119 24.4134 25.2119C26.0027 25.2119 27.3275 23.9028 27.3275 22.3319Z" fill="#2334DE"/>
<path d="M30.6371 22.3319C30.6371 25.7356 27.8559 28.4847 24.413 28.4847C23.9496 28.4847 23.5522 28.8774 23.5522 29.3356C23.5522 29.7938 23.9496 30.1865 24.413 30.1865C28.7173 30.1865 32.2931 26.7174 32.2931 22.3973C32.2931 21.9392 31.8952 21.5464 31.4317 21.5464C30.9683 21.5464 30.6371 21.8737 30.6371 22.3319Z" fill="#2334DE"/>
<path d="M25.208 15.3934C25.208 14.9353 24.8107 14.5425 24.3473 14.5425C20.0436 14.5425 16.4678 18.0117 16.4678 22.3317C16.4678 22.7899 16.8651 23.1826 17.3285 23.1826C17.792 23.1826 18.1899 22.7899 18.1899 22.3317C18.1899 18.928 20.9704 16.1789 24.4134 16.1789C24.8768 16.1789 25.208 15.7862 25.208 15.3934Z" fill="#2334DE"/>
<path d="M11.5678 15.3937H14.0839C14.5473 15.3937 14.9453 15.0009 14.9453 14.5428C14.9453 14.0846 14.5473 13.6918 14.0839 13.6918H11.5678C11.1043 13.6918 10.707 14.0846 10.707 14.5428C10.7738 15.0009 11.1043 15.3937 11.5678 15.3937Z" fill="#2334DE"/>
<path d="M14.0839 29.2708H11.5678C11.1043 29.2708 10.707 29.6636 10.707 30.1217C10.707 30.5799 11.1043 30.9727 11.5678 30.9727H14.0839C14.5473 30.9727 14.9453 30.5799 14.9453 30.1217C14.8785 29.6636 14.4818 29.2708 14.0839 29.2708Z" fill="#2334DE"/>
<path d="M9.11775 2.30243C9.58117 2.30243 9.97912 2.69516 9.97912 3.15335C9.97912 3.61154 9.58117 4.00427 9.11775 4.00427C8.65433 4.00427 8.25766 3.61154 8.25766 3.15335C8.25766 2.62971 8.65433 2.30243 9.11775 2.30243ZM9.11775 5.5752C10.5087 5.5752 11.6345 4.46246 11.6345 3.0879C11.6345 1.71334 10.5087 0.600596 9.11775 0.600596C7.72748 0.600596 6.60229 1.71334 6.60229 3.0879C6.60229 4.46246 7.72748 5.5752 9.11775 5.5752Z" fill="#2334DE"/>
<path d="M32.6904 2.30277C32.8893 2.30277 33.0877 2.49913 33.0877 2.6955C33.0877 2.89186 32.8893 3.08823 32.6904 3.08823C32.4914 3.08823 32.2937 2.89186 32.2937 2.6955C32.2937 2.49913 32.4259 2.30277 32.6904 2.30277ZM32.6904 4.72461C33.8162 4.72461 34.743 3.80824 34.743 2.6955C34.743 1.58276 33.8162 0.666384 32.6904 0.666384C31.5645 0.666384 30.6377 1.58276 30.6377 2.6955C30.6377 3.80824 31.5645 4.72461 32.6904 4.72461Z" fill="#2334DE"/>
<path d="M36.3982 4.7248C36.8741 4.7248 37.2589 5.10575 37.2589 5.57572C37.2589 6.04569 36.8741 6.42664 36.3982 6.42664C35.9223 6.42664 35.5375 6.04569 35.5375 5.57572C35.5375 5.10575 35.9223 4.7248 36.3982 4.7248Z" fill="#2334DE"/>
<path d="M27.3272 2.23664C27.8018 2.23664 28.1873 2.61759 28.1873 3.08756C28.1873 3.55753 27.8018 3.93848 27.3272 3.93848C26.8514 3.93848 26.4658 3.55753 26.4658 3.08756C26.4658 2.61759 26.8514 2.23664 27.3272 2.23664Z" fill="#2334DE"/>
<path d="M21.4996 4.7248C21.9755 4.7248 22.361 5.10575 22.361 5.57572C22.361 6.04569 21.9755 6.42664 21.4996 6.42664C21.0244 6.42664 20.6389 6.04569 20.6389 5.57572C20.6389 5.10575 21.0244 4.7248 21.4996 4.7248Z" fill="#2334DE"/>
<path d="M14.0834 1.45148C14.5593 1.45148 14.9448 1.83243 14.9448 2.3024C14.9448 2.77237 14.5593 3.15332 14.0834 3.15332C13.6082 3.15332 13.2234 2.77237 13.2234 2.3024C13.2234 1.83243 13.6082 1.45148 14.0834 1.45148Z" fill="#2334DE"/>
<path d="M15.7389 11.2698C16.2148 11.2698 16.6003 11.6508 16.6003 12.1208C16.6003 12.5907 16.2148 12.9717 15.7389 12.9717C15.2637 12.9717 14.8782 12.5907 14.8782 12.1208C14.8782 11.6508 15.2637 11.2698 15.7389 11.2698Z" fill="#2334DE"/>
<path d="M4.15159 3.87336C4.62745 3.87336 5.01296 4.25431 5.01296 4.72428C5.01296 5.19425 4.62745 5.5752 4.15159 5.5752C3.67704 5.5752 3.2915 5.19425 3.2915 4.72428C3.2915 4.25431 3.67704 3.87336 4.15159 3.87336Z" fill="#2334DE"/>
</svg>
