<svg width="37" height="37" viewBox="0 0 37 37" fill="none" xmlns="http://www.w3.org/2000/svg">
<path d="M18.2164 16.0275L19.8884 15.1091C20.3837 14.803 20.3837 14.0683 19.8884 13.7622L18.2164 12.8438C17.7205 12.5377 17.0397 12.9051 17.0397 13.5173V15.4153C17.0397 15.9051 17.7205 16.2724 18.2164 16.0275Z" fill="#2334DE"/>
<path d="M31.0365 32.0091C31.4816 32.0091 31.8417 32.3654 31.8417 32.805C31.8417 33.2446 31.4816 33.601 31.0365 33.601C30.592 33.601 30.2321 33.2446 30.2321 32.805C30.2321 32.3654 30.592 32.0091 31.0365 32.0091Z" fill="#2334DE"/>
<path d="M28.7454 34.2738C29.1899 34.2738 29.5505 34.6301 29.5505 35.0697C29.5505 35.5093 29.1899 35.8656 28.7454 35.8656C28.3003 35.8656 27.9397 35.5093 27.9397 35.0697C27.9397 34.6301 28.3003 34.2738 28.7454 34.2738Z" fill="#2334DE"/>
<path d="M7.0678 32.7423C7.51229 32.7423 7.8729 33.0986 7.8729 33.5382C7.8729 33.9778 7.51229 34.3341 7.0678 34.3341C6.6227 34.3341 6.2627 33.9778 6.2627 33.5382C6.2627 33.0986 6.6227 32.7423 7.0678 32.7423Z" fill="#2334DE"/>
<path d="M3.16597 35.0694C2.7325 35.0694 2.36086 34.702 2.36086 34.2734C2.36086 33.8449 2.7325 33.4775 3.16597 33.4775C3.59944 33.4775 3.97107 33.8449 3.97107 34.2734C3.97107 34.702 3.59944 35.0694 3.16597 35.0694ZM3.16597 32.0081C1.86495 32.0081 0.8125 33.049 0.8125 34.3347C0.8125 35.6204 1.86495 36.6 3.16597 36.6C4.46699 36.6 5.51943 35.5592 5.51943 34.2734C5.51943 32.9877 4.46699 32.0081 3.16597 32.0081Z" fill="#2334DE"/>
<path d="M5.08577 3.72187C5.27128 3.72187 5.45741 3.90555 5.45741 4.08922C5.45741 4.2729 5.27128 4.45657 5.08577 4.45657C4.90026 4.45657 4.71414 4.2729 4.71414 4.08922C4.71414 3.90555 4.90026 3.72187 5.08577 3.72187ZM5.08577 5.98718C6.13822 5.98718 7.00577 5.13004 7.00577 4.08922C7.00577 3.0484 6.13822 2.19126 5.08577 2.19126C4.03271 2.19126 3.16577 3.0484 3.16577 4.08922C3.16577 5.13004 4.03271 5.98718 5.08577 5.98718Z" fill="#2334DE"/>
<path d="M30.2938 2.19244C30.7273 2.19244 31.0989 2.55978 31.0989 2.98835C31.0989 3.41693 30.7273 3.78427 30.2938 3.78427C29.8603 3.78427 29.4887 3.41693 29.4887 2.98835C29.4887 2.49856 29.8603 2.19244 30.2938 2.19244ZM30.2938 5.25366C31.5942 5.25366 32.6473 4.21284 32.6473 2.92713C32.6473 1.64141 31.5942 0.600597 30.2938 0.600597C28.9928 0.600597 27.9397 1.64141 27.9397 2.92713C27.9397 4.21284 28.9928 5.25366 30.2938 5.25366Z" fill="#2334DE"/>
<path d="M34.5055 35.0694C34.3193 35.0694 34.1338 34.8857 34.1338 34.702C34.1338 34.5183 34.3193 34.3347 34.5055 34.3347C34.691 34.3347 34.8765 34.5183 34.8765 34.702C34.9389 34.8857 34.7528 35.0694 34.5055 35.0694ZM34.5055 32.8041C33.4524 32.8041 32.5848 33.6612 32.5848 34.702C32.5848 35.7428 33.4524 36.6 34.5055 36.6C35.5579 36.6 36.4248 35.7428 36.4248 34.702C36.4867 33.6612 35.5579 32.8041 34.5055 32.8041Z" fill="#2334DE"/>
<path d="M31.8416 27.4162C32.2867 27.4162 32.6473 27.7725 32.6473 28.2121C32.6473 28.6517 32.2867 29.0081 31.8416 29.0081C31.3971 29.0081 31.0365 28.6517 31.0365 28.2121C31.0365 27.7725 31.3971 27.4162 31.8416 27.4162Z" fill="#2334DE"/>
<path d="M29.4887 27.4162C29.9332 27.4162 30.2938 27.7725 30.2938 28.2121C30.2938 28.6517 29.9332 29.0081 29.4887 29.0081C29.0436 29.0081 28.6836 28.6517 28.6836 28.2121C28.6836 27.7725 29.0436 27.4162 29.4887 27.4162Z" fill="#2334DE"/>
<path d="M27.1969 27.4162C27.6414 27.4162 28.0014 27.7725 28.0014 28.2121C28.0014 28.6517 27.6414 29.0081 27.1969 29.0081C26.7518 29.0081 26.3918 28.6517 26.3918 28.2121C26.3918 27.7725 26.7518 27.4162 27.1969 27.4162Z" fill="#2334DE"/>
<path d="M34.939 2.1296C35.3835 2.1296 35.7435 2.48592 35.7435 2.92552C35.7435 3.36511 35.3835 3.72144 34.939 3.72144C34.4939 3.72144 34.1339 3.36511 34.1339 2.92552C34.1339 2.48592 34.4939 2.1296 34.939 2.1296Z" fill="#2334DE"/>
<path d="M8.61613 1.39498C9.06062 1.39498 9.42123 1.75131 9.42123 2.1909C9.42123 2.63049 9.06062 2.98682 8.61613 2.98682C8.17164 2.98682 7.81104 2.63049 7.81104 2.1909C7.81104 1.75131 8.17164 1.39498 8.61613 1.39498Z" fill="#2334DE"/>
<path d="M15.8625 34.3356L16.9156 31.2744H20.4452L21.4983 34.3356H15.8625ZM3.1658 28.5193V9.47842C3.1658 8.80495 3.72294 8.25393 4.40437 8.25393H10.9076V9.04985H4.71417C4.2807 9.04985 3.90907 9.4172 3.90907 9.84577V25.9478C3.90907 26.3764 4.2807 26.7437 4.71417 26.7437H32.5842C33.0183 26.7437 33.3899 26.3764 33.3899 25.9478V9.84577C33.3899 9.4172 33.0183 9.04985 32.5842 9.04985H26.3913V8.25393H32.894C33.5754 8.25393 34.1332 8.80495 34.1332 9.47842V28.5193C34.1332 29.1927 33.5754 29.7437 32.894 29.7437C31.5317 29.7437 5.3956 29.7437 4.34254 29.7437C3.72294 29.7437 3.1658 29.1927 3.1658 28.5193ZM12.456 2.92739H21.7462V5.25393C21.7462 5.6825 22.1179 6.04985 22.5513 6.04985H24.843V21.356H12.456V2.92739ZM23.294 4.02944L23.7281 4.45801H23.294V4.02944ZM11.7128 22.8254H25.6481C26.0815 22.8254 26.4532 22.458 26.4532 22.0295V10.5805H31.9034V25.1519H5.51927V10.5805H10.9695V22.0907C10.9076 22.458 11.2793 22.8254 11.7128 22.8254ZM24.843 34.3356H23.1085L22.056 31.2744H32.894C34.4424 31.2744 35.6809 30.0499 35.6809 28.5193V9.47842C35.6809 7.94781 34.4424 6.72332 32.894 6.72332H26.3913C26.3913 5.07025 26.3913 5.13148 26.3913 5.07025C26.3913 4.9478 26.267 4.76413 26.2052 4.70291C22.8605 1.39678 23.1085 1.64168 23.0466 1.58046C22.923 1.45801 22.7368 1.39678 22.5513 1.39678H11.7128C11.2793 1.39678 10.9076 1.76413 10.9076 2.1927V6.78454H4.40437C2.85601 6.78454 1.61743 8.00903 1.61743 9.53964V28.5805C1.61743 30.1111 2.85601 31.3356 4.40437 31.3356H15.3048L14.2517 34.3968H12.456C12.0225 34.3968 11.6509 34.7642 11.6509 35.1927C11.6509 35.6213 12.0225 35.9886 12.456 35.9886C16.8532 35.9886 20.4452 35.9886 24.843 35.9886C25.2764 35.9886 25.6481 35.6213 25.6481 35.1927C25.6481 34.6417 25.2764 34.3356 24.843 34.3356Z" fill="#2334DE"/>
<path d="M14.8098 12.5998C14.8098 12.3549 14.9953 12.11 15.3051 12.11H22.1182C22.3655 12.11 22.6135 12.2936 22.6135 12.5998V16.2732C22.6135 16.5181 22.4274 16.763 22.1182 16.763H15.3051C15.0571 16.763 14.8098 16.5794 14.8098 16.2732V12.5998ZM15.2433 18.2324H22.0563C23.1706 18.2324 24.1 17.3141 24.1 16.212V12.5385C24.1 11.4365 23.1706 10.5181 22.0563 10.5181H15.2433C14.1284 10.5181 13.1996 11.4365 13.1996 12.5385V16.212C13.2614 17.3141 14.1284 18.2324 15.2433 18.2324Z" fill="#2334DE"/>
<path d="M9.35942 14.4359C8.92595 14.4359 8.55432 14.8033 8.55432 15.2318V19.089C8.55432 19.5175 8.92595 19.8849 9.35942 19.8849C9.79289 19.8849 10.1645 19.5175 10.1645 19.089V15.1706C10.1645 14.742 9.79289 14.4359 9.35942 14.4359Z" fill="#2334DE"/>
<path d="M7.06792 16.7022C6.63445 16.7022 6.26282 17.0695 6.26282 17.4981V22.0899C6.26282 22.5185 6.63445 22.8859 7.06792 22.8859C7.50139 22.8859 7.87302 22.5185 7.87302 22.0899V17.4981C7.81118 17.0695 7.43955 16.7022 7.06792 16.7022Z" fill="#2334DE"/>
<path d="M30.2939 22.8243C30.7274 22.8243 31.099 22.457 31.099 22.0284V18.2325C31.099 17.8039 30.7274 17.4366 30.2939 17.4366C29.8604 17.4366 29.4888 17.8039 29.4888 18.2325V22.0896C29.4888 22.457 29.8604 22.8243 30.2939 22.8243Z" fill="#2334DE"/>
<path d="M27.9395 20.5586C28.3736 20.5586 28.7452 20.1912 28.7452 19.7627V15.1708C28.7452 14.7423 28.3736 14.3749 27.9395 14.3749C27.506 14.3749 27.1344 14.7423 27.1344 15.1708V19.7627C27.1968 20.1912 27.506 20.5586 27.9395 20.5586Z" fill="#2334DE"/>
<path d="M14.8094 8.31387H22.5513V9.84448H14.8094V8.31387Z" fill="#2334DE"/>
<path d="M14.8094 5.98696H17.9062V7.51758H14.8094V5.98696Z" fill="#2334DE"/>
</svg>
