<svg width="26" height="24" viewBox="0 0 26 24" fill="none" xmlns="http://www.w3.org/2000/svg">
<path d="M15.9852 4.84254C16.1997 5.05493 16.5433 5.05493 16.7583 4.84254C17.5747 4.03547 17.5747 2.67618 16.7583 1.82663C16.5433 1.61424 16.1997 1.61424 15.9852 1.82663C15.7702 2.03902 15.7702 2.37884 15.9852 2.59123C16.4146 3.016 16.4146 3.69565 15.9852 4.07794C15.8127 4.29033 15.8127 4.63015 15.9852 4.84254Z" fill="white"/>
<path d="M17.5317 5.56476C17.3167 5.77715 17.3167 6.11697 17.5317 6.32936C17.7466 6.54174 18.0903 6.54174 18.3052 6.32936C19.9809 4.67273 19.9809 1.99664 18.3052 0.340017C18.0903 0.12763 17.7466 0.12763 17.5317 0.340017C17.3167 0.552405 17.3167 0.892226 17.5317 1.10461C18.778 2.33646 18.778 4.33291 17.5317 5.56476Z" fill="white"/>
<path d="M9.10958 4.84254C9.32409 5.05493 9.66816 5.05493 9.88309 4.84254C10.0976 4.63015 10.0976 4.29033 9.88309 4.07794C9.45322 3.65317 9.45322 2.97353 9.88309 2.59123C10.0976 2.37884 10.0976 2.03902 9.88309 1.82663C9.66816 1.61424 9.32409 1.61424 9.10958 1.82663C8.25026 2.63371 8.25026 3.99299 9.10958 4.84254Z" fill="white"/>
<path d="M7.60556 6.32936C7.8205 6.54174 8.16414 6.54174 8.37908 6.32936C8.59401 6.11697 8.59401 5.77715 8.37908 5.56476C7.13278 4.33291 7.13278 2.29399 8.37908 1.06214C8.59401 0.849749 8.59401 0.509928 8.37908 0.297541C8.16414 0.0851526 7.8205 0.0851526 7.60556 0.297541C5.92982 1.99664 5.92982 4.67273 7.60556 6.32936Z" fill="white"/>
<path d="M1.67607 1.61445C1.98445 1.61445 2.23465 1.86167 2.23465 2.16666C2.23465 2.47165 1.98445 2.71887 1.67607 2.71887C1.36725 2.71887 1.11707 2.47165 1.11707 2.16666C1.11707 1.86167 1.36725 1.61445 1.67607 1.61445Z" fill="white"/>
<path d="M2.74986 6.9239C3.05825 6.9239 3.30844 7.17112 3.30844 7.47611C3.30844 7.7811 3.05825 8.02832 2.74986 8.02832C2.44147 8.02832 2.19128 7.7811 2.19128 7.47611C2.19128 7.17112 2.44147 6.9239 2.74986 6.9239Z" fill="white"/>
<path d="M4.89843 13.8055C5.20724 13.8055 5.45701 14.0527 5.45701 14.3577C5.45701 14.6627 5.20724 14.9099 4.89843 14.9099C4.59004 14.9099 4.33984 14.6627 4.33984 14.3577C4.33984 14.0527 4.59004 13.8055 4.89843 13.8055Z" fill="white"/>
<path d="M21.5276 15.9292C21.8365 15.9292 22.0866 16.1764 22.0866 16.4814C22.0866 16.7863 21.8365 17.0336 21.5276 17.0336C21.2197 17.0336 20.9695 16.7863 20.9695 16.4814C20.9695 16.1764 21.2197 15.9292 21.5276 15.9292Z" fill="white"/>
<path d="M23.6765 4.80025C23.9849 4.80025 24.2347 5.04747 24.2347 5.35245C24.2347 5.65744 23.9849 5.90466 23.6765 5.90466C23.3677 5.90466 23.1179 5.65744 23.1179 5.35245C23.1179 5.04747 23.3677 4.80025 23.6765 4.80025Z" fill="white"/>
<path d="M19.3794 9.55745C19.6878 9.55745 19.938 9.80467 19.938 10.1097C19.938 10.4146 19.6878 10.6619 19.3794 10.6619C19.0706 10.6619 18.8204 10.4146 18.8204 10.1097C18.8204 9.80467 19.0706 9.55745 19.3794 9.55745Z" fill="white"/>
<path d="M22.6023 7.51019e-05C22.9107 7.51019e-05 23.1609 0.247295 23.1609 0.552284C23.1609 0.857273 22.9107 1.10449 22.6023 1.10449C22.2935 1.10449 22.0433 0.857273 22.0433 0.552284C22.0433 0.247295 22.2935 7.51019e-05 22.6023 7.51019e-05Z" fill="white"/>
<path d="M2.19142 22.8531V22.3009C3.39439 22.3009 23.2896 22.3009 23.6766 22.3009V22.8531H2.19142ZM4.89852 20.7292C18.5631 20.7292 13.5355 20.7292 21.0124 20.7292C21.3994 20.7292 21.7426 20.9416 21.9575 21.2814H3.95339C4.125 20.9416 4.46907 20.7292 4.89852 20.7292ZM13.2347 4.24792L13.6646 5.30986L12.934 5.90455L12.2034 5.30986L12.6333 4.24792C12.8482 4.2904 13.0198 4.2904 13.2347 4.24792ZM12.934 1.61432C13.3639 1.61432 13.7504 1.95414 13.7504 2.42139C13.7504 2.88864 13.3639 3.22846 12.934 3.22846C12.5041 3.22846 12.1176 2.88864 12.1176 2.42139C12.1176 1.95414 12.5041 1.61432 12.934 1.61432ZM12.9769 16.1841L18.606 19.6673H7.30487L12.9769 16.1841ZM10.3127 9.77001L11.7306 10.4921L9.53919 11.5965L10.3127 9.77001ZM14.8676 8.92046L12.934 9.93992L11.0433 8.96294L12.934 7.34879L14.8676 8.92046ZM14.481 7.22136L13.7504 6.62667L14.0941 6.32933L14.481 7.22136ZM14.0941 10.5346L15.5553 9.81249L16.3284 11.724L14.0941 10.5346ZM12.9769 14.9098L9.5821 12.7859L12.8911 11.0868L16.2859 12.8284L12.9769 14.9098ZM19.3362 18.8602L14.0083 15.547L17.1452 13.6355L19.3362 18.8602ZM11.7739 6.32933L12.1176 6.58419L11.4299 7.17888L11.7739 6.32933ZM8.76609 13.5505L11.9884 15.547L6.57426 18.8602L8.76609 13.5505ZM25.3094 22.8531H24.7504V21.7912C24.7504 21.4938 24.493 21.239 24.1923 21.239H23.0318C22.8173 20.3469 22.0008 19.6673 21.0124 19.6673H20.8403L14.1803 3.78067C14.5668 3.44085 14.7818 2.93112 14.7818 2.42139C14.7818 1.40193 13.9225 0.552376 12.8911 0.552376C11.8597 0.552376 11.0004 1.40193 11.0004 2.42139C11.0004 2.9736 11.2583 3.44085 11.6019 3.78067C11.3012 4.6727 5.37128 18.9027 5.07054 19.6673H4.89852C3.91049 19.6673 3.05074 20.3469 2.83623 21.2814H1.67616C1.375 21.2814 1.11716 21.5363 1.11716 21.8336V22.8956H0.558576C0.257835 22.8956 0 23.1504 0 23.4478C0 23.7451 0.257835 24 0.558576 24C4.03919 24 21.7859 24 25.2661 24C25.5668 24 25.8251 23.7451 25.8251 23.4478C25.8251 23.108 25.5668 22.8531 25.3094 22.8531Z" fill="white"/>
<path d="M1.93397 15.4194C2.06267 15.4194 2.19138 15.5469 2.19138 15.6743C2.19138 15.8017 2.06267 15.9292 1.93397 15.9292C1.80484 15.9292 1.67613 15.8017 1.67613 15.6743C1.67613 15.5469 1.76193 15.4194 1.93397 15.4194ZM1.93397 17.0336C2.66416 17.0336 3.26563 16.4389 3.26563 15.7168C3.26563 14.9946 2.66416 14.4 1.93397 14.4C1.20335 14.4 0.60144 14.9946 0.60144 15.7168C0.60144 16.4389 1.20335 17.0336 1.93397 17.0336Z" fill="white"/>
<path d="M5.41409 9.60024C5.71483 9.60024 5.97267 9.85511 5.97267 10.1525C5.97267 10.4498 5.71483 10.7047 5.41409 10.7047C5.11334 10.7047 4.85551 10.4498 4.85551 10.1525C4.85551 9.85511 5.11334 9.60024 5.41409 9.60024ZM5.41409 11.7241C6.31631 11.7241 7.04692 11.002 7.04692 10.11C7.04692 9.21794 6.31631 8.49582 5.41409 8.49582C4.51186 8.49582 3.78125 9.21794 3.78125 10.11C3.78125 11.002 4.51186 11.7241 5.41409 11.7241Z" fill="white"/>
<path d="M22.0867 11.1718C22.3874 11.1718 22.6453 11.4266 22.6453 11.724C22.6453 12.0213 22.3874 12.2762 22.0867 12.2762C21.786 12.2762 21.5277 11.9789 21.5277 11.724C21.5277 11.4691 21.786 11.1718 22.0867 11.1718ZM20.4539 11.724C20.4539 12.616 21.1845 13.3381 22.0867 13.3381C22.9889 13.3381 23.7195 12.616 23.7195 11.724C23.7195 10.832 22.9889 10.1098 22.0867 10.1098C21.1845 10.1098 20.4539 10.832 20.4539 11.724Z" fill="white"/>
</svg>
