<svg width="31" height="32" viewBox="0 0 31 32" fill="none" xmlns="http://www.w3.org/2000/svg">
<path d="M12.4539 14.8556C12.1843 15.1218 12.1843 15.5478 12.4539 15.814C12.7235 16.0802 13.1549 16.0802 13.4244 15.814C14.3409 14.9088 15.9044 14.9088 16.821 15.814C17.0904 16.0802 17.5215 16.0802 17.7912 15.814C18.0609 15.5478 18.0609 15.1218 17.7912 14.8556C16.3357 13.418 13.9637 13.418 12.4539 14.8556Z" fill="url(#paint0_linear_290_95374)"/>
<path d="M19.1937 14.4292C19.4628 14.163 19.4628 13.7371 19.1937 13.4708C16.983 11.2878 13.3169 11.2878 11.1063 13.4708C10.837 13.7371 10.837 14.163 11.1063 14.4292C11.3761 14.6955 11.8073 14.6955 12.0769 14.4292C13.802 12.7254 16.5514 12.7254 18.277 14.4292C18.4923 14.6955 18.924 14.6955 19.1937 14.4292Z" fill="url(#paint1_linear_290_95374)"/>
<path d="M19.5708 13.1519C19.84 13.4181 20.2717 13.4181 20.5408 13.1519C20.8105 12.8857 20.8105 12.4597 20.5408 12.1935C17.576 9.26504 12.7775 9.26504 9.75821 12.1935C9.4888 12.4597 9.4888 12.8857 9.75821 13.1519C10.0278 13.4181 10.4594 13.4181 10.7289 13.1519C11.9148 11.9805 13.4782 11.3416 15.1498 11.3416C16.8211 11.3416 18.3845 11.9805 19.5708 13.1519Z" fill="url(#paint2_linear_290_95374)"/>
<path d="M16.1738 2.02384H14.1251C13.7477 2.02384 13.4243 2.34331 13.4243 2.71602C13.4243 3.08874 13.7477 3.4082 14.1251 3.4082H16.1738C16.5511 3.4082 16.8746 3.08874 16.8746 2.71602C16.8209 2.29007 16.4974 2.02384 16.1738 2.02384Z" fill="url(#paint3_linear_290_95374)"/>
<path d="M3.3426 17.3047C2.96511 17.3047 2.6416 17.6242 2.6416 17.9969V21.2981C2.6416 21.6708 2.96511 21.9902 3.3426 21.9902C3.72004 21.9902 4.04355 21.6708 4.04355 21.2981V17.9436C4.04355 17.6242 3.72004 17.3047 3.3426 17.3047Z" fill="url(#paint4_linear_290_95374)"/>
<path d="M1.34797 19.3276C0.970531 19.3276 0.646973 19.6471 0.646973 20.0198V29.2844C0.646973 29.6571 0.970531 29.9766 1.34797 29.9766C1.7252 29.9766 1.99482 29.6571 1.99482 29.2844V19.9666C1.99482 19.5939 1.67126 19.3276 1.34797 19.3276Z" fill="url(#paint5_linear_290_95374)"/>
<path d="M1.34779 3.67461C1.34779 3.51488 1.50954 3.35515 1.67108 3.35515C1.83305 3.35515 1.99464 3.51488 1.99464 3.67461C1.99464 3.83435 1.83305 3.99408 1.67108 3.99408C1.50954 3.99408 1.34779 3.83435 1.34779 3.67461ZM3.34265 3.67461C3.34265 2.76945 2.58771 2.02403 1.67108 2.02403C0.754665 2.02403 0 2.76945 0 3.67461C0 4.57977 0.754665 5.3252 1.67108 5.3252C2.58771 5.3252 3.34265 4.57977 3.34265 3.67461Z" fill="url(#paint6_linear_290_95374)"/>
<path d="M28.9513 29.2846C28.5739 29.2846 28.2504 28.9651 28.2504 28.5924C28.2504 28.2197 28.5739 27.9002 28.9513 27.9002C29.3286 27.9002 29.6521 28.2197 29.6521 28.5924C29.6521 28.9651 29.3286 29.2846 28.9513 29.2846ZM28.9513 26.6224C27.8193 26.6224 26.9026 27.5275 26.9026 28.6457C26.9026 29.7638 27.8193 30.6689 28.9513 30.6689C30.0838 30.6689 31 29.7638 31 28.6457C31 27.5275 30.0838 26.6224 28.9513 26.6224Z" fill="url(#paint7_linear_290_95374)"/>
<path d="M3.3426 22.6293C3.72958 22.6293 4.04355 22.9392 4.04355 23.3215C4.04355 23.7038 3.72958 24.0137 3.3426 24.0137C2.95535 24.0137 2.6416 23.7038 2.6416 23.3215C2.6416 22.9392 2.95535 22.6293 3.3426 22.6293Z" fill="url(#paint8_linear_290_95374)"/>
<path d="M2.69579 8.62638C3.08282 8.62638 3.39651 8.93627 3.39651 9.31856C3.39651 9.70086 3.08282 10.0107 2.69579 10.0107C2.30854 10.0107 1.99463 9.70086 1.99463 9.31856C1.99463 8.93627 2.30854 8.62638 2.69579 8.62638Z" fill="url(#paint9_linear_290_95374)"/>
<path d="M27.6034 4.63224C27.9904 4.63224 28.3043 4.94213 28.3043 5.32442C28.3043 5.70672 27.9904 6.0166 27.6034 6.0166C27.2165 6.0166 26.9026 5.70672 26.9026 5.32442C26.9026 4.94213 27.2165 4.63224 27.6034 4.63224Z" fill="url(#paint10_linear_290_95374)"/>
<path d="M28.9513 1.97013C29.3388 1.97013 29.6522 2.28002 29.6522 2.66231C29.6522 3.04461 29.3388 3.35449 28.9513 3.35449C28.5644 3.35449 28.2505 3.04461 28.2505 2.66231C28.2505 2.28002 28.5644 1.97013 28.9513 1.97013Z" fill="url(#paint11_linear_290_95374)"/>
<path d="M1.34797 17.3051C1.73516 17.3051 2.04891 17.615 2.04891 17.9973C2.04891 18.3796 1.73516 18.6895 1.34797 18.6895C0.960938 18.6895 0.646973 18.3796 0.646973 17.9973C0.646973 17.615 0.960938 17.3051 1.34797 17.3051Z" fill="url(#paint12_linear_290_95374)"/>
<path d="M28.9513 17.305C28.574 17.305 28.2505 17.6244 28.2505 17.9972V20.6594C28.2505 21.0321 28.574 21.3516 28.9513 21.3516C29.3287 21.3516 29.6522 21.0321 29.6522 20.6594V17.9972C29.6522 17.6244 29.3287 17.305 28.9513 17.305Z" fill="url(#paint13_linear_290_95374)"/>
<path d="M27.6037 24.6525V19.967C27.6037 19.5943 27.2802 19.2748 26.9028 19.2748C26.5255 19.2748 26.2563 19.5943 26.2563 19.967V24.6525C26.2563 25.0253 26.5793 25.3447 26.9567 25.3447C27.334 25.3447 27.6037 24.972 27.6037 24.6525Z" fill="url(#paint14_linear_290_95374)"/>
<path d="M26.9567 17.3051C27.3441 17.3051 27.6575 17.615 27.6575 17.9973C27.6575 18.3796 27.3441 18.6895 26.9567 18.6895C26.5697 18.6895 26.2563 18.3796 26.2563 17.9973C26.2563 17.615 26.5697 17.3051 26.9567 17.3051Z" fill="url(#paint15_linear_290_95374)"/>
<path d="M24.2607 27.3677C24.2607 28.0599 23.6681 28.6456 22.9673 28.6456H18.1685V25.9834H22.2121C22.5899 25.9834 22.9134 25.6639 22.9134 25.2912V4.68552C22.9134 4.31281 22.5899 3.99335 22.2121 3.99335H8.08696C7.70973 3.99335 7.38623 4.31281 7.38623 4.68552V25.3444C7.38623 25.7171 7.70973 26.0366 8.08696 26.0366H12.1303V28.6988H7.33229C6.63135 28.6988 6.03822 28.1131 6.03822 27.421V2.60899C6.03822 1.91681 6.63135 1.33112 7.33229 1.33112H22.9673C23.6681 1.33112 24.2607 1.91681 24.2607 2.60899V27.3677ZM16.821 30.6156H13.4244C13.4244 19.0616 13.3705 19.594 13.4781 19.2745C13.6401 20.02 14.3409 20.6057 15.1497 20.6057C15.9582 20.6057 16.6592 20.02 16.821 19.2745C16.8747 19.594 16.821 19.0616 16.821 30.6156ZM15.1497 16.6656C13.4781 16.6656 12.1303 17.9967 12.1303 19.6473V24.6522H8.73402V5.32446H21.565V24.6522H18.1685V19.6473C18.1685 17.9967 16.821 16.6656 15.1497 16.6656ZM14.8261 17.9967C15.0416 17.9434 15.2573 17.9434 15.5271 17.9967V18.9551C15.5271 19.1148 15.3652 19.2745 15.2036 19.2745C15.0416 19.2745 14.8801 19.1148 14.8801 18.9551V17.9967H14.8261ZM22.9673 0H7.33229C5.87642 0 4.69043 1.17138 4.69043 2.60899V27.3677C4.69043 28.8053 5.87642 29.9767 7.33229 29.9767H12.1303V31.3078C12.1303 31.6805 12.4539 32 12.8313 32H17.5759C17.9532 32 18.2767 31.6805 18.2767 31.3078V29.9767H23.0749C24.5304 29.9767 25.7168 28.8053 25.7168 27.3677V2.60899C25.6086 1.17138 24.4228 0 22.9673 0Z" fill="url(#paint16_linear_290_95374)"/>
<path d="M10.0818 6.65619H11.4298V7.9873H10.0818V6.65619Z" fill="url(#paint17_linear_290_95374)"/>
<path d="M12.1306 6.65619H13.4784V7.9873H12.1306V6.65619Z" fill="url(#paint18_linear_290_95374)"/>
<path d="M14.1252 6.65619H15.4732V7.9873H14.1252V6.65619Z" fill="url(#paint19_linear_290_95374)"/>
<defs>
<linearGradient id="paint0_linear_290_95374" x1="12.2517" y1="14.8955" x2="17.9935" y2="14.8955" gradientUnits="userSpaceOnUse">
<stop stop-color="#2E0797"/>
<stop offset="1" stop-color="#726EFC"/>
</linearGradient>
<linearGradient id="paint1_linear_290_95374" x1="10.9043" y1="13.2312" x2="19.3955" y2="13.2312" gradientUnits="userSpaceOnUse">
<stop stop-color="#2E0797"/>
<stop offset="1" stop-color="#726EFC"/>
</linearGradient>
<linearGradient id="paint2_linear_290_95374" x1="9.55615" y1="11.6744" x2="20.7431" y2="11.6744" gradientUnits="userSpaceOnUse">
<stop stop-color="#2E0797"/>
<stop offset="1" stop-color="#726EFC"/>
</linearGradient>
<linearGradient id="paint3_linear_290_95374" x1="13.4243" y1="2.71602" x2="16.8746" y2="2.71602" gradientUnits="userSpaceOnUse">
<stop stop-color="#2E0797"/>
<stop offset="1" stop-color="#726EFC"/>
</linearGradient>
<linearGradient id="paint4_linear_290_95374" x1="2.6416" y1="19.6475" x2="4.04355" y2="19.6475" gradientUnits="userSpaceOnUse">
<stop stop-color="#2E0797"/>
<stop offset="1" stop-color="#726EFC"/>
</linearGradient>
<linearGradient id="paint5_linear_290_95374" x1="0.646973" y1="24.6521" x2="1.99482" y2="24.6521" gradientUnits="userSpaceOnUse">
<stop stop-color="#2E0797"/>
<stop offset="1" stop-color="#726EFC"/>
</linearGradient>
<linearGradient id="paint6_linear_290_95374" x1="0" y1="3.67461" x2="3.34265" y2="3.67461" gradientUnits="userSpaceOnUse">
<stop stop-color="#2E0797"/>
<stop offset="1" stop-color="#726EFC"/>
</linearGradient>
<linearGradient id="paint7_linear_290_95374" x1="26.9026" y1="28.6457" x2="31" y2="28.6457" gradientUnits="userSpaceOnUse">
<stop stop-color="#2E0797"/>
<stop offset="1" stop-color="#726EFC"/>
</linearGradient>
<linearGradient id="paint8_linear_290_95374" x1="2.6416" y1="23.3215" x2="4.04355" y2="23.3215" gradientUnits="userSpaceOnUse">
<stop stop-color="#2E0797"/>
<stop offset="1" stop-color="#726EFC"/>
</linearGradient>
<linearGradient id="paint9_linear_290_95374" x1="1.99463" y1="9.31856" x2="3.39651" y2="9.31856" gradientUnits="userSpaceOnUse">
<stop stop-color="#2E0797"/>
<stop offset="1" stop-color="#726EFC"/>
</linearGradient>
<linearGradient id="paint10_linear_290_95374" x1="26.9026" y1="5.32442" x2="28.3043" y2="5.32442" gradientUnits="userSpaceOnUse">
<stop stop-color="#2E0797"/>
<stop offset="1" stop-color="#726EFC"/>
</linearGradient>
<linearGradient id="paint11_linear_290_95374" x1="28.2505" y1="2.66231" x2="29.6522" y2="2.66231" gradientUnits="userSpaceOnUse">
<stop stop-color="#2E0797"/>
<stop offset="1" stop-color="#726EFC"/>
</linearGradient>
<linearGradient id="paint12_linear_290_95374" x1="0.646973" y1="17.9973" x2="2.04891" y2="17.9973" gradientUnits="userSpaceOnUse">
<stop stop-color="#2E0797"/>
<stop offset="1" stop-color="#726EFC"/>
</linearGradient>
<linearGradient id="paint13_linear_290_95374" x1="28.2505" y1="19.3283" x2="29.6522" y2="19.3283" gradientUnits="userSpaceOnUse">
<stop stop-color="#2E0797"/>
<stop offset="1" stop-color="#726EFC"/>
</linearGradient>
<linearGradient id="paint14_linear_290_95374" x1="26.2563" y1="22.3098" x2="27.6037" y2="22.3098" gradientUnits="userSpaceOnUse">
<stop stop-color="#2E0797"/>
<stop offset="1" stop-color="#726EFC"/>
</linearGradient>
<linearGradient id="paint15_linear_290_95374" x1="26.2563" y1="17.9973" x2="27.6575" y2="17.9973" gradientUnits="userSpaceOnUse">
<stop stop-color="#2E0797"/>
<stop offset="1" stop-color="#726EFC"/>
</linearGradient>
<linearGradient id="paint16_linear_290_95374" x1="4.69043" y1="16" x2="25.7168" y2="16" gradientUnits="userSpaceOnUse">
<stop stop-color="#2E0797"/>
<stop offset="1" stop-color="#726EFC"/>
</linearGradient>
<linearGradient id="paint17_linear_290_95374" x1="10.0818" y1="7.32175" x2="11.4298" y2="7.32175" gradientUnits="userSpaceOnUse">
<stop stop-color="#2E0797"/>
<stop offset="1" stop-color="#726EFC"/>
</linearGradient>
<linearGradient id="paint18_linear_290_95374" x1="12.1306" y1="7.32175" x2="13.4784" y2="7.32175" gradientUnits="userSpaceOnUse">
<stop stop-color="#2E0797"/>
<stop offset="1" stop-color="#726EFC"/>
</linearGradient>
<linearGradient id="paint19_linear_290_95374" x1="14.1252" y1="7.32175" x2="15.4732" y2="7.32175" gradientUnits="userSpaceOnUse">
<stop stop-color="#2E0797"/>
<stop offset="1" stop-color="#726EFC"/>
</linearGradient>
</defs>
</svg>
