<svg width="32" height="32" viewBox="0 0 32 32" fill="none" xmlns="http://www.w3.org/2000/svg">
<path d="M19.4665 19.6538C19.4665 18.8957 20.0762 18.3001 20.8531 18.3001C21.6294 18.3001 22.2396 18.8957 22.2396 19.6538C22.2396 20.4118 21.574 21.0075 20.8531 21.0075C20.1316 21.0075 19.4665 20.4118 19.4665 19.6538ZM29.5603 23.7148H13.0883C13.0329 23.5524 12.9775 23.4441 12.9221 23.2816L18.4682 21.1157C18.9671 21.8738 19.7993 22.3611 20.7977 22.3611C22.3503 22.3611 23.5702 21.1699 23.5702 19.6538C23.5702 18.1377 22.3503 16.9464 20.7977 16.9464C19.1891 16.9464 17.9134 18.246 18.0247 19.8704L11.9792 22.1987C10.9254 21.4406 9.42818 21.5489 8.42982 22.5236C8.04166 22.9026 7.81962 23.2816 7.70887 23.7689H2.32949C1.77467 23.7689 1.33113 23.3358 1.33113 22.7943V5.03413C1.33113 4.49266 1.77467 4.05948 2.32949 4.05948H3.43859V13.5352C3.43859 13.9142 3.77138 14.2391 4.15954 14.2391C4.5477 14.2391 4.88048 13.9142 4.88048 13.5352V4.11363H9.31743L10.5373 6.44195C10.6486 6.65853 10.8701 6.82097 11.1475 6.82097H29.6157C30.1705 6.82097 30.614 7.25415 30.614 7.79562V8.87856H7.6535C7.26534 8.87856 6.93256 9.20344 6.93256 9.58246C6.93256 9.96149 7.26534 10.2864 7.6535 10.2864H30.5586V10.9903H14.5861C14.1979 10.9903 13.8651 11.3152 13.8651 11.6942C13.8651 12.0732 14.1979 12.3981 14.5861 12.3981H30.5586V22.9567C30.5586 23.2816 30.1146 23.7148 29.5603 23.7148ZM9.42817 25.3392C8.87335 24.7977 8.87335 23.9314 9.42817 23.4441C9.983 22.9026 10.8701 22.9026 11.3695 23.4441C11.9238 23.9855 11.9238 24.8519 11.3695 25.3392C10.8701 25.8807 9.983 25.8807 9.42817 25.3392ZM20.8531 27.7758C21.6294 27.7758 22.2396 28.3714 22.2396 29.1295C22.2396 29.8875 21.6294 30.4832 20.8531 30.4832C20.0762 30.4832 19.4665 29.8875 19.4665 29.1295C19.4665 28.3714 20.0762 27.7758 20.8531 27.7758ZM29.5603 5.4673H11.5356L10.3158 3.13899C10.2045 2.9224 9.983 2.75996 9.70559 2.75996H2.38487C1.1091 2.75996 0 3.78875 0 5.08827V22.8484C0 24.0938 1.05373 25.1768 2.38487 25.1768H7.76424C8.04166 26.3138 9.15076 27.2343 10.4265 27.2343C10.9814 27.2343 11.5356 27.0719 12.0345 26.747L18.08 29.0753C17.9693 30.6456 19.2445 31.9993 20.8531 31.9993C22.4057 31.9993 23.6261 30.808 23.6261 29.2919C23.6261 27.7758 22.4057 26.5846 20.8531 26.5846C19.9101 26.5846 19.023 27.0719 18.5236 27.83L12.9775 25.6641C13.0329 25.5016 13.0883 25.3933 13.1436 25.2309H29.6157C30.8909 25.2309 32.0005 24.2021 32.0005 22.9026V7.74147C31.9446 6.49609 30.8355 5.4673 29.5603 5.4673Z" fill="url(#paint0_linear_290_95246)"/>
<path d="M4.21459 14.8898C4.61262 14.8898 4.93553 15.2049 4.93553 15.5937C4.93553 15.9825 4.61262 16.2976 4.21459 16.2976C3.81656 16.2976 3.49365 15.9825 3.49365 15.5937C3.49365 15.2049 3.81656 14.8898 4.21459 14.8898Z" fill="url(#paint1_linear_290_95246)"/>
<path d="M29.1722 2.70729C29.5702 2.70729 29.8931 3.02243 29.8931 3.4112C29.8931 3.79998 29.5702 4.11511 29.1722 4.11511C28.7736 4.11511 28.4507 3.79998 28.4507 3.4112C28.4507 3.02243 28.7736 2.70729 29.1722 2.70729Z" fill="url(#paint2_linear_290_95246)"/>
<path d="M18.7456 1.35317C19.1436 1.35317 19.4665 1.6683 19.4665 2.05708C19.4665 2.44585 19.1436 2.76099 18.7456 2.76099C18.3476 2.76099 18.0247 2.44585 18.0247 2.05708C18.0247 1.6683 18.3476 1.35317 18.7456 1.35317Z" fill="url(#paint3_linear_290_95246)"/>
<path d="M13.1995 2.70729C13.5975 2.70729 13.9204 3.02243 13.9204 3.4112C13.9204 3.79998 13.5975 4.11511 13.1995 4.11511C12.8009 4.11511 12.4785 3.79998 12.4785 3.4112C12.4785 3.02243 12.8009 2.70729 13.1995 2.70729Z" fill="url(#paint4_linear_290_95246)"/>
<path d="M29.8375 26.423C30.2355 26.423 30.5584 26.7381 30.5584 27.1269C30.5584 27.5157 30.2355 27.8308 29.8375 27.8308C29.4389 27.8308 29.116 27.5157 29.116 27.1269C29.116 26.7381 29.4389 26.423 29.8375 26.423Z" fill="url(#paint5_linear_290_95246)"/>
<path d="M26.3989 29.1305C26.797 29.1305 27.1199 29.4456 27.1199 29.8344C27.1199 30.2232 26.797 30.5383 26.3989 30.5383C26.0004 30.5383 25.678 30.2232 25.678 29.8344C25.678 29.4456 26.0004 29.1305 26.3989 29.1305Z" fill="url(#paint6_linear_290_95246)"/>
<path d="M13.1995 28.4265C13.5975 28.4265 13.9204 28.7417 13.9204 29.1304C13.9204 29.5192 13.5975 29.8344 13.1995 29.8344C12.8009 29.8344 12.4785 29.5192 12.4785 29.1304C12.4785 28.7417 12.8009 28.4265 13.1995 28.4265Z" fill="url(#paint7_linear_290_95246)"/>
<path d="M4.21459 16.948C4.61262 16.948 4.93553 17.2632 4.93553 17.6519C4.93553 18.0407 4.61262 18.3558 4.21459 18.3558C3.81656 18.3558 3.49365 18.0407 3.49365 17.6519C3.49365 17.2632 3.81656 16.948 4.21459 16.948Z" fill="url(#paint8_linear_290_95246)"/>
<path d="M4.8804 29.8345C4.49224 29.8345 4.15946 29.5096 4.15946 29.1306C4.15946 28.7516 4.49224 28.4267 4.8804 28.4267C5.26856 28.4267 5.60135 28.7516 5.60135 29.1306C5.60135 29.5096 5.26856 29.8345 4.8804 29.8345ZM4.8804 27.1271C3.71593 27.1271 2.77295 28.0476 2.77295 29.1847C2.77295 30.3218 3.71593 31.2423 4.8804 31.2423C6.04487 31.2423 6.98786 30.3218 6.98786 29.1847C6.98786 28.0476 6.04487 27.1271 4.8804 27.1271Z" fill="url(#paint9_linear_290_95246)"/>
<path d="M23.626 1.40777C24.0142 1.40777 24.3464 1.73265 24.3464 2.11168C24.3464 2.49071 24.0142 2.81559 23.626 2.81559C23.2378 2.81559 22.9051 2.49071 22.9051 2.11168C22.9051 1.6785 23.2378 1.40777 23.626 1.40777ZM23.626 4.11511C24.7905 4.11511 25.7335 3.19462 25.7335 2.05753C25.7335 0.920447 24.7905 -4.95911e-05 23.626 -4.95911e-05C22.461 -4.95911e-05 21.5186 0.920447 21.5186 2.05753C21.5186 3.19462 22.461 4.11511 23.626 4.11511Z" fill="url(#paint10_linear_290_95246)"/>
<defs>
<linearGradient id="paint0_linear_290_95246" x1="0" y1="17.3796" x2="32.0005" y2="17.3796" gradientUnits="userSpaceOnUse">
<stop stop-color="#2E0797"/>
<stop offset="1" stop-color="#726EFC"/>
</linearGradient>
<linearGradient id="paint1_linear_290_95246" x1="3.49365" y1="15.5937" x2="4.93553" y2="15.5937" gradientUnits="userSpaceOnUse">
<stop stop-color="#2E0797"/>
<stop offset="1" stop-color="#726EFC"/>
</linearGradient>
<linearGradient id="paint2_linear_290_95246" x1="28.4507" y1="3.4112" x2="29.8931" y2="3.4112" gradientUnits="userSpaceOnUse">
<stop stop-color="#2E0797"/>
<stop offset="1" stop-color="#726EFC"/>
</linearGradient>
<linearGradient id="paint3_linear_290_95246" x1="18.0247" y1="2.05708" x2="19.4665" y2="2.05708" gradientUnits="userSpaceOnUse">
<stop stop-color="#2E0797"/>
<stop offset="1" stop-color="#726EFC"/>
</linearGradient>
<linearGradient id="paint4_linear_290_95246" x1="12.4785" y1="3.4112" x2="13.9204" y2="3.4112" gradientUnits="userSpaceOnUse">
<stop stop-color="#2E0797"/>
<stop offset="1" stop-color="#726EFC"/>
</linearGradient>
<linearGradient id="paint5_linear_290_95246" x1="29.116" y1="27.1269" x2="30.5584" y2="27.1269" gradientUnits="userSpaceOnUse">
<stop stop-color="#2E0797"/>
<stop offset="1" stop-color="#726EFC"/>
</linearGradient>
<linearGradient id="paint6_linear_290_95246" x1="25.678" y1="29.8344" x2="27.1199" y2="29.8344" gradientUnits="userSpaceOnUse">
<stop stop-color="#2E0797"/>
<stop offset="1" stop-color="#726EFC"/>
</linearGradient>
<linearGradient id="paint7_linear_290_95246" x1="12.4785" y1="29.1304" x2="13.9204" y2="29.1304" gradientUnits="userSpaceOnUse">
<stop stop-color="#2E0797"/>
<stop offset="1" stop-color="#726EFC"/>
</linearGradient>
<linearGradient id="paint8_linear_290_95246" x1="3.49365" y1="17.6519" x2="4.93553" y2="17.6519" gradientUnits="userSpaceOnUse">
<stop stop-color="#2E0797"/>
<stop offset="1" stop-color="#726EFC"/>
</linearGradient>
<linearGradient id="paint9_linear_290_95246" x1="2.77295" y1="29.1847" x2="6.98786" y2="29.1847" gradientUnits="userSpaceOnUse">
<stop stop-color="#2E0797"/>
<stop offset="1" stop-color="#726EFC"/>
</linearGradient>
<linearGradient id="paint10_linear_290_95246" x1="21.5186" y1="2.05753" x2="25.7335" y2="2.05753" gradientUnits="userSpaceOnUse">
<stop stop-color="#2E0797"/>
<stop offset="1" stop-color="#726EFC"/>
</linearGradient>
</defs>
</svg>
