<svg width="35" height="36" viewBox="0 0 35 36" fill="none" xmlns="http://www.w3.org/2000/svg">
<path d="M13.9973 16.7128C13.6943 17.0123 13.6943 17.4915 13.9973 17.791C14.3003 18.0905 14.7851 18.0905 15.0881 17.791C16.1181 16.7727 17.8754 16.7727 18.9056 17.791C19.2083 18.0905 19.6929 18.0905 19.996 17.791C20.2991 17.4915 20.2991 17.0123 19.996 16.7128C18.3601 15.0955 15.6941 15.0955 13.9973 16.7128Z" fill="#2334DE"/>
<path d="M21.5721 16.2334C21.8746 15.9339 21.8746 15.4547 21.5721 15.1552C19.0875 12.6993 14.967 12.6993 12.4825 15.1552C12.1798 15.4547 12.1798 15.9339 12.4825 16.2334C12.7858 16.5329 13.2704 16.5329 13.5734 16.2334C15.5122 14.3166 18.6024 14.3166 20.5418 16.2334C20.7838 16.5329 21.269 16.5329 21.5721 16.2334Z" fill="#2334DE"/>
<path d="M21.9961 14.7959C22.2986 15.0954 22.7838 15.0954 23.0863 14.7959C23.3894 14.4964 23.3894 14.0172 23.0863 13.7177C19.754 10.4232 14.3609 10.4232 10.9675 13.7177C10.6647 14.0172 10.6647 14.4964 10.9675 14.7959C11.2704 15.0954 11.7555 15.0954 12.0585 14.7959C13.3913 13.4781 15.1485 12.7593 17.0272 12.7593C18.9056 12.7593 20.6627 13.4781 21.9961 14.7959Z" fill="#2334DE"/>
<path d="M18.1783 2.27658H15.8756C15.4514 2.27658 15.088 2.63598 15.088 3.05528C15.088 3.47458 15.4514 3.83398 15.8756 3.83398H18.1783C18.6022 3.83398 18.9659 3.47458 18.9659 3.05528C18.9055 2.57608 18.5419 2.27658 18.1783 2.27658Z" fill="#2334DE"/>
<path d="M3.75686 19.468C3.33259 19.468 2.96899 19.8274 2.96899 20.2467V23.9606C2.96899 24.3799 3.33259 24.7393 3.75686 24.7393C4.18107 24.7393 4.54467 24.3799 4.54467 23.9606V20.1868C4.54467 19.8274 4.18107 19.468 3.75686 19.468Z" fill="#2334DE"/>
<path d="M1.51492 21.7436C1.09071 21.7436 0.727051 22.103 0.727051 22.5223V32.9449C0.727051 33.3642 1.09071 33.7236 1.51492 33.7236C1.93889 33.7236 2.24193 33.3642 2.24193 32.9449V22.4624C2.24193 22.0431 1.87827 21.7436 1.51492 21.7436Z" fill="#2334DE"/>
<path d="M1.51482 4.13431C1.51482 3.95461 1.69661 3.7749 1.87817 3.7749C2.0602 3.7749 2.24182 3.95461 2.24182 4.13431C2.24182 4.31401 2.0602 4.49371 1.87817 4.49371C1.69661 4.49371 1.51482 4.31401 1.51482 4.13431ZM3.75688 4.13431C3.75688 3.116 2.90839 2.2774 1.87817 2.2774C0.848185 2.2774 0 3.116 0 4.13431C0 5.15261 0.848185 5.99121 1.87817 5.99121C2.90839 5.99121 3.75688 5.15261 3.75688 4.13431Z" fill="#2334DE"/>
<path d="M32.539 32.9455C32.1149 32.9455 31.7513 32.5861 31.7513 32.1668C31.7513 31.7475 32.1149 31.3881 32.539 31.3881C32.9631 31.3881 33.3267 31.7475 33.3267 32.1668C33.3267 32.5861 32.9631 32.9455 32.539 32.9455ZM32.539 29.9505C31.2667 29.9505 30.2365 30.9688 30.2365 32.2267C30.2365 33.4846 31.2667 34.5029 32.539 34.5029C33.8119 34.5029 34.8416 33.4846 34.8416 32.2267C34.8416 30.9688 33.8119 29.9505 32.539 29.9505Z" fill="#2334DE"/>
<path d="M3.75686 25.4582C4.1918 25.4582 4.54467 25.8068 4.54467 26.2369C4.54467 26.667 4.1918 27.0156 3.75686 27.0156C3.32163 27.0156 2.96899 26.667 2.96899 26.2369C2.96899 25.8068 3.32163 25.4582 3.75686 25.4582Z" fill="#2334DE"/>
<path d="M3.02999 9.70431C3.46499 9.70431 3.81755 10.0529 3.81755 10.483C3.81755 10.9131 3.46499 11.2617 3.02999 11.2617C2.59476 11.2617 2.24194 10.9131 2.24194 10.483C2.24194 10.0529 2.59476 9.70431 3.02999 9.70431Z" fill="#2334DE"/>
<path d="M31.0241 5.21127C31.459 5.21127 31.8118 5.55989 31.8118 5.98997C31.8118 6.42006 31.459 6.76868 31.0241 6.76868C30.5893 6.76868 30.2365 6.42006 30.2365 5.98997C30.2365 5.55989 30.5893 5.21127 31.0241 5.21127Z" fill="#2334DE"/>
<path d="M32.5391 2.21603C32.9746 2.21603 33.3268 2.56465 33.3268 2.99474C33.3268 3.42482 32.9746 3.77344 32.5391 3.77344C32.1043 3.77344 31.7515 3.42482 31.7515 2.99474C31.7515 2.56465 32.1043 2.21603 32.5391 2.21603Z" fill="#2334DE"/>
<path d="M1.51492 19.468C1.95009 19.468 2.30272 19.8166 2.30272 20.2467C2.30272 20.6768 1.95009 21.0254 1.51492 21.0254C1.07992 21.0254 0.727051 20.6768 0.727051 20.2467C0.727051 19.8166 1.07992 19.468 1.51492 19.468Z" fill="#2334DE"/>
<path d="M32.5391 19.4681C32.1151 19.4681 31.7515 19.8275 31.7515 20.2468V23.2418C31.7515 23.6611 32.1151 24.0205 32.5391 24.0205C32.9632 24.0205 33.3268 23.6611 33.3268 23.2418V20.2468C33.3268 19.8275 32.9632 19.4681 32.5391 19.4681Z" fill="#2334DE"/>
<path d="M31.0243 27.7341V22.4629C31.0243 22.0436 30.6607 21.6842 30.2366 21.6842C29.8125 21.6842 29.51 22.0436 29.51 22.4629V27.7341C29.51 28.1534 29.873 28.5128 30.2971 28.5128C30.7212 28.5128 31.0243 28.0935 31.0243 27.7341Z" fill="#2334DE"/>
<path d="M30.2971 19.468C30.7326 19.468 31.0848 19.8166 31.0848 20.2467C31.0848 20.6768 30.7326 21.0254 30.2971 21.0254C29.8622 21.0254 29.51 20.6768 29.51 20.2467C29.51 19.8166 29.8622 19.468 30.2971 19.468Z" fill="#2334DE"/>
<path d="M27.2671 30.7887C27.2671 31.5674 26.601 32.2263 25.8134 32.2263H20.4199V29.2313H24.9646C25.3893 29.2313 25.7529 28.8719 25.7529 28.4526V5.27122C25.7529 4.85191 25.3893 4.49251 24.9646 4.49251H9.08904C8.66507 4.49251 8.30148 4.85191 8.30148 5.27122V28.5125C8.30148 28.9318 8.66507 29.2912 9.08904 29.2912H13.6335V32.2862H8.24086C7.45305 32.2862 6.78642 31.6273 6.78642 30.8486V2.93511C6.78642 2.15641 7.45305 1.49751 8.24086 1.49751H25.8134C26.601 1.49751 27.2671 2.15641 27.2671 2.93511V30.7887ZM18.9054 34.4426H15.0879C15.0879 21.4443 15.0274 22.0433 15.1483 21.6839C15.3303 22.5225 16.118 23.1814 17.027 23.1814C17.9358 23.1814 18.7236 22.5225 18.9054 21.6839C18.9658 22.0433 18.9054 21.4443 18.9054 34.4426ZM17.027 18.7488C15.1483 18.7488 13.6335 20.2463 13.6335 22.1032V27.7338H9.81629V5.99002H24.2374V27.7338H20.4199V22.1032C20.4199 20.2463 18.9054 18.7488 17.027 18.7488ZM16.6634 20.2463C16.9055 20.1864 17.148 20.1864 17.4512 20.2463V21.3245C17.4512 21.5042 17.2692 21.6839 17.0876 21.6839C16.9055 21.6839 16.724 21.5042 16.724 21.3245V20.2463H16.6634ZM25.8134 0H8.24086C6.60457 0 5.27161 1.31781 5.27161 2.93511V30.7887C5.27161 32.406 6.60457 33.7238 8.24086 33.7238H13.6335V35.2213C13.6335 35.6406 13.9971 36 14.4214 36H19.7538C20.1779 36 20.5415 35.6406 20.5415 35.2213V33.7238H25.9344C27.5702 33.7238 28.9036 32.406 28.9036 30.7887V2.93511C28.782 1.31781 27.4492 0 25.8134 0Z" fill="#2334DE"/>
<path d="M11.3311 7.48785H12.8461V8.98535H11.3311V7.48785Z" fill="#2334DE"/>
<path d="M13.6338 7.48785H15.1486V8.98535H13.6338V7.48785Z" fill="#2334DE"/>
<path d="M15.8757 7.48785H17.3908V8.98535H15.8757V7.48785Z" fill="#2334DE"/>
</svg>
