<svg width="32" height="32" viewBox="0 0 32 32" fill="none" xmlns="http://www.w3.org/2000/svg">
<path d="M13.69 16.0541H12.521L13.69 14.5847V16.0541ZM14.9145 12.6255H13.9683L11.2415 16.0541V17.2514H13.5788V18.3943H14.9145V17.2514H15.6373V16.0541H14.9145V12.6255Z" fill="url(#paint0_linear_290_95301)"/>
<path d="M20.7013 14.0405H19.254L17.7516 15.8364V12.3534H16.416V18.3943H17.7516V17.1426L18.2528 16.6528L19.4212 18.3943H20.8124L19.0873 15.9453L20.7013 14.0405Z" fill="url(#paint1_linear_290_95301)"/>
<path d="M27.1557 27.9185C27.5551 27.9185 27.8791 28.2353 27.8791 28.626C27.8791 29.0168 27.5551 29.3335 27.1557 29.3335C26.7564 29.3335 26.4324 29.0168 26.4324 28.626C26.4324 28.2353 26.7564 27.9185 27.1557 27.9185Z" fill="url(#paint2_linear_290_95301)"/>
<path d="M25.0969 29.9324C25.4969 29.9324 25.8208 30.2492 25.8208 30.6399C25.8208 31.0307 25.4969 31.3474 25.0969 31.3474C24.6976 31.3474 24.3735 31.0307 24.3735 30.6399C24.3735 30.2492 24.6976 29.9324 25.0969 29.9324Z" fill="url(#paint3_linear_290_95301)"/>
<path d="M5.62108 28.5714C6.02045 28.5714 6.34392 28.8881 6.34392 29.2788C6.34392 29.6696 6.02045 29.9863 5.62108 29.9863C5.22116 29.9863 4.89771 29.6696 4.89771 29.2788C4.89771 28.8881 5.22116 28.5714 5.62108 28.5714Z" fill="url(#paint4_linear_290_95301)"/>
<path d="M2.11514 30.6397C1.72512 30.6397 1.3912 30.3132 1.3912 29.9322C1.3912 29.5512 1.72512 29.2247 2.11514 29.2247C2.50461 29.2247 2.83798 29.5512 2.83798 29.9322C2.83798 30.3132 2.50461 30.6397 2.11514 30.6397ZM2.11514 27.9186C0.94618 27.9186 0 28.8438 0 29.9866C0 31.1295 0.94618 32.0002 2.11514 32.0002C3.28355 32.0002 4.22971 31.0751 4.22971 29.9322C4.22971 28.7893 3.28355 27.9186 2.11514 27.9186Z" fill="url(#paint5_linear_290_95301)"/>
<path d="M3.84058 2.77544C4.00726 2.77544 4.17394 2.93871 4.17394 3.10197C4.17394 3.26524 4.00726 3.42851 3.84058 3.42851C3.67335 3.42851 3.50614 3.26524 3.50614 3.10197C3.50614 2.93871 3.67335 2.77544 3.84058 2.77544ZM3.84058 4.78906C4.7862 4.78906 5.56514 4.02715 5.56514 3.10197C5.56514 2.1768 4.7862 1.41489 3.84058 1.41489C2.89441 1.41489 2.11548 2.1768 2.11548 3.10197C2.11548 4.02715 2.89441 4.78906 3.84058 4.78906Z" fill="url(#paint6_linear_290_95301)"/>
<path d="M26.4887 1.41524C26.8781 1.41524 27.2115 1.74178 27.2115 2.12273C27.2115 2.50369 26.8781 2.83022 26.4887 2.83022C26.0987 2.83022 25.7647 2.50369 25.7647 2.12273C25.7647 1.68735 26.0987 1.41524 26.4887 1.41524ZM26.4887 4.13635C27.6571 4.13635 28.6027 3.21118 28.6027 2.06831C28.6027 0.925442 27.6571 0.000265121 26.4887 0.000265121C25.3197 0.000265121 24.3735 0.925442 24.3735 2.06831C24.3735 3.21118 25.3197 4.13635 26.4887 4.13635Z" fill="url(#paint7_linear_290_95301)"/>
<path d="M30.2722 30.6397C30.1055 30.6397 29.9383 30.4764 29.9383 30.3132C29.9383 30.1499 30.1055 29.9866 30.2722 29.9866C30.4389 29.9866 30.6061 30.1499 30.6061 30.3132C30.6617 30.4764 30.495 30.6397 30.2722 30.6397ZM30.2722 28.6261C29.3266 28.6261 28.5471 29.388 28.5471 30.3132C28.5471 31.2383 29.3266 32.0002 30.2722 32.0002C31.2184 32.0002 31.9973 31.2383 31.9973 30.3132C32.0529 29.388 31.2184 28.6261 30.2722 28.6261Z" fill="url(#paint8_linear_290_95301)"/>
<path d="M27.8789 23.837C28.2783 23.837 28.6023 24.1537 28.6023 24.5445C28.6023 24.9352 28.2783 25.252 27.8789 25.252C27.4795 25.252 27.1555 24.9352 27.1555 24.5445C27.1555 24.1537 27.4795 23.837 27.8789 23.837Z" fill="url(#paint9_linear_290_95301)"/>
<path d="M25.7651 23.837C26.165 23.837 26.4891 24.1537 26.4891 24.5445C26.4891 24.9352 26.165 25.252 25.7651 25.252C25.3658 25.252 25.0417 24.9352 25.0417 24.5445C25.0417 24.1537 25.3658 23.837 25.7651 23.837Z" fill="url(#paint10_linear_290_95301)"/>
<path d="M23.7063 23.837C24.1057 23.837 24.4297 24.1537 24.4297 24.5445C24.4297 24.9352 24.1057 25.252 23.7063 25.252C23.3069 25.252 22.9829 24.9352 22.9829 24.5445C22.9829 24.1537 23.3069 23.837 23.7063 23.837Z" fill="url(#paint11_linear_290_95301)"/>
<path d="M30.6619 1.36017C31.0612 1.36017 31.3852 1.67691 31.3852 2.06766C31.3852 2.45841 31.0612 2.77515 30.6619 2.77515C30.2625 2.77515 29.9385 2.45841 29.9385 2.06766C29.9385 1.67691 30.2625 1.36017 30.6619 1.36017Z" fill="url(#paint12_linear_290_95301)"/>
<path d="M7.01117 0.707459C7.41109 0.707459 7.73508 1.0242 7.73508 1.41495C7.73508 1.8057 7.41109 2.12244 7.01117 2.12244C6.6118 2.12244 6.28833 1.8057 6.28833 1.41495C6.28833 1.0242 6.6118 0.707459 7.01117 0.707459Z" fill="url(#paint13_linear_290_95301)"/>
<path d="M13.5225 29.9871L14.4686 27.266H17.6405L18.5861 29.9871H13.5225ZM2.11508 24.817V7.89171C2.11508 7.29307 2.61568 6.80326 3.22739 6.80326H28.8257C29.4379 6.80326 29.9385 7.29307 29.9385 7.89171V24.817C29.9385 25.4157 29.4379 25.9055 28.8257 25.9055C27.6011 25.9055 4.11855 25.9055 3.17238 25.9055C2.61568 25.9055 2.11508 25.4157 2.11508 24.817ZM21.5913 29.9871H20.0334L19.0873 27.266H28.8257C30.2169 27.266 31.3297 26.1776 31.3297 24.817V7.89171C31.3297 6.53115 30.2169 5.44271 28.8257 5.44271H18.8095V4.08216H22.9825C23.372 4.08216 23.7059 3.75562 23.7059 3.37467C23.7059 2.99371 23.372 2.66718 22.9825 2.66718H18.0855C17.6961 2.66718 17.3622 2.99371 17.3622 3.37467V5.44271H15.2476V3.37467C15.2476 2.99371 14.9142 2.66718 14.5242 2.66718H9.62723C9.23776 2.66718 8.90385 2.99371 8.90385 3.37467C8.90385 3.75562 9.23776 4.08216 9.62723 4.08216H13.8008V5.44271H3.22739C1.83674 5.44271 0.723877 6.53115 0.723877 7.89171V24.817C0.723877 26.1776 1.83674 27.266 3.22739 27.266H13.0219L12.0757 29.9871H10.4623C10.0728 29.9871 9.73835 30.3137 9.73835 30.6946C9.73835 31.0756 10.0728 31.4021 10.4623 31.4021C14.4125 31.4021 17.6405 31.4021 21.5913 31.4021C21.9808 31.4021 22.3152 31.0756 22.3152 30.6946C22.3152 30.2592 21.9808 29.9871 21.5913 29.9871Z" fill="url(#paint14_linear_290_95301)"/>
<path d="M27.8795 21.8231H4.22971V8.87058H27.8795V21.8231ZM29.2707 22.4761V8.21751C29.2707 7.83656 28.9368 7.51002 28.5474 7.51002H3.5058C3.11633 7.51002 2.78296 7.83656 2.78296 8.21751V22.5305C2.78296 22.9115 3.11633 23.238 3.5058 23.238H28.5474C28.9368 23.1836 29.2707 22.8571 29.2707 22.4761Z" fill="url(#paint15_linear_290_95301)"/>
<path d="M7.67935 17.0339C8.06882 17.0339 8.40329 16.7074 8.40329 16.3264V12.9523C8.40329 12.5713 8.06882 12.2448 7.67935 12.2448C7.28988 12.2448 6.95654 12.5713 6.95654 12.9523V16.3809C7.01155 16.7074 7.28988 17.0339 7.67935 17.0339Z" fill="url(#paint16_linear_290_95301)"/>
<path d="M5.62108 19.7554C6.01055 19.7554 6.34392 19.4288 6.34392 19.0479V14.9662C6.34392 14.5853 6.01055 14.2587 5.62108 14.2587C5.23106 14.2587 4.89771 14.6397 4.89771 15.0206V19.1023C4.89771 19.4288 5.23106 19.7554 5.62108 19.7554Z" fill="url(#paint17_linear_290_95301)"/>
<path d="M26.4888 19.7554C26.8783 19.7554 27.2117 19.4288 27.2117 19.0479V15.6737C27.2117 15.2928 26.8783 14.9662 26.4888 14.9662C26.0988 14.9662 25.7649 15.2928 25.7649 15.6737V19.1023C25.7649 19.4288 26.0988 19.7554 26.4888 19.7554Z" fill="url(#paint18_linear_290_95301)"/>
<path d="M24.3738 17.7415C24.7632 17.7415 25.0972 17.4149 25.0972 17.034V12.9523C25.0972 12.5713 24.7632 12.2448 24.3738 12.2448C23.9843 12.2448 23.6504 12.5713 23.6504 12.9523V17.034C23.706 17.4149 23.9843 17.7415 24.3738 17.7415Z" fill="url(#paint19_linear_290_95301)"/>
<path d="M10.4631 10.9386H21.5921V19.8095H10.4631V10.9386ZM9.79523 21.1156H22.316C22.7055 21.1156 23.0388 20.7891 23.0388 20.4081V10.2312C23.0388 9.85021 22.7055 9.52367 22.316 9.52367H9.79523C9.40521 9.52367 9.07129 9.85021 9.07129 10.2312V20.4625C9.07129 20.7891 9.40521 21.1156 9.79523 21.1156Z" fill="url(#paint20_linear_290_95301)"/>
<defs>
<linearGradient id="paint0_linear_290_95301" x1="11.2415" y1="15.5099" x2="15.6373" y2="15.5099" gradientUnits="userSpaceOnUse">
<stop stop-color="#2E0797"/>
<stop offset="1" stop-color="#726EFC"/>
</linearGradient>
<linearGradient id="paint1_linear_290_95301" x1="16.416" y1="15.3739" x2="20.8124" y2="15.3739" gradientUnits="userSpaceOnUse">
<stop stop-color="#2E0797"/>
<stop offset="1" stop-color="#726EFC"/>
</linearGradient>
<linearGradient id="paint2_linear_290_95301" x1="26.4324" y1="28.626" x2="27.8791" y2="28.626" gradientUnits="userSpaceOnUse">
<stop stop-color="#2E0797"/>
<stop offset="1" stop-color="#726EFC"/>
</linearGradient>
<linearGradient id="paint3_linear_290_95301" x1="24.3735" y1="30.6399" x2="25.8208" y2="30.6399" gradientUnits="userSpaceOnUse">
<stop stop-color="#2E0797"/>
<stop offset="1" stop-color="#726EFC"/>
</linearGradient>
<linearGradient id="paint4_linear_290_95301" x1="4.89771" y1="29.2788" x2="6.34392" y2="29.2788" gradientUnits="userSpaceOnUse">
<stop stop-color="#2E0797"/>
<stop offset="1" stop-color="#726EFC"/>
</linearGradient>
<linearGradient id="paint5_linear_290_95301" x1="0" y1="29.9594" x2="4.22971" y2="29.9594" gradientUnits="userSpaceOnUse">
<stop stop-color="#2E0797"/>
<stop offset="1" stop-color="#726EFC"/>
</linearGradient>
<linearGradient id="paint6_linear_290_95301" x1="2.11548" y1="3.10197" x2="5.56514" y2="3.10197" gradientUnits="userSpaceOnUse">
<stop stop-color="#2E0797"/>
<stop offset="1" stop-color="#726EFC"/>
</linearGradient>
<linearGradient id="paint7_linear_290_95301" x1="24.3735" y1="2.06831" x2="28.6027" y2="2.06831" gradientUnits="userSpaceOnUse">
<stop stop-color="#2E0797"/>
<stop offset="1" stop-color="#726EFC"/>
</linearGradient>
<linearGradient id="paint8_linear_290_95301" x1="28.5471" y1="30.3132" x2="32" y2="30.3132" gradientUnits="userSpaceOnUse">
<stop stop-color="#2E0797"/>
<stop offset="1" stop-color="#726EFC"/>
</linearGradient>
<linearGradient id="paint9_linear_290_95301" x1="27.1555" y1="24.5445" x2="28.6023" y2="24.5445" gradientUnits="userSpaceOnUse">
<stop stop-color="#2E0797"/>
<stop offset="1" stop-color="#726EFC"/>
</linearGradient>
<linearGradient id="paint10_linear_290_95301" x1="25.0417" y1="24.5445" x2="26.4891" y2="24.5445" gradientUnits="userSpaceOnUse">
<stop stop-color="#2E0797"/>
<stop offset="1" stop-color="#726EFC"/>
</linearGradient>
<linearGradient id="paint11_linear_290_95301" x1="22.9829" y1="24.5445" x2="24.4297" y2="24.5445" gradientUnits="userSpaceOnUse">
<stop stop-color="#2E0797"/>
<stop offset="1" stop-color="#726EFC"/>
</linearGradient>
<linearGradient id="paint12_linear_290_95301" x1="29.9385" y1="2.06766" x2="31.3852" y2="2.06766" gradientUnits="userSpaceOnUse">
<stop stop-color="#2E0797"/>
<stop offset="1" stop-color="#726EFC"/>
</linearGradient>
<linearGradient id="paint13_linear_290_95301" x1="6.28833" y1="1.41495" x2="7.73508" y2="1.41495" gradientUnits="userSpaceOnUse">
<stop stop-color="#2E0797"/>
<stop offset="1" stop-color="#726EFC"/>
</linearGradient>
<linearGradient id="paint14_linear_290_95301" x1="0.723877" y1="17.0346" x2="31.3297" y2="17.0346" gradientUnits="userSpaceOnUse">
<stop stop-color="#2E0797"/>
<stop offset="1" stop-color="#726EFC"/>
</linearGradient>
<linearGradient id="paint15_linear_290_95301" x1="2.78296" y1="15.374" x2="29.2707" y2="15.374" gradientUnits="userSpaceOnUse">
<stop stop-color="#2E0797"/>
<stop offset="1" stop-color="#726EFC"/>
</linearGradient>
<linearGradient id="paint16_linear_290_95301" x1="6.95654" y1="14.6394" x2="8.40329" y2="14.6394" gradientUnits="userSpaceOnUse">
<stop stop-color="#2E0797"/>
<stop offset="1" stop-color="#726EFC"/>
</linearGradient>
<linearGradient id="paint17_linear_290_95301" x1="4.89771" y1="17.007" x2="6.34392" y2="17.007" gradientUnits="userSpaceOnUse">
<stop stop-color="#2E0797"/>
<stop offset="1" stop-color="#726EFC"/>
</linearGradient>
<linearGradient id="paint18_linear_290_95301" x1="25.7649" y1="17.3608" x2="27.2117" y2="17.3608" gradientUnits="userSpaceOnUse">
<stop stop-color="#2E0797"/>
<stop offset="1" stop-color="#726EFC"/>
</linearGradient>
<linearGradient id="paint19_linear_290_95301" x1="23.6504" y1="14.9931" x2="25.0972" y2="14.9931" gradientUnits="userSpaceOnUse">
<stop stop-color="#2E0797"/>
<stop offset="1" stop-color="#726EFC"/>
</linearGradient>
<linearGradient id="paint20_linear_290_95301" x1="9.07129" y1="15.3196" x2="23.0388" y2="15.3196" gradientUnits="userSpaceOnUse">
<stop stop-color="#2E0797"/>
<stop offset="1" stop-color="#726EFC"/>
</linearGradient>
</defs>
</svg>
