<svg width="39" height="36" viewBox="0 0 39 36" fill="none" xmlns="http://www.w3.org/2000/svg">
<path d="M18.255 8.50333C22.0583 8.50333 25.1698 11.589 25.1698 15.3605C25.1698 19.1319 22.0583 22.2176 18.255 22.2176C14.4516 22.2176 11.3401 19.1319 11.3401 15.3605C11.3401 11.589 14.3826 8.50333 18.255 8.50333ZM18.255 23.9319C23.0262 23.9319 26.8986 20.0919 26.8986 15.3605C26.8986 10.629 23.0262 6.78904 18.255 6.78904C13.4837 6.78904 9.61133 10.629 9.61133 15.3605C9.61133 20.0919 13.4837 23.9319 18.255 23.9319Z" fill="#9EDD05"/>
<path d="M18.2553 12.8228C18.4625 13.9199 19.5001 14.6742 20.6758 14.5371C21.2979 16.2514 20.0531 17.9656 18.2553 17.9656C16.8035 17.9656 15.6277 16.7999 15.6277 15.3599C15.6277 13.9199 16.8035 12.7542 18.2553 12.8228ZM20.399 11.9314C20.6068 11.9314 20.8139 12.1371 20.8139 12.3428C20.8139 12.5485 20.6068 12.7542 20.399 12.7542C20.1228 12.7542 19.915 12.4799 19.984 12.2057C19.984 12.0685 20.1919 11.9314 20.399 11.9314ZM18.2553 19.6799C20.6068 19.6799 22.6117 17.7599 22.6117 15.3599C22.6117 14.7428 22.4736 14.1257 22.1967 13.5771C22.4736 13.2342 22.6117 12.8228 22.6117 12.3428C22.6117 11.1771 21.6437 10.2171 20.468 10.2171C19.7769 10.2171 19.0852 10.5599 18.7393 11.1085C16.1807 10.8342 13.968 12.8914 13.968 15.3599C13.899 17.6914 15.8355 19.6799 18.2553 19.6799Z" fill="#9EDD05"/>
<path d="M6.15413 34.2171C6.36193 31.2 7.74476 28.3886 9.95745 26.3314C14.8668 29.9657 21.6436 29.9657 26.5529 26.3314C28.7656 28.3886 30.1491 31.2 30.3562 34.2171H6.15413ZM6.15413 15.36C6.15413 8.77717 11.6171 3.36003 18.2552 3.36003C24.8932 3.36003 30.3562 8.77717 30.3562 15.36C30.3562 21.9429 24.8932 27.36 18.2552 27.36C11.6171 27.36 6.15413 21.9429 6.15413 15.36ZM32.9141 34.2171H32.0159C31.8081 30.7886 30.2872 27.5657 27.7977 25.2343C30.4253 22.7657 32.0159 19.2686 32.0159 15.36C32.0159 7.81717 25.7928 1.64575 18.1862 1.64575C10.5802 1.64575 4.35636 7.81717 4.35636 15.36C4.35636 19.2 5.947 22.6972 8.57461 25.2343C6.08508 27.6343 4.56416 30.7886 4.35636 34.2171H3.45747C2.97351 34.2171 2.55859 34.6286 2.55859 35.1086C2.55859 35.5886 2.97351 36 3.45747 36C4.77127 36 32.085 36 32.8458 36C33.3297 36 33.744 35.5886 33.744 35.1086C33.8137 34.6286 33.3981 34.2171 32.9141 34.2171Z" fill="#9EDD05"/>
<path d="M1.79777 25.6462C1.79777 25.1662 2.21268 24.7548 2.69664 24.7548C3.1806 24.7548 3.59552 25.1662 3.59552 25.6462C3.59552 26.1262 3.1806 26.5377 2.69664 26.5377C2.21268 26.5377 1.79777 26.1262 1.79777 25.6462ZM5.2552 25.6462C5.2552 24.2062 4.07948 23.0405 2.6276 23.0405C1.17572 23.0405 0 24.2062 0 25.6462C0 27.0862 1.17572 28.252 2.6276 28.252C4.07948 28.252 5.2552 27.0862 5.2552 25.6462Z" fill="#9EDD05"/>
<path d="M5.67002 1.64575C5.87782 1.64575 6.08494 1.85147 6.08494 2.05718C6.08494 2.2629 5.87782 2.46861 5.67002 2.46861C5.4629 2.46861 5.25509 2.33147 5.25509 2.05718C5.25509 1.7829 5.4629 1.64575 5.67002 1.64575ZM5.67002 4.25146C6.84574 4.25146 7.81367 3.29147 7.81367 2.12575C7.81367 0.960039 6.84574 4.01288e-05 5.67002 4.01288e-05C4.4943 4.01288e-05 3.52637 0.960039 3.52637 2.12575C3.52637 3.29147 4.4943 4.25146 5.67002 4.25146Z" fill="#9EDD05"/>
<path d="M35.9577 21.3944C35.2659 21.3944 34.6439 20.8458 34.6439 20.0915C34.6439 19.3372 35.1969 18.7886 35.9577 18.7886C36.7185 18.7886 37.2708 19.3372 37.2708 20.0915C37.2708 20.8458 36.6487 21.3944 35.9577 21.3944ZM35.9577 17.0744C34.298 17.0744 32.9145 18.4458 32.9145 20.0915C32.9145 21.7372 34.298 23.1086 35.9577 23.1086C37.6167 23.1086 39.0002 21.7372 39.0002 20.0915C39.0002 18.4458 37.6167 17.0744 35.9577 17.0744Z" fill="#9EDD05"/>
<path d="M35.5418 8.50364C36.0381 8.50364 36.4407 8.90273 36.4407 9.39507C36.4407 9.88741 36.0381 10.2865 35.5418 10.2865C35.0456 10.2865 34.643 9.88741 34.643 9.39507C34.643 8.90273 35.0456 8.50364 35.5418 8.50364Z" fill="#9EDD05"/>
<path d="M33.814 27.3598C34.3103 27.3598 34.7129 27.7589 34.7129 28.2513C34.7129 28.7436 34.3103 29.1427 33.814 29.1427C33.3171 29.1427 32.9145 28.7436 32.9145 28.2513C32.9145 27.7589 33.3171 27.3598 33.814 27.3598Z" fill="#9EDD05"/>
<path d="M32.0853 1.64634C32.5816 1.64634 32.9842 2.04543 32.9842 2.53777C32.9842 3.03011 32.5816 3.4292 32.0853 3.4292C31.589 3.4292 31.1864 3.03011 31.1864 2.53777C31.1864 2.04543 31.589 1.64634 32.0853 1.64634Z" fill="#9EDD05"/>
<path d="M2.69673 5.07493C3.19299 5.07493 3.5956 5.47402 3.5956 5.96636C3.5956 6.4587 3.19299 6.85779 2.69673 6.85779C2.20046 6.85779 1.79785 6.4587 1.79785 5.96636C1.79785 5.47402 2.20046 5.07493 2.69673 5.07493Z" fill="#9EDD05"/>
<path d="M1.79782 18.7887C2.29477 18.7887 2.69669 19.1878 2.69669 19.6801C2.69669 20.1724 2.29477 20.5715 1.79782 20.5715C1.30155 20.5715 0.898926 20.1724 0.898926 19.6801C0.898926 19.1878 1.30155 18.7887 1.79782 18.7887Z" fill="#9EDD05"/>
</svg>
