<svg width="34" height="32" viewBox="0 0 34 32" fill="none" xmlns="http://www.w3.org/2000/svg">
<path d="M31.7092 29.9831C31.7092 30.3647 31.4334 30.6373 31.0474 30.6373H2.04045C1.65449 30.6373 1.3792 30.3647 1.3792 29.9831V29.2744C1.3792 28.8928 1.65449 28.6202 2.04045 28.6202C5.73541 28.6202 10.8085 28.6202 13.0698 28.6202V29.3289C13.0698 29.7105 13.4007 30.0376 13.7866 30.0376H19.3018C19.6878 30.0376 20.0181 29.7105 20.0181 29.3289V28.6202C22.3895 28.6202 28.621 28.6202 31.0474 28.6202C31.4334 28.6202 31.7092 28.8928 31.7092 29.2744V29.9831ZM3.47418 11.4483C3.47418 10.7941 4.02585 10.1945 4.74326 10.1945H9.70623V11.5573H5.51519C5.12923 11.5573 4.79777 11.8844 4.79777 12.266V27.2574H3.41967V11.4483H3.47418ZM12.408 10.249V11.6118H11.0298V10.249H12.408ZM17.9226 10.249V11.6118H13.7866V10.249H17.9226ZM22.0586 10.249V11.6118H19.3018V10.249H22.0586ZM19.3018 27.2574C18.9158 27.2574 18.5844 27.5845 18.5844 27.9661V28.6748H14.4484V27.9661C14.4484 27.5845 14.118 27.2574 13.7315 27.2574H6.23204V12.9747H9.70623V23.2233C9.70623 23.6049 10.0366 23.932 10.4226 23.932C10.8085 23.932 11.14 23.6049 11.14 23.2233V12.9747H12.5186V20.4976C12.5186 20.8792 12.8495 21.2063 13.2355 21.2063C13.6214 21.2063 13.9523 20.8792 13.9523 20.4976V12.9747H18.0883V17.0633C18.0883 17.4449 18.4187 17.7719 18.8046 17.7719C19.1906 17.7719 19.522 17.4449 19.522 17.0633V12.9747H22.2788V23.2233C22.2788 23.6049 22.6103 23.932 22.9962 23.932C23.3822 23.932 23.7131 23.6049 23.7131 23.2233V12.9747H27.1873V27.2574H19.3018ZM28.4002 10.249C29.062 10.249 29.6687 10.7941 29.6687 11.5028V27.3119H28.2901V12.266C28.2901 11.8844 27.9592 11.5573 27.5732 11.5573H23.4372V10.1945H28.4002V10.249ZM6.12139 3.59827C5.84555 3.3257 5.84555 2.88959 6.12139 2.61701C6.39723 2.34444 6.83825 2.34444 7.11409 2.61701C7.38993 2.88959 7.38993 3.3257 7.11409 3.59827C6.94837 3.76181 6.78319 3.81633 6.61801 3.81633C6.45229 3.81633 6.23206 3.76181 6.12139 3.59827ZM11.7461 2.72604C11.7461 1.96284 12.3529 1.36319 13.1248 1.36319C13.8967 1.36319 14.504 1.96284 14.504 2.72604C14.504 3.48924 13.8967 4.0889 13.1248 4.0889C12.3529 4.0889 11.7461 3.48924 11.7461 2.72604ZM18.1434 5.66981C18.4187 5.39723 18.8602 5.39723 19.1361 5.66981C19.4119 5.94238 19.4119 6.37849 19.1361 6.65106C18.8602 6.92363 18.4187 6.92363 18.1434 6.65106C17.8675 6.32397 17.8675 5.94238 18.1434 5.66981ZM25.9743 2.61701C26.2502 2.34444 26.6907 2.34444 26.9665 2.61701C27.2423 2.88959 27.2423 3.3257 26.9665 3.59827C26.6907 3.87084 26.2502 3.87084 25.9743 3.59827C25.6985 3.3257 25.6985 2.88959 25.9743 2.61701ZM31.0474 27.2574V11.4483C31.0474 10.0309 29.889 8.83162 28.4002 8.83162H23.4372V7.68683L25.6429 4.96112C26.4148 5.28821 27.2979 5.17918 27.9592 4.52501C28.7867 3.7073 28.7867 2.45347 27.9592 1.63576C27.5732 1.30868 27.0221 1.09062 26.4704 1.09062C24.926 1.09062 23.9339 2.72604 24.6507 4.0889L22.2243 7.08717C22.1142 7.1962 22.0586 7.35974 22.0586 7.52328V8.88614H19.3018V8.06843C19.5771 7.9594 19.8524 7.79586 20.0737 7.5778C20.9007 6.76009 20.9007 5.50626 20.0737 4.68855C19.2462 3.87084 17.9782 3.87084 17.1507 4.68855C16.3237 5.50626 16.3237 6.76009 17.1507 7.5778C17.3715 7.79586 17.6468 7.9594 17.9226 8.06843V8.88614H13.7866V5.39723C15.0001 5.07015 15.8821 4.03438 15.8821 2.78056C15.8821 1.25416 14.6692 0.0548515 13.1248 0.0548515C11.581 0.0548515 10.368 1.25416 10.368 2.78056C10.368 4.03438 11.2501 5.12466 12.4636 5.39723V8.88614H11.0298V7.52328C11.0298 7.35974 10.9742 7.1962 10.8641 7.08717L8.43768 4.0889C8.82364 3.3257 8.71352 2.34444 8.05172 1.69028C7.2242 0.872562 5.9562 0.872562 5.12922 1.69028C4.3017 2.50799 4.3017 3.76181 5.12922 4.57952C5.73542 5.17918 6.67306 5.34272 7.44498 5.01564L9.65062 7.74134V8.88614H4.68765C3.25393 8.88614 2.04045 10.0309 2.04045 11.5028V27.3119C0.937626 27.3119 0 28.2386 0 29.3289V29.9831C0 31.0734 0.937626 32.0001 2.04045 32.0001H31.0474C32.1502 32.0001 33.0879 31.0734 33.0879 29.9831V29.2744C33.0879 28.1841 32.1502 27.2574 31.0474 27.2574Z" fill="white"/>
<path d="M18.64 18.3715C19.0352 18.3715 19.3563 18.6887 19.3563 19.0801C19.3563 19.4715 19.0352 19.7888 18.64 19.7888C18.2437 19.7888 17.9226 19.4715 17.9226 19.0801C17.9226 18.6887 18.2437 18.3715 18.64 18.3715Z" fill="white"/>
<path d="M28.952 6.1057C29.3477 6.1057 29.6688 6.42298 29.6688 6.81439C29.6688 7.2058 29.3477 7.52307 28.952 7.52307C28.5562 7.52307 28.2351 7.2058 28.2351 6.81439C28.2351 6.42298 28.5562 6.1057 28.952 6.1057Z" fill="white"/>
<path d="M31.0472 2.72594C31.443 2.72594 31.764 3.04322 31.764 3.43463C31.764 3.82604 31.443 4.14331 31.0472 4.14331C30.6514 4.14331 30.3303 3.82604 30.3303 3.43463C30.3303 3.04322 30.6514 2.72594 31.0472 2.72594Z" fill="white"/>
<path d="M17.9224 1.36315C18.3187 1.36315 18.6398 1.68042 18.6398 2.07183C18.6398 2.46325 18.3187 2.78052 17.9224 2.78052C17.5266 2.78052 17.2056 2.46325 17.2056 2.07183C17.2056 1.68042 17.5266 1.36315 17.9224 1.36315Z" fill="white"/>
<path d="M6.89368 6.81444C7.28891 6.81444 7.61001 7.13172 7.61001 7.52313C7.61001 7.91454 7.28891 8.23181 6.89368 8.23181C6.49737 8.23181 6.17627 7.91454 6.17627 7.52313C6.17627 7.13172 6.49737 6.81444 6.89368 6.81444Z" fill="white"/>
<path d="M18.64 20.4432C19.0352 20.4432 19.3563 20.7605 19.3563 21.1519C19.3563 21.5433 19.0352 21.8606 18.64 21.8606C18.2437 21.8606 17.9226 21.5433 17.9226 21.1519C17.9226 20.7605 18.2437 20.4432 18.64 20.4432Z" fill="white"/>
<path d="M10.3678 24.5319C10.763 24.5319 11.0841 24.8491 11.0841 25.2405C11.0841 25.6319 10.763 25.9492 10.3678 25.9492C9.97149 25.9492 9.65039 25.6319 9.65039 25.2405C9.65039 24.8491 9.97149 24.5319 10.3678 24.5319Z" fill="white"/>
<path d="M3.08817 6.16047C3.2539 6.16047 3.41962 6.32401 3.41962 6.48755C3.41962 6.65109 3.2539 6.81464 3.08817 6.81464C2.923 6.81464 2.75781 6.65109 2.75781 6.48755C2.75781 6.2695 2.923 6.16047 3.08817 6.16047ZM3.08817 8.17749C4.02582 8.17749 4.79773 7.41429 4.79773 6.48755C4.79773 5.56081 4.02582 4.79762 3.08817 4.79762C2.15108 4.79762 1.37915 5.56081 1.37915 6.48755C1.37915 7.41429 2.15108 8.17749 3.08817 8.17749Z" fill="white"/>
<path d="M21.7276 1.36303C21.8928 1.36303 22.0585 1.52658 22.0585 1.69012C22.0585 1.85366 21.8928 2.0172 21.7276 2.0172C21.5624 2.0172 21.3967 1.85366 21.3967 1.69012C21.3967 1.52658 21.5068 1.36303 21.7276 1.36303ZM21.7276 3.43457C22.6647 3.43457 23.4372 2.67137 23.4372 1.74463C23.4372 0.817893 22.6647 0.000181198 21.7276 0.000181198C20.79 0.000181198 20.0181 0.763379 20.0181 1.69012C20.0181 2.61686 20.79 3.43457 21.7276 3.43457Z" fill="white"/>
</svg>
