<svg width="26" height="24" viewBox="0 0 26 24" fill="none" xmlns="http://www.w3.org/2000/svg">
<path d="M14.6982 15.3754V14.33C14.9196 14.4172 15.0527 14.4607 15.1853 14.5478C15.3183 14.6349 15.3625 14.7656 15.3625 14.8963C15.3625 15.2447 15.1411 15.3754 14.6982 15.3754ZM14.2557 12.762C14.0343 12.7184 13.9014 12.6313 13.813 12.5442C13.7245 12.4571 13.68 12.3264 13.68 12.1957C13.68 11.8908 13.9014 11.7166 14.2999 11.6731L14.2557 12.762ZM15.7608 13.1976C15.2295 12.9798 14.7428 12.8927 14.654 12.8491V11.6731C14.8312 11.7166 14.9638 11.7166 15.1411 11.8037C15.4067 11.8908 15.6724 12.0215 15.8938 12.1522C15.9822 12.1957 16.0264 12.2393 16.0264 12.2829L16.6461 11.1068C16.3809 10.9761 16.1152 10.8455 15.7608 10.7148C15.4067 10.5841 15.0527 10.497 14.6982 10.4535V9.58231H14.0785V10.4535C13.2376 10.5406 12.5733 10.889 12.2193 11.6295C12.1308 11.8473 12.0422 12.1086 12.0422 12.4135C12.0422 13.0669 12.3079 13.5025 12.972 13.8074C13.4587 14.0251 13.9902 14.1558 14.1227 14.1994V15.3319C13.9014 15.2883 13.7245 15.2447 13.5031 15.2012C13.193 15.1141 12.839 14.9398 12.5733 14.7656C12.485 14.6785 12.3962 14.6349 12.3962 14.6349L11.9092 15.8981C12.5733 16.3337 13.4146 16.595 14.1669 16.6386V17.6404H14.787V16.6386C15.3183 16.6386 15.8496 16.5079 16.2478 16.1594C16.4251 16.0288 16.6019 15.811 16.7349 15.5932C16.8675 15.3754 16.9117 15.0705 16.9117 14.7656C16.9117 14.5043 16.8675 14.2429 16.7791 14.0251C16.6019 13.7202 16.3362 13.4153 15.7608 13.1976Z" fill="#5038C9"/>
<path d="M14.4324 18.5118C11.688 18.5118 9.43014 16.3339 9.43014 13.5898C9.43014 10.8457 11.6436 8.66789 14.4324 8.66789C17.2214 8.66789 19.3908 10.8893 19.3908 13.6334C19.3908 16.3775 17.1772 18.5118 14.4324 18.5118ZM14.4324 7.62252C11.0681 7.62252 8.32324 10.3231 8.32324 13.6334C8.32324 16.9437 11.0681 19.6443 14.4324 19.6443C17.7974 19.6443 20.5417 16.9437 20.5417 13.6334C20.5417 10.3231 17.7527 7.62252 14.4324 7.62252Z" fill="#5038C9"/>
<path d="M14.431 20.1667C10.7568 20.1667 7.79066 17.2484 7.79066 13.6331C7.79066 13.3282 7.52502 13.0669 7.21526 13.0669C6.90533 13.0669 6.63965 13.3282 6.63965 13.6331C6.63965 17.8146 10.1371 21.2556 14.3868 21.2556C14.6966 21.2556 14.9623 20.9943 14.9623 20.6894C14.9623 20.3845 14.6966 20.1667 14.431 20.1667Z" fill="#5038C9"/>
<path d="M14.4326 6.0105C14.1228 6.0105 13.8574 6.27184 13.8574 6.57674C13.8574 6.88164 14.1228 7.14298 14.4326 7.14298C18.1074 7.14298 21.0732 10.0613 21.0732 13.6766C21.0732 13.9815 21.3389 14.2428 21.6492 14.2428C21.959 14.2428 22.2246 13.9815 22.2246 13.6766C22.18 9.40796 18.6829 6.0105 14.4326 6.0105Z" fill="#5038C9"/>
<path d="M8.14508 19.775C5.31196 16.9874 4.82492 12.8059 6.55132 9.58267L6.59578 9.53911C9.42891 4.39937 16.4679 3.354 20.6735 7.49193C24.1264 10.8894 24.1264 16.4211 20.6735 19.8186C17.2202 23.1725 11.5981 23.1725 8.14508 19.775ZM5.40031 7.84038C5.71007 7.53548 8.01226 5.27051 8.54337 4.74783L9.11898 5.31407C7.87944 6.05454 6.81696 7.09991 5.97575 8.40663L5.40031 7.84038ZM5.00185 5.13984L5.79864 4.35581L6.59578 5.13984L5.79864 5.92387L5.00185 5.13984ZM21.4705 6.66434C18.3274 3.57178 13.7674 3.0491 10.1373 4.74783L8.94205 3.57178C8.72048 3.354 8.3663 3.354 8.14508 3.57178L7.34829 4.35581L6.15282 3.17977C5.93164 2.96198 5.57742 2.96198 5.35603 3.17977L5.00185 3.52823C4.55923 2.91843 3.80655 2.1344 2.69966 2.22151C1.94715 2.30863 1.72593 1.61171 1.72593 1.48104C1.68151 1.17614 1.37171 1.00191 1.06179 1.04547C0.752031 1.08903 0.574748 1.39393 0.619036 1.69883C0.752031 2.30863 1.37171 3.44111 2.78841 3.31044C3.40809 3.26688 3.89513 3.92024 4.16077 4.31225L3.76244 4.70427C3.54109 4.92205 3.54109 5.27051 3.76244 5.4883L4.95756 6.66434L4.16077 7.44837C3.93937 7.66615 3.93937 8.01461 4.16077 8.2324L5.35603 9.40844C3.62945 12.9801 4.16077 17.5101 7.30383 20.5591C11.1998 24.3921 17.4858 24.3921 21.3821 20.5591C25.3662 16.726 25.3662 10.4974 21.4705 6.66434Z" fill="#5038C9"/>
<path d="M2.25771 20.69C1.9476 20.69 1.68196 20.4287 1.68196 20.1238C1.68196 19.8189 1.9476 19.5575 2.25771 19.5575C2.56746 19.5575 2.8331 19.8189 2.8331 20.1238C2.78886 20.4287 2.52317 20.69 2.25771 20.69ZM2.25771 18.5122C1.32792 18.5122 0.575195 19.2526 0.575195 20.1673C0.575195 21.082 1.32792 21.8225 2.25771 21.8225C3.18715 21.8225 3.93982 21.082 3.93982 20.1673C3.93982 19.2526 3.14286 18.5122 2.25771 18.5122Z" fill="#5038C9"/>
<path d="M21.8698 1.08891C22.3126 1.08891 22.7109 1.43737 22.7109 1.91649C22.7109 2.39562 22.3568 2.74408 21.8698 2.74408C21.3831 2.74408 21.0286 2.39562 21.0286 1.91649C21.0286 1.43737 21.4273 1.08891 21.8698 1.08891ZM21.8698 3.83301C22.9323 3.83301 23.8176 2.96187 23.8176 1.91649C23.8176 0.871122 22.9323 -2.02656e-05 21.8698 -2.02656e-05C20.8072 -2.02656e-05 19.9219 0.871122 19.9219 1.91649C19.9219 2.96187 20.8072 3.83301 21.8698 3.83301Z" fill="#5038C9"/>
<path d="M0.575396 4.87874C0.893377 4.87874 1.15101 5.13225 1.15101 5.44499C1.15101 5.75773 0.893377 6.01123 0.575396 6.01123C0.257808 6.01123 0 5.75773 0 5.44499C0 5.13225 0.257808 4.87874 0.575396 4.87874Z" fill="#5038C9"/>
<path d="M2.78851 10.3227C3.10627 10.3227 3.36408 10.5762 3.36408 10.889C3.36408 11.2017 3.10627 11.4552 2.78851 11.4552C2.47052 11.4552 2.21289 11.2017 2.21289 10.889C2.21289 10.5762 2.47052 10.3227 2.78851 10.3227Z" fill="#5038C9"/>
<path d="M6.68477 22.3014C7.00257 22.3014 7.26016 22.5549 7.26016 22.8676C7.26016 23.1803 7.00257 23.4338 6.68477 23.4338C6.36696 23.4338 6.10938 23.1803 6.10938 22.8676C6.10938 22.5549 6.36696 22.3014 6.68477 22.3014Z" fill="#5038C9"/>
<path d="M21.6052 22.8675C21.9229 22.8675 22.1803 23.121 22.1803 23.4338C22.1803 23.7465 21.9229 24 21.6052 24C21.2871 24 21.0293 23.7465 21.0293 23.4338C21.0293 23.121 21.2871 22.8675 21.6052 22.8675Z" fill="#5038C9"/>
<path d="M24.9241 19.6009C25.2423 19.6009 25.4996 19.8544 25.4996 20.1672C25.4996 20.4799 25.2423 20.7334 24.9241 20.7334C24.6064 20.7334 24.3486 20.4799 24.3486 20.1672C24.3486 19.8544 24.6064 19.6009 24.9241 19.6009Z" fill="#5038C9"/>
<path d="M23.8177 5.44417C24.1358 5.44417 24.3931 5.69768 24.3931 6.01042C24.3931 6.32316 24.1358 6.57666 23.8177 6.57666C23.4999 6.57666 23.2422 6.32316 23.2422 6.01042C23.2422 5.69768 23.4999 5.44417 23.8177 5.44417Z" fill="#5038C9"/>
<path d="M16.0706 0.5223C16.3883 0.5223 16.6456 0.775802 16.6456 1.08854C16.6456 1.40128 16.3883 1.65479 16.0706 1.65479C15.7524 1.65479 15.4951 1.40128 15.4951 1.08854C15.4951 0.775802 15.7524 0.5223 16.0706 0.5223Z" fill="#5038C9"/>
<path d="M9.42896 1.08919C9.74676 1.08919 10.0043 1.3427 10.0043 1.65544C10.0043 1.96818 9.74676 2.22168 9.42896 2.22168C9.11098 2.22168 8.85352 1.96818 8.85352 1.65544C8.85352 1.3427 9.11098 1.08919 9.42896 1.08919Z" fill="#5038C9"/>
</svg>
