<svg width="36" height="36" viewBox="0 0 36 36" fill="none" xmlns="http://www.w3.org/2000/svg">
<path d="M21.8995 22.1109C21.8995 21.2582 22.5853 20.5881 23.4593 20.5881C24.3326 20.5881 25.0191 21.2582 25.0191 22.1109C25.0191 22.9637 24.2703 23.6338 23.4593 23.6338C22.6476 23.6338 21.8995 22.9637 21.8995 22.1109ZM33.2548 26.6795H14.724C14.6618 26.4968 14.5995 26.3749 14.5372 26.1922L20.7764 23.7556C21.3376 24.6084 22.2739 25.1567 23.397 25.1567C25.1437 25.1567 26.516 23.8165 26.516 22.1109C26.516 20.4054 25.1437 19.0652 23.397 19.0652C21.5874 19.0652 20.1522 20.5272 20.2774 22.3546L13.4763 24.9739C12.2909 24.1211 10.6065 24.2429 9.48339 25.3394C9.04672 25.7658 8.79692 26.1922 8.67234 26.7404H2.62064C1.99647 26.7404 1.4975 26.2531 1.4975 25.644V5.66411C1.4975 5.05497 1.99647 4.56766 2.62064 4.56766H3.86835V15.2276C3.86835 15.654 4.24273 16.0195 4.6794 16.0195C5.11607 16.0195 5.49044 15.654 5.49044 15.2276V4.62857H10.4819L11.8542 7.24788C11.9794 7.49154 12.2286 7.67428 12.5407 7.67428H33.3171C33.9412 7.67428 34.4402 8.16159 34.4402 8.77074V9.98902H8.61004C8.17337 9.98902 7.799 10.3545 7.799 10.7809C7.799 11.2073 8.17337 11.5728 8.61004 11.5728H34.3779V12.3647H16.4091C15.9724 12.3647 15.598 12.7302 15.598 13.1566C15.598 13.583 15.9724 13.9484 16.4091 13.9484H34.3779V25.8267C34.3779 26.1922 33.8783 26.6795 33.2548 26.6795ZM10.6065 28.5069C9.98235 27.8978 9.98235 26.9232 10.6065 26.3749C11.2307 25.7658 12.2286 25.7658 12.7905 26.3749C13.414 26.9841 13.414 27.9587 12.7905 28.5069C12.2286 29.1161 11.2307 29.1161 10.6065 28.5069ZM23.4593 31.2481C24.3326 31.2481 25.0191 31.9181 25.0191 32.7709C25.0191 33.6237 24.3326 34.2938 23.4593 34.2938C22.5853 34.2938 21.8995 33.6237 21.8995 32.7709C21.8995 31.9181 22.5853 31.2481 23.4593 31.2481ZM33.2548 6.15143H12.9774L11.6051 3.53212C11.4799 3.28846 11.2307 3.10572 10.9186 3.10572H2.68293C1.24772 3.10572 0 4.26309 0 5.72503V25.7049C0 27.1059 1.18542 28.3242 2.68293 28.3242H8.73463C9.04671 29.6034 10.2944 30.6389 11.7296 30.6389C12.3538 30.6389 12.9774 30.4562 13.5386 30.0907L20.3397 32.71C20.2151 34.4765 21.6497 35.9994 23.4593 35.9994C25.206 35.9994 26.5789 34.6593 26.5789 32.9537C26.5789 31.2481 25.206 29.908 23.4593 29.908C22.3985 29.908 21.4005 30.4562 20.8387 31.309L14.5995 28.8724C14.6618 28.6897 14.724 28.5679 14.7863 28.3851H33.3171C34.7517 28.3851 36 27.2277 36 25.7658V8.70982C35.9371 7.3088 34.6894 6.15143 33.2548 6.15143Z" fill="#2334DE"/>
<path d="M4.74122 16.7508C5.18899 16.7508 5.55227 17.1053 5.55227 17.5427C5.55227 17.9801 5.18899 18.3346 4.74122 18.3346C4.29344 18.3346 3.93018 17.9801 3.93018 17.5427C3.93018 17.1053 4.29344 16.7508 4.74122 16.7508Z" fill="#2334DE"/>
<path d="M32.818 3.04575C33.2658 3.04575 33.6291 3.40027 33.6291 3.83763C33.6291 4.275 33.2658 4.62952 32.818 4.62952C32.3696 4.62952 32.0063 4.275 32.0063 3.83763C32.0063 3.40027 32.3696 3.04575 32.818 3.04575Z" fill="#2334DE"/>
<path d="M21.0884 1.52231C21.5362 1.52231 21.8994 1.87683 21.8994 2.31419C21.8994 2.75156 21.5362 3.10608 21.0884 3.10608C20.6406 3.10608 20.2773 2.75156 20.2773 2.31419C20.2773 1.87683 20.6406 1.52231 21.0884 1.52231Z" fill="#2334DE"/>
<path d="M14.8491 3.04575C15.2969 3.04575 15.6602 3.40027 15.6602 3.83763C15.6602 4.275 15.2969 4.62952 14.8491 4.62952C14.4008 4.62952 14.0381 4.275 14.0381 3.83763C14.0381 3.40027 14.4008 3.04575 14.8491 3.04575Z" fill="#2334DE"/>
<path d="M33.5666 29.7254C34.0143 29.7254 34.3776 30.08 34.3776 30.5173C34.3776 30.9547 34.0143 31.3092 33.5666 31.3092C33.1182 31.3092 32.7549 30.9547 32.7549 30.5173C32.7549 30.08 33.1182 29.7254 33.5666 29.7254Z" fill="#2334DE"/>
<path d="M29.6983 32.7713C30.146 32.7713 30.5093 33.1259 30.5093 33.5632C30.5093 34.0006 30.146 34.3551 29.6983 34.3551C29.2499 34.3551 28.8872 34.0006 28.8872 33.5632C28.8872 33.1259 29.2499 32.7713 29.6983 32.7713Z" fill="#2334DE"/>
<path d="M14.8491 31.9793C15.2969 31.9793 15.6602 32.3339 15.6602 32.7712C15.6602 33.2086 15.2969 33.5631 14.8491 33.5631C14.4008 33.5631 14.0381 33.2086 14.0381 32.7712C14.0381 32.3339 14.4008 31.9793 14.8491 31.9793Z" fill="#2334DE"/>
<path d="M4.74122 19.0663C5.18899 19.0663 5.55227 19.4208 5.55227 19.8581C5.55227 20.2955 5.18899 20.65 4.74122 20.65C4.29344 20.65 3.93018 20.2955 3.93018 19.8581C3.93018 19.4208 4.29344 19.0663 4.74122 19.0663Z" fill="#2334DE"/>
<path d="M5.49047 33.5633C5.0538 33.5633 4.67943 33.1978 4.67943 32.7714C4.67943 32.345 5.0538 31.9796 5.49047 31.9796C5.92714 31.9796 6.30152 32.345 6.30152 32.7714C6.30152 33.1978 5.92714 33.5633 5.49047 33.5633ZM5.49047 30.5176C4.18046 30.5176 3.11963 31.5532 3.11963 32.8324C3.11963 34.1116 4.18046 35.1471 5.49047 35.1471C6.80048 35.1471 7.86132 34.1116 7.86132 32.8324C7.86132 31.5532 6.80048 30.5176 5.49047 30.5176Z" fill="#2334DE"/>
<path d="M26.5789 1.58381C27.0155 1.58381 27.3893 1.94929 27.3893 2.37569C27.3893 2.80209 27.0155 3.16758 26.5789 3.16758C26.1422 3.16758 25.7678 2.80209 25.7678 2.37569C25.7678 1.88838 26.1422 1.58381 26.5789 1.58381ZM26.5789 4.62952C27.8889 4.62952 28.9497 3.59398 28.9497 2.31478C28.9497 1.03558 27.8889 3.67165e-05 26.5789 3.67165e-05C25.2682 3.67165e-05 24.208 1.03558 24.208 2.31478C24.208 3.59398 25.2682 4.62952 26.5789 4.62952Z" fill="#2334DE"/>
</svg>
