<svg width="270" height="380" viewBox="0 0 270 380" fill="none" xmlns="http://www.w3.org/2000/svg">
<g opacity="0.1">
<path d="M315.845 348.586C292.368 347.065 239.373 342.86 184.642 333.271C141.761 325.754 106.227 316.454 79.0362 305.631C66.5556 300.662 55.8456 295.38 46.9364 289.8C44.666 288.38 42.5128 286.942 40.478 285.482C38.3472 283.958 36.3443 282.406 34.4708 280.837C32.5073 279.196 30.69 277.535 29.0128 275.853C27.2467 274.08 25.6413 272.285 24.1929 270.465C22.6544 268.537 21.2946 266.579 20.1173 264.6C19.0096 262.747 18.0603 260.872 17.2704 258.972C17.161 258.706 17.0529 258.443 16.946 258.175L11.5996 244.568C11.7089 244.834 11.8159 245.101 11.924 245.364C12.7114 247.251 13.6486 249.111 14.7476 250.951L14.7489 250.954C15.9287 252.939 17.2861 254.898 18.8246 256.826C20.2706 258.647 21.8772 260.445 23.642 262.215C25.3168 263.899 27.1354 265.563 29.094 267.2C30.9664 268.774 32.9679 270.322 35.1012 271.852C37.1446 273.318 39.3075 274.765 41.5888 276.19C43.7754 277.561 46.072 278.912 48.476 280.245C55.8628 284.342 64.2703 288.272 73.6886 292.02C100.882 302.85 136.416 312.149 179.297 319.659C233.831 329.219 286.641 333.423 310.246 334.961L315.845 348.586Z" fill="url(#paint0_linear_290_95602)"/>
<path d="M327.099 375.976C303.88 374.484 250.514 370.292 195.388 360.628C152.506 353.115 116.974 343.814 89.7798 332.989C70.7722 325.425 55.8733 317.125 45.1876 308.175C43.2362 306.541 41.4274 304.886 39.7599 303.213C37.9963 301.438 36.3885 299.644 34.9365 297.824C33.398 295.896 32.0394 293.941 30.8632 291.957C29.7568 290.106 28.8075 288.232 28.0152 286.333C27.9058 286.067 27.8001 285.803 27.6931 285.535C26.8164 283.306 26.0836 280.888 25.4886 278.281C26.6659 280.26 28.0245 282.215 29.5643 284.146C31.0114 285.962 32.6204 287.759 34.3853 289.529C36.0601 291.212 37.8822 292.878 39.8433 294.52C41.7072 296.081 43.699 297.621 45.8189 299.14C55.8486 306.332 68.7313 313.069 84.4063 319.308C111.602 330.136 147.134 339.438 190.017 346.953C244.944 356.577 298.122 360.775 321.472 362.282L327.099 375.976Z" fill="url(#paint1_linear_290_95602)"/>
<path d="M338.356 403.365C315.416 401.901 261.673 397.716 206.138 387.987C163.255 380.471 127.721 371.172 100.529 360.345C74.3747 349.933 55.996 338.133 45.6672 325.157L45.666 325.154C44.1384 323.231 42.7883 321.289 41.6147 319.319C40.5058 317.463 39.5565 315.588 38.7666 313.688C38.6561 313.426 38.5467 313.16 38.4422 312.891L33.2285 299.614C33.2826 299.745 33.3366 299.877 33.3944 300.01C34.183 301.907 35.13 303.783 36.2351 305.631L36.2364 305.634C37.4149 307.616 38.7784 309.575 40.3157 311.508C41.7604 313.318 43.3561 315.105 45.11 316.87C55.9255 327.738 72.6636 337.716 95.1541 346.669C122.35 357.497 157.882 366.798 200.763 374.311C256.092 384.001 309.645 388.192 332.728 389.668L338.356 403.365Z" fill="url(#paint2_linear_290_95602)"/>
<path d="M349.583 430.684C326.94 429.25 272.806 425.079 216.857 415.273C173.975 407.76 138.443 398.459 111.247 387.631C77.5806 374.233 56.8004 358.531 49.4838 340.971C49.3745 340.712 49.2663 340.441 49.163 340.175C48.2925 337.961 47.5621 335.556 46.966 332.961C56.0718 348.269 75.8541 362.059 105.902 374.019C133.098 384.847 168.63 394.148 211.51 401.665C267.252 411.433 321.193 415.613 343.984 417.059L349.583 430.684Z" fill="url(#paint3_linear_290_95602)"/>
<path d="M14.7476 250.95C13.6485 249.11 12.7113 247.25 11.9239 245.364C11.8158 245.101 11.7089 244.833 11.5995 244.567C4.66559 226.904 6.54659 197.274 17.204 156.455C25.9423 122.982 40.5555 82.0816 60.6412 34.8839C87.1669 -27.447 116.412 -84.5476 128.432 -107.458L133.917 -94.1111C121.986 -71.3771 92.6169 -14.0744 65.9888 48.4945C45.9019 95.6892 31.2899 136.593 22.5504 170.062C13.2306 205.751 10.6211 232.892 14.7476 250.95Z" fill="url(#paint4_linear_290_95602)"/>
<path d="M23.6419 262.213C21.877 260.443 20.2704 258.645 18.8245 256.824C16.8222 239.093 19.8626 214.617 27.9238 183.741C36.6621 150.269 51.2741 109.365 71.3622 62.166C98.0927 -0.640744 127.586 -58.1426 139.43 -80.6973L144.942 -67.2847C133.192 -44.9214 103.572 12.7886 76.7356 75.8469C56.6499 123.045 42.0343 163.947 33.296 197.419C26.4262 223.738 23.203 245.407 23.6419 262.213Z" fill="url(#paint5_linear_290_95602)"/>
<path d="M35.1008 271.852C32.9676 270.323 30.966 268.774 29.0936 267.2C29.733 251.83 32.9294 233.085 38.6717 211.101C47.4075 177.631 62.0243 136.724 82.1088 89.5306C109.051 26.2209 138.802 -31.6958 150.455 -53.8662L155.969 -40.4506C144.411 -18.4806 114.532 39.6458 87.4798 103.206C67.3966 150.402 52.7822 191.307 44.0439 224.779C39.3858 242.632 36.3993 258.344 35.1008 271.852Z" fill="url(#paint6_linear_290_95602)"/>
<path d="M48.4759 280.247C46.0719 278.915 43.7753 277.564 41.5887 276.192C43.1836 264.926 45.7928 252.34 49.4188 238.458C58.1547 204.987 72.7703 164.085 92.8584 116.885C120.016 53.0666 150.028 -5.27102 161.479 -27.0391L166.966 -13.6893C155.615 7.86786 125.471 66.4211 98.2036 130.497C78.1167 177.692 63.5023 218.597 54.764 252.07C52.1312 262.147 50.0367 271.54 48.4759 280.247Z" fill="url(#paint7_linear_290_95602)"/>
</g>
<defs>
<linearGradient id="paint0_linear_290_95602" x1="115.302" y1="179.055" x2="249.057" y2="390.779" gradientUnits="userSpaceOnUse">
<stop stop-color="#2E0797"/>
<stop offset="1" stop-color="#726EFC"/>
</linearGradient>
<linearGradient id="paint1_linear_290_95602" x1="128.964" y1="212.911" x2="259.112" y2="418.926" gradientUnits="userSpaceOnUse">
<stop stop-color="#2E0797"/>
<stop offset="1" stop-color="#726EFC"/>
</linearGradient>
<linearGradient id="paint2_linear_290_95602" x1="137.325" y1="233.852" x2="271.211" y2="445.784" gradientUnits="userSpaceOnUse">
<stop stop-color="#2E0797"/>
<stop offset="1" stop-color="#726EFC"/>
</linearGradient>
<linearGradient id="paint3_linear_290_95602" x1="150.84" y1="267.34" x2="281.287" y2="473.829" gradientUnits="userSpaceOnUse">
<stop stop-color="#2E0797"/>
<stop offset="1" stop-color="#726EFC"/>
</linearGradient>
<linearGradient id="paint4_linear_290_95602" x1="24.6301" y1="-41.8819" x2="154.035" y2="162.957" gradientUnits="userSpaceOnUse">
<stop stop-color="#2E0797"/>
<stop offset="1" stop-color="#726EFC"/>
</linearGradient>
<linearGradient id="paint5_linear_290_95602" x1="36.4976" y1="-15.6705" x2="158.304" y2="177.141" gradientUnits="userSpaceOnUse">
<stop stop-color="#2E0797"/>
<stop offset="1" stop-color="#726EFC"/>
</linearGradient>
<linearGradient id="paint6_linear_290_95602" x1="49.9067" y1="9.65432" x2="164.075" y2="190.374" gradientUnits="userSpaceOnUse">
<stop stop-color="#2E0797"/>
<stop offset="1" stop-color="#726EFC"/>
</linearGradient>
<linearGradient id="paint7_linear_290_95602" x1="64.4242" y1="34.2746" x2="170.94" y2="202.882" gradientUnits="userSpaceOnUse">
<stop stop-color="#2E0797"/>
<stop offset="1" stop-color="#726EFC"/>
</linearGradient>
</defs>
</svg>
