<svg width="20" height="20" viewBox="0 0 20 20" fill="none" xmlns="http://www.w3.org/2000/svg">
<path d="M17.8391 9.65008L10.3391 2.15008C10.0266 1.84015 9.60418 1.6664 9.16406 1.66675H3.33073C2.8887 1.66675 2.46478 1.84234 2.15222 2.1549C1.83966 2.46746 1.66406 2.89139 1.66406 3.33342V9.16675C1.66389 9.38668 1.70724 9.60446 1.79163 9.80756C1.87601 10.0106 1.99976 10.195 2.15573 10.3501L9.65573 17.8501C9.96822 18.16 10.3906 18.3338 10.8307 18.3334C11.272 18.3316 11.6946 18.1547 12.0057 17.8417L17.8391 12.0084C18.1521 11.6973 18.3289 11.2747 18.3307 10.8334C18.3309 10.6135 18.2875 10.3957 18.2032 10.1926C18.1188 9.98952 17.995 9.80513 17.8391 9.65008ZM10.8307 16.6667L3.33073 9.16675V3.33342H9.16406L16.6641 10.8334M5.41406 4.16675C5.66129 4.16675 5.90296 4.24006 6.10853 4.37741C6.31409 4.51476 6.4743 4.70999 6.56891 4.93839C6.66352 5.1668 6.68828 5.41813 6.64004 5.66061C6.59181 5.90309 6.47276 6.12582 6.29795 6.30063C6.12313 6.47545 5.9004 6.5945 5.65793 6.64273C5.41545 6.69096 5.16412 6.66621 4.93571 6.5716C4.7073 6.47699 4.51208 6.31677 4.37473 6.11121C4.23737 5.90565 4.16406 5.66398 4.16406 5.41675C4.16406 5.08523 4.29576 4.76729 4.53018 4.53287C4.7646 4.29844 5.08254 4.16675 5.41406 4.16675Z" fill="#5F6168"/>
</svg>
