<svg width="270" height="380" viewBox="0 0 270 380" fill="none" xmlns="http://www.w3.org/2000/svg">
<path d="M325.845 348.585C302.368 347.064 249.373 342.859 194.642 333.27C151.761 325.753 116.227 316.453 89.0361 305.63C76.5555 300.661 65.8455 295.379 56.9363 289.799C54.6659 288.379 52.5127 286.941 50.4778 285.481C48.347 283.957 46.3442 282.405 44.4707 280.836C42.5072 279.195 40.6898 277.534 39.0126 275.852C37.2466 274.079 35.6412 272.283 34.1928 270.464C32.6543 268.536 31.2945 266.578 30.1171 264.599C29.0095 262.745 28.0602 260.871 27.2703 258.971C27.1609 258.705 27.0528 258.442 26.9458 258.174L21.5995 244.566C21.7088 244.833 21.8158 245.1 21.9239 245.363C22.7113 247.25 23.6485 249.109 24.7475 250.95L24.7488 250.953C25.9286 252.938 27.2859 254.897 28.8245 256.825C30.2704 258.646 31.8771 260.444 33.6419 262.214C35.3167 263.898 37.1352 265.562 39.0939 267.199C40.9662 268.772 42.9678 270.321 45.1011 271.851C47.1444 273.317 49.3074 274.764 51.5887 276.189C53.7753 277.56 56.0719 278.911 58.4759 280.244C65.8627 284.341 74.2702 288.271 83.6885 292.019C110.882 302.849 146.416 312.148 189.297 319.658C243.831 329.217 296.641 333.422 320.246 334.96L325.845 348.585Z" fill="url(#paint0_linear_296_111961)"/>
<path d="M337.099 375.975C313.88 374.483 260.514 370.291 205.388 360.627C162.506 353.114 126.974 343.813 99.7797 332.988C80.7721 325.424 65.8732 317.124 55.1875 308.174C53.2361 306.54 51.4273 304.885 49.7598 303.211C47.9962 301.437 46.3884 299.643 44.9364 297.823C43.3978 295.895 42.0393 293.94 40.8631 291.956C39.7567 290.105 38.8074 288.231 38.015 286.332C37.9057 286.066 37.8 285.802 37.693 285.534C36.8163 283.305 36.0835 280.887 35.4884 278.28C36.6658 280.259 38.0244 282.214 39.5642 284.145C41.0113 285.961 42.6203 287.758 44.3851 289.528C46.0599 291.211 47.8821 292.877 49.8432 294.519C51.707 296.08 53.6989 297.62 55.8188 299.139C65.8485 306.331 78.7312 313.068 94.4062 319.307C121.602 330.135 157.134 339.436 200.017 346.952C254.944 356.576 308.122 360.774 331.472 362.281L337.099 375.975Z" fill="url(#paint1_linear_296_111961)"/>
<path d="M348.356 403.364C325.415 401.9 271.673 397.715 216.138 387.986C173.255 380.47 137.72 371.171 110.529 360.344C84.3746 349.932 65.9958 338.132 55.6671 325.156L55.6659 325.153C54.1382 323.23 52.7882 321.288 51.6146 319.318C50.5057 317.461 49.5564 315.587 48.7665 313.687C48.6559 313.425 48.5466 313.159 48.442 312.89L43.2284 299.613C43.2825 299.744 43.3365 299.876 43.3942 300.009C44.1829 301.906 45.1299 303.782 46.235 305.63L46.2362 305.633C47.4148 307.615 48.7783 309.574 50.3156 311.507C51.7603 313.317 53.356 315.103 55.1099 316.869C65.9254 327.737 82.6635 337.714 105.154 346.668C132.349 357.496 167.882 366.797 210.763 374.31C266.092 384 319.645 388.191 342.728 389.667L348.356 403.364Z" fill="url(#paint2_linear_296_111961)"/>
<path d="M359.583 430.683C336.94 429.249 282.806 425.078 226.857 415.272C183.975 407.759 148.443 398.458 121.247 387.63C87.5806 374.231 66.8004 358.53 59.4838 340.969C59.3745 340.711 59.2663 340.44 59.163 340.174C58.2925 337.96 57.5621 335.555 56.966 332.96C66.0718 348.268 85.8541 362.058 115.902 374.018C143.098 384.846 178.63 394.147 221.51 401.664C277.252 411.432 331.193 415.612 353.984 417.058L359.583 430.683Z" fill="url(#paint3_linear_296_111961)"/>
<path d="M24.7476 250.949C23.6485 249.109 22.7113 247.249 21.9239 245.363C21.8158 245.1 21.7089 244.832 21.5995 244.566C14.6656 226.903 16.5466 197.273 27.204 156.454C35.9423 122.981 50.5555 82.0805 70.6412 34.8828C97.1669 -27.4481 126.412 -84.5487 138.432 -107.459L143.917 -94.1122C131.986 -71.3782 102.617 -14.0755 75.9888 48.4934C55.9019 95.6881 41.2899 136.592 32.5504 170.061C23.2306 205.75 20.6211 232.891 24.7476 250.949Z" fill="url(#paint4_linear_296_111961)"/>
<path d="M33.6416 262.212C31.8768 260.442 30.2702 258.644 28.8242 256.823C26.8219 239.092 29.8624 214.616 37.9236 183.74C46.6618 150.268 61.2738 109.364 81.3619 62.1651C108.092 -0.641721 137.586 -58.1436 149.43 -80.6982L154.942 -67.2856C143.192 -44.9224 113.572 12.7877 86.7354 75.8459C66.6497 123.044 52.0341 163.946 43.2958 197.418C36.426 223.737 33.2028 245.406 33.6416 262.212Z" fill="url(#paint5_linear_296_111961)"/>
<path d="M45.1008 271.851C42.9676 270.322 40.966 268.773 39.0936 267.199C39.733 251.829 42.9294 233.084 48.6717 211.101C57.4075 177.63 72.0243 136.723 92.1088 89.5297C119.051 26.2199 148.802 -31.6968 160.455 -53.8672L165.969 -40.4516C154.411 -18.4816 124.532 39.6448 97.4798 103.205C77.3966 150.401 62.7822 191.306 54.0439 224.778C49.3858 242.631 46.3993 258.343 45.1008 271.851Z" fill="url(#paint6_linear_296_111961)"/>
<path d="M58.4759 280.244C56.0719 278.912 53.7753 277.561 51.5887 276.189C53.1836 264.923 55.7928 252.338 59.4188 238.455C68.1547 204.984 82.7703 164.082 102.858 116.882C130.016 53.0636 160.028 -5.27395 171.479 -27.042L176.966 -13.6922C165.615 7.86493 135.471 66.4182 108.204 130.494C88.1167 177.689 73.5023 218.595 64.764 252.067C62.1312 262.144 60.0367 271.537 58.4759 280.244Z" fill="url(#paint7_linear_296_111961)"/>
<defs>
<linearGradient id="paint0_linear_296_111961" x1="125.302" y1="179.054" x2="259.056" y2="390.778" gradientUnits="userSpaceOnUse">
<stop stop-color="#2E0797"/>
<stop offset="1" stop-color="#726EFC"/>
</linearGradient>
<linearGradient id="paint1_linear_296_111961" x1="138.964" y1="212.91" x2="269.112" y2="418.925" gradientUnits="userSpaceOnUse">
<stop stop-color="#2E0797"/>
<stop offset="1" stop-color="#726EFC"/>
</linearGradient>
<linearGradient id="paint2_linear_296_111961" x1="147.325" y1="233.851" x2="281.211" y2="445.783" gradientUnits="userSpaceOnUse">
<stop stop-color="#2E0797"/>
<stop offset="1" stop-color="#726EFC"/>
</linearGradient>
<linearGradient id="paint3_linear_296_111961" x1="160.84" y1="267.339" x2="291.287" y2="473.828" gradientUnits="userSpaceOnUse">
<stop stop-color="#2E0797"/>
<stop offset="1" stop-color="#726EFC"/>
</linearGradient>
<linearGradient id="paint4_linear_296_111961" x1="34.6301" y1="-41.883" x2="164.035" y2="162.956" gradientUnits="userSpaceOnUse">
<stop stop-color="#2E0797"/>
<stop offset="1" stop-color="#726EFC"/>
</linearGradient>
<linearGradient id="paint5_linear_296_111961" x1="46.4973" y1="-15.6715" x2="168.304" y2="177.14" gradientUnits="userSpaceOnUse">
<stop stop-color="#2E0797"/>
<stop offset="1" stop-color="#726EFC"/>
</linearGradient>
<linearGradient id="paint6_linear_296_111961" x1="59.9067" y1="9.65335" x2="174.075" y2="190.373" gradientUnits="userSpaceOnUse">
<stop stop-color="#2E0797"/>
<stop offset="1" stop-color="#726EFC"/>
</linearGradient>
<linearGradient id="paint7_linear_296_111961" x1="74.4242" y1="34.2717" x2="180.94" y2="202.879" gradientUnits="userSpaceOnUse">
<stop stop-color="#2E0797"/>
<stop offset="1" stop-color="#726EFC"/>
</linearGradient>
</defs>
</svg>
