<svg width="270" height="380" viewBox="0 0 270 380" fill="none" xmlns="http://www.w3.org/2000/svg">
<path d="M325.845 348.585C302.368 347.064 249.373 342.86 194.642 333.271C151.761 325.753 116.227 316.454 89.0362 305.63C76.5556 300.661 65.8456 295.379 56.9364 289.799C54.666 288.379 52.5128 286.941 50.478 285.481C48.3472 283.957 46.3443 282.406 44.4708 280.836C42.5073 279.195 40.69 277.534 39.0128 275.852C37.2467 274.079 35.6413 272.284 34.1929 270.464C32.6544 268.537 31.2946 266.578 30.1173 264.599C29.0096 262.746 28.0603 260.871 27.2704 258.971C27.161 258.705 27.0529 258.442 26.946 258.174L21.5996 244.567C21.7089 244.833 21.8159 245.1 21.924 245.364C22.7114 247.25 23.6486 249.11 24.7476 250.95L24.7489 250.953C25.9287 252.938 27.2861 254.898 28.8246 256.826C30.2706 258.646 31.8772 260.445 33.642 262.214C35.3168 263.898 37.1354 265.563 39.094 267.199C40.9664 268.773 42.9679 270.322 45.1012 271.851C47.1446 273.317 49.3075 274.764 51.5888 276.189C53.7754 277.56 56.072 278.912 58.476 280.244C65.8628 284.341 74.2703 288.272 83.6886 292.019C110.882 302.849 146.416 312.149 189.297 319.658C243.831 329.218 296.641 333.422 320.246 334.96L325.845 348.585Z" fill="url(#paint0_linear_290_95622)"/>
<path d="M337.099 375.975C313.88 374.483 260.514 370.291 205.388 360.627C162.506 353.115 126.974 343.813 99.7798 332.988C80.7722 325.424 65.8733 317.124 55.1876 308.174C53.2362 306.54 51.4274 304.885 49.7599 303.212C47.9963 301.437 46.3885 299.644 44.9365 297.823C43.398 295.895 42.0394 293.94 40.8632 291.956C39.7568 290.106 38.8075 288.231 38.0152 286.333C37.9058 286.066 37.8001 285.802 37.6931 285.534C36.8164 283.305 36.0836 280.887 35.4886 278.28C36.6659 280.259 38.0245 282.214 39.5643 284.145C41.0114 285.961 42.6204 287.758 44.3853 289.528C46.0601 291.212 47.8822 292.877 49.8433 294.52C51.7072 296.08 53.699 297.62 55.8189 299.139C65.8486 306.331 78.7313 313.068 94.4063 319.307C121.602 330.136 157.134 339.437 200.017 346.953C254.944 356.576 308.122 360.774 331.472 362.281L337.099 375.975Z" fill="url(#paint1_linear_290_95622)"/>
<path d="M348.356 403.364C325.416 401.9 271.673 397.715 216.138 387.986C173.255 380.471 137.721 371.171 110.529 360.344C84.3747 349.932 65.996 338.132 55.6672 325.157L55.666 325.154C54.1384 323.23 52.7883 321.288 51.6147 319.318C50.5058 317.462 49.5565 315.587 48.7666 313.687C48.6561 313.425 48.5467 313.159 48.4422 312.89L43.2285 299.613C43.2826 299.745 43.3366 299.876 43.3944 300.009C44.183 301.906 45.13 303.782 46.2351 305.63L46.2364 305.633C47.4149 307.615 48.7784 309.575 50.3157 311.507C51.7604 313.317 53.3561 315.104 55.11 316.869C65.9255 327.737 82.6636 337.715 105.154 346.668C132.35 357.496 167.882 366.797 210.763 374.31C266.092 384 319.645 388.191 342.728 389.668L348.356 403.364Z" fill="url(#paint2_linear_290_95622)"/>
<path d="M359.583 430.683C336.94 429.249 282.806 425.078 226.857 415.272C183.975 407.759 148.443 398.458 121.247 387.63C87.5806 374.232 66.8004 358.53 59.4838 340.97C59.3745 340.711 59.2663 340.441 59.163 340.174C58.2925 337.96 57.5621 335.555 56.966 332.961C66.0718 348.268 85.8541 362.058 115.902 374.018C143.098 384.846 178.63 394.147 221.51 401.665C277.252 411.432 331.193 415.612 353.984 417.058L359.583 430.683Z" fill="url(#paint3_linear_290_95622)"/>
<path d="M24.7478 250.949C23.6488 249.109 22.7116 247.249 21.9242 245.363C21.8161 245.1 21.7091 244.832 21.5997 244.566C14.6658 226.903 16.5468 197.274 27.2043 156.454C35.9426 122.982 50.5558 82.0807 70.6415 34.883C97.1672 -27.4479 126.413 -84.5485 138.433 -107.459L143.918 -94.1119C131.986 -71.378 102.617 -14.0752 75.9891 48.4936C55.9022 95.6883 41.2902 136.592 32.5507 170.061C23.2308 205.75 20.6213 232.892 24.7478 250.949Z" fill="url(#paint4_linear_290_95622)"/>
<path d="M33.6419 262.212C31.877 260.442 30.2704 258.644 28.8245 256.823C26.8222 239.092 29.8626 214.616 37.9238 183.741C46.6621 150.268 61.2741 109.364 81.3622 62.1652C108.093 -0.641599 137.586 -58.1435 149.43 -80.6981L154.942 -67.2855C143.192 -44.9222 113.572 12.7878 86.7356 75.8461C66.6499 123.044 52.0343 163.946 43.296 197.418C36.4262 223.737 33.203 245.406 33.6419 262.212Z" fill="url(#paint5_linear_290_95622)"/>
<path d="M45.1008 271.851C42.9676 270.322 40.966 268.773 39.0936 267.199C39.733 251.829 42.9294 233.084 48.6717 211.101C57.4075 177.63 72.0243 136.723 92.1088 89.5297C119.051 26.2199 148.802 -31.6968 160.455 -53.8672L165.969 -40.4516C154.411 -18.4816 124.532 39.6448 97.4798 103.205C77.3966 150.401 62.7822 191.306 54.0439 224.778C49.3858 242.631 46.3993 258.343 45.1008 271.851Z" fill="url(#paint6_linear_290_95622)"/>
<path d="M58.4761 280.244C56.0721 278.912 53.7756 277.561 51.5889 276.189C53.1838 264.923 55.793 252.338 59.4191 238.455C68.1549 204.984 82.7705 164.082 102.859 116.883C130.017 53.0639 160.028 -5.2737 171.48 -27.0417L176.966 -13.6919C165.615 7.86517 135.471 66.4184 108.204 130.495C88.1169 177.689 73.5025 218.595 64.7643 252.067C62.1314 262.144 60.037 271.538 58.4761 280.244Z" fill="url(#paint7_linear_290_95622)"/>
<defs>
<linearGradient id="paint0_linear_290_95622" x1="125.302" y1="179.054" x2="259.057" y2="390.778" gradientUnits="userSpaceOnUse">
<stop stop-color="#2E0797"/>
<stop offset="1" stop-color="#726EFC"/>
</linearGradient>
<linearGradient id="paint1_linear_290_95622" x1="138.964" y1="212.91" x2="269.112" y2="418.925" gradientUnits="userSpaceOnUse">
<stop stop-color="#2E0797"/>
<stop offset="1" stop-color="#726EFC"/>
</linearGradient>
<linearGradient id="paint2_linear_290_95622" x1="147.325" y1="233.851" x2="281.211" y2="445.783" gradientUnits="userSpaceOnUse">
<stop stop-color="#2E0797"/>
<stop offset="1" stop-color="#726EFC"/>
</linearGradient>
<linearGradient id="paint3_linear_290_95622" x1="160.84" y1="267.339" x2="291.287" y2="473.828" gradientUnits="userSpaceOnUse">
<stop stop-color="#2E0797"/>
<stop offset="1" stop-color="#726EFC"/>
</linearGradient>
<linearGradient id="paint4_linear_290_95622" x1="34.6303" y1="-41.8827" x2="164.035" y2="162.956" gradientUnits="userSpaceOnUse">
<stop stop-color="#2E0797"/>
<stop offset="1" stop-color="#726EFC"/>
</linearGradient>
<linearGradient id="paint5_linear_290_95622" x1="46.4976" y1="-15.6714" x2="168.304" y2="177.14" gradientUnits="userSpaceOnUse">
<stop stop-color="#2E0797"/>
<stop offset="1" stop-color="#726EFC"/>
</linearGradient>
<linearGradient id="paint6_linear_290_95622" x1="59.9067" y1="9.65335" x2="174.075" y2="190.373" gradientUnits="userSpaceOnUse">
<stop stop-color="#2E0797"/>
<stop offset="1" stop-color="#726EFC"/>
</linearGradient>
<linearGradient id="paint7_linear_290_95622" x1="74.4244" y1="34.2719" x2="180.94" y2="202.879" gradientUnits="userSpaceOnUse">
<stop stop-color="#2E0797"/>
<stop offset="1" stop-color="#726EFC"/>
</linearGradient>
</defs>
</svg>
