<svg width="43" height="44" viewBox="0 0 43 44" fill="none" xmlns="http://www.w3.org/2000/svg">
<path d="M20.4405 17.6439L21.5511 18.3028L20.4405 18.9617V17.6439ZM19.9221 21.3045L23.847 19.1081C24.44 18.7421 24.44 17.8635 23.847 17.4975L19.9221 15.3011C19.3299 14.9351 18.515 15.3743 18.515 16.1065V20.4991C18.589 21.2312 19.3299 21.6705 19.9221 21.3045Z" fill="#2334DE"/>
<path d="M3.77682 28.4062C3.25848 28.4062 2.81409 28.8455 2.81409 29.358V32.14C2.81409 32.6525 3.25848 33.0917 3.77682 33.0917C4.29515 33.0917 4.73955 32.6525 4.73955 32.14V29.2847C4.6656 28.7723 4.22121 28.4062 3.77682 28.4062Z" fill="#2334DE"/>
<path d="M38.9556 28.4062C38.4373 28.4062 37.9922 28.8455 37.9922 29.358V32.14C37.9922 32.6525 38.4366 33.0917 38.9556 33.0917C39.474 33.0917 39.9184 32.6525 39.9184 32.14V29.2847C39.8444 28.7723 39.4 28.4062 38.9556 28.4062Z" fill="#2334DE"/>
<path d="M37.9921 12.8121C38.5244 12.8121 38.9556 13.2382 38.9556 13.7639C38.9556 14.2895 38.5244 14.7156 37.9921 14.7156C37.4606 14.7156 37.0294 14.2895 37.0294 13.7639C37.0294 13.2382 37.4606 12.8121 37.9921 12.8121Z" fill="#2334DE"/>
<path d="M14.8858 8.19966C15.4173 8.19966 15.8486 8.62575 15.8486 9.1514C15.8486 9.67706 15.4173 10.1031 14.8858 10.1031C14.3543 10.1031 13.9231 9.67706 13.9231 9.1514C13.9231 8.62575 14.3543 8.19966 14.8858 8.19966Z" fill="#2334DE"/>
<path d="M17.6262 8.19966C18.1577 8.19966 18.5889 8.62575 18.5889 9.1514C18.5889 9.67706 18.1577 10.1031 17.6262 10.1031C17.0939 10.1031 16.6635 9.67706 16.6635 9.1514C16.6635 8.62575 17.0939 8.19966 17.6262 8.19966Z" fill="#2334DE"/>
<path d="M27.8466 8.19966C28.3781 8.19966 28.8094 8.62575 28.8094 9.1514C28.8094 9.67706 28.3781 10.1031 27.8466 10.1031C27.3144 10.1031 26.8832 9.67706 26.8832 9.1514C26.8832 8.62575 27.3144 8.19966 27.8466 8.19966Z" fill="#2334DE"/>
<path d="M25.0324 8.19966C25.5639 8.19966 25.9951 8.62575 25.9951 9.1514C25.9951 9.67706 25.5639 10.1031 25.0324 10.1031C24.5009 10.1031 24.0697 9.67706 24.0697 9.1514C24.0697 8.62575 24.5009 8.19966 25.0324 8.19966Z" fill="#2334DE"/>
<path d="M7.47994 5.49122C8.01146 5.49122 8.44266 5.91731 8.44266 6.44297C8.44266 6.96862 8.01146 7.39471 7.47994 7.39471C6.9477 7.39471 6.51721 6.96862 6.51721 6.44297C6.51721 5.91731 6.9477 5.49122 7.47994 5.49122Z" fill="#2334DE"/>
<path d="M34.2899 4.53944C34.8214 4.53944 35.2526 4.96553 35.2526 5.49119C35.2526 6.01684 34.8214 6.44293 34.2899 6.44293C33.7576 6.44293 33.3271 6.01684 33.3271 5.49119C33.3271 4.96553 33.7576 4.53944 34.2899 4.53944Z" fill="#2334DE"/>
<path d="M2.81405 2.70881C3.34556 2.70881 3.77678 3.1349 3.77678 3.66056C3.77678 4.18621 3.34556 4.6123 2.81405 4.6123C2.28253 4.6123 1.85132 4.18621 1.85132 3.66056C1.85132 3.1349 2.28253 2.70881 2.81405 2.70881Z" fill="#2334DE"/>
<path d="M40.8072 40.3394C40.8072 41.2912 39.9924 42.0965 39.0297 42.0965H3.62908C2.66635 42.0965 1.85151 41.2912 1.85151 40.3394V20.9384C1.85151 19.9867 2.66635 19.1814 3.62908 19.1814H10.2203V21.0116H6.51726C5.99893 21.0116 5.55454 21.4509 5.55454 21.9634V39.3877C5.55454 39.9002 5.99893 40.3394 6.51726 40.3394H36.1408C36.6591 40.3394 37.1035 39.9002 37.1035 39.3877V21.9634C37.1035 21.4509 36.6591 21.0116 36.1408 21.0116H32.4377V19.1814H39.0297C39.9924 19.1814 40.8072 19.9867 40.8072 20.9384V40.3394ZM30.587 1.83028V5.49085H12.0718V1.83028H30.587ZM11.183 36.6057H31.5497C32.068 36.6057 32.5117 36.1664 32.5117 35.6539V22.9151H35.3267V38.5092H7.47999V22.9151H10.2203V35.7271C10.2203 36.1664 10.6647 36.6057 11.183 36.6057ZM30.587 34.7754H12.0718V7.32113H30.587V34.7754ZM39.0297 17.4243H32.4377V0.951748C32.4377 0.43927 31.9933 0 31.475 0H11.183C10.6647 0 10.2203 0.43927 10.2203 0.951748V17.4243H3.62908C1.62895 17.4243 0 19.0349 0 21.0116V40.4126C0 42.3894 1.62895 44 3.62908 44H39.0297C41.0291 44 42.658 42.3894 42.658 40.4126V20.9384C42.658 18.9617 41.0291 17.4243 39.0297 17.4243Z" fill="#2334DE"/>
<path d="M13.0343 2.78202H14.8858V4.6123H13.0343V2.78202Z" fill="#2334DE"/>
<path d="M15.7747 2.78202H17.6262V4.6123H15.7747V2.78202Z" fill="#2334DE"/>
<path d="M18.589 2.78202H20.4405V4.6123H18.589V2.78202Z" fill="#2334DE"/>
<path d="M22.2921 2.78202H29.6982V4.6123H22.2921V2.78202Z" fill="#2334DE"/>
<path d="M21.3291 12.8119C24.366 12.8119 26.883 15.3011 26.883 18.3028C26.883 21.3044 24.366 23.7936 21.3291 23.7936C18.2923 23.7936 15.7746 21.3044 15.7746 18.3028C15.7746 15.3011 18.2923 12.8119 21.3291 12.8119ZM21.3291 25.6239C25.4026 25.6239 28.7352 22.3294 28.7352 18.3028C28.7352 14.2761 25.4026 10.9816 21.3291 10.9816C17.2557 10.9816 13.9231 14.2761 13.9231 18.3028C13.9231 22.3294 17.2557 25.6239 21.3291 25.6239Z" fill="#2334DE"/>
<path d="M13.9233 32.9454H14.886C14.886 33.4579 15.3304 33.8972 15.8488 33.8972C16.3671 33.8972 16.8115 33.4579 16.8115 32.9454H28.7354C29.2537 32.9454 29.6981 32.5061 29.6981 31.9937C29.6981 31.4812 29.2537 31.0419 28.7354 31.0419H16.7375C16.7375 30.5294 16.2931 30.0902 15.7748 30.0902C15.2565 30.0902 14.8121 30.5294 14.8121 31.0419H13.9233C13.405 31.0419 12.9606 31.4812 12.9606 31.9937C13.0345 32.5061 13.405 32.9454 13.9233 32.9454Z" fill="#2334DE"/>
<path d="M3.77677 10.9816C4.29511 10.9816 4.7395 11.4209 4.7395 11.9334C4.7395 12.4459 4.29511 12.8851 3.77677 12.8851C3.25844 12.8851 2.81404 12.3727 2.81404 11.9334C2.81404 11.4941 3.25844 10.9816 3.77677 10.9816ZM3.77677 14.6422C5.33178 14.6422 6.59101 13.3976 6.59101 11.8602C6.59101 10.3227 5.33178 9.07815 3.77677 9.07815C2.22176 9.07815 0.962524 10.3227 0.962524 11.8602C0.962524 13.3976 2.22176 14.6422 3.77677 14.6422Z" fill="#2334DE"/>
<path d="M39.4 5.49084C40.1402 5.49084 40.8071 6.07653 40.8071 6.88185C40.8071 7.68718 40.2141 8.27287 39.4 8.27287C38.5852 8.27287 37.9921 7.68718 37.9921 6.88185C37.9921 6.07653 38.5852 5.49084 39.4 5.49084ZM39.4 10.1031C41.1768 10.1031 42.6579 8.63892 42.6579 6.88185C42.6579 5.12478 41.1768 3.66055 39.4 3.66055C37.6224 3.66055 36.1406 5.12478 36.1406 6.88185C36.1406 8.63892 37.6224 10.1031 39.4 10.1031Z" fill="#2334DE"/>
</svg>
