<svg width="44" height="44" viewBox="0 0 44 44" fill="none" xmlns="http://www.w3.org/2000/svg">
<path d="M22.18 22.0741C22.5535 22.4432 23.1508 22.4432 23.5236 22.0741C23.8971 21.705 23.8971 21.1144 23.5236 20.7452C22.4044 19.6379 20.6865 19.6379 19.5658 20.7452C19.1923 21.1144 19.1923 21.705 19.5658 22.0741C19.9394 22.4432 20.5366 22.4432 20.9102 22.0741C21.2092 21.705 21.8064 21.705 22.18 22.0741Z" fill="#2334DE"/>
<path d="M24.047 20.1546C24.4198 20.5237 25.0178 20.5237 25.3913 20.1546C25.7649 19.7854 25.7649 19.1948 25.3913 18.8257C23.2253 16.6848 19.7149 16.6848 17.6242 18.8257C17.2506 19.1948 17.2506 19.7854 17.6242 20.1546C17.9977 20.5237 18.5957 20.5237 18.9685 20.1546C20.3874 18.7519 22.6281 18.7519 24.047 20.1546Z" fill="#2334DE"/>
<path d="M26.138 18.1615C26.5116 18.5306 27.1096 18.5306 27.4831 18.1615C27.856 17.7924 27.856 17.2018 27.4831 16.8326C24.1972 13.5843 18.8943 13.5843 15.6083 16.8326C15.2347 17.2018 15.2347 17.7924 15.6083 18.1615C15.9818 18.5306 16.5791 18.5306 16.9527 18.1615C18.2225 16.9065 19.7905 16.242 21.5822 16.242C23.2256 16.242 24.869 16.9065 26.138 18.1615Z" fill="#2334DE"/>
<path d="M28.0797 16.1679C28.4533 16.537 29.0512 16.537 29.4248 16.1679C29.7976 15.7988 29.7976 15.2082 29.4248 14.8391C25.0181 10.4834 17.9228 10.4834 13.5914 14.8391C13.2179 15.2082 13.2179 15.7988 13.5914 16.1679C13.965 16.537 14.563 16.537 14.9365 16.1679C18.5208 12.5505 24.4955 12.5505 28.0797 16.1679Z" fill="#2334DE"/>
<path d="M34.1292 42.0806H23.0761C23.8971 41.1209 24.6442 40.1611 25.5404 39.2752H34.1292C34.8756 39.2752 35.5474 39.8658 35.5474 40.6779C35.5474 41.49 34.8756 42.0806 34.1292 42.0806ZM7.54248 40.6779C7.54248 39.9397 8.13971 39.2752 8.96138 39.2752H17.5495C18.3712 40.1611 19.1922 41.047 20.0138 42.0806H8.88612C8.13974 42.0806 7.54248 41.49 7.54248 40.6779ZM4.9283 18.235C4.9283 9.22825 12.3965 1.8457 21.508 1.8457C30.6188 1.8457 38.087 9.22825 38.087 18.235C38.087 28.4967 28.5281 32.3356 21.508 41.1209C14.5625 32.3356 4.9283 28.4967 4.9283 18.235ZM34.1292 37.5034H27.4075C33.4567 31.745 39.9541 27.2417 39.9541 18.235C39.9541 8.19469 31.6642 6.10352e-05 21.508 6.10352e-05C11.3511 6.10352e-05 3.06201 8.19469 3.06201 18.235C3.06201 27.2417 9.55865 31.6712 15.6079 37.5034H8.88612C7.09363 37.5034 5.60088 38.9799 5.60088 40.7517C5.60088 42.5236 7.09363 44.0001 8.88612 44.0001H34.1292C35.921 44.0001 37.4152 42.5236 37.4152 40.7517C37.4152 38.9799 35.921 37.5034 34.1292 37.5034Z" fill="#2334DE"/>
<path d="M10.4552 18.2349C10.4552 12.1812 15.3838 7.30873 21.5083 7.30873C27.6321 7.30873 32.5615 12.1812 32.5615 18.2349C32.5615 24.2148 27.6321 29.1611 21.5083 29.1611C15.3838 29.1611 10.4552 24.2148 10.4552 18.2349ZM34.4278 18.2349C34.4278 11.2215 28.6022 5.46309 21.5083 5.46309C14.4137 5.46309 8.58813 11.2215 8.58813 18.2349C8.58813 25.2483 14.4137 31.0067 21.5083 31.0067C28.6022 31.0067 34.4278 25.2483 34.4278 18.2349Z" fill="#2334DE"/>
<path d="M9.40947 34.6982C9.93215 34.6982 10.3803 34.2552 10.3803 33.7384C10.3803 33.2217 9.93215 32.7787 9.40947 32.7787H3.80832V30.9331C3.80832 30.4163 3.36021 29.9733 2.83752 29.9733C2.31484 29.9733 1.86597 30.4163 1.86597 30.9331V33.7384C1.86597 34.2552 2.31484 34.6982 2.83752 34.6982H9.40947Z" fill="#2334DE"/>
<path d="M41.1488 28.2753C40.6261 28.2753 40.178 28.7183 40.178 29.2351V33.8861H33.6068C33.0841 33.8861 32.6353 34.329 32.6353 34.8458C32.6353 35.3626 33.0841 35.8055 33.6068 35.8055H41.0743C41.5969 35.8055 42.0451 35.3626 42.0451 34.8458V29.1612C42.0451 28.6445 41.5969 28.2753 41.1488 28.2753Z" fill="#2334DE"/>
<path d="M1.9416 6.1278C1.9416 5.61102 2.38897 5.16807 2.91239 5.16807C3.43508 5.16807 3.88323 5.61102 3.88323 6.1278C3.88323 6.64458 3.43508 7.08753 2.91239 7.08753C2.38897 7.08753 1.9416 6.57075 1.9416 6.1278ZM5.6757 6.1278C5.6757 4.57746 4.4059 3.32243 2.83785 3.32243C1.26979 3.32243 0 4.57746 0 6.1278C0 7.67813 1.26979 8.93317 2.83785 8.93317C4.4059 8.93317 5.6757 7.60431 5.6757 6.1278Z" fill="#2334DE"/>
<path d="M39.7308 2.43643C40.4772 2.43643 41.149 3.02703 41.149 3.83911C41.149 4.65119 40.5517 5.2418 39.7308 5.2418C38.9084 5.2418 38.3119 4.65119 38.3119 3.83911C38.3119 3.02703 38.9084 2.43643 39.7308 2.43643ZM39.7308 7.01361C41.5226 7.01361 43.0168 5.5371 43.0168 3.76529C43.0168 1.99348 41.5226 0.516966 39.7308 0.516966C37.9383 0.516966 36.4441 1.99348 36.4441 3.76529C36.4441 5.5371 37.9383 7.01361 39.7308 7.01361Z" fill="#2334DE"/>
<path d="M41.1485 10.7051C41.6852 10.7051 42.1201 11.1348 42.1201 11.6648C42.1201 12.1949 41.6852 12.6246 41.1485 12.6246C40.6126 12.6246 40.1777 12.1949 40.1777 11.6648C40.1777 11.1348 40.6126 10.7051 41.1485 10.7051Z" fill="#2334DE"/>
<path d="M21.5084 22.6646C22.0437 22.6646 22.4785 23.0943 22.4785 23.6244C22.4785 24.1544 22.0437 24.5841 21.5084 24.5841C20.9717 24.5841 20.5369 24.1544 20.5369 23.6244C20.5369 23.0943 20.9717 22.6646 21.5084 22.6646Z" fill="#2334DE"/>
<path d="M1.9415 11.5908C2.47821 11.5908 2.9123 12.0205 2.9123 12.5505C2.9123 13.0806 2.47821 13.5103 1.9415 13.5103C1.40479 13.5103 0.970703 13.0806 0.970703 12.5505C0.970703 12.0205 1.40479 11.5908 1.9415 11.5908Z" fill="#2334DE"/>
<path d="M2.83752 27.3159C3.3735 27.3159 3.80832 27.7456 3.80832 28.2756C3.80832 28.8057 3.3735 29.2354 2.83752 29.2354C2.30081 29.2354 1.86597 28.8057 1.86597 28.2756C1.86597 27.7456 2.30081 27.3159 2.83752 27.3159Z" fill="#2334DE"/>
<path d="M41.1485 25.4699C41.6852 25.4699 42.1201 25.8995 42.1201 26.4296C42.1201 26.9597 41.6852 27.3893 41.1485 27.3893C40.6126 27.3893 40.1777 26.9597 40.1777 26.4296C40.1777 25.8995 40.6126 25.4699 41.1485 25.4699Z" fill="#2334DE"/>
<path d="M40.1778 38.3897C40.7146 38.3897 41.1486 38.8193 41.1486 39.3494C41.1486 39.8795 40.7146 40.3091 40.1778 40.3091C39.6419 40.3091 39.2078 39.8795 39.2078 39.3494C39.2078 38.8193 39.6419 38.3897 40.1778 38.3897Z" fill="#2334DE"/>
<path d="M3.80844 37.4299C4.34442 37.4299 4.77924 37.8596 4.77924 38.3896C4.77924 38.9197 4.34442 39.3494 3.80844 39.3494C3.27247 39.3494 2.83765 38.9197 2.83765 38.3896C2.83765 37.8596 3.27247 37.4299 3.80844 37.4299Z" fill="#2334DE"/>
</svg>
