<svg width="45" height="44" viewBox="0 0 45 44" fill="none" xmlns="http://www.w3.org/2000/svg">
<path d="M30.3651 40.7244C23.663 43.5955 15.9177 42.5648 10.1093 38.295C10.6305 37.1171 10.4067 35.7184 9.43938 34.7614C8.47131 33.8044 7.05565 33.5835 5.86452 34.0988C0.502246 26.958 0.427892 17.0933 5.86452 9.9524C7.05565 10.4677 8.47131 10.2469 9.43938 9.28984C10.6305 8.11197 10.7049 6.19793 9.58808 4.94643C9.21558 4.57835 8.62002 4.50473 8.24752 4.87281C7.87502 5.2409 7.80066 5.82984 8.17316 6.19793C8.62002 6.71325 8.62002 7.52303 8.09881 7.96474C7.5776 8.48006 6.83259 8.48006 6.31138 8.03835C5.93888 7.67027 5.26823 7.74389 4.97082 8.11197C-1.65694 16.1362 -1.65694 27.7678 4.97082 35.8656C5.26823 36.3074 5.93888 36.3074 6.31138 35.9393C6.83259 35.4976 7.65195 35.4976 8.09881 36.0129C8.62002 36.5282 8.62002 37.2644 8.17316 37.7797C7.80066 38.1478 7.87502 38.8103 8.24752 39.1048C14.6522 44.1844 23.4399 45.4359 31.0357 42.2703C31.4818 42.0495 31.7056 41.5342 31.5569 41.0925C31.3331 40.7244 30.8119 40.5035 30.3651 40.7244Z" fill="#2334DE"/>
<path d="M39.674 8.18519C39.3759 7.74349 38.7059 7.74349 38.3334 8.11157C37.8122 8.55328 36.9936 8.55328 36.546 8.03796C36.0248 7.52264 36.0248 6.78646 36.4717 6.27114C36.8442 5.90306 36.7698 5.2405 36.3973 4.94603C29.8439 -0.354404 20.535 -1.6059 12.641 2.2222C12.1942 2.44305 11.9711 2.95837 12.1942 3.47369C12.418 3.91539 12.9392 4.13625 13.4604 3.91539C20.3863 0.602619 28.5777 1.48603 34.6099 5.90306C34.0887 7.08093 34.3117 8.47966 35.2805 9.43668C36.2486 10.3937 37.6635 10.6146 38.8547 10.0992C44.2162 17.2401 44.2913 27.1048 38.8547 34.2457C37.6635 33.7304 36.2486 33.9512 35.2805 34.9082C34.0887 36.0861 34.0143 38.0002 35.1311 39.2516C35.5036 39.6197 36.0999 39.6933 36.4717 39.3253C36.8442 38.9572 36.9185 38.3682 36.546 38.0002C36.0999 37.4848 36.0999 36.675 36.6211 36.2333C37.1423 35.718 37.8873 35.718 38.4085 36.1597C38.7803 36.5278 39.4509 36.4542 39.7484 36.0861C46.3018 27.9146 46.3761 16.3567 39.674 8.18519Z" fill="#2334DE"/>
<path d="M41.9074 37.7061C42.4426 37.7061 42.8762 38.1345 42.8762 38.6631C42.8762 39.1917 42.4426 39.6201 41.9074 39.6201C41.3737 39.6201 40.9401 39.1917 40.9401 38.6631C40.9401 38.1345 41.3737 37.7061 41.9074 37.7061Z" fill="#2334DE"/>
<path d="M2.81145 6.41859C3.34591 6.41859 3.77952 6.84705 3.77952 7.37562C3.77952 7.90419 3.34591 8.33264 2.81145 8.33264C2.27625 8.33264 1.84265 7.90419 1.84265 7.37562C1.84265 6.84705 2.27625 6.41859 2.81145 6.41859Z" fill="#2334DE"/>
<path d="M5.5662 1.85432C6.10066 1.85432 6.53428 2.28278 6.53428 2.81135C6.53428 3.33992 6.10066 3.76837 5.5662 3.76837C5.03174 3.76837 4.59814 3.33992 4.59814 2.81135C4.59814 2.28278 5.03174 1.85432 5.5662 1.85432Z" fill="#2334DE"/>
<path d="M37.2159 40.5034C37.7511 40.5034 38.1847 40.9318 38.1847 41.4604C38.1847 41.989 37.7511 42.4174 37.2159 42.4174C36.6822 42.4174 36.2485 41.989 36.2485 41.4604C36.2485 40.9318 36.6822 40.5034 37.2159 40.5034Z" fill="#2334DE"/>
<path d="M4.67249 41.4604C4.15128 41.4604 3.70443 41.0187 3.70443 40.5034C3.70443 39.9881 4.15128 39.5464 4.67249 39.5464C5.1937 39.5464 5.64055 39.9881 5.64055 40.5034C5.5662 41.0187 5.11935 41.4604 4.67249 41.4604ZM4.67249 37.7795C3.10886 37.7795 1.84265 39.031 1.84265 40.577C1.84265 42.123 3.10886 43.3745 4.67249 43.3745C6.23686 43.3745 7.42798 42.0493 7.42798 40.5034C7.42798 38.9574 6.16177 37.7795 4.67249 37.7795Z" fill="#2334DE"/>
<path d="M40.4932 2.81144C40.7163 2.81144 40.9401 3.03229 40.9401 3.25315C40.9401 3.474 40.7163 3.69485 40.4932 3.69485C40.2694 3.69485 40.0464 3.474 40.0464 3.25315C40.0464 3.03229 40.1951 2.81144 40.4932 2.81144ZM40.4932 5.53528C41.7587 5.53528 42.8011 4.50464 42.8011 3.25315C42.8011 2.00165 41.7587 0.971013 40.4932 0.971013C39.227 0.971013 38.1846 2.00165 38.1846 3.25315C38.1846 4.50464 39.227 5.53528 40.4932 5.53528Z" fill="#2334DE"/>
<path d="M32.1525 32.847L28.9502 30.8594C28.6527 30.6385 28.2802 30.6385 27.9821 30.8594C26.9389 31.5219 25.8229 31.9636 24.7054 32.1845C24.3329 32.2581 24.1098 32.5526 24.0355 32.847L23.2161 36.5279H21.7268L20.9075 32.847C20.8331 32.479 20.535 32.2581 20.2368 32.1845C19.0457 31.9636 17.9289 31.4483 16.9609 30.8594C16.6627 30.6385 16.2902 30.6385 15.9921 30.8594L12.7904 32.847L11.7473 31.8164L13.7585 28.6509C13.9816 28.3564 13.9816 27.9883 13.7585 27.6938C13.0879 26.6632 12.641 25.5589 12.4179 24.4547C12.3436 24.0866 12.0454 23.8658 11.7473 23.7921L8.02447 22.9823V21.51L11.7473 20.7002C12.1198 20.6266 12.3436 20.3321 12.4179 20.0377C12.641 18.8598 13.1629 17.7555 13.7585 16.7985C13.9816 16.504 13.9816 16.1359 13.7585 15.8415L11.7473 12.6759L12.7904 11.6453L15.9921 13.633C16.2902 13.8538 16.6627 13.8538 16.9609 13.633C18.0033 12.9704 19.0457 12.5287 20.2368 12.3079C20.6093 12.2342 20.8331 11.9398 20.9075 11.6453L21.7268 7.96444H23.2161L24.0355 11.6453C24.1098 12.0134 24.408 12.2342 24.7054 12.3079C25.8965 12.6023 27.014 13.044 27.9821 13.633C28.2802 13.8538 28.6527 13.8538 28.9502 13.633L32.1525 11.6453L33.1957 12.6759L31.1844 15.8415C30.9606 16.1359 30.9606 16.504 31.1844 16.7985C31.8543 17.8291 32.3019 18.9334 32.5243 20.0377C32.5994 20.4057 32.8968 20.6266 33.1957 20.7002L36.9185 21.51V22.9823L33.1957 23.7921C32.8231 23.8658 32.5994 24.1602 32.5243 24.4547C32.3019 25.6326 31.7807 26.7368 31.1844 27.6938C30.9606 27.9883 30.9606 28.3564 31.1844 28.6509L33.1957 31.8164L32.1525 32.847ZM35.1311 31.4483L32.9719 28.1355C33.4931 27.2521 33.8656 26.2951 34.163 25.3381L38.036 24.4547C38.4821 24.3811 38.7803 24.013 38.7803 23.5713V20.6266C38.7803 20.1849 38.4821 19.8168 38.036 19.7432L34.163 18.8598C33.8656 17.9028 33.4931 16.9457 32.9719 16.0623L35.1311 12.7496C35.3548 12.3815 35.2805 11.9398 34.9823 11.5717L32.8968 9.5104C32.5993 9.21593 32.0781 9.14231 31.7056 9.36316L28.3546 11.4981C27.4609 10.9827 26.5672 10.6147 25.5247 10.3202L24.631 6.4921C24.5567 6.05039 24.1842 5.75592 23.7373 5.75592H20.758C20.3119 5.75592 19.9394 6.05039 19.8651 6.4921L18.9713 10.3202C18.0033 10.6147 17.0352 10.9827 16.1415 11.4981L12.7904 9.36316C12.4179 9.14231 11.9711 9.21593 11.5986 9.5104L9.51374 11.5717C9.21559 11.8661 9.14124 12.3815 9.3643 12.7496L11.5242 16.0623C11.003 16.9457 10.6305 17.9028 10.3324 18.8598L6.4601 19.7432C6.01325 19.8168 5.71509 20.1849 5.71509 20.6266V23.5713C5.71509 24.013 6.01325 24.3811 6.4601 24.4547L10.3324 25.3381C10.6305 26.2951 11.003 27.2521 11.5242 28.1355L9.3643 31.4483C9.14124 31.8164 9.21559 32.2581 9.51374 32.6262L11.5986 34.6875C11.8967 34.9819 12.4179 35.0556 12.7904 34.8347L16.1415 32.6998C17.0352 33.2151 18.0033 33.5832 18.9713 33.8777L19.8651 37.7058C19.9394 38.1475 20.3119 38.442 20.758 38.442H23.7373C24.1842 38.442 24.5567 38.1475 24.631 37.7058L25.5247 33.8777C26.4928 33.5832 27.4609 33.2151 28.3546 32.6998L31.7056 34.8347C32.0781 35.0556 32.5243 34.9819 32.8968 34.6875L34.9823 32.6262C35.3548 32.2581 35.3548 31.8164 35.1311 31.4483Z" fill="#2334DE"/>
<path d="M27.3865 24.8964H23.7373C23.5143 24.8964 23.2905 24.6756 23.2905 24.4547C23.2905 24.2339 23.5143 24.013 23.7373 24.013H27.8326C27.6839 24.2339 27.5352 24.6019 27.3865 24.8964ZM16.5133 22.099H19.9394C21.2049 22.099 22.248 21.0683 22.248 19.8168C22.248 18.5653 21.2049 17.5347 19.9394 17.5347H18.8226C19.7907 16.8721 20.9818 16.4304 22.248 16.4304C25.4504 16.4304 27.9821 19.007 27.9821 22.1726H23.5886C22.3224 22.1726 21.28 23.2032 21.28 24.4547C21.28 25.7062 22.3224 26.7368 23.5886 26.7368H25.5991C24.631 27.3994 23.4399 27.8411 22.1737 27.8411C19.1944 27.8411 16.5133 25.2645 16.5133 22.099ZM17.2583 19.3751H20.0137C20.2368 19.3751 20.4606 19.596 20.4606 19.8168C20.4606 20.0377 20.2368 20.2585 20.0137 20.2585H16.8858C16.9608 19.9641 17.1096 19.596 17.2583 19.3751ZM22.3224 14.5164C18.0776 14.5164 14.6522 17.9028 14.6522 22.099C14.6522 26.2215 18.0776 29.6079 22.3224 29.6079C26.4928 29.6079 29.9182 26.2215 29.9182 22.099C29.9926 17.9028 26.5672 14.5164 22.3224 14.5164Z" fill="#2334DE"/>
</svg>
