<svg width="47" height="44" viewBox="0 0 47 44" fill="none" xmlns="http://www.w3.org/2000/svg">
<path d="M34.8818 12.9504V11.5461L36.1448 12.2483L34.8818 12.9504ZM38.5914 11.3901L34.4083 8.97166C33.6976 8.6596 32.9088 9.12769 32.9088 9.82981V14.5887C32.9088 15.3688 33.6976 15.8369 34.4083 15.4468L38.5914 13.0284C39.2217 12.7163 39.2217 11.7802 38.5914 11.3901Z" fill="#2334DE"/>
<path d="M44.3518 17.0852C44.3518 17.9433 43.6411 18.5675 42.8524 18.5675H29.1203C28.2528 18.5675 27.6209 17.8653 27.6209 17.0852C27.6209 15.837 27.6209 8.89371 27.6209 7.41144C27.6209 6.55329 28.3316 5.92917 29.1203 5.92917H42.8524C43.7207 5.92917 44.3518 6.6313 44.3518 7.41144V17.0852ZM23.675 14.6668V9.75187H25.6487V14.6668H23.675ZM21.702 39.5533C21.702 40.8795 20.5973 41.9717 19.2555 41.9717H18.7031V27.3831C18.7031 26.837 18.2296 26.3689 17.6772 26.3689C17.1249 26.3689 16.6514 26.837 16.6514 27.3831V41.9717H12.7054V38.071C12.7054 37.5249 12.2319 37.0568 11.6795 37.0568C11.1272 37.0568 10.8112 37.5249 10.8112 38.071V41.9717H6.86604V27.3831C6.86604 26.837 6.3917 26.3689 5.83936 26.3689C5.28702 26.3689 4.81429 26.837 4.81429 27.3831V41.9717H4.33995C2.99811 41.9717 1.8934 40.8795 1.8934 39.5533V5.38308C1.8934 4.05684 2.99811 2.96464 4.33995 2.96464H19.1775C20.5185 2.96464 21.624 4.05684 21.624 5.38308C21.702 6.39726 21.702 37.7589 21.702 39.5533ZM42.8524 3.97882H29.1203C27.2261 3.97882 25.6487 5.5391 25.6487 7.41144V7.87953H23.675V5.46109C23.675 3.04265 21.702 1.0923 19.2555 1.0923H4.41953C1.97301 1.0923 0 3.04265 0 5.46109V39.6313C0 42.0497 1.97301 44.0001 4.41953 44.0001H19.2555C21.702 44.0001 23.675 42.0497 23.675 39.6313V16.6171H25.6487V17.0852C25.6487 18.9575 27.2261 20.5178 29.1203 20.5178H42.8524C44.7466 20.5178 46.3248 18.9575 46.3248 17.0852V7.41144C46.3248 5.46109 44.7466 3.97882 42.8524 3.97882Z" fill="#2334DE"/>
<path d="M11.8382 20.5179C8.04984 20.5179 4.89263 17.4753 4.89263 13.6526C4.89263 9.82994 7.97105 6.78739 11.8382 6.78739C15.7054 6.78739 18.783 9.82994 18.783 13.6526C18.783 17.4753 15.6258 20.5179 11.8382 20.5179ZM11.8382 4.91505C6.94516 4.91505 2.92041 8.81576 2.92041 13.7306C2.92041 18.2555 6.39203 22.0001 10.8115 22.4682V32.298C10.8115 32.8441 11.2859 33.3122 11.8382 33.3122C12.3905 33.3122 12.8641 32.8441 12.8641 32.298V22.3902C17.2828 21.9221 20.7552 18.1775 20.7552 13.6526C20.6772 8.81576 16.7305 4.91505 11.8382 4.91505Z" fill="#2334DE"/>
<path d="M11.8383 16.6173C10.1813 16.6173 8.83944 15.2911 8.83944 13.6528C8.83944 12.0145 10.1813 10.6883 11.8383 10.6883C13.4953 10.6883 14.8364 12.0145 14.8364 13.6528C14.8364 15.2911 13.4165 16.6173 11.8383 16.6173ZM11.8383 8.81591C9.15461 8.81591 6.86646 11.0003 6.86646 13.7308C6.86646 16.4613 9.07581 18.6457 11.8383 18.6457C14.6008 18.6457 16.8101 16.4613 16.8101 13.7308C16.8101 11.0003 14.5212 8.81591 11.8383 8.81591Z" fill="#2334DE"/>
<path d="M38.4332 40.0213C37.8808 40.0213 37.4073 39.5532 37.4073 39.0071C37.4073 38.461 37.8808 37.9929 38.4332 37.9929C38.9855 37.9929 39.4591 38.461 39.4591 39.0071C39.4591 39.5532 38.9855 40.0213 38.4332 40.0213ZM38.4332 36.1206C36.7754 36.1206 35.4343 37.4468 35.4343 39.0851C35.4343 40.7234 36.7754 41.9716 38.4332 41.9716C40.0902 41.9716 41.432 40.6454 41.432 39.0071C41.432 37.3688 40.0902 36.1206 38.4332 36.1206Z" fill="#2334DE"/>
<path d="M30.0677 31.2835C29.279 31.2835 28.5683 30.6594 28.5683 29.8013C28.5683 28.9431 29.1994 28.319 30.0677 28.319C30.936 28.319 31.5679 28.9431 31.5679 29.8013C31.5679 30.6594 30.8564 31.2835 30.0677 31.2835ZM30.0677 26.3686C28.1735 26.3686 26.5961 27.9289 26.5961 29.8013C26.5961 31.6736 28.1735 33.2339 30.0677 33.2339C31.9611 33.2339 33.5401 31.6736 33.5401 29.8013C33.5401 27.9289 31.9611 26.3686 30.0677 26.3686Z" fill="#2334DE"/>
<path d="M37.487 24.4188C38.0394 24.4188 38.5122 23.9507 38.5122 23.4046C38.5122 22.8585 37.9598 22.4684 37.487 22.4684H29.5944C29.042 22.4684 28.5685 22.9365 28.5685 23.4826C28.5685 24.0287 29.042 24.4968 29.5944 24.4968H37.487V24.4188Z" fill="#2334DE"/>
<path d="M45.3777 25.4328H35.5129C34.9605 25.4328 34.4869 25.9008 34.4869 26.4469C34.4869 26.993 34.9605 27.4611 35.5129 27.4611H45.3777C45.9301 27.4611 46.4036 26.993 46.4036 26.4469C46.4036 25.9008 45.8513 25.4328 45.3777 25.4328Z" fill="#2334DE"/>
<path d="M39.4589 30.2696C40.0252 30.2696 40.4848 30.7236 40.4848 31.2838C40.4848 31.8439 40.0252 32.298 39.4589 32.298C38.8925 32.298 38.433 31.8439 38.433 31.2838C38.433 30.7236 38.8925 30.2696 39.4589 30.2696Z" fill="#2334DE"/>
<path d="M11.838 34.1705C12.4043 34.1705 12.8638 34.6245 12.8638 35.1847C12.8638 35.7448 12.4043 36.1989 11.838 36.1989C11.2708 36.1989 10.8113 35.7448 10.8113 35.1847C10.8113 34.6245 11.2708 34.1705 11.838 34.1705Z" fill="#2334DE"/>
<path d="M30.5411 36.1207C31.1083 36.1207 31.5678 36.5747 31.5678 37.1349C31.5678 37.695 31.1083 38.149 30.5411 38.149C29.9748 38.149 29.5153 37.695 29.5153 37.1349C29.5153 36.5747 29.9748 36.1207 30.5411 36.1207Z" fill="#2334DE"/>
<path d="M26.5959 40.9575C27.1615 40.9575 27.621 41.4115 27.621 41.9717C27.621 42.5318 27.1615 42.9858 26.5959 42.9858C26.0287 42.9858 25.5692 42.5318 25.5692 41.9717C25.5692 41.4115 26.0287 40.9575 26.5959 40.9575Z" fill="#2334DE"/>
<path d="M26.5959 22.4684C27.1615 22.4684 27.621 22.9224 27.621 23.4826C27.621 24.0427 27.1615 24.4968 26.5959 24.4968C26.0287 24.4968 25.5692 24.0427 25.5692 23.4826C25.5692 22.9224 26.0287 22.4684 26.5959 22.4684Z" fill="#2334DE"/>
<path d="M28.5682 7.55787e-05C29.1345 7.55787e-05 29.594 0.454118 29.594 1.01426C29.594 1.5744 29.1345 2.02844 28.5682 2.02844C28.0018 2.02844 27.5422 1.5744 27.5422 1.01426C27.5422 0.454118 28.0018 7.55787e-05 28.5682 7.55787e-05Z" fill="#2334DE"/>
<path d="M39.4589 1.0143C40.0252 1.0143 40.4848 1.46834 40.4848 2.02848C40.4848 2.58862 40.0252 3.04266 39.4589 3.04266C38.8925 3.04266 38.433 2.58862 38.433 2.02848C38.433 1.46834 38.8925 1.0143 39.4589 1.0143Z" fill="#2334DE"/>
</svg>
