<svg width="1170" height="337" viewBox="0 0 1170 337" fill="none" xmlns="http://www.w3.org/2000/svg">
<path d="M121.707 186.77L62.2274 145.5H-165.021" stroke="white" stroke-opacity="0.1" stroke-width="3.33333" stroke-miterlimit="10"/>
<path d="M227.313 157.211V78.7762L256.556 58.4848" stroke="white" stroke-opacity="0.1" stroke-width="3.33333" stroke-miterlimit="10"/>
<path d="M264.698 58.4857C264.698 61.6062 261.053 64.1367 256.556 64.1367C252.058 64.1367 248.411 61.6062 248.411 58.4857C248.411 55.3651 252.058 52.8363 256.556 52.8363C261.053 52.8363 264.698 55.3651 264.698 58.4857Z" fill="white" fill-opacity="0.1"/>
<path d="M197.799 164.301V38.2496L227.043 17.9598" stroke="white" stroke-opacity="0.1" stroke-width="3.33333" stroke-miterlimit="10"/>
<path d="M235.183 17.9601C235.183 21.0789 231.538 23.6094 227.043 23.6094C222.546 23.6094 218.899 21.0789 218.899 17.9601C218.899 14.8395 222.546 12.309 227.043 12.309C231.538 12.309 235.183 14.8395 235.183 17.9601Z" fill="white" fill-opacity="0.1"/>
<path d="M162.748 163.449L162.275 115.414" stroke="white" stroke-opacity="0.1" stroke-width="3.33333" stroke-miterlimit="10"/>
<path d="M261.578 180.545L261.102 95.097" stroke="white" stroke-opacity="0.1" stroke-width="3.33333" stroke-miterlimit="10"/>
<path d="M-128.603 178.737H55.397L86.0338 202.354" stroke="white" stroke-opacity="0.1" stroke-width="3.33333" stroke-miterlimit="10"/>
<path d="M56.7476 -22.2928V112.746" stroke="white" stroke-opacity="0.1" stroke-width="3.33333" stroke-miterlimit="10"/>
<path d="M304.979 -22.2783V73.3613" stroke="white" stroke-opacity="0.1" stroke-width="3.33333" stroke-miterlimit="10"/>
<path d="M313.122 73.3624C313.122 76.4813 309.477 79.0117 304.98 79.0117C300.485 79.0117 296.837 76.4813 296.837 73.3624C296.837 70.2418 300.485 67.713 304.98 67.713C309.477 67.713 313.122 70.2418 313.122 73.3624Z" fill="white" fill-opacity="0.1"/>
<path d="M69.6057 238.018H-39.2334" stroke="white" stroke-opacity="0.1" stroke-width="3.33333" stroke-miterlimit="10"/>
<path d="M93.7915 -22.2935V53.2246" stroke="white" stroke-opacity="0.1" stroke-width="3.33333" stroke-miterlimit="10"/>
<path d="M101.934 53.2239C101.934 56.3445 98.2889 58.875 93.7914 58.875C89.294 58.875 85.647 56.3445 85.647 53.2239C85.647 50.1034 89.294 47.5745 93.7914 47.5745C98.2889 47.5745 101.934 50.1034 101.934 53.2239Z" fill="white" fill-opacity="0.1"/>
<path d="M342.954 -22.2469V97.4883" stroke="white" stroke-opacity="0.1" stroke-width="3.33333" stroke-miterlimit="10"/>
<path d="M379.718 -22.2483V53.2715" stroke="white" stroke-opacity="0.1" stroke-width="3.33333" stroke-miterlimit="10"/>
<path d="M387.86 52.8526C387.86 55.9732 384.216 58.502 379.718 58.502C375.221 58.502 371.574 55.9732 371.574 52.8526C371.574 49.732 375.221 47.2032 379.718 47.2032C384.216 47.2032 387.86 49.732 387.86 52.8526Z" fill="white" fill-opacity="0.1"/>
<path d="M989.15 186.066L1048.63 144.796H1275.89" stroke="white" stroke-opacity="0.1" stroke-width="3.33333" stroke-miterlimit="10"/>
<path d="M883.562 156.506V78.0711L854.298 57.7814" stroke="white" stroke-opacity="0.1" stroke-width="3.33333" stroke-miterlimit="10"/>
<path d="M846.161 57.7822C846.161 60.9011 849.813 63.4316 854.298 63.4316C858.808 63.4316 862.46 60.9011 862.46 57.7822C862.46 54.6617 858.808 52.1312 854.298 52.1312C849.813 52.1312 846.161 54.6617 846.161 57.7822Z" fill="white" fill-opacity="0.1"/>
<path d="M913.073 163.598V37.5447L883.833 17.2549" stroke="white" stroke-opacity="0.1" stroke-width="3.33333" stroke-miterlimit="10"/>
<path d="M875.67 17.2549C875.67 20.3755 879.322 22.9043 883.832 22.9043C888.317 22.9043 891.969 20.3755 891.969 17.2549C891.969 14.1343 888.317 11.6056 883.832 11.6056C879.322 11.6056 875.67 14.1343 875.67 17.2549Z" fill="white" fill-opacity="0.1"/>
<path d="M948.12 162.746L948.586 114.709" stroke="white" stroke-opacity="0.1" stroke-width="3.33333" stroke-miterlimit="10"/>
<path d="M841.873 146.732L842.339 78.2904" stroke="white" stroke-opacity="0.1" stroke-width="3.33333" stroke-miterlimit="10"/>
<path d="M1239.46 178.034H1055.47L1024.83 201.65" stroke="white" stroke-opacity="0.1" stroke-width="3.33333" stroke-miterlimit="10"/>
<path d="M1063.93 -22.9999V112.039" stroke="white" stroke-opacity="0.1" stroke-width="3.33333" stroke-miterlimit="10"/>
<path d="M1041.26 237.312H1150.1" stroke="white" stroke-opacity="0.1" stroke-width="3.33333" stroke-miterlimit="10"/>
<path d="M1026.87 -23.0006V52.5176" stroke="white" stroke-opacity="0.1" stroke-width="3.33333" stroke-miterlimit="10"/>
<path d="M1018.73 52.5189C1018.73 55.6411 1022.38 58.1699 1026.87 58.1699C1031.38 58.1699 1035.01 55.6411 1035.01 52.5189C1035.01 49.4 1031.38 46.8695 1026.87 46.8695C1022.38 46.8695 1018.73 49.4 1018.73 52.5189Z" fill="white" fill-opacity="0.1"/>
<path d="M720.01 -22.2316V97.502" stroke="white" stroke-opacity="0.1" stroke-width="3.33333" stroke-miterlimit="10"/>
<path d="M756.776 -22.2311V53.2871" stroke="white" stroke-opacity="0.1" stroke-width="3.33333" stroke-miterlimit="10"/>
<path d="M764.912 52.8683C764.912 55.9888 761.26 58.5176 756.775 58.5176C752.265 58.5176 748.638 55.9888 748.638 52.8683C748.638 49.7477 752.265 47.2172 756.775 47.2172C761.26 47.2172 764.912 49.7477 764.912 52.8683Z" fill="white" fill-opacity="0.1"/>
<path d="M682.032 -22.2626V73.377" stroke="white" stroke-opacity="0.1" stroke-width="3.33333" stroke-miterlimit="10"/>
<path d="M690.177 73.3763C690.177 76.4969 686.53 79.0273 682.032 79.0273C677.535 79.0273 673.89 76.4969 673.89 73.3763C673.89 70.2557 677.535 67.7269 682.032 67.7269C686.53 67.7269 690.177 70.2557 690.177 73.3763Z" fill="white" fill-opacity="0.1"/>
</svg>
