<svg width="1440" height="753" viewBox="0 0 1440 753" fill="none" xmlns="http://www.w3.org/2000/svg">
<path d="M141.243 622.397V725.124" stroke="white" stroke-opacity="0.1" stroke-width="3.33333" stroke-miterlimit="10"/>
<path d="M170.655 622.397V786.346" stroke="white" stroke-opacity="0.1" stroke-width="3.33333" stroke-miterlimit="10"/>
<path d="M149.387 725.124C149.387 728.244 145.742 730.773 141.245 730.773C136.747 730.773 133.103 728.244 133.103 725.124C133.103 722.003 136.747 719.475 141.245 719.475C145.742 719.475 149.387 722.003 149.387 725.124Z" fill="white" fill-opacity="0.1"/>
<path d="M121.707 209.769L62.2274 168.499H-165.021" stroke="white" stroke-opacity="0.1" stroke-width="3.33333" stroke-miterlimit="10"/>
<path d="M227.313 180.211V101.776L256.556 81.4846" stroke="white" stroke-opacity="0.1" stroke-width="3.33333" stroke-miterlimit="10"/>
<path d="M264.698 81.4847C264.698 84.6053 261.053 87.1357 256.556 87.1357C252.058 87.1357 248.411 84.6053 248.411 81.4847C248.411 78.3641 252.058 75.8354 256.556 75.8354C261.053 75.8354 264.698 78.3641 264.698 81.4847Z" fill="white" fill-opacity="0.1"/>
<path d="M197.799 187.301V61.2496L227.043 40.9598" stroke="white" stroke-opacity="0.1" stroke-width="3.33333" stroke-miterlimit="10"/>
<path d="M235.183 40.9601C235.183 44.0789 231.539 46.6094 227.044 46.6094C222.546 46.6094 218.899 44.0789 218.899 40.9601C218.899 37.8395 222.546 35.309 227.044 35.309C231.539 35.309 235.183 37.8395 235.183 40.9601Z" fill="white" fill-opacity="0.1"/>
<path d="M162.748 186.448L162.275 138.413" stroke="white" stroke-opacity="0.1" stroke-width="3.33333" stroke-miterlimit="10"/>
<path d="M201.417 690.146V629.813" stroke="white" stroke-opacity="0.1" stroke-width="3.33333" stroke-miterlimit="10"/>
<path d="M233.706 736.344V616.491" stroke="white" stroke-opacity="0.1" stroke-width="3.33333" stroke-miterlimit="10"/>
<path d="M241.85 736.345C241.85 739.465 238.203 741.994 233.706 741.994C229.213 741.994 225.563 739.465 225.563 736.345C225.563 733.224 229.213 730.694 233.706 730.694C238.203 730.694 241.85 733.224 241.85 736.345Z" fill="white" fill-opacity="0.1"/>
<path d="M89.5028 527.393L30.0209 486.123H-197.228" stroke="white" stroke-opacity="0.1" stroke-width="3.33333" stroke-miterlimit="10"/>
<path d="M79.6982 552.902L20.2163 511.632H-133.504L-162.634 531.846" stroke="white" stroke-opacity="0.1" stroke-width="3.33333" stroke-miterlimit="10"/>
<path d="M261.578 203.544L261.102 118.096" stroke="white" stroke-opacity="0.1" stroke-width="3.33333" stroke-miterlimit="10"/>
<path d="M-128.603 201.737H55.397L86.0338 225.354" stroke="white" stroke-opacity="0.1" stroke-width="3.33333" stroke-miterlimit="10"/>
<path d="M56.7476 0.705294V135.744" stroke="white" stroke-opacity="0.1" stroke-width="3.33333" stroke-miterlimit="10"/>
<path d="M304.978 0.720766V96.3604" stroke="white" stroke-opacity="0.1" stroke-width="3.33333" stroke-miterlimit="10"/>
<path d="M313.122 96.3604C313.122 99.4793 309.477 102.01 304.98 102.01C300.485 102.01 296.837 99.4793 296.837 96.3604C296.837 93.2399 300.485 90.711 304.98 90.711C309.477 90.711 313.122 93.2399 313.122 96.3604Z" fill="white" fill-opacity="0.1"/>
<path d="M69.6057 261.017H-39.2334" stroke="white" stroke-opacity="0.1" stroke-width="3.33333" stroke-miterlimit="10"/>
<path d="M93.7916 0.705254V76.2234" stroke="white" stroke-opacity="0.1" stroke-width="3.33333" stroke-miterlimit="10"/>
<path d="M101.934 76.2239C101.934 79.3445 98.2889 81.875 93.7914 81.875C89.294 81.875 85.647 79.3445 85.647 76.2239C85.647 73.1034 89.294 70.5745 93.7914 70.5745C98.2889 70.5745 101.934 73.1034 101.934 76.2239Z" fill="white" fill-opacity="0.1"/>
<path d="M342.954 0.751155V120.486" stroke="white" stroke-opacity="0.1" stroke-width="3.33333" stroke-miterlimit="10"/>
<path d="M379.718 0.750713V76.2705" stroke="white" stroke-opacity="0.1" stroke-width="3.33333" stroke-miterlimit="10"/>
<path d="M387.86 75.8517C387.86 78.9722 384.216 81.501 379.718 81.501C375.221 81.501 371.574 78.9722 371.574 75.8517C371.574 72.7311 375.221 70.2023 379.718 70.2023C384.216 70.2023 387.86 72.7311 387.86 75.8517Z" fill="white" fill-opacity="0.1"/>
<path d="M332.385 849.136V714.097" stroke="white" stroke-opacity="0.1" stroke-width="3.33333" stroke-miterlimit="10"/>
<path d="M989.15 209.065L1048.63 167.795H1275.89" stroke="white" stroke-opacity="0.1" stroke-width="3.33333" stroke-miterlimit="10"/>
<path d="M1315.12 407.653H1478.65" stroke="white" stroke-opacity="0.1" stroke-width="3.33333" stroke-miterlimit="10"/>
<path d="M1313.95 352.934H1477.48" stroke="white" stroke-opacity="0.1" stroke-width="3.33333" stroke-miterlimit="10"/>
<path d="M1313.95 347.284C1309.44 347.284 1305.81 349.814 1305.81 352.935C1305.81 356.055 1309.44 358.584 1313.95 358.584C1318.43 358.584 1322.09 356.055 1322.09 352.935C1322.09 349.814 1318.43 347.284 1313.95 347.284Z" fill="white" fill-opacity="0.1"/>
<path d="M1251.4 382.144H1478.65" stroke="white" stroke-opacity="0.1" stroke-width="3.33333" stroke-miterlimit="10"/>
<path d="M1003.93 621.692V724.422" stroke="white" stroke-opacity="0.1" stroke-width="3.33333" stroke-miterlimit="10"/>
<path d="M974.519 621.692V785.643" stroke="white" stroke-opacity="0.1" stroke-width="3.33333" stroke-miterlimit="10"/>
<path d="M1212.16 850.265V686.314" stroke="white" stroke-opacity="0.1" stroke-width="3.33333" stroke-miterlimit="10"/>
<path d="M1220.3 686.314C1220.3 683.193 1216.65 680.663 1212.16 680.663C1207.65 680.663 1204.02 683.193 1204.02 686.314C1204.02 689.435 1207.65 691.963 1212.16 691.963C1216.65 691.963 1220.3 689.435 1220.3 686.314Z" fill="white" fill-opacity="0.1"/>
<path d="M1248.92 850.265V715.224" stroke="white" stroke-opacity="0.1" stroke-width="3.33333" stroke-miterlimit="10"/>
<path d="M1395.32 850.265V715.224" stroke="white" stroke-opacity="0.1" stroke-width="3.33333" stroke-miterlimit="10"/>
<path d="M1174.2 850.296V724.045" stroke="white" stroke-opacity="0.1" stroke-width="3.33333" stroke-miterlimit="10"/>
<path d="M1182.33 724.045C1182.33 720.924 1178.68 718.396 1174.2 718.396C1169.69 718.396 1166.03 720.924 1166.03 724.045C1166.03 727.165 1169.69 729.694 1174.2 729.694C1178.68 729.694 1182.33 727.165 1182.33 724.045Z" fill="white" fill-opacity="0.1"/>
<path d="M995.791 724.422C995.791 727.541 999.443 730.069 1003.93 730.069C1008.44 730.069 1012.07 727.541 1012.07 724.422C1012.07 721.301 1008.44 718.772 1003.93 718.772C999.443 718.772 995.791 721.301 995.791 724.422Z" fill="white" fill-opacity="0.1"/>
<path d="M1267.75 167.796C1267.75 170.915 1271.37 173.445 1275.88 173.445C1280.37 173.445 1284.02 170.915 1284.02 167.796C1284.02 164.675 1280.37 162.147 1275.88 162.147C1271.37 162.147 1267.75 164.675 1267.75 167.796Z" fill="white" fill-opacity="0.1"/>
<path d="M883.562 179.506V101.071L854.298 80.7814" stroke="white" stroke-opacity="0.1" stroke-width="3.33333" stroke-miterlimit="10"/>
<path d="M846.161 80.7813C846.161 83.9001 849.813 86.4307 854.299 86.4307C858.808 86.4307 862.46 83.9001 862.46 80.7813C862.46 77.6607 858.808 75.1302 854.299 75.1302C849.813 75.1302 846.161 77.6607 846.161 80.7813Z" fill="white" fill-opacity="0.1"/>
<path d="M913.073 186.597V60.5437L883.833 40.2539" stroke="white" stroke-opacity="0.1" stroke-width="3.33333" stroke-miterlimit="10"/>
<path d="M875.67 40.2539C875.67 43.3745 879.322 45.9033 883.832 45.9033C888.317 45.9033 891.969 43.3745 891.969 40.2539C891.969 37.1333 888.317 34.6046 883.832 34.6046C879.322 34.6046 875.67 37.1333 875.67 40.2539Z" fill="white" fill-opacity="0.1"/>
<path d="M948.12 185.745L948.586 137.708" stroke="white" stroke-opacity="0.1" stroke-width="3.33333" stroke-miterlimit="10"/>
<path d="M1190.89 614.153C1190.89 617.274 1194.54 619.803 1199.05 619.803C1203.53 619.803 1207.18 617.274 1207.18 614.153C1207.18 611.033 1203.53 608.504 1199.05 608.504C1194.54 608.504 1190.89 611.033 1190.89 614.153Z" fill="white" fill-opacity="0.1"/>
<path d="M1199.05 614.153H1478.65" stroke="white" stroke-opacity="0.1" stroke-width="3.33333" stroke-miterlimit="10"/>
<path d="M1284.02 637.961H1478.65" stroke="white" stroke-opacity="0.1" stroke-width="3.33333" stroke-miterlimit="10"/>
<path d="M943.758 689.442V629.11" stroke="white" stroke-opacity="0.1" stroke-width="3.33333" stroke-miterlimit="10"/>
<path d="M911.479 735.639V615.784" stroke="white" stroke-opacity="0.1" stroke-width="3.33333" stroke-miterlimit="10"/>
<path d="M903.318 735.64C903.318 738.76 906.97 741.289 911.479 741.289C915.965 741.289 919.617 738.76 919.617 735.64C919.617 732.519 915.965 729.988 911.479 729.988C906.97 729.988 903.318 732.519 903.318 735.64Z" fill="white" fill-opacity="0.1"/>
<path d="M1023.81 526.686L1083.29 485.416H1310.54" stroke="white" stroke-opacity="0.1" stroke-width="3.33333" stroke-miterlimit="10"/>
<path d="M1326.82 485.416C1326.82 482.295 1323.19 479.766 1318.68 479.766C1314.19 479.766 1310.54 482.295 1310.54 485.416C1310.54 488.536 1314.19 491.065 1318.68 491.065C1323.19 491.065 1326.82 488.536 1326.82 485.416Z" fill="white" fill-opacity="0.1"/>
<path d="M1033.61 552.194L1093.09 510.924H1246.82L1275.96 531.138" stroke="white" stroke-opacity="0.1" stroke-width="3.33333" stroke-miterlimit="10"/>
<path d="M1285.96 531.561C1285.96 528.44 1282.31 525.91 1277.8 525.91C1273.31 525.91 1269.66 528.44 1269.66 531.561C1269.66 534.681 1273.31 537.21 1277.8 537.21C1282.31 537.21 1285.96 534.681 1285.96 531.561Z" fill="white" fill-opacity="0.1"/>
<path d="M1190.84 286.766C1190.84 289.887 1194.47 292.417 1198.98 292.417C1203.46 292.417 1207.11 289.887 1207.11 286.766C1207.11 283.645 1203.46 281.117 1198.98 281.117C1194.47 281.117 1190.84 283.645 1190.84 286.766Z" fill="white" fill-opacity="0.1"/>
<path d="M1198.97 286.768H1478.58" stroke="white" stroke-opacity="0.1" stroke-width="3.33333" stroke-miterlimit="10"/>
<path d="M1284.02 311.559H1478.65" stroke="white" stroke-opacity="0.1" stroke-width="3.33333" stroke-miterlimit="10"/>
<path d="M841.873 169.731L842.339 101.289" stroke="white" stroke-opacity="0.1" stroke-width="3.33333" stroke-miterlimit="10"/>
<path d="M1478.65 591.749H1369.81" stroke="white" stroke-opacity="0.1" stroke-width="3.33333" stroke-miterlimit="10"/>
<path d="M1369.81 597.397C1365.32 597.397 1361.67 594.869 1361.67 591.748C1361.67 588.628 1365.32 586.099 1369.81 586.099C1374.32 586.099 1377.94 588.628 1377.94 591.748C1377.94 594.869 1374.32 597.397 1369.81 597.397Z" fill="white" fill-opacity="0.1"/>
<path d="M1239.46 201.033H1055.47L1024.83 224.649" stroke="white" stroke-opacity="0.1" stroke-width="3.33333" stroke-miterlimit="10"/>
<path d="M1239.46 206.682C1243.95 206.682 1247.6 204.154 1247.6 201.033C1247.6 197.912 1243.95 195.384 1239.46 195.384C1234.98 195.384 1231.33 197.912 1231.33 201.033C1231.33 204.154 1234.98 206.682 1239.46 206.682Z" fill="white" fill-opacity="0.1"/>
<path d="M1477.48 434.644H1390.52" stroke="white" stroke-opacity="0.1" stroke-width="3.33333" stroke-miterlimit="10"/>
<path d="M1390.52 428.996C1386.03 428.996 1382.38 431.525 1382.38 434.646C1382.38 437.766 1386.03 440.297 1390.52 440.297C1395.03 440.297 1398.65 437.766 1398.65 434.646C1398.65 431.525 1395.03 428.996 1390.52 428.996Z" fill="white" fill-opacity="0.1"/>
<path d="M1328.36 0.0301251V119.765" stroke="white" stroke-opacity="0.1" stroke-width="3.33333" stroke-miterlimit="10"/>
<path d="M1291.6 0.0296758V75.5496" stroke="white" stroke-opacity="0.1" stroke-width="3.33333" stroke-miterlimit="10"/>
<path d="M1283.46 75.1302C1283.46 78.2525 1287.09 80.7812 1291.6 80.7812C1296.08 80.7812 1299.73 78.2525 1299.73 75.1302C1299.73 72.0113 1296.08 69.4809 1291.6 69.4809C1287.09 69.4809 1283.46 72.0113 1283.46 75.1302Z" fill="white" fill-opacity="0.1"/>
<path d="M1063.93 -0.000843909V135.038" stroke="white" stroke-opacity="0.1" stroke-width="3.33333" stroke-miterlimit="10"/>
<path d="M1366.32 -0.000913649V95.6387" stroke="white" stroke-opacity="0.1" stroke-width="3.33333" stroke-miterlimit="10"/>
<path d="M1358.19 95.6387C1358.19 98.7593 1361.84 101.288 1366.33 101.288C1370.83 101.288 1374.46 98.7593 1374.46 95.6387C1374.46 92.5181 1370.83 89.9894 1366.33 89.9894C1361.84 89.9894 1358.19 92.5181 1358.19 95.6387Z" fill="white" fill-opacity="0.1"/>
<path d="M1436.96 -0.000831327V60.3311" stroke="white" stroke-opacity="0.1" stroke-width="3.33333" stroke-miterlimit="10"/>
<path d="M1428.82 60.3318C1428.82 63.4524 1432.48 65.9812 1436.96 65.9812C1441.45 65.9812 1445.1 63.4524 1445.1 60.3318C1445.1 57.2112 1441.45 54.6825 1436.96 54.6825C1432.48 54.6825 1428.82 57.2112 1428.82 60.3318Z" fill="white" fill-opacity="0.1"/>
<path d="M1041.26 260.312H1150.1" stroke="white" stroke-opacity="0.1" stroke-width="3.33333" stroke-miterlimit="10"/>
<path d="M1026.87 -0.000639315V75.5176" stroke="white" stroke-opacity="0.1" stroke-width="3.33333" stroke-miterlimit="10"/>
<path d="M1018.73 75.5189C1018.73 78.6411 1022.38 81.1699 1026.87 81.1699C1031.38 81.1699 1035.01 78.6411 1035.01 75.5189C1035.01 72.4 1031.38 69.8695 1026.87 69.8695C1022.38 69.8695 1018.73 72.4 1018.73 75.5189Z" fill="white" fill-opacity="0.1"/>
<path d="M720.01 0.768358V120.502" stroke="white" stroke-opacity="0.1" stroke-width="3.33333" stroke-miterlimit="10"/>
<path d="M756.776 0.768892V76.2871" stroke="white" stroke-opacity="0.1" stroke-width="3.33333" stroke-miterlimit="10"/>
<path d="M764.912 75.8673C764.912 78.9879 761.26 81.5166 756.775 81.5166C752.265 81.5166 748.638 78.9879 748.638 75.8673C748.638 72.7467 752.265 70.2162 756.775 70.2162C761.26 70.2162 764.912 72.7467 764.912 75.8673Z" fill="white" fill-opacity="0.1"/>
<path d="M682.032 0.735659V96.3752" stroke="white" stroke-opacity="0.1" stroke-width="3.33333" stroke-miterlimit="10"/>
<path d="M690.177 96.3753C690.177 99.4959 686.529 102.026 682.032 102.026C677.534 102.026 673.89 99.4959 673.89 96.3753C673.89 93.2547 677.534 90.7259 682.032 90.7259C686.529 90.7259 690.177 93.2547 690.177 96.3753Z" fill="white" fill-opacity="0.1"/>
<path d="M824.643 848.059V713.02" stroke="white" stroke-opacity="0.1" stroke-width="3.33333" stroke-miterlimit="10"/>
</svg>
