<svg width="510" height="510" viewBox="0 0 510 510" fill="none" xmlns="http://www.w3.org/2000/svg">
<path d="M373.848 480.611C433.684 449.09 478.547 395.091 498.569 330.493C518.591 265.894 512.131 195.988 480.611 136.152C449.09 76.3163 395.091 31.4528 330.493 11.431C265.894 -8.5909 195.988 -2.13107 136.152 29.3894L138.529 33.9016C197.168 3.01155 265.676 -3.3191 328.983 16.3023C392.289 35.9238 445.208 79.89 476.098 138.529C506.988 197.168 513.319 265.676 493.698 328.983C474.076 392.289 430.11 445.208 371.471 476.098L373.848 480.611Z" fill="#9EDD05"/>
<circle cx="369" cy="480" r="10" fill="#9EDD05"/>
<circle cx="135" cy="33" r="10" fill="#9EDD05"/>
</svg>
