<svg width="370" height="420" viewBox="0 0 370 420" fill="none" xmlns="http://www.w3.org/2000/svg">
<path d="M15.7713 201.54H-21" stroke="white" stroke-opacity="0.1" stroke-width="3.33333" stroke-miterlimit="10"/>
<path d="M16.0376 174.533H-20.7337" stroke="white" stroke-opacity="0.1" stroke-width="3.33333" stroke-miterlimit="10"/>
<path d="M16.0374 171.746C17.0488 171.746 17.8683 172.994 17.8683 174.534C17.8683 176.074 17.0488 177.322 16.0374 177.322C15.0261 177.322 14.206 176.074 14.206 174.534C14.206 172.994 15.0261 171.746 16.0374 171.746Z" fill="white" fill-opacity="0.1"/>
<path d="M30.1008 188.951H-21" stroke="white" stroke-opacity="0.1" stroke-width="3.33333" stroke-miterlimit="10"/>
<path d="M91.2611 307.178V357.878" stroke="white" stroke-opacity="0.1" stroke-width="3.33333" stroke-miterlimit="10"/>
<path d="M97.8741 307.178V388.093" stroke="white" stroke-opacity="0.1" stroke-width="3.33333" stroke-miterlimit="10"/>
<path d="M99.7051 388.093C99.7051 389.633 98.8856 390.881 97.8742 390.881C96.8629 390.881 96.0434 389.633 96.0434 388.093C96.0434 386.553 96.8629 385.304 97.8742 385.304C98.8856 385.304 99.7051 386.553 99.7051 388.093Z" fill="white" fill-opacity="0.1"/>
<path d="M38.9257 419.987V339.073" stroke="white" stroke-opacity="0.1" stroke-width="3.33333" stroke-miterlimit="10"/>
<path d="M37.0944 339.073C37.0944 337.533 37.914 336.284 38.9253 336.284C39.9366 336.284 40.7562 337.533 40.7562 339.073C40.7562 340.613 39.9366 341.861 38.9253 341.861C37.914 341.861 37.0944 340.613 37.0944 339.073Z" fill="white" fill-opacity="0.1"/>
<path d="M30.6586 419.987V353.341" stroke="white" stroke-opacity="0.1" stroke-width="3.33333" stroke-miterlimit="10"/>
<path d="M47.4651 420.002V357.693" stroke="white" stroke-opacity="0.1" stroke-width="3.33333" stroke-miterlimit="10"/>
<path d="M45.6339 357.693C45.6339 356.153 46.4535 354.905 47.4648 354.905C48.4761 354.905 49.2957 356.153 49.2957 357.693C49.2957 359.233 48.4761 360.481 47.4648 360.481C46.4535 360.481 45.6339 359.233 45.6339 357.693Z" fill="white" fill-opacity="0.1"/>
<path d="M93.0921 357.878C93.0921 359.418 92.2725 360.666 91.2612 360.666C90.2499 360.666 89.4303 359.418 89.4303 357.878C89.4303 356.338 90.2499 355.09 91.2612 355.09C92.2725 355.09 93.0921 356.338 93.0921 357.878Z" fill="white" fill-opacity="0.1"/>
<path d="M86.8674 103.529L73.4924 83.161H22.3916" stroke="white" stroke-opacity="0.1" stroke-width="3.33333" stroke-miterlimit="10"/>
<path d="M22.3914 83.161C22.3914 84.7012 21.5719 85.9492 20.5605 85.9492C19.5492 85.9492 18.7291 84.7012 18.7291 83.161C18.7291 81.6217 19.5492 80.3729 20.5605 80.3729C21.5719 80.3729 22.3914 81.6217 22.3914 83.161Z" fill="white" fill-opacity="0.1"/>
<path d="M110.615 88.9414V50.231L117.19 40.2164" stroke="white" stroke-opacity="0.1" stroke-width="3.33333" stroke-miterlimit="10"/>
<path d="M119.021 40.2159C119.021 41.756 118.202 43.0049 117.19 43.0049C116.179 43.0049 115.359 41.756 115.359 40.2159C115.359 38.6757 116.179 37.4277 117.19 37.4277C118.202 37.4277 119.021 38.6757 119.021 40.2159Z" fill="white" fill-opacity="0.1"/>
<path d="M103.978 92.4414V30.2305L110.554 20.2167" stroke="white" stroke-opacity="0.1" stroke-width="3.33333" stroke-miterlimit="10"/>
<path d="M112.384 20.2158C112.384 21.755 111.565 23.0039 110.554 23.0039C109.543 23.0039 108.722 21.755 108.722 20.2158C108.722 18.6756 109.543 17.4267 110.554 17.4267C111.565 17.4267 112.384 18.6756 112.384 20.2158Z" fill="white" fill-opacity="0.1"/>
<path d="M96.0962 92.0205L95.9899 68.3135" stroke="white" stroke-opacity="0.1" stroke-width="3.33333" stroke-miterlimit="10"/>
<path d="M63.3479 420.002V390.227" stroke="white" stroke-opacity="0.1" stroke-width="3.33333" stroke-miterlimit="10"/>
<path d="M61.5167 390.227C61.5167 388.687 62.3362 387.439 63.3476 387.439C64.3589 387.439 65.179 388.687 65.179 390.227C65.179 391.767 64.3589 393.015 63.3476 393.015C62.3362 393.015 61.5167 391.767 61.5167 390.227Z" fill="white" fill-opacity="0.1"/>
<path d="M43.7063 303.458C43.7063 304.997 42.8862 306.246 41.8748 306.246C40.8641 306.246 40.044 304.997 40.044 303.458C40.044 301.918 40.8641 300.67 41.8748 300.67C42.8862 300.67 43.7063 301.918 43.7063 303.458Z" fill="white" fill-opacity="0.1"/>
<path d="M41.8753 303.459H-21" stroke="white" stroke-opacity="0.1" stroke-width="3.33333" stroke-miterlimit="10"/>
<path d="M22.7646 315.208H-21" stroke="white" stroke-opacity="0.1" stroke-width="3.33333" stroke-miterlimit="10"/>
<path d="M104.791 340.615V310.839" stroke="white" stroke-opacity="0.1" stroke-width="3.33333" stroke-miterlimit="10"/>
<path d="M112.052 363.416V304.264" stroke="white" stroke-opacity="0.1" stroke-width="3.33333" stroke-miterlimit="10"/>
<path d="M113.883 363.416C113.883 364.956 113.063 366.204 112.052 366.204C111.042 366.204 110.221 364.956 110.221 363.416C110.221 361.876 111.042 360.627 112.052 360.627C113.063 360.627 113.883 361.876 113.883 363.416Z" fill="white" fill-opacity="0.1"/>
<path d="M16.8805 419.987V382.717" stroke="white" stroke-opacity="0.1" stroke-width="3.33333" stroke-miterlimit="10"/>
<path d="M15.0493 382.716C15.0493 381.176 15.8689 379.927 16.8802 379.927C17.8915 379.927 18.711 381.176 18.711 382.716C18.711 384.255 17.8915 385.504 16.8802 385.504C15.8689 385.504 15.0493 384.255 15.0493 382.716Z" fill="white" fill-opacity="0.1"/>
<path d="M79.626 260.291L66.2504 239.923H15.1496" stroke="white" stroke-opacity="0.1" stroke-width="3.33333" stroke-miterlimit="10"/>
<path d="M11.4872 239.92C11.4872 238.38 12.3067 237.132 13.318 237.132C14.3294 237.132 15.1489 238.38 15.1489 239.92C15.1489 241.459 14.3294 242.708 13.318 242.708C12.3067 242.708 11.4872 241.459 11.4872 239.92Z" fill="white" fill-opacity="0.1"/>
<path d="M77.4208 272.881L64.0453 252.513H29.4786L22.9283 262.489" stroke="white" stroke-opacity="0.1" stroke-width="3.33333" stroke-miterlimit="10"/>
<path d="M20.679 262.696C20.679 261.156 21.4991 259.907 22.5104 259.907C23.5217 259.907 24.3413 261.156 24.3413 262.696C24.3413 264.236 23.5217 265.484 22.5104 265.484C21.4991 265.484 20.679 264.236 20.679 262.696Z" fill="white" fill-opacity="0.1"/>
<path d="M43.722 141.879C43.722 143.419 42.9025 144.667 41.8912 144.667C40.8798 144.667 40.0597 143.419 40.0597 141.879C40.0597 140.339 40.8798 139.091 41.8912 139.091C42.9025 139.091 43.722 140.339 43.722 141.879Z" fill="white" fill-opacity="0.1"/>
<path d="M41.8917 141.879H-20.9842" stroke="white" stroke-opacity="0.1" stroke-width="3.33333" stroke-miterlimit="10"/>
<path d="M22.7646 154.115H-21" stroke="white" stroke-opacity="0.1" stroke-width="3.33333" stroke-miterlimit="10"/>
<path d="M118.32 100.457L118.213 58.2853" stroke="white" stroke-opacity="0.1" stroke-width="3.33333" stroke-miterlimit="10"/>
<path d="M-21 292.401H3.47488" stroke="white" stroke-opacity="0.1" stroke-width="3.33333" stroke-miterlimit="10"/>
<path d="M3.4749 295.19C4.48624 295.19 5.30576 293.941 5.30576 292.401C5.30576 290.861 4.48624 289.613 3.4749 289.613C2.46412 289.613 1.64348 290.861 1.64348 292.401C1.64348 293.941 2.46412 295.19 3.4749 295.19Z" fill="white" fill-opacity="0.1"/>
<path d="M30.5807 99.5653H71.9562L78.8454 111.221" stroke="white" stroke-opacity="0.1" stroke-width="3.33333" stroke-miterlimit="10"/>
<path d="M30.5808 102.354C29.5695 102.354 28.75 101.106 28.75 99.5655C28.75 98.0254 29.5695 96.7773 30.5808 96.7773C31.5922 96.7773 32.4123 98.0254 32.4123 99.5655C32.4123 101.106 31.5922 102.354 30.5808 102.354Z" fill="white" fill-opacity="0.1"/>
<path d="M-1.18167 212.074C-0.170331 212.074 0.649759 213.322 0.649759 214.862C0.649759 216.402 -0.170331 217.651 -1.18167 217.651C-2.193 217.651 -3.01253 216.402 -3.01253 214.862C-3.01253 213.322 -2.193 212.074 -1.18167 212.074Z" fill="white" fill-opacity="0.1"/>
<path d="M12.7984 0.364225V59.458" stroke="white" stroke-opacity="0.1" stroke-width="3.33333" stroke-miterlimit="10"/>
<path d="M21.065 0.363883V37.6357" stroke="white" stroke-opacity="0.1" stroke-width="3.33333" stroke-miterlimit="10"/>
<path d="M22.8955 37.4296C22.8955 38.9697 22.076 40.2178 21.0652 40.2178C20.0539 40.2178 19.2337 38.9697 19.2337 37.4296C19.2337 35.8895 20.0539 34.6414 21.0652 34.6414C22.076 34.6414 22.8955 35.8895 22.8955 37.4296Z" fill="white" fill-opacity="0.1"/>
<path d="M72.2602 0.34844V66.9951" stroke="white" stroke-opacity="0.1" stroke-width="3.33333" stroke-miterlimit="10"/>
<path d="M4.25896 0.349145V47.5508" stroke="white" stroke-opacity="0.1" stroke-width="3.33333" stroke-miterlimit="10"/>
<path d="M6.08951 47.5506C6.08951 49.0898 5.26941 50.3379 4.25863 50.3379C3.24729 50.3379 2.4272 49.0898 2.4272 47.5506C2.4272 46.0104 3.24729 44.7616 4.25863 44.7616C5.26941 44.7616 6.08951 46.0104 6.08951 47.5506Z" fill="white" fill-opacity="0.1"/>
<path d="M128.079 0.355936V47.5576" stroke="white" stroke-opacity="0.1" stroke-width="3.33333" stroke-miterlimit="10"/>
<path d="M129.91 47.5585C129.91 49.0978 129.091 50.3467 128.079 50.3467C127.069 50.3467 126.249 49.0978 126.249 47.5585C126.249 46.0184 127.069 44.7703 128.079 44.7703C129.091 44.7703 129.91 46.0184 129.91 47.5585Z" fill="white" fill-opacity="0.1"/>
<path d="M75.1513 128.822H50.6769" stroke="white" stroke-opacity="0.1" stroke-width="3.33333" stroke-miterlimit="10"/>
<path d="M80.5899 0.349121V37.6201" stroke="white" stroke-opacity="0.1" stroke-width="3.33333" stroke-miterlimit="10"/>
<path d="M82.4209 37.6202C82.4209 39.1603 81.6014 40.4092 80.5901 40.4092C79.5787 40.4092 78.7586 39.1603 78.7586 37.6202C78.7586 36.08 79.5787 34.832 80.5901 34.832C81.6014 34.832 82.4209 36.08 82.4209 37.6202Z" fill="white" fill-opacity="0.1"/>
<path d="M136.619 0.371102V59.4648" stroke="white" stroke-opacity="0.1" stroke-width="3.33333" stroke-miterlimit="10"/>
<path d="M144.885 0.371739V37.6436" stroke="white" stroke-opacity="0.1" stroke-width="3.33333" stroke-miterlimit="10"/>
<path d="M146.716 37.4355C146.716 38.9756 145.897 40.2236 144.886 40.2236C143.874 40.2236 143.054 38.9756 143.054 37.4355C143.054 35.8954 143.874 34.6473 144.886 34.6473C145.897 34.6473 146.716 35.8954 146.716 37.4355Z" fill="white" fill-opacity="0.1"/>
<path d="M134.242 419.082V352.435" stroke="white" stroke-opacity="0.1" stroke-width="3.33333" stroke-miterlimit="10"/>
<path d="M125.911 419.082V381.811" stroke="white" stroke-opacity="0.1" stroke-width="3.33333" stroke-miterlimit="10"/>
<path d="M124.082 381.812C124.082 380.272 124.901 379.023 125.912 379.023C126.923 379.023 127.743 380.272 127.743 381.812C127.743 383.352 126.923 384.601 125.912 384.601C124.901 384.601 124.082 383.352 124.082 381.812Z" fill="white" fill-opacity="0.1"/>
<path d="M281.927 103.183L295.303 82.8144H346.404" stroke="white" stroke-opacity="0.1" stroke-width="3.33333" stroke-miterlimit="10"/>
<path d="M355.228 201.192H392" stroke="white" stroke-opacity="0.1" stroke-width="3.33333" stroke-miterlimit="10"/>
<path d="M354.963 174.187H391.735" stroke="white" stroke-opacity="0.1" stroke-width="3.33333" stroke-miterlimit="10"/>
<path d="M354.963 171.398C353.949 171.398 353.134 172.647 353.134 174.187C353.134 175.728 353.949 176.976 354.963 176.976C355.972 176.976 356.793 175.728 356.793 174.187C356.793 172.647 355.972 171.398 354.963 171.398Z" fill="white" fill-opacity="0.1"/>
<path d="M340.898 188.603H392" stroke="white" stroke-opacity="0.1" stroke-width="3.33333" stroke-miterlimit="10"/>
<path d="M285.25 306.83V357.531" stroke="white" stroke-opacity="0.1" stroke-width="3.33333" stroke-miterlimit="10"/>
<path d="M278.636 306.83V387.746" stroke="white" stroke-opacity="0.1" stroke-width="3.33333" stroke-miterlimit="10"/>
<path d="M276.806 387.746C276.806 389.285 277.627 390.533 278.636 390.533C279.65 390.533 280.466 389.285 280.466 387.746C280.466 386.206 279.65 384.958 278.636 384.958C277.627 384.958 276.806 386.206 276.806 387.746Z" fill="white" fill-opacity="0.1"/>
<path d="M332.074 419.64V338.724" stroke="white" stroke-opacity="0.1" stroke-width="3.33333" stroke-miterlimit="10"/>
<path d="M333.905 338.724C333.905 337.184 333.084 335.935 332.075 335.935C331.061 335.935 330.246 337.184 330.246 338.724C330.246 340.264 331.061 341.512 332.075 341.512C333.084 341.512 333.905 340.264 333.905 338.724Z" fill="white" fill-opacity="0.1"/>
<path d="M340.341 419.64V352.992" stroke="white" stroke-opacity="0.1" stroke-width="3.33333" stroke-miterlimit="10"/>
<path d="M323.538 419.654V357.345" stroke="white" stroke-opacity="0.1" stroke-width="3.33333" stroke-miterlimit="10"/>
<path d="M325.367 357.346C325.367 355.805 324.546 354.558 323.537 354.558C322.523 354.558 321.702 355.805 321.702 357.346C321.702 358.886 322.523 360.134 323.537 360.134C324.546 360.134 325.367 358.886 325.367 357.346Z" fill="white" fill-opacity="0.1"/>
<path d="M283.42 357.532C283.42 359.072 284.241 360.319 285.25 360.319C286.264 360.319 287.08 359.072 287.08 357.532C287.08 355.992 286.264 354.744 285.25 354.744C284.241 354.744 283.42 355.992 283.42 357.532Z" fill="white" fill-opacity="0.1"/>
<path d="M344.574 82.8134C344.574 84.3527 345.39 85.6016 346.404 85.6016C347.413 85.6016 348.234 84.3527 348.234 82.8134C348.234 81.2733 347.413 80.0252 346.404 80.0252C345.39 80.0252 344.574 81.2733 344.574 82.8134Z" fill="white" fill-opacity="0.1"/>
<path d="M258.183 88.5938V49.8833L251.603 39.8696" stroke="white" stroke-opacity="0.1" stroke-width="3.33333" stroke-miterlimit="10"/>
<path d="M249.774 39.869C249.774 41.4083 250.595 42.6572 251.603 42.6572C252.617 42.6572 253.439 41.4083 253.439 39.869C253.439 38.3289 252.617 37.08 251.603 37.08C250.595 37.08 249.774 38.3289 249.774 39.869Z" fill="white" fill-opacity="0.1"/>
<path d="M264.82 92.0938V29.8819L258.245 19.8682" stroke="white" stroke-opacity="0.1" stroke-width="3.33333" stroke-miterlimit="10"/>
<path d="M256.409 19.8671C256.409 21.4072 257.23 22.6553 258.244 22.6553C259.253 22.6553 260.074 21.4072 260.074 19.8671C260.074 18.327 259.253 17.0789 258.244 17.0789C257.23 17.0789 256.409 18.327 256.409 19.8671Z" fill="white" fill-opacity="0.1"/>
<path d="M272.701 91.6729L272.805 67.965" stroke="white" stroke-opacity="0.1" stroke-width="3.33333" stroke-miterlimit="10"/>
<path d="M307.654 419.654V389.878" stroke="white" stroke-opacity="0.1" stroke-width="3.33333" stroke-miterlimit="10"/>
<path d="M309.483 389.879C309.483 388.339 308.662 387.091 307.654 387.091C306.639 387.091 305.818 388.339 305.818 389.879C305.818 391.419 306.639 392.667 307.654 392.667C308.662 392.667 309.483 391.419 309.483 389.879Z" fill="white" fill-opacity="0.1"/>
<path d="M327.291 303.11C327.291 304.65 328.112 305.898 329.126 305.898C330.135 305.898 330.956 304.65 330.956 303.11C330.956 301.57 330.135 300.322 329.126 300.322C328.112 300.322 327.291 301.57 327.291 303.11Z" fill="white" fill-opacity="0.1"/>
<path d="M329.125 303.11H391.999" stroke="white" stroke-opacity="0.1" stroke-width="3.33333" stroke-miterlimit="10"/>
<path d="M348.234 314.859H392" stroke="white" stroke-opacity="0.1" stroke-width="3.33333" stroke-miterlimit="10"/>
<path d="M271.719 340.268V310.492" stroke="white" stroke-opacity="0.1" stroke-width="3.33333" stroke-miterlimit="10"/>
<path d="M264.461 363.067V303.915" stroke="white" stroke-opacity="0.1" stroke-width="3.33333" stroke-miterlimit="10"/>
<path d="M262.626 363.068C262.626 364.609 263.448 365.856 264.462 365.856C265.47 365.856 266.291 364.609 266.291 363.068C266.291 361.528 265.47 360.279 264.462 360.279C263.448 360.279 262.626 361.528 262.626 363.068Z" fill="white" fill-opacity="0.1"/>
<path d="M354.12 419.64V382.368" stroke="white" stroke-opacity="0.1" stroke-width="3.33333" stroke-miterlimit="10"/>
<path d="M355.95 382.368C355.95 380.828 355.129 379.579 354.12 379.579C353.106 379.579 352.29 380.828 352.29 382.368C352.29 383.908 353.106 385.156 354.12 385.156C355.129 385.156 355.95 383.908 355.95 382.368Z" fill="white" fill-opacity="0.1"/>
<path d="M289.72 259.941L303.096 239.573H354.197" stroke="white" stroke-opacity="0.1" stroke-width="3.33333" stroke-miterlimit="10"/>
<path d="M357.857 239.571C357.857 238.031 357.041 236.783 356.027 236.783C355.019 236.783 354.197 238.031 354.197 239.571C354.197 241.111 355.019 242.359 356.027 242.359C357.041 242.359 357.857 241.111 357.857 239.571Z" fill="white" fill-opacity="0.1"/>
<path d="M291.924 272.531L305.3 252.163H339.867L346.42 262.139" stroke="white" stroke-opacity="0.1" stroke-width="3.33333" stroke-miterlimit="10"/>
<path d="M348.67 262.348C348.67 260.807 347.848 259.559 346.834 259.559C345.826 259.559 345.005 260.807 345.005 262.348C345.005 263.888 345.826 265.136 346.834 265.136C347.848 265.136 348.67 263.888 348.67 262.348Z" fill="white" fill-opacity="0.1"/>
<path d="M327.279 141.529C327.279 143.069 328.095 144.318 329.109 144.318C330.118 144.318 330.939 143.069 330.939 141.529C330.939 139.989 330.118 138.741 329.109 138.741C328.095 138.741 327.279 139.989 327.279 141.529Z" fill="white" fill-opacity="0.1"/>
<path d="M329.11 141.531H391.983" stroke="white" stroke-opacity="0.1" stroke-width="3.33333" stroke-miterlimit="10"/>
<path d="M348.234 153.766H392" stroke="white" stroke-opacity="0.1" stroke-width="3.33333" stroke-miterlimit="10"/>
<path d="M248.809 83.7695L248.913 49.9909" stroke="white" stroke-opacity="0.1" stroke-width="3.33333" stroke-miterlimit="10"/>
<path d="M392 292.053H367.524" stroke="white" stroke-opacity="0.1" stroke-width="3.33333" stroke-miterlimit="10"/>
<path d="M367.524 294.84C366.516 294.84 365.695 293.592 365.695 292.052C365.695 290.512 366.516 289.264 367.524 289.264C368.538 289.264 369.354 290.512 369.354 292.052C369.354 293.592 368.538 294.84 367.524 294.84Z" fill="white" fill-opacity="0.1"/>
<path d="M338.214 99.2186H296.841L289.951 110.874" stroke="white" stroke-opacity="0.1" stroke-width="3.33333" stroke-miterlimit="10"/>
<path d="M338.214 102.006C339.222 102.006 340.044 100.758 340.044 99.2177C340.044 97.6776 339.222 96.4295 338.214 96.4295C337.205 96.4295 336.384 97.6776 336.384 99.2177C336.384 100.758 337.205 102.006 338.214 102.006Z" fill="white" fill-opacity="0.1"/>
<path d="M358.204 0.0155926V59.1094" stroke="white" stroke-opacity="0.1" stroke-width="3.33333" stroke-miterlimit="10"/>
<path d="M349.937 0.0152498V37.2871" stroke="white" stroke-opacity="0.1" stroke-width="3.33333" stroke-miterlimit="10"/>
<path d="M348.107 37.0801C348.107 38.6211 348.923 39.8691 349.937 39.8691C350.945 39.8691 351.766 38.6211 351.766 37.0801C351.766 35.5408 350.945 34.292 349.937 34.292C348.923 34.292 348.107 35.5408 348.107 37.0801Z" fill="white" fill-opacity="0.1"/>
<path d="M298.742 -0.000227954V66.6465" stroke="white" stroke-opacity="0.1" stroke-width="3.33333" stroke-miterlimit="10"/>
<path d="M366.741 0.000467341V47.2021" stroke="white" stroke-opacity="0.1" stroke-width="3.33333" stroke-miterlimit="10"/>
<path d="M364.912 47.202C364.912 48.7422 365.733 49.9902 366.742 49.9902C367.756 49.9902 368.571 48.7422 368.571 47.202C368.571 45.6619 367.756 44.4139 366.742 44.4139C365.733 44.4139 364.912 45.6619 364.912 47.202Z" fill="white" fill-opacity="0.1"/>
<path d="M293.644 128.475H318.12" stroke="white" stroke-opacity="0.1" stroke-width="3.33333" stroke-miterlimit="10"/>
<path d="M290.409 0.000447695V37.2715" stroke="white" stroke-opacity="0.1" stroke-width="3.33333" stroke-miterlimit="10"/>
<path d="M288.579 37.2715C288.579 38.8125 289.4 40.0605 290.409 40.0605C291.423 40.0605 292.238 38.8125 292.238 37.2715C292.238 35.7323 291.423 34.4833 290.409 34.4833C289.4 34.4833 288.579 35.7323 288.579 37.2715Z" fill="white" fill-opacity="0.1"/>
<path d="M221.406 0.379693V59.4727" stroke="white" stroke-opacity="0.1" stroke-width="3.33333" stroke-miterlimit="10"/>
<path d="M229.673 0.379354V37.6504" stroke="white" stroke-opacity="0.1" stroke-width="3.33333" stroke-miterlimit="10"/>
<path d="M231.503 37.4443C231.503 38.9844 230.682 40.2324 229.673 40.2324C228.659 40.2324 227.844 38.9844 227.844 37.4443C227.844 35.9041 228.659 34.6553 229.673 34.6553C230.682 34.6553 231.503 35.9041 231.503 37.4443Z" fill="white" fill-opacity="0.1"/>
<path d="M212.866 0.363749V47.5654" stroke="white" stroke-opacity="0.1" stroke-width="3.33333" stroke-miterlimit="10"/>
<path d="M214.697 47.5645C214.697 49.1046 213.877 50.3535 212.866 50.3535C211.854 50.3535 211.035 49.1046 211.035 47.5645C211.035 46.0244 211.854 44.7763 212.866 44.7763C213.877 44.7763 214.697 46.0244 214.697 47.5645Z" fill="white" fill-opacity="0.1"/>
<path d="M244.935 418.552V351.905" stroke="white" stroke-opacity="0.1" stroke-width="3.33333" stroke-miterlimit="10"/>
<path d="M236.602 418.552V381.281" stroke="white" stroke-opacity="0.1" stroke-width="3.33333" stroke-miterlimit="10"/>
<path d="M234.772 381.279C234.772 379.739 235.593 378.491 236.602 378.491C237.616 378.491 238.431 379.739 238.431 381.279C238.431 382.819 237.616 384.067 236.602 384.067C235.593 384.067 234.772 382.819 234.772 381.279Z" fill="white" fill-opacity="0.1"/>
</svg>
