<?xml version="1.0" encoding="UTF-8"?>
<svg id="Layer_1" xmlns="http://www.w3.org/2000/svg" version="1.1" viewBox="0 0 38 38">
  <!-- Generator: Adobe Illustrator 29.3.1, SVG Export Plug-In . SVG Version: 2.1.0 Build 151)  -->
  <defs>
    <style>
      .st0 {
        fill: #c29e3e;
      }

      .st1 {
        fill: #c19d3e;
      }
    </style>
  </defs>
  <path class="st1" d="M37.9,18.2c0-.2-.2-.4-.3-.6l-.7-.9c-.7-.9-.7-1.3-.5-2.4l.3-1.1c.2-1.3,0-1.8-1-2.5l-1-.6c-1-.6-1.2-.9-1.4-2.1l-.2-1.1c-.2-1.3-.7-1.7-2-2l-1.1-.2c-1.1-.2-1.4-.4-2-1.4l-.6-1c-.7-1.1-1.3-1.3-2.6-1.1l-1.1.3c-1.1.2-1.5.1-2.4-.5l-.9-.7s0,0,0,0c0,0,0,0,0,0,0,0-.1,0-.2-.1-.1,0-.3-.1-.4-.2-.1,0-.2,0-.3,0h-.2c-.2,0-.4,0-.6.1-.3.1-.6.3-.8.5-.3.2-.5.4-.8.6-.2.2-.5.4-.8.5-1.2.5-2.5-.5-3.8-.4-1.3.1-1.7,2-2.5,2.8-1,1-2.8.4-3.9,1.3-.9.7-.7,2.5-1.1,3.5-.6,1.4-3,1.6-3.2,3.1-.2,1,.5,2.2.5,3.2,0,1.3-1.5,2.1-1.8,3.3-.4,1.6,1.8,2.6,1.8,4.2,0,1.1-.8,2.4-.4,3.5.4,1,2,1.4,2.7,2.1.9.9.6,2.5,1.1,3.6.7,1.4,2.9.8,4,1.6,1.1.7,1.4,2.9,2.8,3.1,1.3.1,2.7-.9,4-.3.9.4,1.9,1.7,3,1.6,1.1,0,2-1.3,3-1.7,1.3-.5,2.6.5,3.8.4,1.4-.2,1.8-2.4,2.9-3.1,1.1-.7,3-.2,3.8-1.2.7-.9.4-2.4.9-3.3.5-1.1,2.1-1.4,2.9-2.3,1.1-1.3-.7-3.2,0-4.7.2-.5.6-.9.9-1.3.2-.3.4-.5.5-.8,0-.1.1-.3.2-.4,0-.4,0-.9,0-1.2h0ZM34.4,21.8c-1.2,6.6-6.7,11.9-13.4,12.7-10.3,1.3-18.9-7.4-17.5-17.7,1-7.4,7.3-13.2,14.7-13.5,10.1-.4,18,8.4,16.2,18.4h0Z"/>
  <path class="st0" d="M18.3,3.6c-7.3.3-13.5,5.9-14.5,13.1-1.5,10.1,7,18.8,17.2,17.5,6.6-.8,11.9-5.9,13.1-12.4,1.8-9.8-5.9-18.7-15.8-18.2h0ZM33.7,21.5c-1,6.1-5.9,11-11.9,12.1-10.1,1.8-18.9-6.7-17.4-16.9,1-7,7-12.3,14-12.6,9.5-.4,16.9,8,15.3,17.4h0Z"/>
  <path class="st0" d="M18.7,7.8c-8.3.3-13.5,9.3-9.4,16.6,4.1,7.4,14.8,7.7,19.3.5,4.7-7.6-1-17.3-9.8-17h0ZM10.4,25.3c-5-6.9-.2-16.6,8.3-16.9,7.9-.3,13.4,7.9,10,15.1-3.4,7.4-13.5,8.4-18.3,1.8Z"/>
  <path class="st1" d="M11.7,11.8v6.9h6.8v-6.9h-6.8ZM17.1,15.2h0c-.1,0-.3,0-.3.1,0,0,0,.2,0,.4v1.2c-.2.1-.4.2-.7.3s-.5,0-.7,0c-.8,0-1.3-.2-1.7-.7s-.4-.8-.4-1.3,0-.7.2-1c.2-.4.5-.7.8-.9.3-.2.6-.2,1-.2s.3,0,.4,0,.3,0,.5.1c.1,0,.2,0,.2,0s0,0,0,0,0,0,0-.2h.1v1.2c0,0,0,0,0,0,0-.3-.2-.5-.4-.7-.2-.2-.5-.3-.9-.3s-.9.2-1.1.6c-.2.3-.3.7-.3,1.2s0,.7.2,1,.3.5.6.7.5.2.7.2.3,0,.4,0,.3,0,.4-.2v-1.1c0-.2,0-.3,0-.4s0-.1-.1-.1-.2,0-.3,0h0c0-.1,1.5-.1,1.5-.1h0c0,.1,0,0,0,0Z"/>
  <path class="st1" d="M11.7,19.3v6.8h6.8v-6.8h-6.8ZM16.5,21.6c0-.2-.1-.3-.2-.4s-.1-.1-.2-.2-.2,0-.5,0h-.9v1.6h.7c.2,0,.3,0,.4-.1s.1-.2.1-.4h.1v1.3h-.1c0-.1,0-.3,0-.3s0-.1-.2-.2-.2,0-.3,0h-.7v1.2c0,.2,0,.3,0,.4,0,0,0,0,.1.1,0,0,.2,0,.3,0h.1c0,.1-1.7.1-1.7.1h0c0-.1.1-.1.1-.1.2,0,.3,0,.4-.1,0,0,0-.2,0-.4v-2.5c0-.2,0-.3,0-.4,0,0,0,0-.1-.1,0,0-.2,0-.3,0h-.1c0-.1,2.9-.1,2.9-.1v.9s0,0,0,0h0Z"/>
  <path class="st1" d="M19.5,19.3v6.8h6.8v-6.8h-6.8ZM25.5,20.9h-.1c-.2,0-.3,0-.4.1,0,0,0,.2,0,.4v2.6c0,.2,0,.4,0,.5,0,0,.2.1.3.1h.1c0,.1-1.7.1-1.7.1h0c0-.1.1-.1.1-.1.2,0,.3,0,.4-.1,0,0,0-.2,0-.4v-2.6l-1.5,3.3h0l-1.5-3.3v2.6c0,.2,0,.4,0,.5,0,0,.2.1.3.1h.1c0,.1-1.4.1-1.4.1h0c0-.1.1-.1.1-.1.2,0,.3,0,.4-.1,0,0,0-.2,0-.4v-2.6c0-.2,0-.3,0-.4,0,0,0,0-.1-.1s-.2,0-.3,0h0c0-.1,1.1-.1,1.1-.1l1.4,3.1,1.4-3.1h1.1c0,.1,0,0,0,0Z"/>
  <path class="st1" d="M22.7,14.1l.7,1.6h-1.4l.7-1.6ZM26.3,11.8v6.9h-6.8v-6.9h6.8ZM25,17.2c-.2,0-.3,0-.4-.1s-.2-.2-.3-.5l-1.4-3.3h0l-1.4,3.3c-.1.3-.2.5-.3.6,0,0-.1,0-.3.1h0c0,.1,1.2.1,1.2.1h0c-.2-.1-.3-.1-.4-.2s0,0,0-.2,0-.2,0-.3l.3-.6h1.5l.2.6c0,.2.1.3.1.4s0,.1,0,.2-.2,0-.3,0h0c0,.1,1.6.1,1.6.1h0c0-.1,0-.1,0-.1Z"/>
  <path class="st1" d="M14.8,32.3l.2-.6h0c0,.2,0,.4.2.5s.2.2.4.2.3,0,.4,0c.1,0,.2-.1.3-.3s.1-.3.2-.4c0-.2,0-.3,0-.5,0-.1,0-.3-.1-.3s-.2-.1-.3-.2c0,0,0,0-.1,0h-.1v.4c-.1,0-.1.1-.1.1s0,0,0,0c0,0,0,0,.1,0h0,0c0,0-.9-.2-.9-.2h0c0,0,.1,0,.2,0,0,0,0,0,0,0,0,0,0,0,0-.1v-.4c.2,0,.4,0,.5,0,.1,0,.3,0,.4,0,.2,0,.3,0,.4.2,0,0,.2.2.3.3s.1.2.1.3c0,.1,0,.3,0,.4,0,.3-.2.5-.5.6-.2.1-.5.2-.8,0,0,0-.2,0-.2,0,0,0,0,0-.2-.1s-.1,0-.1,0h0s0,0,0,0h0ZM13.2,30.3l.3-.6,1.5.7h0s0,0,0,0c0,0,0,0-.1,0s0,0,0,0c0,0,0,0,0,.1l-.5,1.1c0,0,0,.1,0,.2s0,0,0,0c0,0,0,0,0,0h0s0,0,0,0l-.9-.4h0s0,0,0,0c0,0,0,0,.1,0s0,0,0,0c0,0,0,0,0-.1l.5-1.1c0,0,0-.1,0-.2s0,0,0,0c0,0,0,0-.1,0h-.1c0,0-.2-.1-.2-.1,0,0-.1,0-.2,0,0,0-.2.1-.3.2h0s0,0,0,0ZM11.4,30.7c-.3-.1-.4-.4-.5-.6s0-.5.1-.7c.1-.2.3-.3.5-.4.3,0,.6,0,.9.1s.4.4.5.7c0,.2,0,.5-.2.7-.1.2-.4.4-.6.4s-.5,0-.7-.2ZM11.5,30.6c.1,0,.3,0,.5,0,.1,0,.3-.2.4-.5.2-.3.3-.5.2-.7,0-.1,0-.2-.2-.3,0,0-.2,0-.2,0s-.2,0-.3.1c-.1,0-.2.2-.3.4-.1.2-.2.4-.2.5s0,.2,0,.3c0,0,0,.1.2.2h0ZM10,28.4c0-.1-.2-.3-.2-.4,0-.1,0-.2.1-.3s.2-.1.4-.1.4.1.6.3l.7.6h0c0,0-.1,0-.1,0h0s0,0-.1.1l-.8.9c0,0-.1.1-.1.1h0c0,.1,0,.2.1.2h0s-.7-.6-.7-.6c-.2-.1-.3-.3-.3-.3s0-.2,0-.3,0-.2.1-.2.1,0,.2-.1.2,0,.4.1h0ZM10.4,28.8c0,0-.2-.1-.2-.2,0,0-.1,0-.2,0,0,0-.1,0-.2.1,0,0,0,.1,0,.2s0,.1,0,.2,0,.1.2.2l.5-.5h0ZM10.4,28.7l.4-.4h0c0,0,0-.1,0-.2s0,0,0,0c0,0-.1,0-.2,0s-.1,0-.2,0c0,0-.1,0-.2.1,0,0,0,.1-.1.2s0,.1,0,.2c0,0,0,.1.2.2h0ZM9.1,26.7l.4.5h.2c0,0,.1,0,.1-.1,0,0,0,0,0-.1,0,0,0,0,0-.2h0s.4.5.4.5h0s-.1,0-.2,0-.2,0-.3,0l-1.6.4h0s.8-1.5.8-1.5c0-.1.1-.2.1-.3s0,0,0-.1h0s.6.7.6.7h0s0,0,0,0c0,0,0,0-.1,0,0,0,0,0,0,0,0,0,0,0,0,0,0,0,0,0,0,0v.2c-.1,0-.1,0-.1,0ZM9,26.8l-.3.6.7-.2-.4-.4ZM7.6,24.5l.6-.3.8,1.5h0s0,0,0,0c0,0,0,0,0,0s0,0,0,0c0,0,0,0-.2,0l-1.1.6c0,0-.1,0-.1,0,0,0,0,0,0,0s0,0,0,.1h0s0,0,0,0l-.5-.9h0s0,0,0,0c0,0,0,0,0,0s0,0,0,0c0,0,0,0,.2,0l1-.6c0,0,.1,0,.1,0,0,0,0,0,0,0s0,0,0-.1h0c0-.2-.1-.3-.2-.3,0,0-.1,0-.2,0,0,0-.2,0-.4,0h0s0,0,0,0ZM7.1,22.9l.2.6h.2c0,0,.1,0,.2,0,0,0,0,0,0,0,0,0,0,0,0-.2h0s.2.6.2.6h0s0,0-.1-.1-.2,0-.3,0l-1.7-.2h0s1.2-1.2,1.2-1.2c.1-.1.2-.2.2-.2,0,0,0,0,0-.1h0s.3.9.3.9h0s0,0,0,0c0,0,0-.1,0-.1,0,0,0,0,0,0,0,0,0,0,0,0,0,0,0,0,0,0l-.2.2h0ZM7,22.9l-.5.5h.7c0,0-.2-.5-.2-.5h0ZM5.1,20.4h.6c0,0,0,0,0,0-.1,0-.3.2-.3.3s0,.3,0,.4c0,.1,0,.2.1.3,0,0,.2.1.3.2.1,0,.3,0,.5,0s.3,0,.4-.1.2-.1.3-.2,0-.2,0-.4c0-.1,0-.2-.1-.3s-.2-.2-.3-.3h.2c.1,0,.2.2.3.3,0,.1.1.2.1.4,0,.2,0,.4,0,.5s-.1.3-.3.4c-.1.1-.3.2-.5.2-.2,0-.4,0-.5,0-.2,0-.3-.2-.4-.3s-.2-.3-.2-.5c0-.1,0-.3,0-.4,0,0,0-.1,0-.2s0,0,0,0c0,0,0,0-.1,0h0s0,0,0,0ZM6.5,18.8v.7h.2c0,.1.1.1.1.1s0,0,.1,0c0,0,0,0,0-.2h0v.6h0c0,0,0-.1,0-.2s-.1,0-.3-.2l-1.5-.7h0s1.6-.7,1.6-.7c.1,0,.2-.1.3-.2,0,0,0,0,0-.1h0v.9h0c0-.1,0-.2,0-.2,0,0,0,0,0,0h0s0,0,0,0h-.2c0,0,0,.1,0,.1ZM6.4,18.8l-.7.3.6.3v-.6h0ZM7,18h0v-.2s0,0,0,0c0,0,0,0-.2,0l-1.2-.2c0,0-.2,0-.2,0s0,0,0,0c0,0,0,0,0,.1h0c0,0,0,0,0,0v-.8c.2-.2.2-.4.3-.5,0-.1.2-.3.4-.3s.3,0,.5,0c.1,0,.2,0,.3.1s.2.1.2.2c0,0,0,.2.1.3,0,0,0,.2,0,.3s0,.1,0,.3v.8c-.1,0-.1,0-.1,0ZM5.4,16.9l1.5.2c0,0,.1,0,.1,0s0,0,0,0c0,0,0,0,0,0,0-.1,0-.3,0-.4-.1-.1-.3-.2-.6-.3-.2,0-.4,0-.6,0-.1,0-.2,0-.3.2,0,0,0,.2,0,.3h0ZM5.9,14.7l.7.2h0c0-.1,0-.2,0-.3s-.1-.1-.3-.2h0s1,.3,1,.3h0c-.1,0-.2,0-.3,0s-.1,0-.2,0,0,0,0,.2l.5.2c0,0,.2,0,.2,0s0,0,0,0c0,0,0,0,0,0h0c0-.3,0-.4,0-.6,0-.1-.1-.2-.3-.3h0s.6.2.6.2l-.5,1.6h0s0,0,0,0c0,0,0,0,0-.1,0,0,0,0,0,0,0,0,0,0-.2,0l-1.2-.4c0,0-.1,0-.1,0,0,0,0,0,0,0,0,0,0,0,0,.1h0c0,0,0,0,0,0,0,0,.5-1.5.5-1.5l.5.2h0c-.1,0-.3,0-.3,0,0,0-.1,0-.2.1,0,0,0,.1-.1.3v.2c0,0,0,0,0,0ZM8,12.8l-.8-1.1.4-.7h0s0,0,0,0c0,0,0,0,0,.1s0,0,0,0c0,0,0,0,.1,0l1.1.6c0,0,.1,0,.2,0s0,0,0,0c0,0,0,0,0,0h0s0,0,0,0l-.5.9h0s0,0,0,0c0,0,0,0,0-.1s0,0,0,0c0,0,0,0-.1,0l-1.2-.7,1.1,1.5h0s-1.9-.2-1.9-.2l1.2.7c0,0,.1,0,.1,0,0,0,0,0,.1,0s0,0,.1-.1h0s-.3.6-.3.6h0c0,0,0-.1,0-.1h0c0-.1,0-.2,0-.2,0,0,0,0-.1,0l-1-.6c0,0-.1,0-.2,0s0,0,0,0c0,0,0,0,0,0h0s0,0,0,0l.4-.7h1.3c0,.1,0,.2,0,.2ZM9.1,9.3h0c0,0,0,.1,0,.2s0,.2,0,.4l.3.8.3.3c0,0,.1,0,.1.1h0s0,0,0,0h0c0,0,0,0,0,0l-.7.8h0s0-.1,0-.1c0,0,0,0,0-.1s0,0,0,0c0,0,0,0-.1-.1l-.3-.2-.9-.2c-.2,0-.3,0-.3,0,0,0,0,0-.1,0h0s.6-.7.6-.7h0s0,0,0,0c0,0,0,0,0,0,0,0,0,0,0,0,0,0,.1,0,.3,0h.7c0,.1-.2-.5-.2-.5,0-.1,0-.2-.1-.3,0,0,0,0,0,0,0,0,0,0-.1.1h0s.4-.5.4-.5h0ZM10.6,7.9c.2-.2.5-.3.7-.2s.5.2.6.4c.1.2.2.4.2.6s-.1.6-.4.8c-.3.2-.5.3-.8.2-.2,0-.4-.2-.6-.4-.2-.2-.2-.5-.2-.7s.2-.5.4-.6h0ZM10.7,8c-.1,0-.2.2-.1.4,0,.2.1.3.3.6.2.3.4.4.6.5.1,0,.2,0,.4,0,0,0,.1-.1.1-.2,0,0,0-.2,0-.3,0-.1-.1-.3-.2-.4-.1-.2-.3-.3-.4-.4-.1,0-.2,0-.3,0s-.2,0-.2,0h0ZM12.5,6.9l.4.7h0c0,0,.1-.1.2-.1s0,0,0-.2c0,0,0-.1,0-.2h0s.4.8.4.8h0c0-.1-.2-.2-.3-.2s-.2,0-.3,0h0s.3.5.3.5c0,0,0,.1,0,.1s0,0,0,0,0,0,.1,0h0s0,0,0,0l-.9.5h0s0,0,0,0c0,0,0,0,0,0,0,0,0,0,0,0,0,0,0,0,0-.2l-.6-1.1c0,0,0-.1,0-.1s0,0,0,0,0,0-.1,0h0s0,0,0,0l1.4-.7.3.5h0c0,0-.1-.1-.2-.2s-.2,0-.3,0c0,0-.1,0-.3.1h-.1c0,0,0,0,0,0ZM14.8,5.9l.2.7h0c0,0,.1,0,.2-.1,0,0,0,0,0-.2s0-.1,0-.2h0s.3.9.3.9h0c0-.1-.1-.2-.2-.3,0,0-.2,0-.3,0h0s.2.6.2.6c0,0,0,.1,0,.2,0,0,0,0,0,0h.2s0,0,0,0l-.9.3h0s0,0,0,0c0,0,0,0,.1,0,0,0,0,0,0,0,0,0,0,0,0-.2l-.4-1.2c0,0,0-.1,0-.2,0,0,0,0,0,0h-.2s0,0,0,0l1.5-.5.2.5h0c0,0-.1-.2-.2-.2,0,0-.2,0-.3,0,0,0-.2,0-.3,0h-.2s0,0,0,0ZM17.3,7.1h0s-1,.2-1,.2h0s0,0,0,0c0,0,0,0,.1,0,0,0,0,0,0,0s0,0,0-.2l-.2-1.2c0,0,0-.1,0-.2,0,0,0,0,0,0s0,0-.1,0h0s1-.2,1-.2h0s0,0,0,0c0,0,0,0-.1,0,0,0,0,0,0,0,0,0,0,0,0,.2l.2,1.2c0,0,0,.1,0,.2s0,0,0,0,0,0,.1,0h0,0ZM17.8,5.2l1,1.1v-.8c0-.1,0-.2-.1-.2,0,0-.1,0-.2,0h0s.6,0,.6,0h0c0,0-.1,0-.2,0,0,0,0,0,0,0s0,0,0,.2v1.6c0,0,0,0,0,0l-1.4-1.5v1.2c0,.1.1.2.2.2,0,0,.1,0,.2,0h0s-.7,0-.7,0h0c0,0,.2,0,.2-.1s0-.1,0-.2v-1.3c0,0-.1,0-.1,0,0,0,0,0-.1,0,0,0,0,0-.1,0h0s.7,0,.7,0h0ZM20.5,6.6h-.7c0,0,0,0,0,0,0,0,0,.1,0,.1s0,0,0,.1c0,0,0,0,.2,0h0s-.6,0-.6,0h0c0,0,.1,0,.2-.1s.1-.1.2-.3l.8-1.4h0l.5,1.6c0,.1,0,.2.1.3,0,0,0,0,.1,0h0s-.9,0-.9,0h0s0,0,0,0c0,0,.1,0,.2,0,0,0,0,0,0,0h0s0,0,0-.2v-.2c0,0,0,0,0,0ZM20.4,6.4l-.2-.7-.4.6h.6q0,0,0,0ZM22.4,5.5l.6,1.4.2-.8c0-.1,0-.2,0-.2,0,0,0-.1-.2-.1h0s.6.1.6.1h0c0,0-.1,0-.2,0,0,0,0,0,0,0s0,0,0,.2l-.4,1.5h0s-.8-1.9-.8-1.9l-.3,1.2c0,0,0,.2,0,.2s0,0,.1,0h0,0c0,0-.6-.1-.6-.1h0c.1,0,.2,0,.2,0s0,0,.1-.2l.4-1.3h0c0-.1,0-.2,0-.2s0,0-.1,0h0s.7.1.7.1h0ZM25.7,6.7l-.3.6h0c0-.2,0-.3,0-.5s-.2-.2-.3-.3c-.1,0-.2,0-.3,0-.1,0-.2,0-.3.1-.1,0-.2.2-.3.4,0,.1-.1.3-.1.4,0,.1,0,.3,0,.4s.1.2.3.2c.1,0,.2,0,.3,0,.1,0,.2,0,.4-.1h0c-.1.2-.3.2-.4.2-.1,0-.3,0-.4,0-.2,0-.3-.2-.4-.3-.1-.1-.2-.3-.2-.5,0-.2,0-.3,0-.5,0-.2.2-.3.3-.4.1-.1.3-.2.5-.2.2,0,.4,0,.5,0s.2.1.3.3c0,0,.1,0,.1.1,0,0,0,0,0,0,0,0,0,0,0,0h0s0,0,0,0ZM26.6,7.5l-.4.6h0c0,0,.2.1.3,0s.2,0,.3-.2h0s-.6.8-.6.8h0c0-.1,0-.2,0-.3s0-.1,0-.2,0,0-.1-.1l-.3.4c0,0,0,.1,0,.2h0c0,0,0,.1,0,.2h0c.1.2.3.2.4.2s.3,0,.4-.2h0s-.4.5-.4.5l-1.4-.9h0s0,0,0,0c0,0,0,0,.1,0s0,0,0,0c0,0,0,0,.1-.1l.7-1c0,0,0-.1,0-.1h0c0-.1,0-.2,0-.2h0s0,0,0,0l1.3.9-.3.5h0c0-.1,0-.3,0-.3s0-.1,0-.2c0,0-.1,0-.2-.2h-.2c0-.1,0,0,0,0ZM28.1,10.4l-.5-.5h-.2c0,0-.1.1-.1.1,0,0,0,0,0,.1,0,0,0,0,.1.2h0s-.4-.4-.4-.4h0s.1,0,.2,0,.2,0,.3,0l1.6-.6h0s-.6,1.6-.6,1.6c0,.1,0,.2,0,.3s0,0,0,.1h0s-.6-.6-.6-.6h0s0,0,0,0c0,0,0,0,.1,0s0,0,0,0c0,0,0,0,0,0,0,0,0,0,0,0v-.2c0,0,0,0,0,0ZM28.1,10.3l.3-.7-.7.2.4.4ZM30.2,10.8l-.4,1.4.7-.5c0,0,.1-.1.2-.2,0,0,0-.1,0-.2h0s.4.5.4.5h0s0,0-.1,0,0,0,0,0c0,0,0,0-.2,0l-1.3.9h0s.6-2,.6-2l-1,.7c0,0-.1.1-.1.2s0,.1,0,.2h0s0,0,0,0l-.4-.5h0c0,0,.1.1.2.1s.1,0,.2,0l1.1-.8h0c0-.1,0-.2,0-.2s0,0,0-.1h0s.4.5.4.5h0ZM29.4,12.9h0s0,0,0,0c0,0,0,0,0,0,0,0,0,0,0,0s0,0,.2,0l1.1-.5c0,0,.1,0,.2,0,0,0,0,0,0,0s0,0,0-.1h0c0,0,0,0,0,0l.4.8c0,.2.1.4.1.5s0,.3-.1.5c0,.1-.2.3-.4.3-.1,0-.2,0-.4,0-.1,0-.2,0-.3,0s-.2,0-.3-.1-.2-.1-.2-.2c0,0,0-.1-.1-.2l-.4-.8h0ZM31.3,12.8l-1.3.6c0,0-.1,0-.1,0s0,0,0,0c0,0,0,0,0,.1,0,.1.2.2.3.2.2,0,.4,0,.7-.1.2,0,.4-.2.5-.4,0,0,.1-.2.1-.3s0-.2-.1-.3h0ZM31.4,16.5l1.3.3v.8c.1,0,0,0,0,0h0c0,0,0-.1,0-.2,0,0,0,0,0,0s0,0-.2,0l-1.2.2c0,0-.1,0-.2,0s0,0,0,0h0v.2h0l-.2-1h0c0,0,0,.1,0,.2,0,0,0,0,0,0s0,0,.2,0l1.4-.3-1.8-.4h0s1.5-1.1,1.5-1.1l-1.3.3c0,0-.1,0-.2,0,0,0,0,0,0,0s0,.1,0,.2h0v-.6c-.1,0,0,0,0,0h0s0,0,0,.1,0,0,0,0c0,0,0,0,.1,0,0,0,0,0,.1,0l1.2-.2c0,0,.1,0,.2,0,0,0,0,0,0,0h0v-.2h0v.8c.1,0-1,.8-1,.8h0ZM31.5,19.1v-.7h-.2c0,0-.1-.1-.1-.1s0,0-.1,0c0,0,0,0,0,.2h0v-.6h0c0,0,0,.1,0,.2s.1,0,.3.2l1.5.6h0s-1.5.7-1.5.7c-.1,0-.2.1-.3.2,0,0,0,0,0,.1h0v-.9s0,0,0,0h0c0,.1,0,.2,0,.2,0,0,0,0,0,0h0s0,0,0,0h.2c0,0,0,0,0,0ZM31.6,19l.6-.3-.7-.3v.6h0ZM32.8,20.9l-1.3.7h.8c.1.1.2.1.2.1,0,0,0-.1.1-.2h0v.6h-.1c0,0,0-.1,0-.2,0,0,0,0,0,0s0,0-.2,0l-1.6-.2h0s1.8-1.1,1.8-1.1l-1.2-.2c-.1,0-.2,0-.2,0,0,0,0,0,0,.2h0s0,0,0,0v-.7h.1c0,.1,0,.2,0,.2,0,0,0,0,.2,0l1.3.2h0c0,0,0,0,.1-.1,0,0,0,0,0-.1h0v.7c0,0,0,0,0,0ZM30.9,23.1l.2-.6h-.1c0-.2,0-.2-.1-.2,0,0,0,0-.1,0,0,0,0,0,0,.2h0s.2-.6.2-.6h0c0,0,0,.1,0,.2s0,.1.2.2l1.2,1.1h0s-1.7.2-1.7.2c-.2,0-.3,0-.3,0,0,0,0,0,0,.1h0s.3-.9.3-.9h0c0,.1,0,.2,0,.2s0,0,0,0h.4s0,0,0,0ZM31,23.1h.7c0,0-.5-.5-.5-.5l-.2.5ZM30.9,26.4l-.6-.3h0c.2,0,.4,0,.5,0s.2-.2.3-.3c0-.1,0-.2,0-.4s0-.2-.2-.3c-.1,0-.2-.2-.4-.3-.2,0-.3-.1-.4-.2s-.3,0-.4,0c0,0-.2.1-.2.2,0,0,0,0,0,.1,0,0,0,0,0,.1l.3.2c0,0,.1,0,.1,0s0,0,0,0c0,0,0,0,0,0h0s0,0,0,0l-.4.8h0c0,0,0-.1,0-.2s0,0,0,0c0,0,0,0-.1,0l-.3-.2c0-.1,0-.3,0-.4s0-.2.2-.4c0-.2.2-.3.3-.4s.2-.1.3-.2c.1,0,.2,0,.3,0s.3,0,.4.1c.2.1.4.3.5.6s0,.5,0,.8c0,0,0,.1-.1.2,0,0,0,0-.1.1s-.1,0-.1.1c0,0,0,0,0,0,0,0,0,0,0,0h0s0,0,0,0ZM30,27.3l-.6-.5h0c0,.1,0,.2,0,.3s0,.2.2.3h0s-.8-.6-.8-.6h0c0,0,.2,0,.2,0,0,0,.1,0,.2,0s0,0,.1-.1l-.4-.3c0,0-.1,0-.2-.1h0s0,0,0,0h0c-.1.2-.2.4-.2.5s0,.3.2.4h0s-.4-.4-.4-.4l1-1.3h0s0,0,0,0c0,0,0,0,0,.1,0,0,0,0,0,0,0,0,0,0,.1.1l1,.8c0,0,.1,0,.1,0,0,0,0,0,0,0,0,0,0,0,.1,0h0s0,0,0,0l-1,1.3-.4-.3h0c.1,0,.2,0,.3,0s.1,0,.2,0c0,0,.1,0,.2-.2h.1c0-.1,0-.1,0-.1ZM27.4,28.5l.4,1.3-.6.5h0s0,0,0,0c0,0,0,0,0-.1h0c0-.1,0-.2,0-.2l-.8-.9c0,0-.1-.1-.1-.1,0,0,0,0,0,0s0,0-.1,0h0s0,0,0,0l.7-.7h0s0,0,0,0c0,0,0,0,0,.1h0c0,.1,0,.2.1.2l.9,1-.6-1.8h0s1.7.8,1.7.8l-.9-1c0,0,0-.1-.1-.1,0,0,0,0-.1,0s-.1,0-.2,0h0s.5-.5.5-.5h0s0,0,0,0c0,0,0,0,0,.1s0,0,0,0,0,0,0,0c0,0,0,0,0,.1l.8.9c0,0,.1.1.1.1,0,0,0,0,0,0s0,0,.1,0h0s0,0,0,0l-.6.5-1.2-.6h0ZM26.3,30.7l-.4-.7h0c0,0-.2.2-.2.3s0,.2,0,.3h0s-.5-.8-.5-.8h0c0,0,.1.1.2.2s.1,0,.2,0c0,0,.1,0,.2,0l-.3-.5c0,0,0-.1-.1-.2s0,0,0,0,0,0-.1,0h0c-.1.1-.2.3-.3.4s0,.3,0,.4h0s-.2-.5-.2-.5l1.4-.8h0s0,0,0,0c0,0,0,0,0,0,0,0,0,0,0,0s0,0,0,.2l.6,1.1c0,0,0,.1,0,.1,0,0,0,0,0,0s0,0,.1,0h0s0,0,0,0l-1.4.8-.3-.5h0c0,0,.2.1.2.2s.1,0,.2,0c0,0,.1,0,.3-.1h.2ZM24.5,31.8l-1.3-.7.3.8c0,0,0,.2.1.2,0,0,.1,0,.2,0h0s-.6.3-.6.3h0c0,0,.1-.1.1-.1,0,0,0,0,0,0s0,0,0-.2l-.6-1.5h0s1.8,1,1.8,1l-.5-1.1c0,0,0-.2-.1-.2s-.1,0-.2,0h0s0,0,0,0l.6-.2h0c0,0-.1.1-.2.2,0,0,0,.1,0,.2l.5,1.2h0c0,0,0,0,.1,0s0,0,.1,0h0s-.6.3-.6.3h0ZM21.3,32.8v-.5c-.1,0,0,0,0,0,0,0,.1.2.1.2,0,0,0,0,.2,0,0,0,0,0,.2,0h.1s-.3-1.5-.3-1.5c0,0,0-.1,0-.2,0,0,0,0,0,0h-.2s0,0,0,0l1-.2h0s0,0,0,0c0,0,0,0-.1,0,0,0,0,0,0,0s0,0,0,.2l.3,1.4h.1c.1,0,.2,0,.2-.2,0,0,0-.2,0-.3h0v.5c.1,0-1.5.4-1.5.4h0Z"/>
</svg>