<?xml version="1.0" encoding="UTF-8"?>
<svg id="Layer_3" xmlns="http://www.w3.org/2000/svg" version="1.1" viewBox="0 0 500 500">
  <!-- Generator: Adobe Illustrator 29.3.1, SVG Export Plug-In . SVG Version: 2.1.0 Build 151)  -->
  <defs>
    <style>
      .st0 {
        fill: #e30613;
      }
    </style>
  </defs>
  <g>
    <path class="st0" d="M250,500C112.1,500,0,387.9,0,250S112.1,0,250,0s250,112.1,250,250-112.1,250-250,250ZM250,9.3C117.3,9.3,9.3,117.3,9.3,250s108,240.7,240.7,240.7,240.7-108,240.7-240.7S382.7,9.3,250,9.3Z"/>
    <g>
      <path class="st0" d="M83.5,139.1c-2.5-.7-4.7.4-6,2.5-2,3.3-.4,6.9,4,9.5,4.4,2.6,8.2,2.3,10.2-1.1,1.2-2.1,1.1-4.4-.6-6.4l1.9-3.1c3.1,3.2,3.4,7.5,1.3,11-3.1,5.2-8.6,6.1-14.6,2.6-6-3.6-7.8-8.9-4.7-14.2,2.1-3.6,6-5.5,10.4-4l-1.9,3.1Z"/>
      <path class="st0" d="M86.7,123l9-11.4,2.2,1.8-6.9,8.7,4.9,3.8,6.1-7.8,2.2,1.8-6.1,7.8,5.4,4.3,6.9-8.7,2.3,1.8-9,11.4-17-13.5Z"/>
      <path class="st0" d="M103.7,102.8l5.7-5.5c3.3-3.2,7-3.5,9.7-.7,1.7,1.8,2.1,3.8,1.4,5.8,1.4-.4,2.7,0,4.4,1.1l5.7,3.6-2.6,2.6-5-3.3c-2.1-1.4-3.1-1.1-4.8.5l-3,2.9,6.1,6.3-2.5,2.4-15.1-15.5ZM108.2,102.4l5,5.1,3.1-3c1.8-1.8,1.9-3.8.4-5.4-1.5-1.6-3.5-1.5-5.3.2l-3.1,3Z"/>
      <path class="st0" d="M130,83.4l-5.6,4.2-1.8-2.4,14-10.5,1.8,2.4-5.6,4.2,11.2,15-2.8,2.1-11.2-15Z"/>
      <path class="st0" d="M146,69l3-1.8,11.1,18.6-3,1.8-11.1-18.6Z"/>
      <path class="st0" d="M159.9,61.2l13.2-6.1,1.2,2.6-10,4.6,2.9,6.2,9-4.2,1.2,2.6-9,4.2,3.8,8.3-3.2,1.5-9.1-19.7Z"/>
      <path class="st0" d="M183.6,51.2l3.3-1.1,7,20.5-3.3,1.1-7-20.5Z"/>
      <path class="st0" d="M198.7,46.5l14.2-3.2.6,2.8-10.8,2.5,1.4,6,9.6-2.2.6,2.8-9.6,2.2,1.5,6.7,10.8-2.5.6,2.8-14.2,3.2-4.8-21.1Z"/>
      <path class="st0" d="M224.8,41.3l7.2-.6c6.6-.5,11,3.2,11.6,10,.6,6.8-3.2,11.1-9.8,11.7l-7.2.6-1.8-21.6ZM240.1,51c-.4-5-3.3-7.7-7.8-7.4l-3.7.3,1.3,15.8,3.7-.3c4.5-.4,6.9-3.5,6.5-8.5Z"/>
      <path class="st0" d="M281.7,48.9c-.4-2.6-2.2-4.2-4.7-4.5-3.8-.5-6.5,2.3-7.2,7.4-.7,5.1,1.2,8.5,5,9,2.4.3,4.5-.7,5.6-3l3.6.5c-1.7,4.1-5.5,6-9.7,5.5-6-.8-9-5.5-8.1-12.4.9-6.9,5.2-10.7,11.2-9.9,4.1.6,7.4,3.4,7.8,8l-3.6-.5Z"/>
      <path class="st0" d="M294.2,55.7c2-6.7,6.9-9.7,12.9-7.9,6,1.8,8.5,7,6.5,13.7-2,6.7-6.9,9.7-12.9,7.9-6-1.8-8.5-7-6.5-13.6ZM310.3,60.5c1.5-4.9,0-8.6-3.9-9.8-4-1.2-7.2,1.1-8.7,6.1-1.5,4.9,0,8.6,4,9.8,4,1.2,7.2-1.1,8.6-6Z"/>
      <path class="st0" d="M328.7,55.6l4.2,2.1-1.3,16.1-.4,2.4,1.7-1.7,11.9-10.9,4.1,2-9.6,19.4-3.1-1.5,7.9-15.7-3.4,3.5-10.3,9.3-2.2-1.1,1.1-13.9.7-4.7-7.7,15.7-3.1-1.5,9.6-19.4Z"/>
      <path class="st0" d="M360.1,72.7l6.1,4.3c4,2.8,5,6.8,2.5,10.3-2.6,3.6-6.6,3.9-10.5,1.2l-3.3-2.4-4.4,6.3-2.8-2,12.5-17.7ZM361.2,77l-4.8,6.7,3.2,2.3c2.4,1.7,4.6,1.3,6.1-.8,1.5-2.1,1-4.3-1.2-5.9l-3.3-2.3Z"/>
      <path class="st0" d="M378.7,109l-7.1-6.5-4.6,2.4-2.6-2.4,20.7-10.5,3,2.7-8.7,21.5-2.7-2.5,2-4.8ZM374.3,101.2l5.5,5.1,3.4-8.3,1-2-1.9,1.1-8,4.1Z"/>
      <path class="st0" d="M401.7,108.6l2.3,2.8-5.4,15.8-1.1,2.6,12.9-10.6,2.2,2.7-16.8,13.7-2.3-2.8,5.4-15.7,1.2-2.7-12.9,10.7-2.2-2.7,16.8-13.7Z"/>
      <path class="st0" d="M411.1,144.5l7.9-13.6,2,3.3-4.9,8.3-1.4,1.9,2.3-.4,9.6-.6,1.9,3.2-15.7.8-6.7,4.1-1.8-3,6.7-4.1Z"/>
    </g>
    <g>
      <path class="st0" d="M85.2,388.9c12.9-12,26.4,3.5,32.6-2.3,2.4-2.2,2.4-4.9.2-7.2-2.5-2.7-5.2-2.7-8-.9l-6.5-7c6.6-4.7,14.1-3.7,20.1,2.7,6.5,7,5.7,14.5.7,19.2-8.3,7.7-20.4-2.9-28.7-.4l13.5,14.5-5.3,4.9-20.4-21.9,1.7-1.6Z"/>
      <path class="st0" d="M113.5,417.8c10.4-14.2,26.6-1.6,31.6-8.5,1.9-2.6,1.4-5.2-1.2-7.1-3-2.2-5.6-1.7-8,.7l-7.7-5.6c5.5-5.8,13.1-6.4,20.2-1.2,7.7,5.6,8.4,13.2,4.4,18.7-6.6,9.1-20.5,1.1-28.3,5l16,11.7-4.2,5.8-24.2-17.6,1.4-1.9Z"/>
      <path class="st0" d="M159.2,450.3c-8.3-3.9-11.8-11.1-9.4-19l8.6,4c-.9,3.4.2,6.2,3.9,8,3.8,1.8,6.7,1.1,8.1-2,1.1-2.4.6-5.2-5.2-7.9l-2.5-1.2,2.9-6.2,2,.9c5.8,2.7,8,.8,8.8-1.1,1.2-2.5.1-5-3-6.4-3.4-1.6-6-.6-7.9,2.1l-8.6-4c4.3-6.8,11.8-8.7,19.8-5,8.7,4.1,11.1,11.4,8.4,17.2-1.5,3.3-3.9,4.9-7.6,5.1,2.8,3.5,3,7.1,1.3,10.8-2.9,6.1-10.2,8.9-19.7,4.5Z"/>
      <path class="st0" d="M187,439.9c3.2-12.7,10.9-18.7,20.7-16.2,9.9,2.5,13.8,11.4,10.6,24-3.2,12.7-10.9,18.6-20.7,16.1-9.9-2.5-13.8-11.4-10.7-24ZM208.9,445.4c2-8.1.9-13.1-3.1-14.1-4.1-1-7.4,2.8-9.4,11-2,8-.8,13.1,3.2,14.1,4,1,7.3-2.8,9.4-10.9Z"/>
      <path class="st0" d="M227.4,461.3l7.3.4,1.2-21.6-7.3-.4.4-6.8,2.8.2c4.8.3,6.2-.8,6.3-3v-.5s8.3.4,8.3.4l-1.8,32.3,7.4.4-.4,7.2-24.6-1.3.4-7.2Z"/>
      <path class="st0" d="M260.2,438.3l9.9-.8.8,9.8-9.9.8-.8-9.8ZM261.9,459.2l9.9-.8.8,9.8-9.9.8-.8-9.8Z"/>
      <path class="st0" d="M281.4,465.3c-3.8-17.2,16.4-21,14.5-29.3-.7-3.2-3-4.6-6.1-3.9-3.6.8-5,3.1-4.8,6.5l-9.3,2.1c-.7-8,3.9-14.1,12.5-16,9.3-2.1,15.4,2.4,16.9,9.1,2.4,11-12.8,16.1-14.9,24.6l19.3-4.3,1.6,7-29.3,6.5-.5-2.3Z"/>
      <path class="st0" d="M312.8,440c-5.3-12-2.8-21.4,6.5-25.5,9.3-4.1,17.9.6,23.1,12.5,5.3,12,2.7,21.4-6.5,25.4-9.4,4.1-17.9-.6-23.1-12.5ZM333.5,431c-3.3-7.6-7.3-10.9-11.1-9.3-3.9,1.7-4.1,6.8-.8,14.5,3.3,7.5,7.3,10.9,11.1,9.2s4.1-6.7.7-14.4Z"/>
      <path class="st0" d="M357.9,432.3l6-4.1-12.3-17.8-6,4.1-3.9-5.6,2.3-1.6c3.9-2.7,4.4-4.4,3.1-6.3l-.3-.4,6.8-4.7,18.4,26.6,6.1-4.2,4.1,5.9-20.3,14-4.1-5.9Z"/>
      <path class="st0" d="M373.2,377.4c7.1-7.2,16.5-7.2,26.2,2.4,9.6,9.4,10.4,19.4,3.1,26.8-5.4,5.5-12.6,6.8-19.5,2.5l6.8-6.9c2.7,1.6,5.3.8,7.4-1.3,3-3.1,2.5-7.2-1.6-12,0,2.9-1.1,5.6-3.3,7.8-6.4,6.5-14.1,7.3-20.3,1.3-5.9-5.8-5.3-14,1.1-20.5ZM378.9,391c2.8,2.7,6,2.6,8.6,0,2.6-2.6,2.6-5.9-.2-8.6-2.7-2.6-5.9-2.5-8.5.1-2.6,2.7-2.7,5.8,0,8.5Z"/>
    </g>
  </g>
  <path class="st0" d="M239.3,187c5.4.7,8.4.8,22.9.9h16.6v37.4h-29.7v-4c-.1,0-.2-4.1-.2-4.1l-2.1-.8c-5.9-2.3-13.9-3.6-22.8-3.7-8.7,0-12.7.8-16.4,3.3-3.9,2.5-4.4,7.7-1.2,10.8,3.3,3.4,7.5,4.5,25.8,6.7,15.8,2,21.9,3.3,29.6,6.3,3.7,1.4,8.4,4.2,11.3,6.6,4.3,3.6,7.8,9.4,9.4,15.6,1.2,4.6,1.6,13.5.7,18.3-1.5,8.1-4.5,13.9-10.1,19.2-6,5.7-13.7,9.5-24.4,11.9-11.8,2.7-28.4,3.1-45.2,1.2-5.7-.6-9-.8-22.8-.9h-16.2v-37h29.7v7.6l1.3.7c4.4,2.2,13.4,3.8,22.9,4,16.4.4,23.7-2.5,23.7-9.4,0-2.7-.8-4.1-3-5.7-3.3-2.3-8-3.4-22.9-5.3-17.9-2.3-25-3.9-32.7-7.6-12.4-5.9-18.5-14.8-19.7-28.9-.7-7.5.5-14.4,3.5-20.5,6.6-13.6,21.7-21.5,45-23.4,4.7-.4,20.9.1,26.9.9ZM155.6,203.7v15.4h-20v62.1h20v30.7h-39.8c0,0-39.8-.2-39.8-.2v-15.3c-.1,0-.2-15.3-.2-15.3h20v-62.1h-9.9c0,0-9.9-.2-9.9-.2v-15.3c-.1,0-.2-15.3-.2-15.3h79.7v15.4ZM365.9,170.3c-19.6-28.1-46.9-47.9-78.7-57-10.4-3-22-4.9-31.7-5.2-2.8,0-5.7-.2-6.4-.2-2.6-.2-13.9.4-18.1,1-16.8,2.2-31.1,6.4-45.7,13.7-19.2,9.5-35.4,22.5-48.7,39.1-3.1,3.9-8.6,11.6-8.6,12s2.3.2,5.1.2h5.1l2.1-2.9c4.6-6.3,13.5-16.1,19.1-20.9l1.8-1.6,6.5,1.6c10.5,2.6,24.1,5.1,33.6,6.1,2,.2,3.7.5,3.9.6.2.1-.2,1.7-.8,3.5-1.5,4.7-3.5,12-3.5,12.8s.4.6,4.3.6h4.2l.9-3.5c1.2-4.4,3.7-12.2,3.9-12.4.1-.1,2.7,0,5.6.2,11.5,1,28.6,1.3,40.8.9,6.4-.2,13.7-.6,16.3-.8,2.6-.2,4.9-.2,5,0,.3.3,2,5.5,3.1,9.3.3,1.3.9,3.3,1.2,4.4l.6,2h4.3c3.2,0,4.3-.1,4.3-.4,0-.6-2.1-8-3.4-12.5-.6-1.9-1.1-3.5-1.1-3.7s2.1-.5,4.8-.8c11.6-1.4,23.2-3.5,33.8-6.1l5.9-1.5,2.4,2.1c5.6,5,14.2,14.5,18.6,20.6l1.6,2.2h5c3.4,0,5-.1,5-.4s-.9-1.7-2-3.2ZM209.9,145l-1.4,3.5h-1.3c-6.1-.6-23.5-3.5-31.9-5.4-2.6-.6-4.8-1-4.9-1-1,0,.3-1.1,4.1-3.6,15.8-10.4,30.9-16.6,49.4-20.5.9-.2,1.9-.3,2.4-.4.8,0,.8,0-.4,1.2-5.3,5.6-11.9,16.3-16.1,26.2ZM262.4,150.4c-12.2.5-34.7,0-43.2-.9-1.5-.2-1.8-.3-1.6-.8.1-.3,1.5-3.2,3.1-6.5,7-14.3,14.6-22.9,22.5-25.6,4.7-1.6,9.6-.8,14.4,2.3,4.6,3,9,8,13.5,15.3,2.2,3.5,7.4,13.9,7.4,14.8s-1.4.8-16.1,1.4ZM289.8,148.5l-2.2.2-1.2-3c-1.6-4-5.3-11.3-7.7-15.3-2-3.2-5.9-8.6-8.3-11.4-1.5-1.7-1.6-1.7,4-.6,16.2,3.4,32.5,10.3,47.2,20,2.7,1.8,4.9,3.3,4.9,3.5,0,.9-25.7,5.4-36.6,6.5ZM407.1,204.4c-9.5-9.5-21.7-15.3-37.1-17.6-3.8-.6-17.8-1-21.2-.7-10.3,1.1-18.6,3.2-26.3,6.9-18.4,8.7-29.9,25-32.7,46.4-.6,4.5-.7,15.4-.2,19.7,1.3,10.8,4.6,20.1,9.9,28.1,4.4,6.6,12.5,13.9,20.1,18.1,11.3,6.1,27.1,9.2,42.6,8.3,29.6-1.8,50.6-16.3,58.7-40.7,2.4-7.2,3.4-14,3.4-23.1,0-19-5.6-33.9-17.1-45.4ZM373.5,278.3c-4.3,4.3-8.3,5.9-15.6,6.3-14,.7-22.4-6.4-25.7-21.5-1-4.8-1.3-17.2-.5-23,2.1-14.8,8.8-23,20.3-24.7,2.9-.4,8.8-.2,11.7.5,5.1,1.2,9.7,4.4,12.5,8.7,4.1,6.1,5.8,13.6,5.8,25.3,0,14.3-2.5,22.5-8.5,28.5ZM362.9,326.4h-4.9l-3,3.9c-1.6,2.2-4.7,5.9-6.7,8.2-3.6,4-11,11.5-12.7,12.6-.7.4-1.3.4-6.2-.9-9.5-2.4-22.1-4.8-32.2-6.1-2.4-.3-4.8-.6-5.4-.7l-1.1-.2.9-2.5c.9-2.7,3.9-13.5,3.9-14s-1.4-.3-4.3-.3h-4.3c0,.1-1.1,4.2-1.1,4.2-.6,2.3-1.7,5.8-2.3,7.8l-1.2,3.6h-2.2c-1.2,0-5.7-.2-10-.5-13.6-.9-42.7-.6-53.8.6l-1.9.2-1.4-4.6c-.8-2.6-1.8-6.1-2.3-8l-.9-3.3h-4.2c-3.9,0-4.3,0-4.3.6s2,8.1,3.5,12.6c.6,1.9,1,3.5,1,3.5,0,0-2.9.4-6.3.8-11,1.3-21.7,3.3-32.6,6l-5.6,1.4-2-1.7c-5.4-4.7-15-15.4-19.4-21.6l-1.1-1.6h-5.1c-4,0-5.1.1-4.9.4,4.3,7.4,14.3,19.4,22.2,26.8,23.1,21.5,49.7,33.9,81.3,38,6.1.8,24.6.9,31.1.2,38.9-4.3,74.1-23.9,97.9-54.6,2.7-3.4,7.2-10,7.2-10.4s-2.2-.3-5-.3ZM226.7,382.7c-.2,0-2.6-.4-5.2-1-12.8-2.7-25.7-7.6-37.5-14.2-4.6-2.5-13.6-8.4-14.3-9.1-.3-.3,1-.7,5.6-1.7,7.3-1.6,13.8-2.7,22.1-3.8,3.5-.5,6.8-.9,7.4-1,.6-.1,1.6-.1,2.3-.1h1.3s1.7,3.8,1.7,3.8c4.3,9.8,9.6,18.5,15.2,24.9,1,1.2,1.7,2.2,1.5,2.2ZM255.8,382.2c-3.5,1.8-5.8,2.3-8.9,2.1-3.2-.3-5.2-1-8.4-3.1-5-3.2-9.8-8.9-14.7-17.3-2.3-3.9-6.6-12.9-6.4-13.2s6.5-.5,15.8-1c4.6-.2,32.1.1,37.8.5,6.7.4,7.4.6,7.4,1.1,0,1-6.4,13.3-9,17.2-3.9,5.9-9.6,11.7-13.6,13.7ZM323.5,360.5c-10.3,7.1-24.5,14.1-35.8,17.7-6.3,2-18,4.8-18.4,4.5,0-.1.7-1.1,1.8-2.4,2.6-2.9,5.5-7,7.9-11,2.2-3.7,6.5-12.2,7.8-15.4q.8-2.1,2-2c.7.1,3.7.5,6.7.9,8.8,1.1,19.9,3.1,29.1,5.3l1.8.4-3,2.1Z"/>
</svg>