<?xml version="1.0" encoding="UTF-8"?>
<svg id="Layer_1" xmlns="http://www.w3.org/2000/svg" version="1.1" viewBox="0 0 111.3 80">
  <!-- Generator: Adobe Illustrator 29.3.1, SVG Export Plug-In . SVG Version: 2.1.0 Build 151)  -->
  <defs>
    <style>
      .st0 {
        fill: #221515;
      }

      .st1 {
        fill: #0c5faa;
      }

      .st2 {
        fill: #e6233f;
      }
    </style>
  </defs>
  <path class="st2" d="M.1,33h-.1v-8.3l11.5,13.8,18.9-21.7-18.9,30.5-.3-.2L.1,33ZM0,48.4v4.8h23.8v-4.7H0Z"/>
  <path class="st1" d="M102.4,26.2l-2.4,14.2-6.7-14.2h-8.5l-4.2,24.3-4.1-24.3h-9.5c0,.1-12.7,23.7-12.7,23.7l-6.6-13.8,10.9-9.8v-.2c-.1,0-.2.1-.2.1-3,.1-6.1,0-9.1,0-2.9,2.8-5.8,5.6-8.8,8.3l1.6-8.3h-9.1l-4.8,26.9h9l1.6-8.7,2.1-2.1,4.8,10.8h16l2-4h8.4l.2,4h16.6l2.2-14.4,7.2,14.4h8.2l5-26.9h-8.9ZM65.4,43.9l4.7-9.5.9,9.5h-5.5Z"/>
  <path class="st0" d="M3.8,59.3l2.4,3.8h-1.6l-1.7-2.9-1,1v1.8H.6v-6.1h1.2v2.7l2.6-2.7h1.7l-2.3,2.4h0ZM10.5,59.2c.5.5.6,1,.6,1.7s-.2,1.2-.6,1.7-1,.6-1.6.6-.8,0-1.2-.2c-.3-.1-.6-.5-.9-.9s-.2-.8-.2-1.3,0-.8.2-1.1.5-.6.9-.9c.3-.2.8-.2,1.2-.2.8,0,1.2.2,1.7.6h-.1ZM9.9,60.8c0-.5,0-.8-.3-1-.2-.2-.5-.3-.8-.3s-.6,0-.8.3-.3.6-.3,1,0,.8.3,1,.5.3.8.3.6,0,.8-.3.3-.6.3-1h0ZM17.9,58.6c-.2-.1-.5-.2-.9-.2s-.5,0-.8.1c-.2,0-.5.2-.6.5-.1-.2-.2-.3-.5-.5s-.5-.1-.8-.1c-.5,0-1,.2-1.3.8v-.6h-1.1v4.4h1.2v-3.2c0-.1.1-.3.3-.5s.2-.1.5-.1h.3s.1.1.2.2,0,.3,0,.9v2.4h1.2v-3c0-.2.1-.3.3-.5.1,0,.2-.1.5-.1s.3,0,.5.2c0,.1.1.3.1.9v2.6h1.2v-2.8c0-.5,0-.8-.1-1,0-.2-.2-.5-.5-.6h0v.3c-.1,0,0-.2,0-.2ZM19.7,63h1.2v-4.4h-1.2v4.4ZM19.7,58h1.2v-1.1h-1.2v1.1ZM23.7,62.2h-.2c-.1,0,0,0,0-.1v-2.4h.9v-1h-.9v-1.6l-1.2.8v.9h-.5v1h.5v2.8c0,.2,0,.3.1.5,0,0,.2.2.3.2h.6c.3,0,.6,0,1-.1v-1h-.6q0,.1,0,.1ZM28.8,61.2h-2.9c0,.3,0,.6.2.9.1.2.3.2.8.2s.3,0,.5-.1c.1,0,.2-.2.2-.5l1.2.2c-.1.5-.3.8-.8,1s-.8.3-1.2.3c-.8,0-1.3-.2-1.7-.8-.2-.3-.5-1-.5-1.6s.2-1.3.6-1.7.9-.6,1.5-.6,1.2.2,1.6.6c.3.5.6,1.1.6,2h-.1,0ZM27.6,60.5c0-.3,0-.6-.2-.8-.1-.1-.3-.2-.6-.2s-.5,0-.6.2c-.1.1-.2.5-.2.8h1.7,0ZM34.9,56.9l2.4,6.1h-1.3l-.5-1.3h-2.4l-.5,1.3h-1.3l2.4-6.1h1.3-.2ZM35,60.6l-.9-2.3-.9,2.3h1.7ZM42,58.6h-1.5l-1.3,1.6v-3.3h-1.2v6.1h1.2v-1.5l.6-.6,1.1,2h1.2l-1.6-2.8,1.6-1.6h-.1c0,.1,0,0,0,0ZM44.3,58.6c-.1,0-.3.2-.5.6v-.6h-1.1v4.4h1.2v-2.8c0-.2.1-.3.2-.5s.2-.1.3-.1.3,0,.6.2l.3-1c-.2-.1-.5-.2-.8-.2s-.3,0-.5.1h0c0-.1,0-.2,0-.2ZM49.9,61.2h-2.9c0,.3,0,.6.2.9.1.2.3.2.8.2s.3,0,.5-.1c.1,0,.2-.2.2-.5l1.2.2c-.1.5-.3.8-.8,1s-.8.3-1.2.3c-.8,0-1.3-.2-1.7-.8-.2-.3-.5-1-.5-1.6s.2-1.3.6-1.7.9-.6,1.5-.6,1.2.2,1.6.6c.3.5.6,1.1.6,2h-.1,0ZM48.7,60.5c0-.3,0-.6-.2-.8-.1-.1-.3-.2-.6-.2s-.5,0-.6.2-.2.5-.2.8h1.7,0ZM53.7,56.9h1.2v6.1h-1.1v-.6c-.1.2-.3.5-.6.6s-.5.1-.8.1c-.5,0-1-.2-1.3-.6s-.5-1-.5-1.7.1-1.3.5-1.7.9-.6,1.3-.6,1,.2,1.3.6v-2.2h-.1ZM53.7,60.8c0-.5,0-.9-.2-1.1-.1-.2-.3-.3-.8-.3s-.5,0-.8.3-.2.6-.2,1,0,.9.2,1c.2.3.5.5.8.5s.5,0,.8-.3.2-.6.2-1ZM56.1,58h1.2v-1.1h-1.2v1.1ZM56.1,63h1.2v-4.4h-1.2v4.4ZM60.1,62.2h-.2c-.1,0,0,0,0-.1v-2.4h.9v-1h-.9v-1.6l-1.2.8v.9h-.5v1h.5v2.8c0,.2,0,.3.1.5s.2.2.3.2h.6c.3,0,.6,0,1-.1v-1h-.6q0,.1,0,.1ZM65.1,62.4c0,.1,0,.3.2.6h-1.2v-.5c-.2.2-.3.3-.6.5s-.5.1-.8.1c-.5,0-.9-.1-1.1-.3s-.3-.6-.3-1,0-.5.1-.6.2-.3.5-.5c.2,0,.5-.2,1-.2s1-.2,1.1-.2h0c0-.3,0-.5-.1-.6,0,0-.3-.1-.6-.1s-.3,0-.5.1-.2.2-.2.5l-1.1-.2c.1-.5.3-.8.6-1s.8-.3,1.3-.3,1,0,1.2.1.5.2.5.5.1.5.1,1.1v2.2h-.1ZM63.8,60.8c-.1,0-.3,0-.8.1-.3,0-.5.1-.6.2-.1,0-.2.2-.2.3s0,.3.1.5.2.1.5.1.3,0,.6-.2c.1,0,.2-.2.2-.3v-.9h.1c0,.1,0,.2,0,.2ZM69.4,60.7c-.2-.2-.8-.3-1.3-.5s-1-.2-1.1-.3v-.2c0,0,0-.2.1-.2.1,0,.3-.1.6-.1s.5,0,.6.1.2.2.2.3l1.1-.2c0-.3-.3-.8-.6-.9s-.8-.2-1.3-.2-1.1.1-1.5.3-.5.6-.5,1,.1.8.5,1c.2.1.9.3,1.8.6.2,0,.3,0,.3.1v.2c0,.1,0,.2-.1.3-.1,0-.3.1-.8.1s-.5,0-.6-.1-.2-.2-.3-.5h-1.2c0,.6.3,1,.8,1.2s.9.3,1.5.3,1.2-.1,1.5-.5c.3-.2.5-.6.5-1.1s-.1-.6-.3-.9h.3ZM70.9,58h1.2v-1.1h-1.2v1.1h0ZM70.9,63h1.2v-4.4h-1.2v4.4h0ZM79.5,61l-2.6-4.1h-1.2v6.1h1.1v-4l2.4,4h1.2v-6.1h-1.1v4.1h.1ZM85.6,62.4c0,.1,0,.3.2.6h-1.2v-.5c-.2.2-.3.3-.6.5s-.5.1-.8.1c-.5,0-.9-.1-1.1-.3s-.3-.6-.3-1,0-.5.1-.6.2-.3.5-.5c.2,0,.5-.2,1-.2s1-.2,1.1-.2h0c0-.3,0-.5-.1-.6s-.3-.1-.6-.1-.3,0-.5.1-.2.2-.2.5l-1.1-.2c.1-.5.3-.8.6-1s.8-.3,1.3-.3.9,0,1.2.1.5.2.5.5.1.5.1,1.1v2.2h-.1ZM84.4,60.8c-.1,0-.3,0-.8.1s-.5.1-.6.2c-.1,0-.2.2-.2.3s0,.3.1.5c.1.1.2.1.5.1s.3,0,.6-.2c.1,0,.2-.2.2-.3v-.9h.1c0,.1,0,.2,0,.2ZM90,60.7c-.2-.2-.8-.3-1.3-.5s-1-.2-1.1-.3v-.2c0,0,0-.2.1-.2.1,0,.3-.1.6-.1s.5,0,.6.1.2.2.2.3l1.1-.2c0-.3-.3-.8-.6-.9-.2-.2-.8-.2-1.3-.2s-1.1.1-1.5.3-.5.6-.5,1,.1.8.5,1c.2.1.9.3,1.8.6.2,0,.3,0,.3.1v.2c0,.1,0,.2-.1.3-.1,0-.3.1-.8.1s-.5,0-.6-.1-.2-.2-.3-.5h-1.2c0,.6.3,1,.8,1.2.3.2.9.3,1.5.3s1.2-.1,1.5-.5c.3-.2.5-.6.5-1.1s-.1-.6-.3-.9h.3ZM91.4,58h1.2v-1.1h-1.2v1.1ZM91.4,63h1.2v-4.4h-1.2v4.4ZM97.5,59.2c.5.5.6,1,.6,1.7s-.2,1.2-.6,1.7c-.5.5-1,.6-1.6.6s-.8,0-1.2-.2-.6-.5-.9-.9-.2-.8-.2-1.3,0-.8.2-1.1.5-.6.9-.9c.3-.2.8-.2,1.2-.2.8,0,1.2.2,1.7.6h-.1ZM96.9,60.8c0-.5,0-.8-.3-1-.2-.2-.5-.3-.8-.3s-.6,0-.8.3-.3.6-.3,1,0,.8.3,1,.5.3.8.3.6,0,.8-.3.3-.6.3-1h0ZM102.8,59c0-.1-.2-.2-.5-.3-.2,0-.5-.1-.8-.1-.6,0-1.1.2-1.5.8v-.6h-1.1v4.4h1.2v-2.9c0-.1.1-.3.3-.5.1,0,.3-.1.6-.1h.3s.2.2.2.3v3.3h1.2v-3.5c0-.1-.1-.3-.2-.5h0c0-.1,0-.3,0-.3ZM107.9,62.4c0,.1,0,.3.2.6h-1.2v-.5c-.2.2-.3.3-.6.5s-.5.1-.8.1c-.5,0-.9-.1-1.1-.3s-.3-.6-.3-1,0-.5.1-.6.2-.3.5-.5c.2,0,.5-.2,1-.2s1-.2,1.1-.2h0c0-.3,0-.5-.1-.6s-.3-.1-.6-.1-.3,0-.5.1-.2.2-.2.5l-1.1-.2c.1-.5.3-.8.6-1s.8-.3,1.3-.3.9,0,1.2.1.5.2.5.5.1.5.1,1.1v2.2h-.1ZM106.7,60.8c-.1,0-.3,0-.8.1s-.5.1-.6.2c-.1,0-.2.2-.2.3s0,.3.1.5c.1.1.2.1.5.1s.3,0,.6-.2c.1,0,.2-.2.2-.3v-.9h.1c0,.1,0,.2,0,.2ZM109,56.9v6.1h1.2v-6.1h-1.2Z"/>
</svg>