<?xml version="1.0" encoding="UTF-8"?>
<svg id="Layer_1" xmlns="http://www.w3.org/2000/svg" version="1.1" viewBox="0 0 192 80">
  <!-- Generator: Adobe Illustrator 29.3.1, SVG Export Plug-In . SVG Version: 2.1.0 Build 151)  -->
  <defs>
    <style>
      .st0 {
        fill: #c19d3c;
      }
    </style>
  </defs>
  <path class="st0" d="M130.8,45.5l5.2-2.4-4.7-3.1,4.7-3.2-5.1-2.3,4.2-3.8-5.5-1.5,3.5-4.5-5.6-.7,2.8-4.9-5.7.2,2-5.3-5.5,1.1,1.1-5.5-5.3,1.9.2-5.6-5,2.8-.7-5.6-4.5,3.5-1.5-5.5-3.8,4.2-2.4-5.1-3.1,4.7-3.2-4.7-2.3,5.1-3.8-4.2-1.5,5.5-4.5-3.5-.6,5.6-5-2.8.2,5.7-5.3-2,1.1,5.5-5.6-1.1,1.9,5.3-5.6-.2,2.8,5-5.6.7,3.5,4.5-5.5,1.5,4.2,3.8-5.1,2.4,4.7,3.1-4.7,3.1,5.1,2.4-4.2,3.8,5.5,1.5-3.5,4.4,5.6.7-2.8,5,5.7-.2-2,5.3,5.5-1.1-1.1,5.6,5.3-1.9-.2,5.6,5-2.8.7,5.6,4.5-3.5,1.5,5.5,3.9-4.2,2.3,5.1,3.1-4.7,3.2,4.7,2.3-5.1,3.8,4.2,1.5-5.5,4.5,3.5.6-5.6,5,2.8-.2-5.7,5.3,2-1.1-5.5,5.6,1.1-2-5.3,5.6.2-2.8-4.9,5.6-.6-3.5-4.5,5.5-1.5-4.2-3.8h0ZM96,74.3c-18.9,0-34.3-15.3-34.3-34.3S77.1,5.7,96,5.7s34.3,15.3,34.3,34.3-15.3,34.3-34.3,34.3h0Z"/>
  <path class="st0" d="M96,72.4c-17.9,0-32.5-14.6-32.5-32.5S78.1,7.5,96,7.5s32.5,14.6,32.5,32.5-14.6,32.5-32.5,32.5h0ZM96,8c-17.6,0-32,14.3-32,32s14.3,32,32,32,32-14.3,32-32-14.3-32-32-32Z"/>
  <path class="st0" d="M96,64.5c-13.5,0-24.5-11-24.5-24.5s11-24.5,24.5-24.5,24.5,11,24.5,24.5-11,24.5-24.5,24.5h0ZM96,15.9c-13.3,0-24.1,10.8-24.1,24.1s10.8,24.1,24.1,24.1,24.1-10.8,24.1-24.1-10.8-24.1-24.1-24.1Z"/>
  <path class="st0" d="M70.9,29.1l-.6,1.5.5.5c.1.1.2.2.3.2h.2c0,0,.2-.2.2-.3h.1c0,0-.5,1.3-.5,1.3h-.1c0-.2,0-.3,0-.4,0-.1-.2-.3-.4-.6l-2.7-2.7h0c0-.1,3.9-.2,3.9-.2.3,0,.5,0,.6,0,.1,0,.2-.2.3-.3h.1c0,0-.6,1.6-.6,1.6h-.1c0-.2,0-.3,0-.4,0,0,0-.1-.1-.2s-.2,0-.5,0h-.7ZM70.6,29.1h-1.9l1.3,1.4.6-1.4ZM74.2,25.9l-3.9-.6,2.4,1.6c.2.1.4.2.5.2s.2-.1.3-.2h0c0-.1.1,0,.1,0l-.8,1.3h-.1c0,0,0-.2,0-.2.1-.2.1-.3,0-.4,0,0-.1-.2-.3-.3l-2.3-1.5c-.2-.1-.3-.2-.4-.2,0,0-.1,0-.2,0s-.2.1-.3.3h-.1c0,0,.7-1.1.7-1.1l3.7.6-1.9-3.1.7-1h.1c0,0,0,.2,0,.2-.1.2-.1.3,0,.4,0,0,.1.2.3.3l2.3,1.5c.2.1.4.2.5.2.1,0,.2-.1.3-.2h0c0-.1.1,0,.1,0l-1,1.5h-.1c0,0,0-.2,0-.2.1-.2.1-.3,0-.4,0,0-.1-.2-.3-.3l-2.4-1.6,2.1,3.4h0c0,0,0,0,0,0ZM74,19.6l1.2,1.2.7-.7c.2-.2.3-.3.3-.4s0-.3-.2-.5h0c0,0,1.1,1,1.1,1h0c-.2,0-.3-.1-.3-.1h-.3c0,0-.2.1-.3.2l-.7.7,1,1c.1.1.2.2.3.2h.1c0,0,.1,0,.2-.2l.5-.5c.2-.2.3-.3.3-.4s0-.2,0-.4,0-.4-.1-.7h0c0,0,.5.9.5.9l-2.3,2.4h0c0,0,.1-.2.1-.2,0,0,.1-.2.2-.3v-.2c0,0-.1-.2-.3-.3l-2-1.9c-.2-.2-.3-.3-.4-.3s-.2,0-.3.2h-.1c0,.1,0,0,0,0l2.3-2.4.7.6h0c-.2,0-.3-.1-.4-.1-.1,0-.2,0-.3,0,0,0-.2.1-.3.3l-.8.9h0ZM82.1,18l-.9.7-2.4-.7c0,0-.2.1-.2.2,0,0,0,0,0,0,0,0,0,0,0,0l.7,1c.2.2.3.3.4.3.1,0,.2,0,.4-.1h.1c0-.1,0,0,0,0l-1.5,1.1h0c0,0,.1-.2.1-.2.1-.1.2-.2.2-.4s0-.2-.2-.4l-1.7-2.2c-.2-.2-.3-.3-.4-.3-.1,0-.2,0-.4.1h-.1c0,.1,0,0,0,0l1.3-1c.4-.3.6-.5.9-.5.2,0,.4,0,.7,0s.4.2.6.4c.2.2.2.5.2.7s-.2.5-.4.8l1.4.5c.3.1.6.1.7.1s.3,0,.6-.2h0c0,0,0,.1,0,.1ZM78.3,18.1s0,0,0,0c0,0,0,0,0,0,.3-.2.5-.5.6-.8,0-.3,0-.5-.2-.7s-.4-.3-.6-.4c-.2,0-.5,0-.7.2-.1,0-.2.2-.3.3l1.1,1.4h0ZM83.8,16.9h0c0,.1-1.6,1-1.6,1h0c0-.1.1-.2.1-.2.2,0,.2-.2.3-.3,0,0,0-.2-.2-.5l-1.4-2.4c-.1-.2-.2-.3-.2-.3,0,0-.1,0-.2,0s-.2,0-.3,0h-.1c0,0,0,0,0,0l1.6-.9h0c0,.1-.1.2-.1.2-.2,0-.2.2-.3.3,0,0,0,.2.2.5l1.4,2.4c.1.2.2.3.2.3,0,0,.1,0,.2,0s.2,0,.3,0h.1ZM85.6,11.5l.7,1.3h0c-.3-.3-.6-.5-.9-.6-.3,0-.6,0-.9,0-.3.1-.5.3-.6.5-.2.2-.2.5-.2.9,0,.3.1.7.3,1.2.2.3.3.6.6.9.2.2.5.3.8.4.3,0,.6,0,.9-.1.3-.1.5-.3.6-.5s.3-.5.4-.9h.1c0,.5-.2.8-.3,1.1-.2.3-.5.5-.8.6-.6.3-1.3.3-1.8,0-.4-.2-.7-.6-1-1.1-.2-.4-.2-.8-.2-1.2s.2-.8.4-1.1.5-.6.9-.7c.3-.1.6-.2.9-.2h.2c0,0,0,0,.1-.1,0,0,0-.2,0-.3h.1c0,0,0,0,0,0ZM89.8,13.3l-1.6.4v.7c-.1.2-.1.3-.1.4,0,0,0,.1.1.1s.2,0,.4,0h0c0,.1-1.3.4-1.3.4h0c.1-.2.2-.2.3-.3,0-.1.1-.3.2-.7l.6-3.8h.1s2.3,3.1,2.3,3.1c.2.2.3.4.5.5s.3,0,.4,0h0c0,.1-1.6.5-1.6.5h0c.1-.2.2-.2.3-.3,0,0,0-.1,0-.2,0,0-.1-.2-.2-.4l-.4-.5h0ZM89.7,13.1l-1.1-1.5-.3,1.9,1.4-.4h0ZM91.4,10h1.2c0,0,2.9,3,2.9,3l-.2-2.5c0-.3,0-.4-.1-.5,0,0-.2-.1-.4-.1h-.2c0-.1,1.5-.2,1.5-.2h0c0,.1-.1.1-.1.1-.2,0-.3,0-.4.2,0,0,0,.2,0,.5l.3,3.6h-.1l-3.1-3.3.2,2.6c0,.3,0,.4.1.5,0,0,.2.1.4.1h.2c0,.1-1.5.2-1.5.2h0c0-.1.1-.1.1-.1.2,0,.3,0,.4-.2,0,0,0-.2,0-.5l-.2-3c-.1-.1-.2-.2-.3-.3,0,0-.2,0-.3-.1h-.3c0-.1,0-.1,0-.1ZM101,13.1l-1.7-.3-.4.6c-.1.2-.2.3-.2.3s0,.1,0,.2.2.1.4.2h0c0,.1-1.4-.1-1.4-.1h0c.2-.1.3-.1.4-.2.1,0,.3-.3.5-.6l2.1-3.3h.1l.9,3.8c0,.3.2.5.2.6,0,.1.2.2.4.2h0c0,.1-1.7-.2-1.7-.2h0c.2-.1.3-.1.4-.1,0,0,.1,0,.1-.2s0-.2,0-.5l-.2-.6h0ZM101,12.8l-.4-1.8-1,1.6,1.5.2h0ZM107.1,11.7l-.4,1.4h0c0-.5,0-.9-.2-1.1-.2-.3-.4-.4-.7-.5-.3,0-.5-.1-.8,0-.3,0-.5.2-.7.5-.2.3-.4.6-.6,1.1-.1.4-.2.7-.1,1,0,.3.1.6.3.8s.4.4.7.5c.3,0,.5.1.7,0,.2,0,.5-.2.9-.5h0c-.3.4-.6.6-1,.6-.3,0-.7,0-1.1,0-.7-.2-1.1-.6-1.3-1.3-.2-.5-.2-1,0-1.5.1-.4.3-.7.6-1,.3-.3.6-.5,1-.5s.8,0,1.1,0c.3.1.6.3.8.5,0,0,.1.1.2.1h.2c0,0,.1-.1.2-.2h.2ZM109.1,15.9l-1.5-.8-.6.5c-.1.1-.2.2-.3.3,0,0,0,.1,0,.2,0,0,.1.2.3.3h0c0,.1-1.2-.5-1.2-.5h0c.2,0,.3,0,.4,0,.1,0,.3-.2.6-.4l3-2.5h.1c0,0-.3,3.9-.3,3.9,0,.3,0,.5,0,.6,0,.1.2.2.3.3h0c0,.1-1.5-.7-1.5-.7h0c.2,0,.3,0,.3,0,0,0,.1,0,.2-.1,0,0,0-.2,0-.5v-.7c0,0,0,0,0,0ZM109.1,15.7l.2-1.9-1.5,1.2,1.3.7ZM110,18h0c0,0,.1,0,.1,0,.1.1.3.1.4.1,0,0,.2-.1.3-.3l1.7-2.2c.2-.2.2-.4.2-.5,0-.1,0-.2-.2-.3h-.1c0-.1,0-.2,0-.2l1.4,1.1c.5.4.9.7,1,1.1.2.3.2.7.2,1.1s-.2.8-.5,1.1c-.4.5-.8.7-1.3.9-.6.1-1.2-.1-1.9-.6l-1.5-1.2h0ZM111.2,18.5c.2.2.3.4.5.5.4.3.8.4,1.3.3s.9-.3,1.2-.8c.4-.5.5-.9.5-1.4,0-.5-.3-.9-.7-1.2-.2-.1-.3-.2-.6-.3l-2.2,2.9h0ZM117.3,18.8l-1.2,1.2.6.7c.2.2.3.3.4.3s.3,0,.5-.2h0c0,0-1.1,1.1-1.1,1.1h0c.1-.2.2-.3.2-.4,0,0,0-.2,0-.3,0,0-.1-.2-.2-.3l-.6-.7-1,1c-.1.1-.2.2-.2.3h0c0,.2,0,.2.1.3l.5.5c.2.2.3.3.4.3s.2,0,.4,0,.4,0,.7-.1h0c0,0-1,.6-1,.6l-2.3-2.4h0c0,0,.1,0,.1,0,0,0,.2.1.2.2h.2c0,0,.2-.1.3-.3l2-1.9c.2-.2.3-.3.3-.4,0-.1,0-.2-.2-.4h-.1c0-.1,0-.2,0-.2l2.3,2.4-.6.7h0c.1-.3.2-.4.2-.5s0-.2,0-.3c0,0-.1-.2-.3-.3l-.8-.9h0ZM117.5,25.5l2.1-3.4-2.4,1.6c-.2.1-.3.3-.4.3,0,.1,0,.2.1.4h0c0,.1-.1.2-.1.2l-.8-1.3h.1c0,0,0,0,0,0,.1.2.2.2.3.2s.2,0,.4-.2l2.3-1.5c.2-.1.3-.2.3-.3,0,0,0-.1,0-.2,0,0,0-.2-.2-.3h.1c0,0,.7,1,.7,1l-1.9,3.1,3.7-.6.7,1h-.1c0,0,0,0,0,0-.1-.2-.2-.2-.3-.2s-.2,0-.4.2l-2.3,1.5c-.2.1-.3.3-.4.3,0,.1,0,.2.1.4h0c0,.1-.1.2-.1.2l-1-1.5h.1c0,0,0,0,0,0,.1.2.2.2.3.2s.2,0,.4-.2l2.4-1.6-3.9.6h0ZM124.3,29.3l.6,1.4h-.1c0,0,0,0,0,0,0,0-.1-.1-.2-.2,0,0-.2-.1-.3-.2s-.3,0-.5-.1l-1.9-.3-1,.4c-.2.1-.4.2-.4.3,0,.1,0,.2,0,.4h0c0,.1-.1.2-.1.2l-.7-1.7h.1c0,0,0,0,0,0,0,.2.2.3.3.3,0,0,.2,0,.5-.1l.9-.4,1.2-1.8c.1-.2.2-.3.3-.4s0-.2,0-.3,0-.1,0-.2h.1c0,0,.7,1.7.7,1.7h-.1c0,0,0,0,0,0,0,0-.1-.2-.2-.2,0,0-.2,0-.2,0,0,0-.2.1-.3.3l-.9,1.4,1.5.3c.2,0,.4,0,.5,0,0,0,.1,0,.1-.1,0,0,0-.1,0-.2s0-.2,0-.2h.1ZM126,35.5c0,.6,0,1.1-.4,1.5-.3.5-.9.7-1.5.9-.6.1-1.2,0-1.7-.4-.5-.3-.8-.8-.9-1.4s0-1.1.4-1.6.9-.7,1.5-.8c.7-.1,1.3,0,1.8.5.4.3.7.8.8,1.4h0ZM125.7,35.4c0-.4-.2-.7-.6-.9-.4-.2-.9-.3-1.6-.2-.7.1-1.2.3-1.5.7-.2.3-.3.6-.3,1,0,.4.3.7.6.9.3.2.9.3,1.5.2.7-.1,1.3-.3,1.6-.7.2-.3.3-.6.3-1h0ZM126,39.4h-1.7v.8c0,.2,0,.3.1.4s.2.1.5.2h0c0,.1-1.4.1-1.4.1h0c.2-.1.3-.1.4-.2s.1-.1.2-.2,0-.2,0-.3v-.8h-1.4c-.2,0-.4,0-.4,0,0,0-.1,0-.1.1,0,.1,0,.2,0,.3v.2h-.1v-1.8s0,0,0,0v.2c0,.2,0,.3.2.4,0,0,.2,0,.5,0h2.8c.2,0,.4,0,.4-.1,0,0,.1,0,.1-.1,0,0,0-.2,0-.3v-.2h.1v3.2c0,0-.9,0-.9,0h0c.2-.2.3-.2.4-.3,0,0,.2-.2.2-.3s0-.3,0-.5v-.9h0ZM125.5,45.2l-1.7-.3-.2.8c0,.2,0,.3,0,.4,0,.1.2.2.4.2h0c0,.1-1.4-.2-1.4-.2h0c.2,0,.3,0,.4-.1,0,0,.2,0,.2-.1s0-.2.1-.3l.2-.8-1.3-.3c-.2,0-.3,0-.4,0s-.1,0-.2.1c0,0-.1.2-.1.3v.2h-.1l.3-1.8h.1v.2c0,.2,0,.3,0,.4s.2.1.5.2l2.7.5c.2,0,.3,0,.4,0s.1,0,.2-.1c0,0,.1-.2.1-.3v-.2h.1l-.6,3.1h-.9v-.2c.2,0,.4,0,.5-.1s.2-.1.2-.2c0-.1.1-.3.2-.5l.2-.9h0ZM120.6,48.6h-.1s.5-1.8.5-1.8h.1s0,.2,0,.2c0,.2,0,.3,0,.4,0,0,.2.1.5.2l2.6.8c.2,0,.3,0,.4,0s.1,0,.2,0c0,0,.1-.2.2-.3h0c0-.1.1-.1.1-.1,0,0-.5,1.8-.5,1.8h-.1s0-.2,0-.2c0-.2,0-.3,0-.4,0,0-.2-.1-.5-.2l-2.6-.8c-.2,0-.3-.1-.4,0,0,0-.1,0-.2,0,0,0-.1.2-.2.2v.2c0,0,0,0,0,0ZM124.5,50.5l-.5,1.1-4,1,2.2,1c.2.1.4.2.5.1.1,0,.2-.1.3-.3h0c0-.1.1,0,.1,0l-.6,1.4h-.1c0,0,0-.2,0-.2,0-.2,0-.3,0-.4,0,0-.2-.2-.4-.3l-3.3-1.5h0c0-.1,4.3-1.2,4.3-1.2l-2.4-1.1c-.2-.1-.4-.2-.5-.1-.1,0-.2.1-.3.3h0c0,.1-.1,0-.1,0l.6-1.4h.1c0,0,0,.2,0,.2,0,.2,0,.3,0,.4,0,0,.2.2.4.3l2.7,1.3c.2,0,.3-.1.4-.1s.2-.1.2-.2c0,0,0-.1.1-.2h.1c0,0,0,.1,0,.1ZM118.2,56l.9-1.4-.4-.6c-.1-.2-.2-.3-.2-.3s-.1,0-.2,0c0,0-.2.1-.3.3h-.1c0,0,.8-1.2.8-1.2h.1c0,.2-.1.3-.1.4,0,.1.1.4.3.6l2.1,3.3h0c0,0-3.8-.7-3.8-.7-.3,0-.5,0-.6,0-.1,0-.2.1-.3.3h-.1c0,0,1-1.5,1-1.5h.1c0,.2-.1.3-.1.4s0,.1.1.2c0,0,.2.1.4.1h.7q0,.1,0,.1ZM118.4,56.1l1.8.4-1-1.6-.8,1.2h0ZM119.2,59.5l-.8.8-4.1-.4,1.8,1.7c.2.2.3.3.4.3s.2,0,.3-.2h.1c0-.1,0,0,0,0l-1,1.1h0c0,0,.1-.2.1-.2.1-.1.2-.3.2-.4,0,0-.1-.2-.3-.4l-2.6-2.6h0c0,0,4.5.3,4.5.3l-1.9-1.9c-.2-.2-.3-.3-.4-.3s-.2,0-.3.2h-.1c0,.1,0,0,0,0l1-1.1h0c0,0-.1.2-.1.2-.1.1-.2.3-.2.4,0,0,.1.2.3.4l2.1,2.1h.4c0,0,.2,0,.3-.1,0,0,.1,0,.2-.2h0c0,0,0,.1,0,.1ZM112.4,65.6l-.9-1.1h0c.4.2.7.4,1,.4s.6,0,.9-.3c.2-.2.4-.4.5-.6.1-.2.1-.5,0-.9,0-.3-.3-.7-.5-1.1-.2-.3-.5-.6-.7-.7-.3-.2-.6-.2-.9-.2-.3,0-.6.1-.8.3-.2.2-.4.3-.5.6-.1.2-.2.6-.2,1h-.1c0-.4,0-.8.1-1.1.1-.3.3-.6.7-.8.6-.4,1.2-.5,1.8-.3.5.1.9.4,1.2.9.2.3.4.7.5,1.1s0,.8-.2,1.1c-.2.3-.4.7-.7.9-.2.2-.5.3-.9.3-.1,0-.2,0-.2,0,0,0,0,0,0,.1,0,0,0,.2,0,.3h0c0,0,0,.1,0,.1ZM107.9,63.2h0c0-.1,1.6-1,1.6-1h0c0,.1-.1.2-.1.2-.2,0-.2.2-.3.3,0,0,0,.2.2.5l1.4,2.4c.1.2.2.3.2.3s.1,0,.2,0,.2,0,.3,0h.1c0,0,0,0,0,0l-1.6.9h0c0-.1.1-.2.1-.2.2,0,.2-.2.3-.3,0,0,0-.2-.2-.5l-1.4-2.4c-.1-.2-.2-.3-.2-.3s-.1,0-.2,0-.2,0-.3,0h-.1ZM105.5,65.7l1.5-.6v-1.1c0,0,0-.1-.2-.1,0,0-.2,0-.4,0h0c0-.1,1.3-.6,1.3-.6h0c-.2.2-.2.3-.3.3,0,.1-.1.4-.1.7v3.8c-.1,0-.2,0-.2,0l-2.7-2.8c-.2-.2-.4-.3-.5-.4s-.3,0-.4,0h0c0-.1,1.6-.7,1.6-.7h0c-.2.2-.2.2-.3.3,0,0,0,.1,0,.2,0,0,.1.2.3.4l.5.5h0ZM105.7,65.8l1.3,1.3v-1.9c0,0-1.3.5-1.3.5h0ZM100,66.9h-.1v-1.2c.1,0,3.4-.7,3.4-.7h0c0,.1-.1.1-.1.1-.2,0-.3.1-.3.3,0,0,0,.2,0,.5l.6,2.7c0,.3.1.4.2.5.1,0,.2.1.4,0h.2s0,0,0,0l-1.9.4h0c.2-.2.3-.2.4-.3s.1-.1.2-.2c0,0,0-.2,0-.5l-.6-2.6c0-.2,0-.3-.1-.3s0,0-.1,0c0,0-.2,0-.5,0h-.3c-.3.1-.5.2-.7.3s-.2.2-.3.3-.2.3-.2.6h0ZM95.5,65.9l1.5,3.7v-2.9c0-.3,0-.4,0-.5,0,0-.2-.1-.4-.1h-.2c0-.1,1.5,0,1.5,0h0c0,.1-.2.1-.2.1-.2,0-.3,0-.4.2,0,0,0,.2,0,.5v2.8c0,.2,0,.3,0,.4,0,0,0,.1.2.2s.2,0,.4,0h0c0,.1-1.2,0-1.2,0l-1.5-3.4-1.6,3.3h-1.2v-.2h.2c.2,0,.3,0,.4-.2,0,0,0-.2,0-.5v-2.8c0-.3,0-.4,0-.5,0,0-.2-.1-.4-.1h-.2c0-.1,1.8,0,1.8,0h0c0,.1-.2.1-.2.1-.2,0-.3,0-.4.2,0,0,0,.2,0,.5v2.9c0,0,1.7-3.6,1.7-3.6h.2ZM89.2,66.5l1.6.4.4-.6c.1-.1.2-.3.2-.3,0,0,0-.1,0-.2s-.2-.1-.4-.2h0c0-.1,1.3.2,1.3.2h0c-.2.1-.3.1-.4.2-.1,0-.3.2-.5.5l-2.3,3.1h-.1l-.6-3.8c0-.3-.1-.5-.2-.6s-.2-.2-.4-.2h0c0-.1,1.7.3,1.7.3h0c-.2,0-.3,0-.4.1,0,0-.1,0-.1.2v1.1h.1ZM89.2,66.8l.3,1.9,1.1-1.5-1.4-.3h0ZM86.3,68.7l-1.1-.5-1.1-4-1,2.3c-.1.2-.1.4-.1.5,0,.1.1.2.3.3h.1c0,0,0,.2,0,.2l-1.4-.6h0c0-.1.1,0,.1,0,.2,0,.3,0,.4,0,0,0,.2-.2.2-.4l1.4-3.3h.1c0,0,1.2,4.3,1.2,4.3l1-2.4c.1-.2.1-.4.1-.5,0-.1-.1-.2-.3-.3h-.1c0,0,0-.2,0-.2l1.4.6h0c0,.1-.1,0-.1,0-.2,0-.3,0-.4,0,0,0-.2.2-.2.4l-1.2,2.7c0,.2.1.3.1.4,0,0,.1.1.2.2,0,0,.1,0,.2.1h0c0,.1,0,.1,0,.1ZM80.6,62.6l1.4.9.6-.4c.2-.1.2-.2.3-.3,0,0,0-.1,0-.2s-.1-.2-.3-.3h0c0-.1,1.1.6,1.1.6h0c-.2,0-.3,0-.3,0-.1,0-.3.1-.6.3l-3.2,2.1h0c0,0,.7-3.9.7-3.9,0-.3,0-.5,0-.6s-.1-.2-.3-.3h0c0-.1,1.4.8,1.4.8h0c-.2,0-.3,0-.3,0s-.1,0-.2.1c0,0-.1.2-.1.4v.7c-.1,0-.1,0-.1,0ZM80.5,62.9l-.3,1.8,1.6-1-1.2-.8h0ZM74.5,61.4l.8-1.1h0c-.1.4-.2.7-.2.9,0,.3.2.7.5.9.4.4.9.5,1.4.3.4-.1.8-.3,1.1-.7.3-.3.5-.6.6-1,.1-.3.1-.7,0-1,0-.3-.2-.5-.4-.7-.1-.1-.2-.2-.4-.3s-.3-.1-.4-.2l-.8.9c-.1.2-.2.3-.2.3v.2c0,0,.1.2.2.3h0c0,0-1.2-1-1.2-1h0c0,0,0,0,0,0,.1.1.2.1.4.1,0,0,.2-.1.3-.3l.9-1c.3,0,.5.2.7.3s.4.3.6.5c.6.6.9,1.2.9,1.9,0,.5-.2,1-.6,1.4-.2.3-.6.5-.9.6-.4.2-.9.2-1.3.1-.3,0-.7-.3-1-.5-.1-.1-.2-.2-.3-.3,0-.1-.2-.3-.3-.5s-.1-.2-.1-.2,0,0-.1,0c0,0-.1,0-.2.1h0c0,0,0-.1,0-.1ZM73.1,59.3l1.3-1.1-.6-.7c-.2-.2-.3-.3-.4-.3-.1,0-.3,0-.5.2h0c0,0,1.2-1,1.2-1h0c-.1.2-.2.3-.3.4,0,0,0,.2,0,.3,0,.1,0,.2.2.3l.6.7,1.1-.9c.2-.1.2-.2.2-.2s0,0,0-.1c0,0,0-.1-.1-.2l-.5-.6c-.2-.2-.3-.3-.4-.4s-.2-.1-.3-.1c-.2,0-.4,0-.7,0h0c0-.1,1.1-.5,1.1-.5l2.1,2.6h0c0,0-.1,0-.1,0,0,0-.1-.1-.2-.2,0,0-.1,0-.2,0,0,0-.2.1-.3.2l-2.2,1.8c-.2.2-.3.3-.3.4,0,.1,0,.2.1.4h.1c0,.1,0,.2,0,.2l-2.1-2.6.7-.6h0c-.2.3-.2.4-.3.5,0,.1,0,.2,0,.3,0,0,.1.2.2.4l.7.9h0ZM73.4,52.7l-2.4,3.2,2.5-1.4c.2-.1.4-.2.4-.3,0-.1,0-.2,0-.4h0c0-.1.1-.2.1-.2l.7,1.3h-.1c0,0,0,0,0,0,0-.2-.2-.2-.3-.3,0,0-.2,0-.4.2l-2.5,1.4c-.2,0-.3.2-.3.3,0,0,0,.1,0,.2s0,.2.1.4h-.1c0,0-.6-1-.6-1l2.2-3-3.7.3-.6-1.1h.1c0,0,0,0,0,0,0,.2.2.2.3.3,0,0,.2,0,.4-.2l2.5-1.4c.2-.1.4-.2.4-.3,0-.1,0-.2,0-.4h0c0-.1.1-.2.1-.2l.9,1.6h-.1c0,0,0,0,0,0,0-.2-.2-.2-.3-.3,0,0-.2,0-.4.2l-2.5,1.4,4-.3h0c0,0,0,.1,0,.1ZM67.7,50l1.6-.5-.3-.9c0-.2-.2-.4-.3-.4-.1,0-.3,0-.5,0h0c0-.1,1.4-.6,1.4-.6h0c-.2.2-.3.3-.3.3s-.1.1-.1.2,0,.2,0,.4l.3.9,1.3-.5c.2,0,.3-.1.3-.1,0,0,0,0,0-.1s0-.1,0-.2l-.2-.7c0-.2-.2-.4-.2-.5,0-.1-.2-.2-.3-.2-.2,0-.4-.2-.7-.2h0c0-.1,1.1-.1,1.1-.1l1,3.1h-.1s0-.1,0-.1c0-.1,0-.2-.2-.2,0,0-.1,0-.2,0s-.2,0-.4.1l-2.6.9c-.3,0-.4.2-.5.2,0,.1,0,.2,0,.4h0c0,.1-.1.1-.1.1,0,0-1-3.1-1-3.1l.9-.3h0c-.2.2-.3.3-.3.4s-.1.2-.1.3,0,.2.1.4l.4,1.1h0ZM66.5,47.1l-.2-1.1,2.8-3.1-2.5.4c-.3,0-.4.1-.5.2,0,0-.1.2,0,.4v.2h0l-.2-1.5h.1c0,.3.1.4.2.5,0,0,.2,0,.5,0l3.6-.6h0c0,.1-3,3.4-3,3.4l2.6-.4c.3,0,.4-.1.5-.2,0,0,.1-.2,0-.4v-.2h0l.2,1.5h-.1c0-.3-.1-.4-.2-.5,0,0-.2,0-.5,0l-3,.5c-.1.1-.2.3-.2.3,0,0,0,.2,0,.3v.3h-.1,0ZM65.8,38h1s0,0,0,0c-.2,0-.3,0-.4,0-.1,0-.2.2-.3.3s0,.2-.1.4v.6h3.3c.3,0,.4,0,.5,0,0,0,.1-.2.1-.4v-.2h.1v1.8h-.1v-.2c0-.2,0-.3-.2-.4,0,0-.2,0-.5,0h-3.3c0,0,0,.5,0,.5,0,.2,0,.3,0,.4,0,.1.1.2.2.3s.3.1.5.2h0c0,.1-1,0-1,0v-3.5c0,0,0,0,0,0ZM68.1,35.7c-.2,0-.4-.2-.6-.4-.1-.2-.2-.4-.1-.7s.2-.4.4-.6c.2-.1.4-.2.7-.1s.4.2.6.4c.1.2.2.4.1.7s-.2.4-.4.6c-.2.1-.4.2-.7.1Z"/>
  <path class="st0" d="M86.9,28.7l1.5,3.6h-3l1.5-3.6ZM94.9,23.6v15.2h-15.2v-15.2h15.2ZM91.9,35.5c-.4,0-.6-.1-.9-.3-.2-.2-.4-.6-.7-1.1l-3.1-7.4h-.2l-3.1,7.3c-.3.6-.5,1.1-.7,1.3-.1.1-.3.2-.7.3v.2h2.8v-.2c-.4,0-.7-.1-.8-.2s-.2-.2-.2-.3,0-.4.2-.8l.6-1.4h3.4l.5,1.3c.2.4.3.7.3.9s0,.3-.2.4-.4.2-.7.2v.2h3.5v-.2h0Z"/>
  <path class="st0" d="M104.4,28.7l1.5,3.6h-3l1.5-3.6h0ZM112.4,23.6v15.2h-15.2v-15.2h15.2ZM109.4,35.5c-.4,0-.6-.1-.9-.3-.2-.2-.4-.6-.7-1.1l-3.1-7.4h-.2l-3.1,7.3c-.3.6-.5,1.1-.7,1.3-.1.1-.3.2-.7.3v.2h2.8v-.2c-.4,0-.7-.1-.8-.2s-.2-.2-.2-.3,0-.4.2-.8l.6-1.4h3.4l.5,1.3c.2.4.3.7.3.9s0,.3-.2.4-.4.2-.7.2v.2h3.5v-.2h0Z"/>
  <path class="st0" d="M97.1,41.1v15.2h15.2v-15.2h-15.2ZM110.4,44.6h-.3c-.4,0-.6.1-.8.3-.1.1-.1.5-.1,1v5.8c0,.5,0,.9.2,1,.2.2.4.3.8.3h.3v.2h-3.8v-.2h.3c.4,0,.6-.1.8-.3.1-.1.1-.5.1-1v-5.9l-3.4,7.4h-.2l-3.4-7.4v5.9c0,.5,0,.9.2,1,.2.2.4.3.8.3h.3v.2h-3.1v-.2h.3c.4,0,.6-.1.8-.3.1-.1.1-.5.1-1v-5.8c0-.4,0-.7-.1-.9,0-.1-.2-.2-.3-.3-.2,0-.4-.1-.8-.1v-.2h2.5l3.2,6.9,3.1-6.9h2.5v.2h0Z"/>
  <path class="st0" d="M79.6,41.1v15.2h15.2v-15.2h-15.2ZM90.4,46.3c-.1-.4-.2-.7-.4-.9s-.3-.3-.6-.4c-.2,0-.6-.1-1-.1h-1.9v3.5h1.6c.4,0,.6,0,.8-.2.2-.2.3-.5.3-1h.2v3h-.2c0-.3,0-.6-.1-.7s-.2-.3-.3-.4c-.2,0-.4-.1-.7-.1h-1.6v2.8c0,.5,0,.7,0,.9,0,.1.1.2.3.3.2.1.4.2.6.2h.3v.2h-3.8v-.2h.3c.4,0,.6-.1.8-.3.1-.1.2-.5.2-1v-5.7c0-.5,0-.7,0-.9,0-.1-.1-.2-.3-.3-.2-.1-.4-.2-.6-.2h-.3v-.2h6.6v1.9c0,0-.2,0-.2,0h0Z"/>
</svg>