<?xml version="1.0" encoding="UTF-8"?>
<svg id="_x39_001:2015" xmlns="http://www.w3.org/2000/svg" version="1.1" viewBox="0 0 38 38">
  <!-- Generator: Adobe Illustrator 29.3.1, SVG Export Plug-In . SVG Version: 2.1.0 Build 151)  -->
  <defs>
    <style>
      .st0 {
        fill: #e30613;
      }
    </style>
  </defs>
  <g>
    <path class="st0" d="M19,38C8.5,38,0,29.5,0,19S8.5,0,19,0s19,8.5,19,19-8.5,19-19,19ZM19,.7C8.9.7.7,8.9.7,19s8.2,18.3,18.3,18.3,18.3-8.2,18.3-18.3S29.1.7,19,.7Z"/>
    <g>
      <path class="st0" d="M6.3,10.6c-.2,0-.4,0-.5.2-.1.3,0,.5.3.7s.6.2.8,0c0-.2,0-.3,0-.5v-.2c.4.2.4.6.2.8-.2.4-.7.5-1.1.2-.5-.3-.6-.7-.4-1.1.2-.3.5-.4.8-.3v.2c-.1,0-.1,0-.1,0Z"/>
      <path class="st0" d="M6.6,9.3l.7-.9h.2c0,.1-.5.8-.5.8l.4.3.5-.6h.2c0,.1-.5.7-.5.7l.4.3.5-.7h.2c0,.1-.7,1-.7,1l-1.3-1h0Z"/>
      <path class="st0" d="M7.9,7.8l.4-.4c.2-.2.5-.3.7,0,.1.1.2.3.1.4.1,0,.2,0,.3,0l.4.3-.2.2-.4-.2c-.2-.1-.2,0-.4,0l-.2.2.5.5-.2.2-1.1-1.2h0ZM8.2,7.8l.4.4.2-.2c.1-.1.1-.3,0-.4-.1-.1-.3-.1-.4,0l-.2.2Z"/>
      <path class="st0" d="M9.9,6.3l-.4.3v-.2c-.1,0,.9-.8.9-.8v.2c.1,0-.3.3-.3.3l.8,1.1-.2.2-.8-1.1Z"/>
      <path class="st0" d="M11.1,5.2h.2c0-.1.8,1.3.8,1.3h-.2c0,.1-.8-1.3-.8-1.3Z"/>
      <path class="st0" d="M12.2,4.6l1-.5v.2c0,0-.7.4-.7.4l.2.5.7-.3v.2c0,0-.6.3-.6.3l.3.6h-.2c0,.1-.7-1.4-.7-1.4h0Z"/>
      <path class="st0" d="M14,3.9h.2c0,0,.5,1.5.5,1.5h-.2c0,0-.5-1.5-.5-1.5Z"/>
      <path class="st0" d="M15.1,3.5l1.1-.2v.2s-.8.2-.8.2v.5c.1,0,.8-.2.8-.2v.2s-.7.2-.7.2v.5c.1,0,.9-.2.9-.2v.2s-1,.2-1,.2l-.4-1.6h0Z"/>
      <path class="st0" d="M17.1,3.1h.5c.5,0,.8.2.9.7s-.2.8-.7.9h-.5s-.1-1.6-.1-1.6h0ZM18.2,3.9c0-.4-.3-.6-.6-.6h-.3s0,1.2,0,1.2h.3c.3,0,.5-.3.5-.7h0Z"/>
      <path class="st0" d="M21.4,3.7c0-.2-.2-.3-.4-.3-.3,0-.5.2-.5.6,0,.4,0,.6.4.7.2,0,.3,0,.4-.2h.3c-.1.3-.4.5-.7.5-.5,0-.7-.4-.6-.9,0-.5.4-.8.8-.8.3,0,.6.3.6.6h-.3s0,0,0,0Z"/>
      <path class="st0" d="M22.4,4.2c.2-.5.5-.7,1-.6.5.1.6.5.5,1-.2.5-.5.7-1,.6-.5-.1-.6-.5-.5-1h0ZM23.6,4.6c.1-.4,0-.7-.3-.7s-.6,0-.7.5c-.1.4,0,.7.3.7.3,0,.5,0,.7-.5h0Z"/>
      <path class="st0" d="M25,4.2l.3.2v1.2c0,0-.1.2-.1.2h.1c0-.1.9-1,.9-1l.3.2-.7,1.5h-.2c0-.1.6-1.3.6-1.3l-.3.3-.8.7h-.2c0,0,0-1.1,0-1.1v-.4c0,0-.5,1.2-.5,1.2h-.2c0-.1.7-1.6.7-1.6Z"/>
      <path class="st0" d="M27.4,5.5l.5.3c.3.2.4.5.2.8-.2.3-.5.3-.8,0l-.3-.2-.3.5-.2-.2.9-1.3h0ZM27.5,5.9l-.4.5.2.2c.2.1.4,0,.5,0,.1-.2,0-.3,0-.5l-.2-.2h0Z"/>
      <path class="st0" d="M28.8,8.3l-.5-.5-.4.2-.2-.2,1.6-.8.2.2-.7,1.6-.2-.2.2-.4h0ZM28.4,7.7l.4.4.3-.6v-.2c0,0,0,0,0,0,0,0-.6.3-.6.3Z"/>
      <path class="st0" d="M30.5,8.3l.2.2-.4,1.2v.2c0,0,.9-.8.9-.8l.2.2-1.3,1-.2-.2.4-1.2v-.2c0,0-.9.8-.9.8l-.2-.2,1.3-1h0Z"/>
      <path class="st0" d="M31.2,11l.6-1,.2.3-.4.6h-.1c0,.1.2.1.2.1h.7s.1.2.1.2h-1.2c0,0-.5.4-.5.4v-.2c-.1,0,.4-.3.4-.3h0Z"/>
    </g>
    <g>
      <path class="st0" d="M10.2,29.2c.6.5.6,1.2-.1,2-.7.8-1.4.8-2,.3-.4-.4-.6-.9-.3-1.5l.5.5c-.1.2,0,.4.1.6.2.2.6.2.9-.2-.2,0-.4,0-.6-.2-.5-.5-.6-1-.2-1.5.4-.5,1-.4,1.6,0h0ZM9.2,29.7c-.2.2-.2.5,0,.7.2.2.5.2.7,0,.2-.2.2-.5,0-.6-.2-.2-.5-.2-.6,0Z"/>
      <path class="st0" d="M10.3,31.4c.5-.9,1.2-1.1,1.9-.7.7.4.7,1.1.2,2-.5.9-1.2,1.1-1.9.7-.7-.4-.7-1.1-.2-2h0ZM11.8,32.3c.3-.5.4-.9,0-1.1-.3-.2-.6,0-.9.6-.3.5-.4.9,0,1.1.3.2.6,0,.9-.6Z"/>
      <path class="st0" d="M12.8,32.9c.3-.9,1-1.3,1.7-1.1s1,1,.6,1.9c-.3.9-1,1.3-1.7,1.1-.7-.3-1-1-.6-1.9h0ZM14.4,33.4c.2-.6.2-1-.1-1.1-.3-.1-.6.2-.8.8-.2.6-.2,1,.1,1.1.3.1.6-.2.8-.8h0Z"/>
      <path class="st0" d="M15.7,34.8h.5c0,0,.3-1.5.3-1.5h-.5c0,0,0-.6,0-.6h.2c.4,0,.5,0,.5-.1h0s.6,0,.6,0l-.4,2.4h.6c0,0,0,.6,0,.6l-1.8-.3v-.5c0,0,0,0,0,0Z"/>
      <path class="st0" d="M18.4,35.3c0-.2.2-.4.4-.4s.4.2.4.4c0,.2-.2.4-.4.4s-.4-.2-.4-.4ZM18.4,33.7c0-.2.2-.4.4-.4s.4.2.4.4c0,.2-.2.4-.4.4s-.4-.2-.4-.4Z"/>
      <path class="st0" d="M20,35.5c-.2-1.3,1.4-1.5,1.3-2.1,0-.2-.2-.4-.4-.3-.3,0-.4.2-.4.5h-.7c0-.5.4-.9,1.1-1,.7,0,1.2.3,1.2.8.1.9-1.1,1.1-1.3,1.8l1.5-.2v.5c0,0-2.2.3-2.2.3v-.2s0,0,0,0Z"/>
      <path class="st0" d="M22.5,33.8c-.3-.9,0-1.6.7-1.9.7-.2,1.4.2,1.7,1.1.3.9,0,1.6-.7,1.9-.7.2-1.4-.2-1.7-1.1h0ZM24.2,33.3c-.2-.6-.5-.9-.8-.8-.3.1-.4.5-.2,1.1.2.6.5.9.8.8s.4-.5.2-1.1h0Z"/>
      <path class="st0" d="M26,33.5l.5-.3-.8-1.4-.5.3-.3-.5h.2c.3-.3.4-.4.3-.6h0s.5-.3.5-.3l1.2,2.1.5-.3.3.5-1.6.9-.3-.5h0Z"/>
      <path class="st0" d="M29.6,31.8c-.5.4-1.1.5-1.6,0l.5-.5c.2.2.4.2.6,0,.2-.2.2-.4,0-.7-.2-.2-.4-.3-.7,0-.2.1-.2.3-.2.5l-.5.4-1-1.3,1.6-1.3.4.4-1.1.9.3.4c0-.2.2-.3.3-.4.6-.5,1.2-.4,1.6,0,.4.5.4,1.1-.2,1.6h0Z"/>
    </g>
  </g>
  <path class="st0" d="M18.2,14.2c.4,0,.6,0,1.7,0h1.3v2.8h-2.3v-.3s0-.3,0-.3h-.2c-.5-.2-1.1-.3-1.7-.3-.7,0-1,0-1.2.2-.3.2-.3.6,0,.8.3.3.6.3,2,.5,1.2.2,1.7.2,2.2.5.3.1.6.3.9.5.3.3.6.7.7,1.2,0,.4.1,1,0,1.4-.1.6-.3,1.1-.8,1.5-.5.4-1,.7-1.9.9-.9.2-2.2.2-3.4,0-.4,0-.7,0-1.7,0h-1.2v-2.8h2.3v.6h.1c.3.2,1,.3,1.7.4,1.2,0,1.8-.2,1.8-.7,0-.2,0-.3-.2-.4-.3-.2-.6-.3-1.7-.4-1.4-.2-1.9-.3-2.5-.6-.9-.4-1.4-1.1-1.5-2.2,0-.6,0-1.1.3-1.6.5-1,1.6-1.6,3.4-1.8.4,0,1.6,0,2,0h0ZM11.8,15.5v1.2h-1.5v4.7h1.5v2.3h-3s-3,0-3,0v-1.2s0-1.2,0-1.2h1.5v-4.7h-.8s-.8,0-.8,0v-1.2s0-1.2,0-1.2h6.1v1.2h0ZM27.8,12.9c-1.5-2.1-3.6-3.6-6-4.3-.8-.2-1.7-.4-2.4-.4-.2,0-.4,0-.5,0-.2,0-1.1,0-1.4,0-1.3.2-2.4.5-3.5,1-1.5.7-2.7,1.7-3.7,3-.2.3-.7.9-.7.9s.2,0,.4,0h.4l.2-.2c.3-.5,1-1.2,1.5-1.6h.1c0-.1.5,0,.5,0,.8.2,1.8.4,2.5.5.2,0,.3,0,.3,0,0,0,0,.1,0,.3-.1.4-.3.9-.3,1s0,0,.3,0h.3v-.3c.2-.3.3-.9.4-.9,0,0,.2,0,.4,0,.9,0,2.2.1,3.1,0,.5,0,1,0,1.2,0,.2,0,.4,0,.4,0,0,0,.1.4.2.7,0,0,0,.3,0,.3v.2h.4c.2,0,.3,0,.3,0,0,0-.2-.6-.3-.9,0-.1,0-.3,0-.3s.2,0,.4,0c.9-.1,1.8-.3,2.6-.5h.4c0-.1.2,0,.2,0,.4.4,1.1,1.1,1.4,1.6v.2h.5c.3,0,.4,0,.4,0s0-.1-.1-.2h0ZM15.9,11v.3c-.1,0-.2,0-.2,0-.5,0-1.8-.3-2.4-.4-.2,0-.4,0-.4,0,0,0,0,0,.3-.3,1.2-.8,2.4-1.3,3.8-1.6,0,0,.1,0,.2,0,0,0,0,0,0,0-.4.4-.9,1.2-1.2,2h0ZM19.9,11.4c-.9,0-2.6,0-3.3,0-.1,0-.1,0-.1,0,0,0,.1-.2.2-.5.5-1.1,1.1-1.7,1.7-1.9.4-.1.7,0,1.1.2.3.2.7.6,1,1.2.2.3.6,1.1.6,1.1s-.1,0-1.2.1h0ZM22,11.3h-.2s0-.2,0-.2c-.1-.3-.4-.9-.6-1.2-.2-.2-.5-.7-.6-.9-.1-.1-.1-.1.3,0,1.2.3,2.5.8,3.6,1.5.2.1.4.3.4.3,0,0-2,.4-2.8.5h0ZM30.9,15.5c-.7-.7-1.7-1.2-2.8-1.3-.3,0-1.4,0-1.6,0-.8,0-1.4.2-2,.5-1.4.7-2.3,1.9-2.5,3.5,0,.3,0,1.2,0,1.5,0,.8.3,1.5.8,2.1.3.5.9,1.1,1.5,1.4.9.5,2.1.7,3.2.6,2.2-.1,3.8-1.2,4.5-3.1.2-.5.3-1.1.3-1.8,0-1.4-.4-2.6-1.3-3.5h0ZM28.4,21.1c-.3.3-.6.5-1.2.5-1.1,0-1.7-.5-2-1.6,0-.4,0-1.3,0-1.7.2-1.1.7-1.7,1.5-1.9.2,0,.7,0,.9,0,.4,0,.7.3,1,.7.3.5.4,1,.4,1.9,0,1.1-.2,1.7-.6,2.2h0ZM27.6,24.8h-.4l-.2.3c-.1.2-.4.4-.5.6-.3.3-.8.9-1,1,0,0,0,0-.5,0-.7-.2-1.7-.4-2.4-.5-.2,0-.4,0-.4,0h0s0-.2,0-.2c0-.2.3-1,.3-1.1s-.1,0-.3,0h-.3s0,.3,0,.3c0,.2-.1.4-.2.6v.3h-.3c0,0-.4,0-.8,0-1,0-3.2,0-4.1,0h-.1s-.1-.3-.1-.3c0-.2-.1-.5-.2-.6v-.3h-.4c-.3,0-.3,0-.3,0s.2.6.3,1c0,.1,0,.3,0,.3,0,0-.2,0-.5,0-.8.1-1.7.3-2.5.5h-.4c0,.1-.1,0-.1,0-.4-.4-1.1-1.2-1.5-1.6h0c0-.1-.4-.1-.4-.1-.3,0-.4,0-.4,0,.3.6,1.1,1.5,1.7,2,1.8,1.6,3.8,2.6,6.2,2.9.5,0,1.9,0,2.4,0,3-.3,5.6-1.8,7.4-4.2.2-.3.5-.8.5-.8s-.2,0-.4,0h0ZM17.2,29.1s-.2,0-.4,0c-1-.2-2-.6-2.8-1.1-.3-.2-1-.6-1.1-.7,0,0,0,0,.4-.1.6-.1,1-.2,1.7-.3.3,0,.5,0,.6,0,0,0,.1,0,.2,0h0s.1.3.1.3c.3.7.7,1.4,1.2,1.9,0,0,.1.2.1.2h0ZM19.4,29.1c-.3.1-.4.2-.7.2-.2,0-.4,0-.6-.2-.4-.2-.7-.7-1.1-1.3-.2-.3-.5-1-.5-1,0,0,.5,0,1.2,0,.3,0,2.4,0,2.9,0,.5,0,.6,0,.6,0,0,0-.5,1-.7,1.3-.3.4-.7.9-1,1h0ZM24.6,27.4c-.8.5-1.9,1.1-2.7,1.3-.5.2-1.4.4-1.4.3,0,0,0,0,.1-.2.2-.2.4-.5.6-.8.2-.3.5-.9.6-1.2,0-.1,0-.2.2-.2,0,0,.3,0,.5,0,.7,0,1.5.2,2.2.4h.1s-.2.2-.2.2h0Z"/>
</svg>