<?xml version="1.0" encoding="UTF-8"?>
<svg id="Layer_1" xmlns="http://www.w3.org/2000/svg" version="1.1" xmlns:xlink="http://www.w3.org/1999/xlink" viewBox="0 0 957.5 970">
  <!-- Generator: Adobe Illustrator 29.3.1, SVG Export Plug-In . SVG Version: 2.1.0 Build 151)  -->
  <defs>
    <style>
      .st0 {
        fill: url(#linear-gradient2);
      }

      .st1 {
        fill: url(#linear-gradient1);
      }

      .st2 {
        fill: url(#linear-gradient);
      }
    </style>
    <linearGradient id="linear-gradient" x1="283.5" y1="486.5" x2="961.7" y2="645.2" gradientUnits="userSpaceOnUse">
      <stop offset="0" stop-color="#684de8"/>
      <stop offset="1" stop-color="#ea4b8b"/>
    </linearGradient>
    <linearGradient id="linear-gradient1" x1="68.3" y1="156.7" x2="491" y2="596.3" xlink:href="#linear-gradient"/>
    <linearGradient id="linear-gradient2" x1="252.6" y1="246.7" x2="1133.9" y2="452.6" gradientUnits="userSpaceOnUse">
      <stop offset="0" stop-color="#684de8"/>
      <stop offset="1" stop-color="#ea4b8b"/>
    </linearGradient>
  </defs>
  <path class="st2" d="M259.8,382.7c-2,94.2,11.9,188.3,41.2,278.2,37.4,114.8,99.1,220.3,180.8,309.2,153.1-71,280.2-187.2,364.6-333.5,42.1-72.9,72.8-152,90.8-234.3,14.1-64.3,20.3-129.9,18.7-195.6-81.4,221-252.5,398.8-472.6,487.9l-6.2,2.5-5.3-4c-103.4-77.5-177.7-187.2-212-310.4h0Z"/>
  <path class="st1" d="M430.9,947.3c-67.5-82.7-119.2-177.4-152.4-279.2-39.3-120.8-51.6-248.9-35.9-375l.8-6.7,6.2-2.7c114.8-49.2,241.7-59.7,361.8-31.7-78.4-42.4-162.7-73.5-250.2-92-117.1-24.8-238.6-26.7-356.4-5.7-7.4,82.9-2.1,166.5,15.7,247.8,18,82.2,48.7,161.4,90.8,234.3,76,131.6,186.5,238.9,319.5,310.8h0Z"/>
  <path class="st0" d="M549.6,637.7c192.8-101.9,337.8-277.6,400.5-488.6C679.8-41,323-49.3,45.1,124.3c106.8-13.9,215.6-9.7,321.1,12.7,123.3,26.1,240.2,76.4,343.9,148l5.9,4-.9,7.1c-15.6,129.7-74.5,250-165.5,341.6Z"/>
</svg>